<?xml version="1.0" encoding="UTF-8" standalone="no"?>
<svg width="41px" height="40px" viewBox="0 0 41 40" version="1.1" xmlns="http://www.w3.org/2000/svg" xmlns:xlink="http://www.w3.org/1999/xlink">
    <!-- Generator: Sketch 3.6.1 (26313) - http://www.bohemiancoding.com/sketch -->
    <title>instagram</title>
    <desc>Created with Sketch.</desc>
    <defs></defs>
    <g id="Page-1" stroke="none" stroke-width="1" fill="none" fill-rule="evenodd">
        <g id="instagram">
            <g id="Instagram-Copy">
                <g id="www">
                    <g id="Instagram-Copy">
                        <path d="M0.532755299,20 C0.532755299,8.95430446 9.4999995,0 20.561657,0 C31.6233146,0 40.5905588,8.95430446 40.5905588,20 C40.5905588,31.0456955 31.6233146,40 20.561657,40 C9.4999995,40 0.532755299,31.0456955 0.532755299,20 L0.532755299,20 Z" id="Instagram" fill="#FFFFFF"></path>
                        <path d="M29.0271368,30.1145278 C29.8588963,29.9382518 30.5385543,29.2453446 30.7011255,28.4098484 C30.718575,28.3195324 30.7313713,28.2277643 30.7462034,28.1371578 L30.7462034,11.8628422 C30.731953,11.7736877 30.7197383,11.6842429 30.7022888,11.5953789 C30.5240131,10.6837965 29.7710671,9.97636905 28.8465344,9.85004273 C28.8081455,9.84510584 28.7706291,9.83668408 28.7328219,9.83000476 L12.3904922,9.83000476 C12.2919025,9.84771949 12.1927312,9.86107813 12.0955956,9.88314894 C11.1931657,10.0884655 10.5254314,10.8141885 10.3968868,11.7272229 C10.3916519,11.765266 10.3837997,11.8030187 10.3771107,11.8410618 L10.3771107,28.1598094 C10.3957235,28.2631937 10.4105556,28.3674493 10.4338216,28.4702527 C10.6333275,29.3513426 11.3865643,30.0343759 12.2825961,30.1493765 C12.3259291,30.1546038 12.3695528,30.1630255 12.4128857,30.1699952 L28.7104283,30.1699952 C28.8162886,30.1519901 28.9224398,30.1371794 29.0271368,30.1145278 L29.0271368,30.1145278 Z M12.5806918,18.1321128 C12.5806918,21.1421642 12.5804009,24.1522156 12.5809826,27.1622671 C12.5809826,27.5952614 12.9564377,27.9675611 13.3900578,27.9675611 C18.1700576,27.9678515 22.9497666,27.9678515 27.7297664,27.9675611 C28.167458,27.9675611 28.5408774,27.5958422 28.5408774,27.1596534 C28.5411682,24.1530869 28.5408774,21.1468107 28.5408774,18.1405346 L28.5408774,18.0780974 L26.5964214,18.0780974 C26.8709602,18.9542503 26.9552994,19.8455044 26.8476942,20.7538923 C26.7395073,21.6625706 26.4463556,22.508231 25.968821,23.289131 C25.4909955,24.0709021 24.8715382,24.7185061 24.1130666,25.2339756 C22.1470896,26.5710018 19.558747,26.6886159 17.4726592,25.519444 C16.4181277,24.9290499 15.5901489,24.1057508 15.0128613,23.0449001 C14.1517285,21.4619005 14.0141682,19.8004915 14.5193313,18.0766454 C13.8742814,18.0772262 13.231849,18.0772262 12.5806918,18.0772262 L12.5806918,18.1321128 L12.5806918,18.1321128 Z M16.4344139,19.9375629 C16.4018415,22.2436717 18.2506161,24.0717734 20.4669935,24.1193998 C22.7732358,24.1687688 24.6385874,22.3287605 24.6871552,20.0908969 C24.7368863,17.7830456 22.872698,15.8768249 20.5618024,15.8782769 C18.3026738,15.8768249 16.4661139,17.6918583 16.4344139,19.9375629 L16.4344139,19.9375629 Z M27.7579764,15.046556 C28.1892699,15.035811 28.5405865,14.6667058 28.5405865,14.2354539 C28.5408774,13.5933676 28.5408774,12.950991 28.5405865,12.3089048 C28.5405865,11.8483219 28.1756011,11.4818304 27.7149343,11.48154 C27.0736652,11.4812496 26.432396,11.4809592 25.7908361,11.48154 C25.3313326,11.4821208 24.9651839,11.8494835 24.9648931,12.3100664 C24.9646022,12.9466349 24.9628573,13.5832035 24.9672197,14.2200624 C24.9678013,14.3150249 24.9858325,14.4137628 25.0160783,14.5037884 C25.131245,14.8426914 25.4421369,15.0506217 25.8228268,15.0523641 C26.1322646,15.0529449 26.4417024,15.0520737 26.7514311,15.0520737 C27.0864615,15.0482984 27.4226552,15.0546874 27.7579764,15.046556 L27.7579764,15.046556 Z" id="Path" fill="#2B2C3D"></path>
                    </g>
                </g>
            </g>
        </g>
    </g>
</svg>