<?xml version="1.0" encoding="UTF-8" standalone="no"?>
<svg width="41px" height="40px" viewBox="0 0 41 40" version="1.1" xmlns="http://www.w3.org/2000/svg" xmlns:xlink="http://www.w3.org/1999/xlink">
    <!-- Generator: Sketch 3.6.1 (26313) - http://www.bohemiancoding.com/sketch -->
    <title>Facebook Copy</title>
    <desc>Created with Sketch.</desc>
    <defs></defs>
    <g id="www" stroke="none" stroke-width="1" fill="none" fill-rule="evenodd">
        <g id="Facebook-Copy">
            <path d="M0.0761078998,20 C0.0761078998,8.95430446 9.0433521,0 20.1050096,0 C31.1666672,0 40.1339114,8.95430446 40.1339114,20 C40.1339114,31.0456955 31.1666672,40 20.1050096,40 C9.0433521,40 0.0761078998,31.0456955 0.0761078998,20 Z" id="Facebook" fill="#3B5998"></path>
            <path d="M21.7798099,30.879782 L21.7798099,19.998726 L24.7834572,19.998726 L25.1815053,16.2490539 L21.7798099,16.2490539 L21.784913,14.3723069 C21.784913,13.3943347 21.8778335,12.8703148 23.2824841,12.8703148 L25.1602421,12.8703148 L25.1602421,9.12021803 L22.1561695,9.12021803 C18.5477952,9.12021803 17.277741,10.9392124 17.277741,13.998189 L17.277741,16.2494786 L15.028514,16.2494786 L15.028514,19.9991507 L17.277741,19.9991507 L17.277741,30.879782 L21.7798099,30.879782 Z" id="Path" fill="#FFFFFF"></path>
        </g>
    </g>
</svg>