<?xml version="1.0" standalone="no"?><!DOCTYPE svg PUBLIC "-//W3C//DTD SVG 1.1//EN" "http://www.w3.org/Graphics/SVG/1.1/DTD/svg11.dtd"><svg width="100%" height="100%" viewBox="0 0 57 56" version="1.1" xmlns="http://www.w3.org/2000/svg" xmlns:xlink="http://www.w3.org/1999/xlink" xml:space="preserve" style="fill-rule:evenodd;clip-rule:evenodd;stroke-linejoin:round;stroke-miterlimit:1.41421;"><path d="M14.757,36.534c8.925,10.801 30.675,21.149 35.925,18.825c5.25,-2.325 6.375,-7.352 6.149,-9.676c-0.227,-2.324 -12.149,-9.449 -15.149,-10.801c-3,-1.351 -6.449,3 -8.101,4.875c-1.727,1.801 -8.324,-3.676 -11.176,-6.449c0,0 -7.5,-8.399 -5.773,-10.199c1.726,-1.801 6,-5.399 4.5,-8.325c-1.5,-2.925 -9.079,-14.625 -11.477,-14.773c-2.324,-0.148 -7.273,1.199 -9.375,6.523c-2.102,5.325 7.949,25.649 19.125,34.125" style="fill:#2b2c3d;fill-rule:nonzero;"/></svg>