<?xml version="1.0" encoding="UTF-8" standalone="no"?>
<svg width="130px" height="44px" viewBox="0 0 130 44" version="1.1" xmlns="http://www.w3.org/2000/svg" xmlns:xlink="http://www.w3.org/1999/xlink">
    <!-- Generator: Sketch 3.6.1 (26313) - http://www.bohemiancoding.com/sketch -->
    <title>Play Store Copy 2</title>
    <desc>Created with Sketch.</desc>
    <defs>
        <linearGradient x1="58.9170878%" y1="9.59026547%" x2="90.8103723%" y2="60.8514694%" id="linearGradient-1">
            <stop stop-color="#FF177B" offset="0%"></stop>
            <stop stop-color="#FFEC73" offset="100%"></stop>
        </linearGradient>
        <linearGradient x1="37.1029741%" y1="-44.0352456%" x2="0%" y2="101.060094%" id="linearGradient-2">
            <stop stop-color="#064AA2" offset="0%"></stop>
            <stop stop-color="#63FFD4" offset="100%"></stop>
        </linearGradient>
        <path id="path-3" d="M12.2342586,11.176 L0.440081246,0 C0.164923311,0.0639044431 0,0.269687439 0,0.616 L0,11.176 L0,22 C0,22.2938203 0.118467369,22.4686362 0.264048747,22.528 L12.2342586,11.176 Z"></path>
        <path id="path-5" d="M0.487114538,11.2450974 L7.30415588,7.50095148 C8.9828699,6.57092381 10.3151392,5.83282419 10.3151392,5.83282419 L15.272597,3.16313108 L11.9721489,-0.0432990931 L0.00207864044,11.3101135 C0.135496129,11.3530144 0.370648399,11.3295647 0.554104757,11.239036"></path>
        <linearGradient x1="78.6453125%" y1="50%" x2="2.49516972%" y2="100%" id="linearGradient-7">
            <stop stop-color="#FF4521" offset="0%"></stop>
            <stop stop-color="#8A33DB" offset="100%"></stop>
        </linearGradient>
        <linearGradient x1="0%" y1="-24.1863374%" x2="64.2244373%" y2="100%" id="linearGradient-8">
            <stop stop-color="#00A3B5" offset="0%"></stop>
            <stop stop-color="#D6FFA1" offset="100%"></stop>
        </linearGradient>
        <path id="path-9" d="M0.627469938,0.100924935 C0.400422061,-0.020653849 0.174832541,-0.0554331743 -0.00765434102,-0.00627808984 L11.796315,11.1859795 L15.0619541,8.09617736 L10.1394719,5.36998512 C10.1394719,5.36998512 5.49987283,2.79990682 2.69845566,1.24804273 L0.627469938,0.100924935 Z"></path>
    </defs>
    <g id="www" stroke="none" stroke-width="1" fill="none" fill-rule="evenodd">
        <g id="Play-Store-Copy-2">
            <g id="Play-Store">
                <rect id="background" fill="#000000" x="0" y="0" width="130" height="44" rx="5.28"></rect>
                <g id="icon" transform="translate(5.280975, 15.752000)">
                    <path d="M10.5777271,5.36998512 C10.5777271,5.36998512 1.60839652,0.401477829 1.08161379,0.109573643 C0.553954551,-0.182330543 0.028924842,-0.00525953488 0.028924842,0.604846512 L0.028924842,11.2115752 L0.028924842,22.0339448 C0.028924842,22.4906478 0.404071278,22.6887569 0.862486199,22.4354226 C1.32002461,22.1820884 10.5777271,17.0531653 10.5777271,17.0531653 L12.4641912,16.0087308 C13.4761973,15.4484371 15.5002093,14.3278496 15.5002093,14.3278496 C15.5002093,14.3278496 19.6767812,12.0136543 20.2324888,11.7068481 C20.7873198,11.3991653 20.7338527,10.9775259 20.2657961,10.7347107 C19.7968631,10.4927721 15.5002093,8.09617736 15.5002093,8.09617736 L10.5777271,5.36998512 Z" id="orange" fill="url(#linearGradient-1)"></path>
                    <g id="blue">
                        <mask id="mask-4" fill="white">
                            <use xlink:href="#path-3"></use>
                        </mask>
                        <use id="Clip-2" fill="url(#linearGradient-2)" xlink:href="#path-3"></use>
                        <path d="M15.4908599,8.096 L10.5619499,5.368 C10.5446883,5.4076961 1.57885569,0.430063235 1.05619499,0.176 C0.52482495,-0.154817409 0,0.0225788222 0,0.616 L0,11.264 C0,11.2600153 0,21.6438422 0,22.088 C0,22.559804 0.375000131,22.758277 0.792146242,22.528 C1.29059625,22.2506779 10.5446883,17.1123346 10.5619499,17.072 L15.4908599,14.344 C15.4652507,14.3820134 19.6401938,12.0635676 20.1557211,11.792 C20.7502993,11.44795 20.696853,11.0255362 20.2437373,10.824 C19.7602289,10.539892 15.4652507,8.1388955 15.4908599,8.096" id="Fill-1" mask="url(#mask-4)"></path>
                    </g>
                    <g id="red" transform="translate(0.262588, 11.220341)">
                        <mask id="mask-6" fill="white">
                            <use xlink:href="#path-5"></use>
                        </mask>
                        <g id="Clip-8"></g>
                        <path d="M10.299362,-5.85234109 C10.2821004,-5.81264499 1.3162678,-10.7902779 0.793607093,-11.0443411 C0.262237053,-11.3751585 -0.262587897,-11.1977623 -0.262587897,-10.6043411 L-0.262587897,0.0436589147 C-0.262587897,0.0396742439 -0.262587897,10.4235012 -0.262587897,10.8676589 C-0.262587897,11.3394629 0.112412234,11.5379359 0.529558346,11.3076589 C1.02800835,11.0303368 10.2821004,5.89199348 10.299362,5.85165891 L15.228272,3.12365891 C15.2026628,3.16167227 19.3776059,0.843226479 19.8931332,0.571658915 C20.4877114,0.227608865 20.4342651,-0.194804933 19.9811494,-0.396341085 C19.497641,-0.680449071 15.2026628,-3.08144559 15.228272,-3.12434109 L10.299362,-5.85234109 Z" id="Fill-7" fill="url(#linearGradient-7)" mask="url(#mask-6)"></path>
                    </g>
                    <g id="green" transform="translate(0.438255, 0.000000)">
                        <mask id="mask-10" fill="white">
                            <use xlink:href="#path-9"></use>
                        </mask>
                        <use id="Clip-5" fill="url(#linearGradient-8)" xlink:href="#path-9"></use>
                        <path d="M15.0526047,8.096 L10.1236947,5.368 C10.1064331,5.4076961 1.14060051,0.430063235 0.617939807,0.176 C0.0865697675,-0.154817409 -0.438255183,0.0225788222 -0.438255183,0.616 L-0.438255183,11.264 C-0.438255183,11.2600153 -0.438255183,21.6438422 -0.438255183,22.088 C-0.438255183,22.559804 -0.0632550513,22.758277 0.35389106,22.528 C0.852341063,22.2506779 10.1064331,17.1123346 10.1236947,17.072 L15.0526047,14.344 C15.0269956,14.3820134 19.2019386,12.0635676 19.7174659,11.792 C20.3120441,11.44795 20.2585979,11.0255362 19.8054821,10.824 C19.3219737,10.539892 15.0269956,8.1388955 15.0526047,8.096" id="Fill-4" mask="url(#mask-10)"></path>
                    </g>
                </g>
                <g id="Google-play" transform="translate(30.541638, 17.688000)" fill="#FFFFFF">
                    <path d="M58.4969432,13.0125425 L57.5222779,13.9374724 C57.29703,14.0619705 57.0729898,14.2065098 56.8495535,14.3091449 C56.172602,14.6182646 55.4841767,14.696 54.8724444,14.696 C54.2214597,14.696 53.2008994,14.6534884 52.1598071,13.8961755 C50.7135101,12.8716471 50.0812458,11.1104541 50.0812458,9.57578705 C50.0812458,6.39835209 52.6531786,4.84 54.7510641,4.84 C55.4841767,4.84 56.2372173,5.0246216 56.8495535,5.41390597 C57.8676983,6.09105429 58.1309908,6.97104344 58.2771302,7.44231438 L53.4865355,9.38873621 L51.9176505,9.51141241 C52.4255151,12.1167633 54.1779802,13.6319965 56.1146293,13.6319965 C57.082048,13.6319965 57.8000635,13.3143745 58.4588986,12.9870356 C58.4588986,12.9870356 58.5911488,12.9178025 58.4969432,13.0125425 L58.4969432,13.0125425 Z M55.5698947,7.78602316 C55.9543688,7.64295692 56.154367,7.5194553 56.154367,7.23210005 C56.154367,6.40794071 55.2439276,5.456 54.1573704,5.456 C53.3526016,5.456 51.8415708,6.09796387 51.8415708,8.32710699 C51.8415708,8.67499027 51.8821674,9.04549514 51.9024657,9.416 L55.5698947,7.78602316 L55.5698947,7.78602316 Z" id="Fill-1"></path>
                    <path d="M48.4992524,12.9010763 C48.4992524,13.6953149 48.6400981,13.8189035 49.3076106,13.8813037 C49.6555116,13.9224999 50.0022088,13.9406747 50.3452945,13.9818709 L49.5941173,14.432 L46.0145892,14.432 C46.4840749,13.8189035 46.5647302,13.7577151 46.5647302,13.349388 L46.5647302,12.8932006 L46.5569054,0.737896734 L44.9763033,0.737896734 L46.4979188,0 L49.4027115,0 C48.7731191,0.367130887 48.5847229,0.590680883 48.5040676,1.30616204 L48.4992524,12.9010763" id="Fill-2"></path>
                    <path d="M42.9456905,5.84300288 C43.4114022,6.2288593 44.3830872,7.04781986 44.3830872,8.60093739 C44.3830872,10.1146818 43.5363932,10.8282436 42.6824883,11.5036438 C42.4204879,11.7695637 42.1140195,12.0578959 42.1140195,12.5037206 C42.1140195,12.9562084 42.4204879,13.2015332 42.6410249,13.3844667 L43.3735444,13.9544681 C44.2641053,14.7122489 45.075946,15.4070327 45.075946,16.8184071 C45.075946,18.7410261 43.2299249,20.68 39.7415939,20.68 C36.8031031,20.68 35.3825322,19.2692314 35.3825322,17.7566985 C35.3825322,17.0207243 35.7460878,15.9782456 36.9455208,15.2640781 C38.202642,14.4893365 39.9056446,14.385755 40.8178386,14.325181 C40.5330033,13.9544681 40.2079065,13.5661887 40.2079065,12.9325846 C40.2079065,12.5861013 40.3112644,12.3795439 40.4110169,12.1360364 C40.189278,12.1572373 39.9657364,12.1790439 39.762626,12.1790439 C37.6119392,12.1790439 36.3962814,10.561718 36.3962814,8.96801587 C36.3962814,8.02790729 36.8217316,6.9848229 37.6954669,6.2288593 C38.8516338,5.26936704 40.2301405,5.104 41.3256146,5.104 L45.5044008,5.104 L44.2052153,5.84300288 L42.9456905,5.84300288 L42.9456905,5.84300288 Z M41.5190344,14.8942001 C41.3512325,14.872 41.2506725,14.872 41.0483409,14.872 C40.8629713,14.872 39.7586287,14.9127003 38.9032629,15.2050022 C38.4507429,15.3733533 37.1428571,15.8710066 37.1428571,17.3491665 C37.1428571,18.8242429 38.5549376,19.888 40.7393915,19.888 C42.7021289,19.888 43.7440758,18.9303103 43.7440758,17.6408517 C43.7440758,16.5795613 43.0698392,16.0196243 41.5190344,14.8942001 L41.5190344,14.8942001 Z M42.0924698,10.957345 C42.5591773,10.486932 42.5998646,9.83717031 42.5998646,9.46820711 C42.5998646,8.00262009 41.7340623,5.72 40.0557103,5.72 C39.5321602,5.72 38.9649311,5.98509794 38.6430226,6.39512414 C38.3013688,6.81964317 38.1990521,7.37037056 38.1990521,7.89996257 C38.1990521,9.26470368 38.9876682,11.528 40.7222644,11.528 C41.2284625,11.528 41.7729546,11.2798104 42.0924698,10.957345 L42.0924698,10.957345 Z" id="Fill-3"></path>
                    <path d="M30.3072392,14.696 C27.0770093,14.696 25.3486798,12.1482859 25.3486798,9.84149762 C25.3486798,7.14617835 27.5214369,4.84 30.6119551,4.84 C33.5994962,4.84 35.4705484,7.20900204 35.4705484,9.6963322 C35.4705484,12.1257182 33.6211756,14.696 30.3072392,14.696 L30.3072392,14.696 Z M32.8334448,13.0297547 C33.3265292,12.3691462 33.4461747,11.5446088 33.4461747,10.7408684 C33.4461747,8.92297156 32.5905283,5.456 30.0616581,5.456 C29.3891056,5.456 28.7117188,5.72207845 28.2234686,6.1563674 C27.4270407,6.87875509 27.2850372,7.78648018 27.2850372,8.67707837 C27.2850372,10.7164014 28.2808743,14.08 30.7523388,14.08 C31.5499753,14.08 32.363927,13.6891399 32.8334448,13.0297547 L32.8334448,13.0297547 Z" id="Fill-4"></path>
                    <path d="M19.4808966,14.696 C16.2487185,14.696 14.5226811,12.1482859 14.5226811,9.84149762 C14.5226811,7.14617835 16.696946,4.84 19.7875469,4.84 C22.7745253,4.84 24.6445498,7.20900204 24.6445498,9.6963322 C24.6445498,12.1257182 22.7968162,14.696 19.4808966,14.696 L19.4808966,14.696 Z M22.0083547,13.0297547 C22.4980536,12.3691462 22.620176,11.5446088 22.620176,10.7408684 C22.620176,8.92297156 21.7616916,5.456 19.2339989,5.456 C18.5586981,5.456 17.8882339,5.72207845 17.398535,6.1563674 C16.6005072,6.87875509 16.4590386,7.78648018 16.4590386,8.67707837 C16.4590386,10.7164014 17.4595962,14.08 19.9280413,14.08 C20.7242554,14.08 21.5373974,13.6891399 22.0083547,13.0297547 L22.0083547,13.0297547 Z" id="Fill-5"></path>
                    <path d="M13.1826324,14.087076 L10.4465573,14.7175492 C9.33797513,14.8934245 8.34248892,15.048 7.28833797,15.048 C2.01093053,15.048 0,11.1391875 0,8.07993162 C0,4.34395155 2.84917104,0.88 7.72862592,0.88 C8.76100439,0.88 9.75407143,1.0327498 10.658839,1.28104429 C12.0927988,1.68634852 12.7635121,2.18598033 13.1826324,2.47870006 L11.5932413,3.99767811 L10.9231327,4.14860221 L11.4009177,3.38241897 C10.7537912,2.74646862 9.56416701,1.57254688 7.30648171,1.57254688 C4.28796915,1.57254688 2.01093053,3.88144221 2.01093053,7.25228332 C2.01093053,10.8726361 4.61092762,14.2781654 8.78096249,14.2781654 C10.0062693,14.2781654 10.6370665,14.0304794 11.2098037,13.7992248 L11.2098037,10.6955437 L8.32071644,10.8519448 L9.85204759,10.0242966 L13.9065674,10.0242966 L13.4106386,10.5044543 C13.2769798,10.6188645 13.2588361,10.6578126 13.221339,10.811171 C13.2013809,10.9864377 13.1826324,11.5438832 13.1826324,11.7398411 L13.1826324,14.087076" id="Fill-6"></path>
                    <path d="M64.4017019,13.1067001 L64.4017019,18.304 L63.3716994,18.304 L63.3716994,5.07885206 L64.4017019,5.07885206 L64.4017019,6.58513177 C65.0726819,5.61158286 66.2987892,4.84 67.7228115,4.84 C70.2770005,4.84 71.9972918,6.78165562 71.9972918,9.8552886 C71.9972918,12.9083622 70.2770005,14.8905319 67.7228115,14.8905319 C66.3784379,14.8905319 65.174053,14.1957445 64.4017019,13.1067001 L64.4017019,13.1067001 Z M70.9410968,9.93452848 C70.9410968,7.59353476 69.7316059,5.808 67.5869853,5.808 C66.2551523,5.808 64.9814621,6.86392199 64.4278944,7.7847984 L64.4278944,12.0628712 C64.9814621,12.9855809 66.2551523,14.08 67.5869853,14.08 C69.7316059,14.08 70.9410968,12.2791886 70.9410968,9.93452848 L70.9410968,9.93452848 Z" id="Fill-7"></path>
                    <path d="M73.4055518,1.408 L74.4617468,1.408 L74.4617468,14.696 L73.4055518,14.696 L73.4055518,1.408 Z" id="Fill-8"></path>
                    <path d="M85.9446346,17.3888965 C86.1648907,17.4874829 86.5408348,17.5479653 86.7791941,17.5479653 C87.409187,17.5479653 87.847889,17.2897052 88.2419363,16.3776298 L88.9932209,14.6714196 L84.9356804,5.016 L86.084633,5.016 L89.5652834,13.3831433 L93.0121411,5.016 L94.1773866,5.016 L89.2285631,16.697582 C88.7150344,17.9011829 87.9070262,18.48 86.7972974,18.48 C86.4641977,18.48 86.0248923,18.4207272 85.7678262,18.3414952 L85.9446346,17.3888965" id="Fill-9"></path>
                    <path d="M83.0378301,14.6828891 C82.9686465,14.3490566 82.9164553,14.0547489 82.8782223,13.8090872 C82.8466649,13.5640335 82.8284587,13.3135071 82.8284587,13.0587242 C82.4734376,13.5810595 81.9703394,14.0158322 81.3276602,14.3581777 C80.6843742,14.7029555 80.0732525,14.872 79.2351601,14.872 C78.2259293,14.872 77.4424554,14.6232979 76.8835248,14.1185967 C76.3264149,13.6145036 76.0460393,12.9316368 76.0460393,12.0675641 C76.0460393,11.2047075 76.4520377,10.5042066 77.2616071,9.96849364 C78.0711765,9.43034841 79.1174266,9.16279598 80.4124948,9.16279598 L82.8284587,9.16279598 L82.8284587,7.966715 C82.8284587,7.27776749 82.5942055,6.73597382 82.1263059,6.3431582 C81.6565857,5.94973451 80.997521,5.75089441 80.143043,5.75089441 C79.3619966,5.75089441 78.7284206,5.93270845 78.2459561,6.28660735 C77.7677397,6.64780313 77.5268109,7.09534538 77.5268109,7.63470675 L76.4666027,7.63470675 L76.4447552,7.58302049 C76.4065222,6.85576434 76.7384821,6.21789502 77.4442761,5.66698024 C78.1470357,5.11667354 79.0676629,4.84 80.200696,4.84 C81.3300877,4.84 82.2440394,5.11241702 82.9328409,5.65603491 C83.6210356,6.19418014 83.9663467,6.97190641 83.9663467,7.98860565 L83.9663467,12.7376613 C83.9663467,13.0787906 83.9827323,13.4083666 84.0252134,13.7294295 C84.0689083,14.0511005 84.1386988,14.3721634 84.2315504,14.6828891 L83.0378301,14.6828891 L83.0378301,14.6828891 Z M79.3597895,13.992 C80.2390045,13.992 80.8708267,13.7939694 81.516595,13.4021868 C82.1581188,13.0128489 82.5946945,12.5049372 82.8232905,11.8900645 L82.8232905,10.032 L80.3978696,10.032 C79.4713588,10.032 78.7043195,10.2385874 78.100996,10.6554295 C77.4964599,11.0710492 77.1902505,11.5740713 77.1902505,12.1589949 C77.1902505,12.7109134 77.3842842,13.1522037 77.7699261,13.4865331 C78.1567807,13.8245297 78.6855225,13.992 79.3597895,13.992 L79.3597895,13.992 Z" id="Fill-10"></path>
                </g>
                <g id="Get-it-on" transform="translate(30.189573, 7.040000)" fill="#FFFFFF">
                    <path d="M0.00373814186,3.10736863 C0.00373814186,1.21184281 1.51768559,-0.00747490347 3.40026743,-0.00747490347 C4.66199135,-0.00747490347 5.48717457,0.552553999 6.00132252,1.23834971 L5.07973657,1.73521322 C4.73050399,1.28346785 4.11874069,0.932110345 3.40026743,0.932110345 C2.119748,0.932110345 1.16845302,1.83447313 1.16845302,3.10736863 C1.16845302,4.3616529 2.119748,5.28262692 3.40026743,5.28262692 C4.06053526,5.28262692 4.64258954,5.00289445 4.93361669,4.74120925 L4.93361669,3.8112116 L2.99282943,3.8112116 L2.99282943,2.88121396 L6.05952795,2.88121396 L6.05952795,5.12922524 C5.42896914,5.78851405 4.51647778,6.23067181 3.40026743,6.23067181 C1.51768559,6.23067181 0.00373814186,4.9944348 0.00373814186,3.10736863" id="Fill-1"></path>
                    <path d="M7.5275982,6.13893436 L7.5275982,0.0842625483 L12.0235634,0.0842625483 L12.0235634,1.01993816 L8.67878655,1.01993816 L8.67878655,2.58053166 L11.9547256,2.58053166 L11.9547256,3.5156402 L8.67878655,3.5156402 L8.67878655,5.20382583 L12.0235634,5.20382583 L12.0235634,6.13893436 L7.5275982,6.13893436" id="Fill-2"></path>
                    <path d="M15.0811225,6.13893436 L15.0811225,1.01993816 L13.1246161,1.01993816 L13.1246161,0.0842625483 L18.1711076,0.0842625483 L18.1711076,1.01993816 L16.2146011,1.01993816 L16.2146011,6.13893436 L15.0811225,6.13893436" id="Fill-3"></path>
                    <path d="M22.2083008,0.0842625483 L23.3093535,0.0842625483 L23.3093535,6.13893436 L22.2083008,6.13893436 L22.2083008,0.0842625483 Z" id="Fill-4"></path>
                    <path d="M26.4592721,6.13893436 L26.4592721,1.01993816 L24.5021605,1.01993816 L24.5021605,0.0842625483 L29.548652,0.0842625483 L29.548652,1.01993816 L27.5927508,1.01993816 L27.5927508,6.13893436 L26.4592721,6.13893436" id="Fill-5"></path>
                    <path d="M33.3105821,3.11188085 C33.3105821,1.31244804 34.6953531,-0.00747490347 36.6599241,-0.00747490347 C38.6134513,-0.00747490347 40.0086526,1.31244804 40.0086526,3.11188085 C40.0086526,4.91074887 38.6134513,6.23067181 36.6599241,6.23067181 C34.6953531,6.23067181 33.3105821,4.91074887 33.3105821,3.11188085 L33.3105821,3.11188085 Z M38.8158455,3.06572973 C38.8158455,1.83103211 37.9673736,0.909899614 36.6599221,0.909899614 C35.3427181,0.909899614 34.5033892,1.83103211 34.5033892,3.06572973 C34.5033892,4.29092538 35.3427181,5.22155985 36.6599221,5.22155985 C37.9673736,5.22155985 38.8158455,4.29092538 38.8158455,3.06572973 L38.8158455,3.06572973 Z" id="Fill-6"></path>
                    <path d="M45.7958734,6.13893436 L42.4256846,1.80930813 L42.4256846,6.13893436 L41.2932141,6.13893436 L41.2932141,0.0842625483 L42.4553273,0.0842625483 L45.7571565,4.27835759 L45.7571565,0.0842625483 L46.8902319,0.0842625483 L46.8902319,6.13893436 L45.7958734,6.13893436" id="Fill-7"></path>
                </g>
            </g>
        </g>
    </g>
</svg>