<?xml version="1.0" encoding="UTF-8" standalone="no"?>
<svg width="275px" height="44px" viewBox="0 0 275 44" version="1.1" xmlns="http://www.w3.org/2000/svg" xmlns:xlink="http://www.w3.org/1999/xlink">
    <!-- Generator: Sketch 3.7 (28169) - http://www.bohemiancoding.com/sketch -->
    <title>use-app-in-browser-button</title>
    <desc>Created with Sketch.</desc>
    <defs></defs>
    <g id="yepstr.com" stroke="none" stroke-width="1" fill="none" fill-rule="evenodd">
        <g id="use-app-in-browser-button">
            <rect id="Rectangle-36" fill="#000000" x="0" y="0" width="275" height="44" rx="8"></rect>
            <path d="M38.86848,28.6 L37.28,28.6 L37.28,13.9333333 C37.28,11 40.19328,11 40.19328,11 L63.4948267,11 C63.4948267,11 66.4085333,11 66.4085333,13.9333333 L66.4085333,28.6 L64.78848,28.6 L64.78848,13.9282133 C64.78848,12.6 63.34848,12.6 63.34848,12.6 L40.30848,12.6 C40.30848,12.6 38.86848,12.6 38.86848,13.9282133 L38.86848,28.6 Z M37.41184,29.24 C37.41184,29.24 36,29.24 36,30.68 C36,32.12 37.41184,32.12 37.41184,32.12 L66.5399467,32.12 C66.5399467,32.12 68,32.12 68,30.68 C68,29.24 66.5399467,29.24 66.5399467,29.24 L37.41184,29.24 Z M49.0333867,29.88 C49.0333867,29.88 48.2965333,29.88 48.2965333,30.68 C48.2965333,31.48 49.0333867,31.48 49.0333867,31.48 L54.9201067,31.48 C54.9201067,31.48 55.6565333,31.48 55.6565333,30.68 C55.6565333,29.88 54.9201067,29.88 54.9201067,29.88 L49.0333867,29.88 Z" id="Page-1" fill="#FFFFFF"></path>
            <path d="M80.637,15.04 L80.637,28 L84.399,28 C87.783,28 89.637,26.38 89.637,21.52 C89.637,16.642 87.783,15.04 84.399,15.04 L80.637,15.04 Z M81.969,26.866 L81.969,16.174 L84.291,16.174 C86.757,16.174 88.215,17.182 88.215,21.52 C88.215,25.84 86.757,26.866 84.291,26.866 L81.969,26.866 Z M93.615,15.166 C93.615,15.166 93.363,15.076 92.877,15.076 C92.373,15.076 92.139,15.166 92.139,15.166 L92.139,16.48 C92.139,16.48 92.373,16.57 92.877,16.57 C93.363,16.57 93.615,16.48 93.615,16.48 L93.615,15.166 Z M93.525,18.622 C93.525,18.622 93.309,18.532 92.877,18.532 C92.409,18.532 92.229,18.622 92.229,18.622 L92.229,27.91 C92.229,27.91 92.409,28 92.877,28 C93.309,28 93.525,27.91 93.525,27.91 L93.525,18.622 Z M97.755,20.098 L97.755,18.622 C97.755,18.622 97.557,18.532 97.107,18.532 C96.657,18.532 96.459,18.622 96.459,18.622 L96.459,27.91 C96.459,27.91 96.657,28 97.107,28 C97.557,28 97.755,27.91 97.755,27.91 L97.755,21.34 C98.295,20.26 99.087,19.54 99.915,19.54 C100.401,19.54 100.743,19.648 101.139,19.9 C101.499,19.612 101.679,19.27 101.733,18.802 C101.481,18.64 100.959,18.37 100.185,18.37 C99.447,18.37 98.511,18.712 97.755,20.098 L97.755,20.098 Z M109.815,23.68 C109.815,23.68 110.013,22.942 110.013,21.826 C110.013,19.648 108.807,18.352 106.629,18.352 C104.325,18.352 102.759,19.81 102.759,23.212 C102.759,26.47 104.055,28.18 106.647,28.18 C108.573,28.18 109.563,27.388 109.563,27.388 C109.545,27.01 109.347,26.632 109.095,26.434 C109.095,26.434 108.267,27.028 106.899,27.028 C105.153,27.028 104.235,26.146 104.109,23.68 L109.815,23.68 Z M108.735,21.682 C108.735,22.24 108.699,22.582 108.681,22.708 L104.109,22.708 C104.217,20.368 105.189,19.414 106.629,19.414 C108.177,19.414 108.735,20.458 108.735,21.682 L108.735,21.682 Z M115.233,22.546 L113.703,22.546 L113.703,14.572 C113.703,14.572 113.451,14.5 113.073,14.5 C112.659,14.5 112.407,14.572 112.407,14.572 L112.407,27.91 C112.407,27.91 112.641,28 113.073,28 C113.469,28 113.703,27.91 113.703,27.91 L113.703,23.572 L115.215,23.572 L118.167,27.892 C118.167,27.892 118.437,28 118.905,28 C119.355,28 119.643,27.892 119.643,27.892 L116.295,22.96 L119.211,18.622 C119.211,18.622 118.977,18.532 118.581,18.532 C118.131,18.532 117.879,18.622 117.879,18.622 L115.233,22.546 Z M123.225,19.558 L125.799,19.558 C125.799,19.558 125.889,19.36 125.889,19.036 C125.889,18.712 125.799,18.532 125.799,18.532 L123.225,18.532 L123.225,16.534 C122.757,16.498 122.271,16.588 121.929,16.822 L121.929,18.532 L120.525,18.532 C120.525,18.532 120.435,18.694 120.435,19.054 C120.435,19.378 120.525,19.558 120.525,19.558 L121.929,19.558 L121.929,24.778 C121.929,26.974 122.667,28.18 124.791,28.18 C125.385,28.18 125.871,28.09 126.051,28.036 C126.051,28.036 126.123,27.856 126.123,27.55 C126.123,27.226 126.015,27.01 126.015,27.01 C126.015,27.01 125.583,27.1 125.133,27.1 C123.711,27.1 123.225,26.452 123.225,24.724 L123.225,19.558 Z M133.701,15.166 C133.701,15.166 133.449,15.076 132.963,15.076 C132.459,15.076 132.225,15.166 132.225,15.166 L132.225,16.48 C132.225,16.48 132.459,16.57 132.963,16.57 C133.449,16.57 133.701,16.48 133.701,16.48 L133.701,15.166 Z M133.611,18.622 C133.611,18.622 133.395,18.532 132.963,18.532 C132.495,18.532 132.315,18.622 132.315,18.622 L132.315,27.91 C132.315,27.91 132.495,28 132.963,28 C133.395,28 133.611,27.91 133.611,27.91 L133.611,18.622 Z M148.497,27.91 C148.695,27.946 148.911,28 149.199,28 C149.487,28 149.703,27.946 149.901,27.91 L152.781,18.622 C152.781,18.622 152.619,18.532 152.205,18.532 C151.827,18.532 151.611,18.622 151.611,18.622 L149.649,24.904 C149.379,25.786 149.271,26.326 149.235,26.56 L149.181,26.56 C149.145,26.326 149.091,25.75 148.821,24.886 L146.877,18.622 C146.877,18.622 146.661,18.532 146.229,18.532 C145.833,18.532 145.545,18.622 145.545,18.622 L143.565,24.922 C143.295,25.75 143.205,26.326 143.169,26.56 L143.115,26.56 C143.079,26.326 143.007,25.768 142.755,24.922 L140.775,18.622 C140.775,18.622 140.631,18.532 140.181,18.532 C139.749,18.532 139.533,18.622 139.533,18.622 L142.413,27.91 C142.593,27.946 142.827,28 143.133,28 C143.421,28 143.655,27.946 143.817,27.91 L145.563,22.384 C146.013,21.016 146.121,20.314 146.157,19.99 L146.211,19.99 C146.229,20.314 146.337,20.998 146.751,22.384 L148.497,27.91 Z M161.241,23.68 C161.241,23.68 161.439,22.942 161.439,21.826 C161.439,19.648 160.233,18.352 158.055,18.352 C155.751,18.352 154.185,19.81 154.185,23.212 C154.185,26.47 155.481,28.18 158.073,28.18 C159.999,28.18 160.989,27.388 160.989,27.388 C160.971,27.01 160.773,26.632 160.521,26.434 C160.521,26.434 159.693,27.028 158.325,27.028 C156.579,27.028 155.661,26.146 155.535,23.68 L161.241,23.68 Z M160.161,21.682 C160.161,22.24 160.125,22.582 160.107,22.708 L155.535,22.708 C155.643,20.368 156.615,19.414 158.055,19.414 C159.603,19.414 160.161,20.458 160.161,21.682 L160.161,21.682 Z M165.129,14.59 C165.129,14.59 164.931,14.5 164.481,14.5 C164.031,14.5 163.833,14.59 163.833,14.59 L163.833,27.91 C163.833,27.91 164.031,28 164.481,28 C164.931,28 165.129,27.91 165.129,27.91 L165.129,26.776 C165.651,27.658 166.515,28.18 167.901,28.18 C170.007,28.18 171.357,26.938 171.357,23.266 C171.357,19.594 170.007,18.352 167.901,18.352 C166.515,18.352 165.651,18.874 165.129,19.756 L165.129,14.59 Z M170.007,23.266 C170.007,26.11 169.233,27.082 167.469,27.082 C165.939,27.082 165.129,25.732 165.129,24.4 L165.129,22.078 C165.147,20.746 165.957,19.45 167.469,19.45 C169.233,19.45 170.007,20.422 170.007,23.266 L170.007,23.266 Z M175.119,14.59 C175.119,14.59 174.921,14.5 174.471,14.5 C174.021,14.5 173.823,14.59 173.823,14.59 L173.823,27.91 C173.823,27.91 174.021,28 174.471,28 C174.921,28 175.119,27.91 175.119,27.91 L175.119,26.776 C175.641,27.658 176.505,28.18 177.891,28.18 C179.997,28.18 181.347,26.938 181.347,23.266 C181.347,19.594 179.997,18.352 177.891,18.352 C176.505,18.352 175.641,18.874 175.119,19.756 L175.119,14.59 Z M179.997,23.266 C179.997,26.11 179.223,27.082 177.459,27.082 C175.929,27.082 175.119,25.732 175.119,24.4 L175.119,22.078 C175.137,20.746 175.947,19.45 177.459,19.45 C179.223,19.45 179.997,20.422 179.997,23.266 L179.997,23.266 Z M185.199,14.59 C185.199,14.59 184.983,14.5 184.551,14.5 C184.083,14.5 183.903,14.59 183.903,14.59 L183.903,27.91 C183.903,27.91 184.083,28 184.551,28 C184.983,28 185.199,27.91 185.199,27.91 L185.199,14.59 Z M189.285,15.328 L189.285,16.498 C189.285,16.498 189.501,16.588 189.951,16.588 C190.383,16.588 190.599,16.498 190.599,16.498 L190.599,15.328 C190.599,15.328 190.383,15.238 189.951,15.238 C189.501,15.238 189.285,15.328 189.285,15.328 L189.285,15.328 Z M192.129,15.328 L192.129,16.498 C192.129,16.498 192.345,16.588 192.795,16.588 C193.227,16.588 193.443,16.498 193.443,16.498 L193.443,15.328 C193.443,15.328 193.227,15.238 192.795,15.238 C192.345,15.238 192.129,15.328 192.129,15.328 L192.129,15.328 Z M188.277,18.964 C188.277,19.018 188.259,19.252 188.367,19.522 C188.475,19.774 188.637,19.9 188.673,19.918 C188.673,19.918 189.843,19.468 191.193,19.468 C192.669,19.468 193.317,20.134 193.317,21.61 L193.317,22.636 C192.867,22.582 191.967,22.492 190.959,22.492 C188.691,22.492 187.557,23.464 187.557,25.3 C187.557,27.172 188.673,28.18 190.347,28.18 C191.787,28.18 192.867,27.604 193.371,26.56 L193.569,27.91 C193.569,27.91 193.767,28 194.091,28 C194.451,28 194.613,27.91 194.613,27.91 L194.613,21.988 C194.613,19.594 193.929,18.352 191.355,18.352 C189.645,18.352 188.277,18.964 188.277,18.964 L188.277,18.964 Z M193.317,23.572 L193.317,24.292 C193.317,25.912 192.345,27.136 190.761,27.136 C189.627,27.136 188.907,26.578 188.907,25.3 C188.907,24.022 189.645,23.428 191.139,23.428 C192.003,23.428 192.903,23.536 193.317,23.572 L193.317,23.572 Z M196.989,21.088 C196.989,22.798 198.339,23.32 199.599,23.68 C200.733,24.004 201.849,24.256 201.849,25.444 C201.849,26.56 201.003,27.046 199.779,27.046 C198.501,27.046 197.331,26.596 197.331,26.596 C197.079,26.812 196.953,27.19 196.971,27.568 C196.971,27.568 198.051,28.18 199.851,28.18 C202.047,28.18 203.145,27.136 203.145,25.408 C203.145,23.554 201.777,23.086 200.499,22.69 C199.365,22.348 198.249,22.06 198.249,21.034 C198.249,20.008 198.987,19.45 200.391,19.45 C201.453,19.45 202.317,19.756 202.317,19.756 C202.569,19.54 202.695,19.144 202.677,18.802 C202.677,18.802 201.849,18.352 200.247,18.352 C198.051,18.352 196.989,19.468 196.989,21.088 L196.989,21.088 Z M205.539,18.964 C205.539,19.018 205.521,19.252 205.629,19.522 C205.737,19.774 205.899,19.9 205.935,19.918 C205.935,19.918 207.105,19.468 208.455,19.468 C209.931,19.468 210.579,20.134 210.579,21.664 L210.579,22.636 C210.129,22.582 209.229,22.492 208.221,22.492 C205.953,22.492 204.819,23.41 204.819,25.3 C204.819,27.19 205.935,28.18 207.609,28.18 C209.049,28.18 210.129,27.604 210.633,26.56 L210.831,27.91 C210.831,27.91 211.029,28 211.353,28 C211.713,28 211.875,27.91 211.875,27.91 L211.875,21.988 C211.875,19.594 211.191,18.352 208.617,18.352 C206.907,18.352 205.539,18.964 205.539,18.964 L205.539,18.964 Z M210.579,23.572 L210.579,24.292 C210.579,25.912 209.607,27.136 208.023,27.136 C206.889,27.136 206.169,26.596 206.169,25.3 C206.169,23.968 206.907,23.428 208.401,23.428 C209.265,23.428 210.165,23.536 210.579,23.572 L210.579,23.572 Z M215.997,20.098 L215.997,18.622 C215.997,18.622 215.799,18.532 215.349,18.532 C214.899,18.532 214.701,18.622 214.701,18.622 L214.701,27.91 C214.701,27.91 214.899,28 215.349,28 C215.799,28 215.997,27.91 215.997,27.91 L215.997,21.34 C216.537,20.26 217.329,19.54 218.157,19.54 C218.643,19.54 218.985,19.648 219.381,19.9 C219.741,19.612 219.921,19.27 219.975,18.802 C219.723,18.64 219.201,18.37 218.427,18.37 C217.689,18.37 216.753,18.712 215.997,20.098 L215.997,20.098 Z M228.057,23.68 C228.057,23.68 228.255,22.942 228.255,21.826 C228.255,19.648 227.049,18.352 224.871,18.352 C222.567,18.352 221.001,19.81 221.001,23.212 C221.001,26.47 222.297,28.18 224.889,28.18 C226.815,28.18 227.805,27.388 227.805,27.388 C227.787,27.01 227.589,26.632 227.337,26.434 C227.337,26.434 226.509,27.028 225.141,27.028 C223.395,27.028 222.477,26.146 222.351,23.68 L228.057,23.68 Z M226.977,21.682 C226.977,22.24 226.941,22.582 226.923,22.708 L222.351,22.708 C222.459,20.368 223.431,19.414 224.871,19.414 C226.419,19.414 226.977,20.458 226.977,21.682 L226.977,21.682 Z M237.705,21.052 C237.705,19.432 236.697,18.352 234.933,18.352 C233.673,18.352 232.647,18.874 231.945,19.756 L231.945,18.622 C231.945,18.622 231.729,18.532 231.297,18.532 C230.847,18.532 230.649,18.622 230.649,18.622 L230.649,27.91 C230.649,27.91 230.847,28 231.297,28 C231.729,28 231.945,27.91 231.945,27.91 L231.945,21.07 C232.485,20.044 233.475,19.432 234.465,19.432 C235.761,19.432 236.409,20.062 236.409,21.304 L236.409,27.91 C236.409,27.91 236.607,28 237.057,28 C237.471,28 237.705,27.91 237.705,27.91 L237.705,21.052 Z" id="Direkt-i-webbläsaren" fill="#FFFFFF"></path>
        </g>
    </g>
</svg>