<?xml version="1.0" encoding="UTF-8" standalone="no"?>
<svg width="130px" height="44px" viewBox="0 0 130 44" version="1.1" xmlns="http://www.w3.org/2000/svg" xmlns:xlink="http://www.w3.org/1999/xlink">
    <!-- Generator: Sketch 3.6.1 (26313) - http://www.bohemiancoding.com/sketch -->
    <title>App Store Copy 2</title>
    <desc>Created with Sketch.</desc>
    <defs></defs>
    <g id="www" stroke="none" stroke-width="1" fill="none" fill-rule="evenodd">
        <g id="App-Store-Copy-2">
            <g id="App-Store">
                <rect id="background" fill="#000000" x="0" y="0" width="130" height="44" rx="5.28"></rect>
                <g id="icon" transform="translate(11.442112, 7.744000)" fill="#FFFFFF">
                    <path d="M17.0171291,13.2487722 C16.9888045,10.1014195 19.5946647,8.57022215 19.7138233,8.49893554 C18.2380156,6.34764231 15.9505626,6.05370711 15.1467309,6.03027041 C13.2255438,5.82812893 11.3619826,7.17964496 10.3833199,7.17964496 C9.38512305,7.17964496 7.87806069,6.04980099 6.25379322,6.08300298 C4.16363545,6.11522843 2.20826355,7.32514777 1.1358368,9.20398942 C-1.07738634,13.0349124 0.573252277,18.6646017 2.69368804,21.7611749 C3.75439428,23.2787008 4.9938383,24.9710255 6.61615235,24.9114572 C8.20330487,24.8470063 8.79616738,23.8997732 10.7114942,23.8997732 C12.6092403,23.8997732 13.1659645,24.9114572 14.82051,24.872396 C16.5238909,24.8470063 17.5963176,23.3499874 18.6199089,21.8187901 C19.845679,20.0825217 20.3379405,18.3687134 20.3574747,18.2808258 C20.3184063,18.2681309 17.0503372,17.0211035 17.0171291,13.2487722" id="Fill-2"></path>
                    <path d="M13.8916595,3.99323107 C14.7453034,2.92588496 15.3293755,1.47378645 15.1672418,0.000204297521 C13.9317046,0.0548899174 12.3865505,0.854667107 11.4967684,1.89857653 C10.7095408,2.81846678 10.0063101,4.32622744 10.187978,5.74414744 C11.5758819,5.8476595 13.0009007,5.0439762 13.8916595,3.99323107" id="Fill-3"></path>
                </g>
                <g transform="translate(40.399458, 19.184000)" fill="#FFFFFF">
                    <path d="M11.0485885,13.2536912 L8.83048181,13.2536912 L7.61545552,9.43643967 L3.39216476,9.43643967 L2.23476431,13.2536912 L0.0752601752,13.2536912 L4.26045927,0.258044298 L6.84483193,0.258044298 L11.0485885,13.2536912 L11.0485885,13.2536912 Z M7.24918955,7.83493223 L6.15039166,4.44247074 C6.03416326,4.09482645 5.81538039,3.27844826 5.49501975,1.9933362 L5.45595138,1.9933362 C5.32702576,2.54605157 5.12094012,3.36242975 4.83867114,4.44247074 L3.75843072,7.83493223 L7.24918955,7.83493223 L7.24918955,7.83493223 Z" id="Fill-4"></path>
                    <path d="M21.7904367,8.45307504 C21.7904367,10.0467702 21.3577545,11.3064926 20.4914134,12.2312655 C19.7159063,13.0544793 18.7518943,13.465598 17.6023075,13.465598 C16.3609101,13.465598 15.4681978,13.0232304 14.9261242,12.1355656 L14.9261242,17.0523888 L12.8437801,17.0523888 L12.8437801,6.9628919 C12.8437801,5.96194975 12.8174089,4.93561785 12.7666201,3.88291967 L14.5979499,3.88291967 L14.7141783,5.36919669 L14.7532467,5.36919669 C15.4476869,4.24911802 16.5015562,3.68956694 17.9158312,3.68956694 C19.021466,3.68956694 19.9444563,4.12607537 20.6828485,5.00006876 C21.4202639,5.87601521 21.7904367,7.02636628 21.7904367,8.45307504 L21.7904367,8.45307504 Z M19.6690243,8.5292443 C19.6690243,7.61716628 19.4639153,6.86523901 19.051744,6.27346248 C18.6014811,5.65727273 17.996898,5.34771306 17.2389717,5.34771306 C16.7252226,5.34771306 16.2583556,5.51958215 15.8413007,5.85941421 C15.4232692,6.20022281 15.1497906,6.64649653 15.0218417,7.20018843 C14.9573789,7.45701554 14.9251475,7.66696926 14.9251475,7.83297917 L14.9251475,9.39737851 C14.9251475,10.0770426 15.1341633,10.6522182 15.5521948,11.1229051 C15.9702264,11.591639 16.5132767,11.8269825 17.1813458,11.8269825 C17.9656433,11.8269825 18.5760866,11.523282 19.0126757,10.9207636 C19.4502414,10.3162922 19.6690243,9.51944463 19.6690243,8.5292443 L19.6690243,8.5292443 Z" id="Fill-5"></path>
                    <path d="M32.5703766,8.45307504 C32.5703766,10.0467702 32.1376944,11.3064926 31.2713533,12.2312655 C30.4948695,13.0544793 29.5318342,13.465598 28.3812707,13.465598 C27.14085,13.465598 26.2481377,13.0232304 25.7050874,12.1355656 L25.7050874,17.0523888 L23.6227433,17.0523888 L23.6227433,6.9628919 C23.6227433,5.96194975 23.5963721,4.93561785 23.5455832,3.88291967 L25.3769131,3.88291967 L25.4931415,5.36919669 L25.5322098,5.36919669 C26.2256734,4.24911802 27.2795427,3.68956694 28.6947944,3.68956694 C29.7994525,3.68956694 30.7234195,4.12607537 31.4627883,5.00006876 C32.1992271,5.87601521 32.5703766,7.02636628 32.5703766,8.45307504 L32.5703766,8.45307504 Z M30.4479874,8.5292443 C30.4479874,7.61716628 30.2419018,6.86523901 29.8297305,6.27346248 C29.3804442,5.65727273 28.7768379,5.34771306 28.0189116,5.34771306 C27.5051625,5.34771306 27.0382955,5.51958215 26.6192872,5.85941421 C26.2022324,6.20022281 25.9287538,6.64649653 25.8008049,7.20018843 C25.7373188,7.45701554 25.703134,7.66696926 25.703134,7.83297917 L25.703134,9.39737851 C25.703134,10.0770426 25.9131264,10.6522182 26.3292046,11.1229051 C26.7472361,11.5906625 27.2902865,11.8269825 27.960309,11.8269825 C28.7455832,11.8269825 29.3560265,11.523282 29.7916388,10.9207636 C30.2292046,10.3162922 30.4479874,9.51944463 30.4479874,8.5292443 L30.4479874,8.5292443 Z" id="Fill-6"></path>
                    <path d="M44.6229687,9.60928529 C44.6229687,10.714716 44.2371685,11.6140992 43.4675216,12.3084112 C42.6216914,13.0661977 41.44085,13.4460674 39.9269506,13.4460674 C38.528303,13.4460674 37.4070408,13.1765455 36.5612106,12.636525 L37.0427282,10.9012331 C37.9559514,11.4412536 38.9590318,11.7117521 40.0509927,11.7117521 C40.8362669,11.7117521 41.4467102,11.5340238 41.8823225,11.1814969 C42.3198883,10.8270169 42.5396479,10.3553534 42.5396479,9.76552992 C42.5396479,9.23722777 42.3579799,8.79388364 41.9985509,8.43354446 C41.6381452,8.07515835 41.0423526,7.7392324 40.2062895,7.43260231 C37.9305569,6.58399868 36.791714,5.34185388 36.791714,3.71007405 C36.791714,2.64370446 37.1941182,1.7706876 37.9959965,1.08809388 C38.7988515,0.406476694 39.8634645,0.0656680992 41.1878823,0.0656680992 C42.3706772,0.0656680992 43.3561768,0.271715702 44.1385209,0.68283438 L43.6159814,2.38004165 C42.8795427,1.98161785 42.0483631,1.78240595 41.1185359,1.78240595 C40.3840506,1.78240595 39.8068154,1.9630638 39.3956208,2.32242645 C39.048889,2.64370446 38.8721047,3.03529256 38.8721047,3.50012033 C38.8721047,4.01279802 39.07233,4.43856463 39.4718041,4.77156099 C39.8175592,5.08014413 40.4485134,5.41509355 41.3607598,5.7744562 C42.4800686,6.22561256 43.3014811,6.75098512 43.8289041,7.35448 C44.3592572,7.95797488 44.6229687,8.71087868 44.6229687,9.60928529" id="Fill-7"></path>
                    <path d="M51.5253729,5.44536595 L49.2301062,5.44536595 L49.2301062,9.99501421 C49.2301062,11.152201 49.6344638,11.7293296 50.4451325,11.7293296 C50.8172587,11.7293296 51.1258988,11.6980807 51.3700761,11.6326532 L51.4277019,13.2136536 C51.0174841,13.3669686 50.4773639,13.4441144 49.8092947,13.4441144 C48.9859288,13.4441144 48.3442309,13.1921699 47.8793173,12.6912106 C47.4163571,12.1892747 47.184877,11.3484833 47.184877,10.1649302 L47.184877,5.44145983 L45.8184608,5.44145983 L45.8184608,3.87901355 L47.184877,3.87901355 L47.184877,2.16325223 L49.2301062,1.54608595 L49.2301062,3.87901355 L51.5253729,3.87901355 L51.5253729,5.44536595" id="Fill-8"></path>
                    <path d="M61.8609101,8.49115967 C61.8609101,9.93153983 61.4497155,11.1141164 60.6263496,12.0388893 C59.7658687,12.9900284 58.6211655,13.465598 57.1941933,13.465598 C55.8170333,13.465598 54.7221422,13.009559 53.9056133,12.097481 C53.0890844,11.185403 52.6808199,10.0350519 52.6808199,8.6474043 C52.6808199,7.19530579 53.103735,6.00589355 53.943705,5.08112066 C54.7856283,4.15634777 55.9205645,3.69249653 57.3475367,3.69249653 C58.72372,3.69249653 59.8274014,4.1504886 60.6644412,5.06159008 C61.4633894,5.94730182 61.8609101,7.08886413 61.8609101,8.49115967 L61.8609101,8.49115967 Z M59.7023826,8.53900959 C59.7023826,7.68064066 59.5168079,6.94433785 59.1446817,6.3281481 C58.7080926,5.58403306 58.082022,5.21295207 57.2733068,5.21295207 C56.4401738,5.21295207 55.7984758,5.58403306 55.3638402,6.3281481 C54.9897606,6.94433785 54.8051625,7.69333554 54.8051625,8.57807074 C54.8051625,9.4374162 54.9897606,10.1756721 55.3638402,10.7889322 C55.8141032,11.5340238 56.4421272,11.9060813 57.2567027,11.9060813 C58.051744,11.9060813 58.6758612,11.525235 59.1280776,10.7713547 C59.5099709,10.140517 59.7023826,9.39933157 59.7023826,8.53900959 L59.7023826,8.53900959 Z" id="Fill-9"></path>
                    <path d="M68.6324352,5.7139114 C68.4263496,5.67582678 68.2056133,5.65727273 67.9760866,5.65727273 C67.2435547,5.65727273 66.6770633,5.93167736 66.278566,6.48634579 C65.9318342,6.97461025 65.7589566,7.59177653 65.7589566,8.3368681 L65.7589566,13.2536912 L63.6766125,13.2536912 L63.6766125,6.83399008 C63.6766125,5.75492562 63.6561016,4.76960793 63.6160566,3.8838962 L65.4298056,3.8838962 L65.505989,5.67680331 L65.5636148,5.67680331 C65.7843511,5.06061355 66.1301062,4.56356033 66.6047868,4.19247934 C67.0697004,3.85655339 67.5697756,3.68956694 68.1098958,3.68956694 C68.3023075,3.68956694 68.4761618,3.70421488 68.6304818,3.72765157 L68.6324352,5.7139114" id="Fill-10"></path>
                    <path d="M77.9453578,8.12496132 C77.9453578,8.49799537 77.9209401,8.81243769 77.8691745,9.06926479 L71.6231189,9.06926479 C71.6455832,9.99501421 71.9493398,10.7039742 72.5285284,11.1922387 C73.0549747,11.6277706 73.7367177,11.8465131 74.5718041,11.8465131 C75.4967478,11.8465131 76.3406246,11.7000337 77.0995276,11.4031689 L77.4257485,12.8484317 C76.5388965,13.2341607 75.4908875,13.4275134 74.2836749,13.4275134 C72.8303316,13.4275134 71.6895352,12.9997937 70.8593323,12.1463074 C70.0320596,11.2918446 69.6159814,10.1424701 69.6159814,8.7050195 C69.6159814,7.29295868 70.0008049,6.11624132 70.7743586,5.17779702 C71.5830738,4.17587835 72.6760115,3.67491901 74.0512181,3.67491901 C75.402007,3.67491901 76.4246216,4.17587835 77.1180851,5.17779702 C77.6689491,5.97171504 77.9453578,6.9560562 77.9453578,8.12496132 L77.9453578,8.12496132 Z M75.959708,7.58494083 C75.9743586,6.96679802 75.8376193,6.43556628 75.5553503,5.98440992 C75.1949446,5.40435174 74.6401738,5.11529917 73.896898,5.11529917 C73.215155,5.11529917 72.6613609,5.39751603 72.2394225,5.96390281 C71.8926907,6.41408264 71.686605,6.9560562 71.6231189,7.58298777 L75.959708,7.58494083 L75.959708,7.58494083 Z" id="Fill-11"></path>
                </g>
                <g id="Available-on-the" transform="translate(41.279621, 8.096000)" fill="#FFFFFF">
                    <path d="M5.36496996,6.69483702 L4.27398574,6.69483702 L3.67721639,4.81892496 L1.60170925,4.81892496 L1.03228777,6.69483702 L-0.0293951789,6.69483702 L2.02755448,0.307361322 L3.2972765,0.307361322 L5.36496996,6.69483702 L5.36496996,6.69483702 Z M3.49750189,4.03184264 L2.95738168,2.36393124 C2.90073254,2.19303868 2.79622466,1.7955914 2.63506763,1.1608476 L2.61553345,1.1608476 C2.54911722,1.43525223 2.45437642,1.83367603 2.31177687,2.36393124 L1.78142375,4.03184264 L3.49750189,4.03184264 L3.49750189,4.03184264 Z" id="Fill-12"></path>
                    <path d="M10.5083208,2.08952661 L8.76391812,6.69483702 L7.7686514,6.69483702 L6.08089783,2.08952661 L7.18067244,2.08952661 L7.96790009,4.52498975 C8.10073254,4.93220231 8.21403082,5.32086083 8.29900452,5.68998876 L8.32732909,5.68998876 C8.40351241,5.35894545 8.51681068,4.97028694 8.65843352,4.52498975 L9.43589408,2.08952661 L10.5083208,2.08952661" id="Fill-13"></path>
                    <path d="M14.2217694,6.69483702 L14.145586,6.16458182 L14.1172615,6.16458182 C13.8047145,6.59132496 13.349568,6.79932562 12.7713561,6.79932562 C11.9470135,6.79932562 11.3590346,6.2212205 11.3590346,5.44390347 C11.3590346,4.3072238 12.3445342,3.71935339 14.0508452,3.71935339 L14.0508452,3.63439537 C14.0508452,3.02797091 13.7285312,2.72427041 13.0936702,2.72427041 C12.6385237,2.72427041 12.2400263,2.8385243 11.8903644,3.06605554 L11.6823253,2.39322711 C12.1091473,2.12761124 12.6395004,1.99480331 13.265571,1.99480331 C14.4688768,1.99480331 15.0763899,2.62954711 15.0763899,3.90001124 L15.0763899,5.59624198 C15.0763899,6.06106975 15.0959241,6.42140893 15.1428062,6.69581355 L14.2217694,6.69483702 L14.2217694,6.69483702 Z M14.0791698,4.40097058 C12.9413035,4.40097058 12.3728588,4.67635174 12.3728588,5.32964959 C12.3728588,5.8130314 12.6668482,6.0493514 13.074136,6.0493514 C13.5956987,6.0493514 14.0791698,5.65190413 14.0791698,5.11188364 L14.0791698,4.40097058 L14.0791698,4.40097058 Z" id="Fill-14"></path>
                    <path d="M17.3560293,1.33076364 C17.0151578,1.33076364 16.7494929,1.06514777 16.7494929,0.714573884 C16.7494929,0.364 17.0239482,0.108149421 17.3755635,0.108149421 C17.7262021,0.108149421 18.0104245,0.364 18.0006574,0.714573884 C18.0006574,1.08467835 17.7359692,1.33076364 17.3560293,1.33076364 L17.3560293,1.33076364 Z M16.8637679,2.08952661 L17.8873591,2.08952661 L17.8873591,6.69483702 L16.8637679,6.69483702 L16.8637679,2.08952661 Z" id="Fill-15"></path>
                    <path d="M19.7059917,-0.0236819835 L20.729583,-0.0236819835 L20.729583,6.69483702 L19.7059917,6.69483702 L19.7059917,-0.0236819835 Z" id="Fill-16"></path>
                    <path d="M25.079846,6.69483702 L25.002686,6.16458182 L24.9753381,6.16458182 C24.6627911,6.59132496 24.2076446,6.79932562 23.6294328,6.79932562 C22.8050902,6.79932562 22.2171112,6.2212205 22.2171112,5.44390347 C22.2171112,4.3072238 23.2026108,3.71935339 24.9089219,3.71935339 L24.9089219,3.63439537 C24.9089219,3.02797091 24.5866078,2.72427041 23.9517468,2.72427041 C23.4966003,2.72427041 23.0981029,2.8385243 22.748441,3.06605554 L22.5394253,2.39225058 C22.9662472,2.12663471 23.4966003,1.99382678 24.1226709,1.99382678 C25.3259767,1.99382678 25.9344666,2.62857058 25.9344666,3.89903471 L25.9344666,5.59526545 C25.9344666,6.06009322 25.9540008,6.4204324 25.9989294,6.69483702 L25.079846,6.69483702 L25.079846,6.69483702 Z M24.9372464,4.40097058 C23.7993802,4.40097058 23.2309354,4.67635174 23.2309354,5.32964959 C23.2309354,5.8130314 23.5249249,6.0493514 23.9322126,6.0493514 C24.4537754,6.0493514 24.9372464,5.65190413 24.9372464,5.11188364 L24.9372464,4.40097058 L24.9372464,4.40097058 Z" id="Fill-17"></path>
                    <path d="M30.0805973,6.79932562 C29.4271788,6.79932562 28.9446845,6.52394446 28.6311608,5.98392397 L28.6116266,5.98392397 L28.5530241,6.69483702 L27.6817994,6.69483702 C27.7091473,6.32570909 27.7189144,5.90775471 27.7189144,5.45366876 L27.7189144,-0.0236819835 L28.7444591,-0.0236819835 L28.7444591,2.76333157 L28.7630165,2.76333157 C29.0667731,2.25163041 29.5590346,1.99577983 30.2319872,1.99577983 C31.3415289,1.99577983 32.1189895,2.94398942 32.1189895,4.32675438 C32.1189895,5.75639273 31.2555785,6.79932562 30.0805973,6.79932562 L30.0805973,6.79932562 Z M29.8725582,2.79946314 C29.2836026,2.79946314 28.7444591,3.3111643 28.7444591,4.02207736 L28.7444591,4.82771372 C28.7444591,5.46245752 29.2289068,5.98392397 29.8540008,5.98392397 C30.6207175,5.98392397 31.0778174,5.35894545 31.0778174,4.36386248 C31.0768407,3.43518347 30.60216,2.79946314 29.8725582,2.79946314 L29.8725582,2.79946314 Z" id="Fill-18"></path>
                    <path d="M33.6338655,-0.0236819835 L34.6564801,-0.0236819835 L34.6564801,6.69483702 L33.6338655,6.69483702 L33.6338655,-0.0236819835 Z" id="Fill-19"></path>
                    <path d="M40.2276296,4.63826711 L37.1549023,4.63826711 C37.1754132,5.51030744 37.7516717,6.00247802 38.6043389,6.00247802 C39.0604621,6.00247802 39.4775169,5.92630876 39.846713,5.78471207 L40.0059166,6.49562512 C39.5703043,6.68507174 39.0585087,6.77979504 38.4617393,6.77979504 C37.0201165,6.77979504 36.1674493,5.86967008 36.1674493,4.45858579 C36.1674493,3.04652496 37.0406274,1.98503802 38.3474643,1.98503802 C39.5214688,1.98503802 40.2627911,2.85707835 40.2627911,4.17441587 C40.2657213,4.35409719 40.2569309,4.51522446 40.2276296,4.63826711 L40.2276296,4.63826711 Z M39.2899887,3.9088 C39.2899887,3.19788694 38.9286063,2.69595107 38.2742111,2.69595107 C37.6862322,2.69595107 37.223272,3.20765223 37.1549023,3.9088 L39.2899887,3.9088 L39.2899887,3.9088 Z" id="Fill-20"></path>
                    <path d="M46.4316867,6.79932562 C45.0857814,6.79932562 44.21358,5.79447736 44.21358,4.43026645 C44.21358,3.00844033 45.1043389,1.99480331 46.5088467,1.99480331 C47.8342412,1.99480331 48.7269534,2.95180165 48.7269534,4.35507372 C48.7269534,5.79447736 47.8068933,6.79932562 46.4316867,6.79932562 L46.4316867,6.79932562 Z M46.4707551,2.74282446 C45.7313862,2.74282446 45.2576822,3.43420694 45.2576822,4.40097058 C45.2576822,5.34918017 45.7411533,6.04056264 46.460988,6.04056264 C47.1808227,6.04056264 47.6642938,5.30133025 47.6642938,4.38144 C47.6642938,3.44397223 47.1905898,2.74282446 46.4707551,2.74282446 L46.4707551,2.74282446 Z" id="Fill-21"></path>
                    <path d="M54.2297333,6.69483702 L53.2080954,6.69483702 L53.2080954,4.05039669 C53.2080954,3.23597157 52.8945718,2.82778248 52.2782682,2.82778248 C51.6717318,2.82778248 51.2537002,3.34924893 51.2537002,3.95567339 L51.2537002,6.69483702 L50.2320624,6.69483702 L50.2320624,3.4058876 C50.2320624,2.99867504 50.2203419,2.56216661 50.192994,2.08855008 L51.0935199,2.08855008 L51.1413787,2.79946314 L51.17068,2.79946314 C51.4431818,2.30729256 52.0038129,1.99382678 52.6298836,1.99382678 C53.5948723,1.99382678 54.2297333,2.73305917 54.2297333,3.93614281 L54.2297333,6.69483702" id="Fill-22"></path>
                    <path d="M60.9270286,2.85707835 L59.8008828,2.85707835 L59.8008828,5.09332959 C59.8008828,5.66264595 59.9991548,5.94681587 60.3966754,5.94681587 C60.5763899,5.94681587 60.7297333,5.92728529 60.851822,5.89896595 L60.8801465,6.67628298 C60.6808978,6.75245223 60.4142562,6.79053686 60.0851052,6.79053686 C59.2773667,6.79053686 58.7968257,6.34523967 58.7968257,5.17926413 L58.7968257,2.85707835 L58.1258265,2.85707835 L58.1258265,2.08952661 L58.7968257,2.08952661 L58.7968257,1.24580562 L59.8008828,0.942105124 L59.8008828,2.08855008 L60.9270286,2.08855008 L60.9270286,2.85707835" id="Fill-23"></path>
                    <path d="M66.3477649,6.69483702 L65.3231969,6.69483702 L65.3231969,4.06992727 C65.3231969,3.24573686 65.0096732,2.82875901 64.3943464,2.82875901 C63.8639933,2.82875901 63.3717318,3.18909818 63.3717318,3.91856529 L63.3717318,6.69483702 L62.3471638,6.69483702 L62.3471638,-0.0236819835 L63.3717318,-0.0236819835 L63.3717318,2.74282446 L63.391266,2.74282446 C63.7126033,2.2408886 64.1784936,1.99382678 64.775263,1.99382678 C65.7509955,1.99382678 66.3477649,2.75161322 66.3477649,3.95567339 L66.3477649,6.69483702" id="Fill-24"></path>
                    <path d="M71.5780428,4.63826711 L68.5062923,4.63826711 C68.5258265,5.51030744 69.1020849,6.00247802 69.9557288,6.00247802 C70.4128287,6.00247802 70.8289068,5.92630876 71.1961495,5.78471207 L71.3563298,6.49562512 C70.9216942,6.68507174 70.4089219,6.77979504 69.8111758,6.77979504 C68.3705297,6.77979504 67.5178625,5.86967008 67.5178625,4.45858579 C67.5178625,3.04652496 68.3900639,1.98503802 69.6969008,1.98503802 C70.8718821,1.98503802 71.6122277,2.85707835 71.6122277,4.17441587 C71.6161345,4.35409719 71.6063674,4.51522446 71.5780428,4.63826711 L71.5780428,4.63826711 Z M70.6394253,3.9088 C70.6394253,3.19788694 70.2799963,2.69595107 69.6256011,2.69595107 C69.0376221,2.69595107 68.5736852,3.20765223 68.5062923,3.9088 L70.6394253,3.9088 L70.6394253,3.9088 Z" id="Fill-25"></path>
                </g>
            </g>
        </g>
    </g>
</svg>