<?xml version="1.0" encoding="UTF-8" standalone="no"?><!DOCTYPE svg PUBLIC "-//W3C//DTD SVG 1.1//EN" "http://www.w3.org/Graphics/SVG/1.1/DTD/svg11.dtd"><svg width="100%" height="100%" viewBox="0 0 101 98" version="1.1" xmlns="http://www.w3.org/2000/svg" xmlns:xlink="http://www.w3.org/1999/xlink" xml:space="preserve" style="fill-rule:evenodd;clip-rule:evenodd;stroke-linejoin:round;stroke-miterlimit:1.41421;"><g><g><path d="M37.751,85.353l3.959,0c0,0 5.279,9.369 8.766,9.369c3.394,0 8.484,-9.369 8.484,-9.369l4.241,0c19.135,0 34.783,-15.553 34.783,-34.572l0,-12.93c0,-19.019 -15.648,-34.572 -34.783,-34.572l-25.45,0c-19.135,0.094 -34.782,15.647 -34.782,34.572l0,12.93c0,19.019 15.647,34.572 34.782,34.572Z" style="fill:#6db86a;"/><path d="M50.382,97.533c-3.959,0 -7.918,-5.34 -10.369,-9.369l-2.356,0c-20.738,0 -37.61,-16.771 -37.61,-37.383l0,-12.93c0,-20.612 16.872,-37.383 37.61,-37.383l25.45,0c20.738,0 37.61,16.771 37.61,37.383l0,12.93c0,20.612 -16.872,37.383 -37.61,37.383l-2.545,0c-2.356,3.935 -6.221,9.275 -10.18,9.369Zm-12.631,-91.349c-17.627,0 -31.954,14.241 -31.954,31.667l0,12.93c0,17.52 14.327,31.761 31.954,31.761l3.959,0c1.037,0 1.979,0.563 2.451,1.406c2.074,3.654 4.901,7.308 6.221,7.87c1.32,-0.656 4.053,-4.216 6.033,-7.87c0.471,-0.937 1.414,-1.499 2.45,-1.499l4.242,0c17.627,0 31.955,-14.241 31.955,-31.762l0,-12.836c0,-17.52 -14.328,-31.761 -31.955,-31.761l-25.356,0l0,0.094Z" style="fill:#385d37;"/></g><g><g transform="matrix(1,0,0,1,36,67)"><text x="0px" y="0px" style="font-family:'OpenSans-Extrabold', 'Open Sans', sans-serif;font-weight:800;font-size:64px;fill:none;">?</text><text x="0px" y="0px" style="font-family:'OpenSans-Extrabold', 'Open Sans', sans-serif;font-weight:800;font-size:64px;fill:#fff;">?</text><path d="M14.579,-12.787l0.109,0.001l0.109,0.002l0.109,0.003l0.108,0.004l0.107,0.005l0.107,0.006l0.106,0.007l0.106,0.007l0.105,0.009l0.105,0.009l0.105,0.011l0.103,0.011l0.104,0.012l0.102,0.013l0.103,0.014l0.101,0.015l0.102,0.016l0.1,0.017l0.101,0.018l0.099,0.019l0.099,0.02l0.099,0.021l0.098,0.022l0.097,0.023l0.097,0.024l0.097,0.025l0.096,0.026l0.095,0.027l0.095,0.028l0.094,0.029l0.094,0.03l0.093,0.031l0.092,0.033l0.092,0.033l0.091,0.034l0.091,0.036l0.09,0.037l0.089,0.037l0.089,0.039l0.088,0.04l0.087,0.041l0.087,0.042l0.086,0.043l0.085,0.045l0.085,0.045l0.084,0.046l0.083,0.048l0.083,0.049l0.081,0.05l0.081,0.051l0.08,0.052l0.08,0.053l0.078,0.054l0.078,0.055l0.077,0.057l0.076,0.057l0.075,0.059l0.074,0.059l0.074,0.061l0.072,0.062l0.072,0.062l0.07,0.064l0.07,0.065l0.068,0.065l0.067,0.066l0.066,0.067l0.066,0.068l0.064,0.069l0.063,0.07l0.062,0.071l0.061,0.071l0.06,0.072l0.059,0.073l0.058,0.075l0.057,0.074l0.056,0.076l0.054,0.076l0.054,0.078l0.052,0.078l0.052,0.078l0.05,0.08l0.049,0.08l0.048,0.081l0.047,0.082l0.045,0.082l0.045,0.084l0.043,0.083l0.043,0.085l0.041,0.085l0.04,0.086l0.038,0.086l0.038,0.087l0.037,0.087l0.035,0.089l0.034,0.088l0.033,0.09l0.032,0.089l0.031,0.091l0.03,0.091l0.028,0.091l0.028,0.092l0.026,0.092l0.025,0.093l0.024,0.094l0.023,0.094l0.022,0.094l0.021,0.095l0.02,0.095l0.018,0.096l0.018,0.096l0.017,0.097l0.015,0.097l0.015,0.097l0.013,0.098l0.012,0.098l0.012,0.099l0.01,0.1l0.009,0.099l0.009,0.1l0.007,0.101l0.006,0.101l0.006,0.101l0.004,0.102l0.003,0.102l0.003,0.102l0.001,0.103l0.001,0.104l-0.001,0.103l-0.001,0.104l-0.003,0.103l-0.003,0.103l-0.005,0.102l-0.006,0.102l-0.006,0.101l-0.008,0.101l-0.008,0.101l-0.01,0.1l-0.011,0.1l-0.012,0.099l-0.013,0.099l-0.014,0.099l-0.015,0.098l-0.016,0.097l-0.017,0.097l-0.019,0.097l-0.019,0.096l-0.021,0.096l-0.022,0.096l-0.022,0.094l-0.025,0.095l-0.025,0.094l-0.026,0.093l-0.028,0.093l-0.028,0.092l-0.03,0.092l-0.031,0.091l-0.032,0.091l-0.034,0.09l-0.034,0.09l-0.036,0.089l-0.037,0.088l-0.038,0.088l-0.039,0.087l-0.041,0.087l-0.042,0.086l-0.043,0.085l-0.044,0.085l-0.045,0.084l-0.046,0.083l-0.048,0.082l-0.049,0.082l-0.05,0.081l-0.051,0.08l-0.052,0.079l-0.054,0.079l-0.054,0.078l-0.056,0.077l-0.057,0.076l-0.058,0.075l-0.059,0.075l-0.06,0.073l-0.061,0.073l-0.063,0.072l-0.063,0.071l-0.065,0.07l-0.065,0.069l-0.067,0.068l-0.067,0.067l-0.069,0.067l-0.069,0.065l-0.071,0.064l-0.071,0.063l-0.071,0.062l-0.072,0.061l-0.073,0.06l-0.074,0.059l-0.075,0.057l-0.075,0.057l-0.076,0.056l-0.077,0.055l-0.078,0.054l-0.078,0.052l-0.08,0.052l-0.079,0.051l-0.081,0.049l-0.081,0.049l-0.082,0.048l-0.083,0.046l-0.083,0.046l-0.084,0.044l-0.085,0.043l-0.085,0.043l-0.086,0.041l-0.087,0.04l-0.087,0.039l-0.087,0.038l-0.089,0.037l-0.089,0.037l-0.089,0.034l-0.09,0.034l-0.09,0.033l-0.092,0.032l-0.091,0.031l-0.092,0.03l-0.093,0.029l-0.093,0.027l-0.094,0.027l-0.094,0.026l-0.095,0.025l-0.095,0.023l-0.096,0.023l-0.096,0.022l-0.096,0.021l-0.097,0.019l-0.098,0.019l-0.098,0.018l-0.099,0.017l-0.098,0.016l-0.1,0.015l-0.1,0.014l-0.1,0.013l-0.101,0.012l-0.101,0.011l-0.102,0.011l-0.102,0.009l-0.102,0.009l-0.103,0.007l-0.104,0.007l-0.104,0.005l-0.104,0.005l-0.105,0.004l-0.105,0.003l-0.106,0.003l-0.106,0.001l-0.106,0l-0.109,0l-0.109,-0.001l-0.108,-0.003l-0.107,-0.003l-0.107,-0.003l-0.107,-0.005l-0.106,-0.006l-0.105,-0.006l-0.105,-0.008l-0.105,-0.008l-0.104,-0.009l-0.104,-0.01l-0.103,-0.011l-0.102,-0.012l-0.103,-0.013l-0.101,-0.014l-0.102,-0.015l-0.1,-0.015l-0.101,-0.017l-0.099,-0.017l-0.1,-0.019l-0.098,-0.019l-0.099,-0.021l-0.097,-0.021l-0.098,-0.022l-0.096,-0.024l-0.097,-0.024l-0.095,-0.025l-0.095,-0.026l-0.095,-0.028l-0.094,-0.028l-0.094,-0.029l-0.093,-0.031l-0.092,-0.031l-0.092,-0.032l-0.092,-0.034l-0.09,-0.034l-0.091,-0.036l-0.089,-0.036l-0.089,-0.038l-0.089,-0.038l-0.087,-0.04l-0.088,-0.04l-0.086,-0.042l-0.086,-0.043l-0.085,-0.044l-0.085,-0.045l-0.084,-0.046l-0.083,-0.047l-0.082,-0.048l-0.082,-0.049l-0.081,-0.05l-0.081,-0.051l-0.079,-0.052l-0.079,-0.053l-0.078,-0.055l-0.077,-0.055l-0.077,-0.056l-0.076,-0.058l-0.074,-0.058l-0.075,-0.06l-0.073,-0.06l-0.072,-0.061l-0.072,-0.063l-0.071,-0.064l-0.071,-0.065l-0.069,-0.066l-0.069,-0.067l-0.067,-0.068l-0.066,-0.069l-0.066,-0.07l-0.064,-0.071l-0.063,-0.071l-0.062,-0.073l-0.061,-0.074l-0.06,-0.074l-0.059,-0.076l-0.058,-0.076l-0.056,-0.077l-0.055,-0.078l-0.054,-0.079l-0.053,-0.079l-0.052,-0.08l-0.051,-0.082l-0.049,-0.082l-0.048,-0.082l-0.047,-0.084l-0.046,-0.084l-0.045,-0.085l-0.043,-0.085l-0.042,-0.087l-0.041,-0.087l-0.04,-0.087l-0.039,-0.088l-0.037,-0.089l-0.036,-0.09l-0.035,-0.09l-0.034,-0.09l-0.032,-0.092l-0.032,-0.092l-0.03,-0.092l-0.029,-0.093l-0.028,-0.093l-0.026,-0.094l-0.026,-0.095l-0.024,-0.095l-0.023,-0.095l-0.022,-0.096l-0.021,-0.097l-0.019,-0.096l-0.019,-0.098l-0.017,-0.098l-0.017,-0.098l-0.015,-0.099l-0.014,-0.099l-0.013,-0.1l-0.012,-0.1l-0.011,-0.1l-0.01,-0.101l-0.008,-0.102l-0.008,-0.102l-0.007,-0.102l-0.005,-0.103l-0.005,-0.103l-0.003,-0.103l-0.003,-0.104l-0.002,-0.105l0,-0.104l0,-0.105l0.002,-0.103l0.002,-0.104l0.004,-0.103l0.004,-0.102l0.005,-0.102l0.007,-0.102l0.007,-0.101l0.008,-0.1l0.009,-0.101l0.011,-0.1l0.011,-0.099l0.012,-0.099l0.014,-0.098l0.014,-0.099l0.016,-0.097l0.016,-0.097l0.018,-0.097l0.018,-0.096l0.02,-0.096l0.021,-0.095l0.022,-0.095l0.023,-0.094l0.024,-0.094l0.025,-0.094l0.026,-0.093l0.028,-0.092l0.028,-0.092l0.03,-0.091l0.031,-0.091l0.032,-0.09l0.033,-0.089l0.034,-0.09l0.035,-0.088l0.037,-0.088l0.038,-0.087l0.038,-0.087l0.04,-0.086l0.042,-0.085l0.042,-0.085l0.043,-0.084l0.045,-0.083l0.046,-0.083l0.047,-0.082l0.048,-0.081l0.049,-0.08l0.05,-0.08l0.052,-0.079l0.053,-0.078l0.053,-0.078l0.055,-0.076l0.056,-0.076l0.057,-0.075l0.059,-0.074l0.059,-0.073l0.06,-0.072l0.062,-0.072l0.062,-0.07l0.064,-0.07l0.064,-0.068l0.066,-0.068l0.066,-0.067l0.068,-0.066l0.069,-0.065l0.07,-0.065l0.071,-0.064l0.073,-0.062l0.073,-0.062l0.074,-0.061l0.076,-0.059l0.076,-0.058l0.077,-0.058l0.078,-0.056l0.079,-0.055l0.079,-0.054l0.081,-0.052l0.081,-0.052l0.082,-0.051l0.083,-0.049l0.084,-0.048l0.085,-0.048l0.085,-0.046l0.086,-0.044l0.087,-0.044l0.087,-0.043l0.088,-0.042l0.089,-0.04l0.09,-0.039l0.09,-0.039l0.091,-0.037l0.092,-0.036l0.092,-0.035l0.093,-0.034l0.093,-0.032l0.094,-0.032l0.095,-0.031l0.095,-0.03l0.096,-0.028l0.097,-0.028l0.097,-0.026l0.098,-0.026l0.098,-0.024l0.099,-0.024l0.1,-0.022l0.1,-0.022l0.1,-0.02l0.102,-0.02l0.102,-0.018l0.102,-0.018l0.103,-0.017l0.103,-0.015l0.104,-0.015l0.105,-0.014l0.105,-0.013l0.106,-0.012l0.107,-0.011l0.106,-0.01l0.108,-0.009l0.108,-0.008l0.109,-0.008l0.109,-0.006l0.11,-0.006l0.11,-0.005l0.111,-0.004l0.112,-0.003l0.112,-0.002l0.112,-0.001l0.114,-0.001l0.11,0.001Zm-0.199,3.2l-0.088,0.001l-0.088,0.002l-0.086,0.002l-0.085,0.003l-0.084,0.003l-0.084,0.005l-0.082,0.005l-0.081,0.005l-0.081,0.006l-0.079,0.007l-0.079,0.008l-0.077,0.008l-0.077,0.008l-0.075,0.01l-0.075,0.009l-0.073,0.011l-0.073,0.011l-0.072,0.011l-0.07,0.013l-0.07,0.012l-0.069,0.014l-0.068,0.013l-0.066,0.015l-0.066,0.015l-0.065,0.015l-0.064,0.016l-0.063,0.016l-0.062,0.017l-0.061,0.018l-0.06,0.018l-0.06,0.018l-0.058,0.019l-0.057,0.019l-0.057,0.02l-0.055,0.02l-0.055,0.021l-0.054,0.021l-0.052,0.022l-0.052,0.022l-0.052,0.022l-0.05,0.023l-0.049,0.024l-0.049,0.023l-0.048,0.024l-0.047,0.025l-0.046,0.025l-0.045,0.025l-0.045,0.026l-0.044,0.026l-0.043,0.027l-0.042,0.026l-0.042,0.028l-0.041,0.028l-0.04,0.028l-0.04,0.028l-0.039,0.029l-0.038,0.03l-0.038,0.029l-0.037,0.031l-0.037,0.03l-0.035,0.031l-0.036,0.032l-0.035,0.032l-0.035,0.033l-0.034,0.034l-0.034,0.034l-0.033,0.034l-0.033,0.035l-0.032,0.035l-0.031,0.036l-0.031,0.035l-0.03,0.037l-0.03,0.036l-0.029,0.037l-0.029,0.038l-0.028,0.038l-0.028,0.038l-0.027,0.039l-0.026,0.04l-0.026,0.04l-0.026,0.04l-0.025,0.041l-0.024,0.041l-0.024,0.042l-0.024,0.043l-0.023,0.043l-0.023,0.044l-0.022,0.044l-0.022,0.045l-0.021,0.046l-0.021,0.046l-0.02,0.047l-0.02,0.048l-0.019,0.048l-0.019,0.049l-0.018,0.049l-0.018,0.051l-0.017,0.051l-0.017,0.052l-0.017,0.053l-0.015,0.053l-0.016,0.054l-0.015,0.055l-0.014,0.056l-0.014,0.056l-0.013,0.057l-0.012,0.059l-0.013,0.059l-0.011,0.059l-0.011,0.061l-0.011,0.061l-0.009,0.062l-0.01,0.063l-0.008,0.064l-0.008,0.065l-0.008,0.066l-0.007,0.066l-0.006,0.067l-0.006,0.068l-0.005,0.069l-0.004,0.07l-0.004,0.071l-0.003,0.071l-0.002,0.072l-0.002,0.074l-0.001,0.074l0,0.074l0,0.075l0.001,0.073l0.002,0.072l0.003,0.072l0.003,0.071l0.004,0.07l0.004,0.069l0.005,0.068l0.006,0.067l0.006,0.066l0.007,0.066l0.008,0.065l0.009,0.063l0.008,0.063l0.01,0.062l0.01,0.062l0.011,0.06l0.011,0.06l0.012,0.059l0.013,0.057l0.013,0.058l0.013,0.056l0.015,0.055l0.014,0.055l0.016,0.054l0.015,0.053l0.017,0.053l0.017,0.051l0.017,0.051l0.018,0.05l0.018,0.05l0.019,0.049l0.02,0.048l0.02,0.047l0.02,0.047l0.021,0.046l0.021,0.045l0.022,0.045l0.023,0.044l0.022,0.044l0.024,0.043l0.024,0.042l0.024,0.042l0.025,0.041l0.026,0.041l0.026,0.04l0.026,0.04l0.027,0.04l0.028,0.038l0.028,0.039l0.028,0.038l0.03,0.037l0.03,0.038l0.03,0.036l0.031,0.037l0.032,0.036l0.032,0.035l0.033,0.035l0.034,0.035l0.034,0.035l0.035,0.034l0.035,0.034l0.037,0.033l0.037,0.034l0.038,0.033l0.039,0.033l0.04,0.033l0.039,0.032l0.041,0.031l0.041,0.031l0.041,0.031l0.042,0.03l0.042,0.029l0.044,0.029l0.043,0.029l0.044,0.028l0.045,0.028l0.045,0.027l0.046,0.027l0.047,0.026l0.047,0.026l0.048,0.025l0.048,0.025l0.049,0.024l0.05,0.024l0.05,0.024l0.051,0.023l0.052,0.023l0.053,0.022l0.053,0.021l0.054,0.022l0.055,0.02l0.055,0.021l0.056,0.019l0.057,0.02l0.058,0.018l0.058,0.019l0.059,0.017l0.06,0.018l0.061,0.016l0.062,0.017l0.062,0.015l0.063,0.016l0.064,0.014l0.065,0.015l0.065,0.013l0.067,0.013l0.067,0.013l0.068,0.012l0.069,0.011l0.07,0.011l0.07,0.01l0.071,0.01l0.073,0.009l0.073,0.008l0.073,0.008l0.075,0.007l0.075,0.007l0.077,0.006l0.077,0.006l0.078,0.004l0.079,0.005l0.079,0.003l0.081,0.003l0.081,0.002l0.082,0.002l0.083,0.001l0.084,0l0.08,0l0.08,-0.001l0.078,-0.002l0.078,-0.002l0.077,-0.003l0.077,-0.003l0.075,-0.005l0.075,-0.004l0.074,-0.006l0.073,-0.006l0.073,-0.007l0.071,-0.007l0.071,-0.008l0.07,-0.008l0.07,-0.009l0.068,-0.01l0.068,-0.01l0.067,-0.011l0.066,-0.011l0.065,-0.012l0.065,-0.012l0.064,-0.013l0.063,-0.014l0.062,-0.014l0.062,-0.015l0.06,-0.015l0.061,-0.016l0.059,-0.016l0.058,-0.017l0.058,-0.017l0.057,-0.018l0.057,-0.018l0.056,-0.019l0.055,-0.019l0.054,-0.02l0.054,-0.02l0.053,-0.02l0.052,-0.022l0.051,-0.021l0.051,-0.023l0.051,-0.022l0.049,-0.023l0.05,-0.024l0.048,-0.024l0.048,-0.024l0.047,-0.025l0.047,-0.026l0.046,-0.026l0.046,-0.026l0.045,-0.027l0.044,-0.028l0.044,-0.028l0.043,-0.028l0.043,-0.029l0.043,-0.029l0.042,-0.03l0.041,-0.03l0.041,-0.031l0.041,-0.032l0.04,-0.032l0.04,-0.032l0.039,-0.033l0.039,-0.034l0.038,-0.034l0.037,-0.034l0.037,-0.034l0.035,-0.034l0.035,-0.035l0.034,-0.035l0.034,-0.036l0.033,-0.035l0.032,-0.037l0.032,-0.036l0.031,-0.037l0.03,-0.037l0.03,-0.038l0.029,-0.038l0.029,-0.038l0.028,-0.039l0.027,-0.039l0.027,-0.04l0.027,-0.04l0.026,-0.041l0.025,-0.041l0.025,-0.041l0.024,-0.042l0.024,-0.043l0.024,-0.043l0.022,-0.044l0.023,-0.044l0.022,-0.045l0.021,-0.046l0.021,-0.046l0.02,-0.047l0.02,-0.047l0.019,-0.048l0.019,-0.049l0.018,-0.049l0.018,-0.05l0.017,-0.051l0.017,-0.052l0.016,-0.052l0.016,-0.053l0.015,-0.053l0.015,-0.055l0.014,-0.055l0.013,-0.056l0.013,-0.057l0.012,-0.057l0.012,-0.059l0.012,-0.059l0.01,-0.06l0.01,-0.06l0.01,-0.062l0.009,-0.062l0.008,-0.063l0.007,-0.065l0.007,-0.064l0.007,-0.066l0.006,-0.066l0.005,-0.068l0.004,-0.068l0.004,-0.069l0.003,-0.07l0.002,-0.07l0.002,-0.072l0.001,-0.072l0,-0.074l0,-0.073l-0.001,-0.073l-0.002,-0.072l-0.002,-0.072l-0.003,-0.07l-0.004,-0.07l-0.004,-0.068l-0.005,-0.068l-0.005,-0.068l-0.007,-0.066l-0.006,-0.066l-0.008,-0.064l-0.008,-0.064l-0.009,-0.063l-0.009,-0.063l-0.01,-0.061l-0.01,-0.061l-0.011,-0.06l-0.011,-0.059l-0.013,-0.058l-0.012,-0.058l-0.013,-0.057l-0.014,-0.056l-0.014,-0.055l-0.015,-0.055l-0.015,-0.053l-0.016,-0.053l-0.017,-0.053l-0.017,-0.051l-0.017,-0.051l-0.018,-0.05l-0.018,-0.05l-0.019,-0.049l-0.019,-0.048l-0.02,-0.048l-0.02,-0.046l-0.021,-0.047l-0.021,-0.045l-0.022,-0.045l-0.022,-0.045l-0.023,-0.044l-0.023,-0.043l-0.024,-0.043l-0.024,-0.042l-0.025,-0.042l-0.025,-0.041l-0.026,-0.041l-0.026,-0.04l-0.027,-0.04l-0.027,-0.039l-0.028,-0.039l-0.028,-0.038l-0.029,-0.039l-0.03,-0.037l-0.03,-0.037l-0.03,-0.037l-0.031,-0.037l-0.032,-0.036l-0.032,-0.035l-0.033,-0.036l-0.034,-0.035l-0.034,-0.034l-0.035,-0.035l-0.036,-0.034l-0.035,-0.033l-0.036,-0.032l-0.037,-0.032l-0.037,-0.032l-0.037,-0.031l-0.038,-0.03l-0.039,-0.031l-0.039,-0.029l-0.04,-0.029l-0.04,-0.029l-0.041,-0.028l-0.041,-0.028l-0.042,-0.027l-0.043,-0.027l-0.043,-0.027l-0.045,-0.026l-0.044,-0.025l-0.046,-0.025l-0.046,-0.025l-0.047,-0.024l-0.047,-0.024l-0.048,-0.024l-0.049,-0.023l-0.05,-0.022l-0.051,-0.022l-0.051,-0.022l-0.052,-0.021l-0.053,-0.021l-0.054,-0.02l-0.054,-0.02l-0.055,-0.019l-0.057,-0.019l-0.057,-0.018l-0.057,-0.018l-0.059,-0.018l-0.06,-0.017l-0.06,-0.016l-0.061,-0.016l-0.063,-0.015l-0.063,-0.015l-0.063,-0.014l-0.065,-0.014l-0.066,-0.013l-0.067,-0.013l-0.067,-0.012l-0.068,-0.012l-0.07,-0.011l-0.07,-0.01l-0.071,-0.01l-0.072,-0.009l-0.073,-0.009l-0.074,-0.008l-0.074,-0.007l-0.076,-0.007l-0.076,-0.006l-0.078,-0.005l-0.078,-0.005l-0.079,-0.005l-0.08,-0.003l-0.081,-0.003l-0.082,-0.002l-0.083,-0.002l-0.084,-0.001l-0.084,0l-0.089,0Zm2.098,-38.356l0.227,0.002l0.225,0.004l0.225,0.006l0.222,0.007l0.222,0.009l0.22,0.01l0.219,0.012l0.218,0.013l0.216,0.015l0.215,0.017l0.214,0.018l0.212,0.02l0.211,0.022l0.21,0.023l0.208,0.025l0.208,0.026l0.205,0.028l0.205,0.03l0.203,0.031l0.202,0.033l0.201,0.035l0.199,0.036l0.198,0.038l0.197,0.04l0.195,0.041l0.194,0.043l0.193,0.045l0.192,0.046l0.19,0.048l0.189,0.05l0.187,0.051l0.186,0.053l0.185,0.055l0.184,0.057l0.182,0.058l0.181,0.06l0.179,0.062l0.178,0.063l0.177,0.066l0.175,0.067l0.174,0.069l0.173,0.07l0.171,0.072l0.17,0.074l0.168,0.076l0.167,0.078l0.166,0.079l0.164,0.081l0.163,0.083l0.161,0.085l0.16,0.087l0.158,0.088l0.157,0.09l0.156,0.092l0.154,0.093l0.152,0.096l0.151,0.097l0.149,0.099l0.148,0.1l0.146,0.103l0.145,0.104l0.143,0.106l0.142,0.108l0.14,0.109l0.137,0.111l0.136,0.112l0.134,0.113l0.131,0.115l0.13,0.117l0.128,0.118l0.126,0.119l0.124,0.121l0.121,0.122l0.12,0.123l0.118,0.125l0.115,0.127l0.114,0.128l0.111,0.129l0.109,0.131l0.107,0.132l0.105,0.134l0.103,0.135l0.101,0.136l0.098,0.138l0.097,0.139l0.094,0.14l0.092,0.142l0.089,0.143l0.087,0.145l0.086,0.145l0.082,0.147l0.081,0.149l0.078,0.149l0.076,0.151l0.074,0.152l0.071,0.153l0.069,0.154l0.067,0.156l0.065,0.156l0.062,0.158l0.06,0.159l0.057,0.16l0.056,0.161l0.052,0.162l0.051,0.163l0.048,0.165l0.046,0.165l0.044,0.166l0.041,0.167l0.039,0.169l0.037,0.169l0.035,0.17l0.032,0.171l0.03,0.172l0.027,0.173l0.026,0.174l0.023,0.175l0.021,0.175l0.018,0.177l0.017,0.177l0.014,0.179l0.012,0.179l0.01,0.18l0.008,0.181l0.005,0.181l0.003,0.183l0.001,0.182l0,0.131l-0.002,0.129l-0.002,0.129l-0.003,0.129l-0.005,0.128l-0.005,0.127l-0.006,0.128l-0.007,0.126l-0.008,0.127l-0.009,0.126l-0.011,0.125l-0.011,0.126l-0.012,0.124l-0.013,0.125l-0.014,0.124l-0.014,0.123l-0.016,0.123l-0.017,0.123l-0.018,0.122l-0.019,0.122l-0.02,0.122l-0.021,0.121l-0.022,0.12l-0.023,0.12l-0.023,0.12l-0.025,0.119l-0.026,0.119l-0.027,0.119l-0.028,0.117l-0.029,0.118l-0.029,0.117l-0.031,0.116l-0.032,0.117l-0.033,0.115l-0.034,0.115l-0.035,0.115l-0.036,0.114l-0.037,0.114l-0.038,0.113l-0.039,0.113l-0.04,0.112l-0.041,0.112l-0.042,0.111l-0.043,0.111l-0.044,0.11l-0.045,0.11l-0.046,0.109l-0.047,0.109l-0.048,0.108l-0.049,0.107l-0.05,0.108l-0.051,0.106l-0.052,0.106l-0.053,0.106l-0.054,0.105l-0.055,0.104l-0.056,0.104l-0.057,0.103l-0.058,0.103l-0.06,0.102l-0.06,0.101l-0.061,0.101l-0.062,0.101l-0.063,0.099l-0.063,0.099l-0.065,0.098l-0.066,0.098l-0.067,0.098l-0.068,0.098l-0.069,0.097l-0.07,0.097l-0.071,0.096l-0.072,0.096l-0.073,0.096l-0.074,0.095l-0.076,0.096l-0.076,0.095l-0.077,0.094l-0.079,0.094l-0.079,0.094l-0.08,0.094l-0.082,0.093l-0.082,0.093l-0.084,0.093l-0.084,0.092l-0.086,0.092l-0.086,0.092l-0.088,0.092l-0.088,0.091l-0.09,0.091l-0.09,0.091l-0.092,0.09l-0.092,0.09l-0.094,0.09l-0.094,0.089l-0.096,0.09l-0.096,0.089l-0.098,0.088l-0.098,0.089l-0.1,0.088l-0.1,0.088l-0.102,0.087l-0.102,0.088l-0.104,0.087l-0.104,0.086l-0.105,0.087l-0.107,0.086l-0.107,0.086l-0.109,0.086l-0.111,0.087l-0.219,0.169l-0.226,0.169l-0.229,0.169l-0.234,0.167l-0.237,0.166l-0.241,0.166l-0.245,0.165l-0.249,0.163l-0.244,0.157l-0.198,0.129l-0.193,0.126l-0.189,0.125l-0.184,0.122l-0.178,0.119l-0.174,0.117l-0.168,0.115l-0.164,0.112l-0.158,0.11l-0.154,0.107l-0.148,0.105l-0.143,0.102l-0.138,0.1l-0.133,0.097l-0.127,0.095l-0.122,0.091l-0.117,0.09l-0.112,0.086l-0.106,0.083l-0.101,0.081l-0.095,0.078l-0.089,0.074l-0.084,0.071l-0.078,0.068l-0.072,0.065l-0.067,0.06l-0.06,0.057l-0.053,0.052l-0.048,0.048l-0.04,0.043l-0.034,0.037l-0.028,0.033l-0.028,0.034l-0.029,0.036l-0.026,0.035l-0.026,0.036l-0.025,0.036l-0.023,0.035l-0.022,0.036l-0.021,0.036l-0.021,0.036l-0.019,0.036l-0.018,0.036l-0.018,0.037l-0.016,0.037l-0.016,0.037l-0.015,0.037l-0.014,0.039l-0.013,0.038l-0.013,0.04l-0.011,0.039l-0.011,0.041l-0.01,0.041l-0.01,0.043l-0.008,0.043l-0.008,0.044l-0.007,0.044l-0.006,0.046l-0.005,0.047l-0.005,0.048l-0.003,0.049l-0.002,0.05l-0.002,0.052l0,0.06l0,3.186l-12.794,0l0,-4.293l0.001,-0.206l0.004,-0.209l0.007,-0.208l0.009,-0.207l0.013,-0.205l0.015,-0.204l0.018,-0.202l0.021,-0.201l0.023,-0.2l0.027,-0.197l0.029,-0.197l0.032,-0.195l0.035,-0.193l0.038,-0.192l0.041,-0.19l0.044,-0.189l0.047,-0.187l0.05,-0.185l0.053,-0.184l0.056,-0.182l0.059,-0.181l0.062,-0.179l0.065,-0.177l0.068,-0.176l0.071,-0.173l0.074,-0.172l0.076,-0.167l0.042,-0.087l0.04,-0.084l0.042,-0.083l0.042,-0.083l0.043,-0.083l0.044,-0.082l0.044,-0.081l0.045,-0.081l0.046,-0.08l0.047,-0.08l0.049,-0.081l0.049,-0.08l0.051,-0.081l0.051,-0.08l0.053,-0.079l0.053,-0.079l0.055,-0.079l0.055,-0.079l0.057,-0.078l0.057,-0.078l0.058,-0.078l0.059,-0.078l0.06,-0.077l0.062,-0.076l0.062,-0.077l0.062,-0.076l0.064,-0.076l0.067,-0.079l0.13,-0.147l0.136,-0.15l0.14,-0.148l0.143,-0.148l0.147,-0.146l0.15,-0.146l0.154,-0.144l0.157,-0.144l0.161,-0.143l0.165,-0.142l0.168,-0.141l0.171,-0.14l0.175,-0.14l0.179,-0.139l0.182,-0.138l0.185,-0.137l0.189,-0.137l0.193,-0.136l0.196,-0.136l0.199,-0.135l0.203,-0.134l0.207,-0.134l0.204,-0.129l0.153,-0.098l0.147,-0.094l0.144,-0.093l0.141,-0.092l0.138,-0.092l0.135,-0.091l0.132,-0.09l0.128,-0.089l0.126,-0.088l0.123,-0.088l0.12,-0.086l0.117,-0.086l0.114,-0.085l0.11,-0.083l0.108,-0.083l0.104,-0.082l0.102,-0.081l0.098,-0.08l0.095,-0.078l0.093,-0.078l0.089,-0.077l0.086,-0.075l0.082,-0.074l0.08,-0.073l0.076,-0.072l0.074,-0.071l0.07,-0.069l0.067,-0.067l0.063,-0.067l0.061,-0.064l0.057,-0.063l0.053,-0.061l0.049,-0.057l0.045,-0.056l0.043,-0.055l0.042,-0.056l0.04,-0.056l0.038,-0.055l0.036,-0.056l0.034,-0.055l0.033,-0.056l0.031,-0.055l0.03,-0.056l0.028,-0.056l0.026,-0.056l0.025,-0.056l0.024,-0.056l0.022,-0.057l0.021,-0.057l0.019,-0.058l0.018,-0.058l0.017,-0.058l0.016,-0.06l0.014,-0.059l0.013,-0.061l0.011,-0.061l0.011,-0.062l0.009,-0.063l0.007,-0.064l0.007,-0.065l0.005,-0.066l0.003,-0.068l0.002,-0.068l0.001,-0.066l0,-0.039l-0.002,-0.033l-0.002,-0.032l-0.003,-0.029l-0.004,-0.028l-0.004,-0.026l-0.005,-0.024l-0.005,-0.022l-0.006,-0.022l-0.007,-0.02l-0.006,-0.02l-0.007,-0.019l-0.008,-0.018l-0.008,-0.018l-0.009,-0.017l-0.01,-0.018l-0.011,-0.018l-0.011,-0.018l-0.013,-0.018l-0.014,-0.019l-0.015,-0.02l-0.017,-0.02l-0.019,-0.021l-0.021,-0.021l-0.022,-0.023l-0.025,-0.023l-0.027,-0.023l-0.03,-0.025l-0.032,-0.025l-0.034,-0.025l-0.037,-0.026l-0.041,-0.027l-0.043,-0.027l-0.046,-0.027l-0.047,-0.027l-0.048,-0.026l-0.049,-0.025l-0.051,-0.025l-0.053,-0.024l-0.054,-0.023l-0.055,-0.023l-0.058,-0.022l-0.059,-0.021l-0.06,-0.021l-0.063,-0.02l-0.064,-0.019l-0.066,-0.018l-0.068,-0.017l-0.07,-0.017l-0.071,-0.016l-0.074,-0.014l-0.075,-0.014l-0.077,-0.013l-0.079,-0.012l-0.081,-0.011l-0.083,-0.01l-0.085,-0.009l-0.087,-0.007l-0.088,-0.007l-0.091,-0.005l-0.092,-0.004l-0.095,-0.004l-0.096,-0.001l-0.099,-0.001l-0.129,0.001l-0.131,0.002l-0.133,0.004l-0.133,0.005l-0.134,0.006l-0.135,0.008l-0.136,0.01l-0.137,0.011l-0.138,0.012l-0.139,0.014l-0.14,0.015l-0.141,0.017l-0.142,0.019l-0.143,0.02l-0.144,0.021l-0.145,0.023l-0.146,0.025l-0.147,0.026l-0.148,0.027l-0.149,0.029l-0.149,0.031l-0.151,0.032l-0.152,0.034l-0.153,0.036l-0.154,0.036l-0.154,0.039l-0.156,0.04l-0.157,0.042l-0.157,0.043l-0.159,0.045l-0.16,0.046l-0.16,0.048l-0.162,0.05l-0.162,0.051l-0.163,0.053l-0.165,0.054l-0.165,0.056l-0.166,0.058l-0.167,0.059l-0.169,0.061l-0.169,0.062l-0.17,0.064l-0.17,0.066l-0.172,0.067l-0.173,0.069l-0.174,0.071l-0.174,0.072l-0.176,0.074l-0.176,0.075l-0.178,0.077l-0.178,0.079l-0.179,0.081l-0.18,0.082l-0.182,0.083l-0.181,0.085l-0.183,0.087l-0.184,0.089l-0.185,0.09l-0.185,0.092l-0.187,0.093l-0.187,0.095l-0.188,0.097l-0.189,0.099l-1.627,0.856l-5.779,-11.308l1.584,-0.896l0.254,-0.141l0.254,-0.139l0.255,-0.136l0.255,-0.135l0.256,-0.132l0.256,-0.13l0.257,-0.128l0.257,-0.126l0.257,-0.123l0.258,-0.121l0.259,-0.119l0.258,-0.117l0.259,-0.114l0.26,-0.113l0.26,-0.11l0.26,-0.107l0.261,-0.106l0.261,-0.103l0.262,-0.101l0.262,-0.099l0.263,-0.097l0.263,-0.094l0.263,-0.092l0.264,-0.09l0.264,-0.087l0.264,-0.085l0.265,-0.083l0.265,-0.081l0.266,-0.079l0.266,-0.076l0.267,-0.074l0.267,-0.072l0.267,-0.069l0.267,-0.067l0.268,-0.065l0.269,-0.063l0.269,-0.06l0.269,-0.058l0.269,-0.056l0.27,-0.053l0.27,-0.052l0.271,-0.049l0.271,-0.046l0.271,-0.045l0.272,-0.042l0.272,-0.04l0.273,-0.037l0.272,-0.036l0.273,-0.033l0.274,-0.03l0.274,-0.029l0.274,-0.026l0.274,-0.024l0.275,-0.022l0.275,-0.019l0.275,-0.017l0.276,-0.015l0.276,-0.012l0.276,-0.011l0.277,-0.008l0.277,-0.005l0.277,-0.004l0.277,-0.001l0.229,0.001Zm-0.227,3.199l-0.252,0.001l-0.251,0.003l-0.251,0.006l-0.25,0.007l-0.25,0.009l-0.25,0.011l-0.249,0.014l-0.249,0.015l-0.248,0.018l-0.248,0.019l-0.248,0.022l-0.248,0.023l-0.247,0.026l-0.247,0.028l-0.246,0.03l-0.246,0.031l-0.246,0.034l-0.246,0.036l-0.245,0.038l-0.245,0.04l-0.244,0.043l-0.245,0.044l-0.243,0.046l-0.244,0.048l-0.243,0.051l-0.243,0.052l-0.243,0.055l-0.243,0.056l-0.242,0.059l-0.242,0.061l-0.241,0.062l-0.241,0.065l-0.241,0.067l-0.241,0.069l-0.241,0.071l-0.24,0.073l-0.24,0.075l-0.239,0.077l-0.24,0.08l-0.239,0.081l-0.238,0.084l-0.239,0.085l-0.238,0.088l-0.238,0.09l-0.238,0.091l-0.238,0.094l-0.237,0.096l-0.237,0.098l-0.237,0.101l-0.236,0.102l-0.236,0.104l-0.236,0.107l-0.236,0.108l-0.236,0.111l-0.235,0.113l-0.235,0.114l-0.235,0.117l-0.234,0.12l-0.06,0.031l2.908,5.69l0.163,-0.079l0.199,-0.095l0.198,-0.092l0.197,-0.091l0.196,-0.09l0.196,-0.088l0.195,-0.086l0.195,-0.084l0.194,-0.083l0.193,-0.081l0.193,-0.08l0.192,-0.078l0.191,-0.076l0.191,-0.075l0.19,-0.073l0.19,-0.072l0.189,-0.07l0.188,-0.068l0.187,-0.066l0.188,-0.065l0.186,-0.063l0.186,-0.062l0.185,-0.06l0.185,-0.058l0.184,-0.056l0.183,-0.055l0.183,-0.053l0.182,-0.052l0.182,-0.05l0.181,-0.048l0.18,-0.046l0.18,-0.045l0.18,-0.043l0.178,-0.041l0.178,-0.04l0.178,-0.038l0.177,-0.036l0.176,-0.035l0.176,-0.033l0.175,-0.031l0.175,-0.029l0.174,-0.028l0.174,-0.026l0.173,-0.024l0.172,-0.022l0.172,-0.021l0.171,-0.019l0.171,-0.017l0.17,-0.015l0.169,-0.014l0.169,-0.011l0.169,-0.01l0.168,-0.008l0.167,-0.007l0.166,-0.004l0.167,-0.003l0.166,-0.001l0.138,0.001l0.138,0.002l0.137,0.005l0.136,0.006l0.135,0.008l0.134,0.01l0.133,0.012l0.133,0.014l0.131,0.015l0.131,0.018l0.129,0.019l0.129,0.022l0.128,0.023l0.127,0.026l0.126,0.027l0.125,0.03l0.124,0.032l0.123,0.034l0.122,0.036l0.121,0.039l0.12,0.041l0.119,0.043l0.118,0.045l0.117,0.047l0.115,0.05l0.114,0.053l0.113,0.054l0.112,0.057l0.11,0.06l0.109,0.061l0.107,0.064l0.106,0.067l0.106,0.07l0.104,0.073l0.103,0.076l0.1,0.078l0.098,0.081l0.096,0.084l0.093,0.086l0.091,0.09l0.089,0.092l0.085,0.095l0.083,0.098l0.08,0.101l0.076,0.103l0.073,0.106l0.07,0.109l0.066,0.111l0.062,0.113l0.058,0.116l0.055,0.117l0.05,0.119l0.046,0.121l0.042,0.122l0.038,0.123l0.034,0.125l0.029,0.125l0.025,0.126l0.021,0.127l0.018,0.126l0.013,0.128l0.009,0.127l0.006,0.127l0.001,0.125l-0.001,0.14l-0.004,0.136l-0.008,0.136l-0.01,0.136l-0.013,0.136l-0.016,0.135l-0.019,0.134l-0.023,0.134l-0.025,0.133l-0.028,0.133l-0.031,0.132l-0.035,0.131l-0.037,0.13l-0.04,0.129l-0.044,0.128l-0.046,0.128l-0.049,0.126l-0.053,0.125l-0.055,0.123l-0.058,0.123l-0.061,0.121l-0.063,0.12l-0.067,0.118l-0.069,0.118l-0.072,0.115l-0.074,0.114l-0.077,0.113l-0.079,0.111l-0.082,0.11l-0.085,0.108l-0.086,0.107l-0.088,0.103l-0.089,0.101l-0.089,0.099l-0.092,0.098l-0.095,0.098l-0.097,0.098l-0.099,0.098l-0.101,0.098l-0.104,0.097l-0.107,0.098l-0.108,0.097l-0.111,0.098l-0.114,0.097l-0.116,0.098l-0.118,0.098l-0.121,0.098l-0.123,0.098l-0.126,0.099l-0.128,0.098l-0.131,0.099l-0.133,0.1l-0.136,0.099l-0.138,0.1l-0.141,0.1l-0.143,0.101l-0.146,0.101l-0.149,0.101l-0.151,0.102l-0.153,0.102l-0.156,0.102l-0.159,0.103l-0.161,0.103l-0.16,0.102l-0.191,0.121l-0.18,0.116l-0.177,0.117l-0.172,0.117l-0.169,0.116l-0.164,0.116l-0.16,0.116l-0.156,0.116l-0.152,0.116l-0.149,0.115l-0.143,0.115l-0.14,0.114l-0.136,0.114l-0.132,0.114l-0.128,0.114l-0.124,0.113l-0.119,0.112l-0.116,0.112l-0.112,0.111l-0.107,0.111l-0.104,0.111l-0.1,0.109l-0.098,0.112l-0.044,0.052l-0.046,0.054l-0.044,0.054l-0.044,0.054l-0.042,0.053l-0.042,0.053l-0.041,0.054l-0.039,0.053l-0.039,0.052l-0.038,0.053l-0.037,0.052l-0.036,0.053l-0.035,0.052l-0.034,0.051l-0.033,0.052l-0.033,0.051l-0.031,0.051l-0.031,0.052l-0.03,0.052l-0.031,0.053l-0.03,0.053l-0.029,0.054l-0.029,0.054l-0.028,0.054l-0.028,0.055l-0.028,0.056l-0.027,0.056l-0.025,0.053l-0.054,0.117l-0.05,0.116l-0.048,0.118l-0.047,0.12l-0.045,0.122l-0.042,0.124l-0.042,0.126l-0.039,0.128l-0.037,0.13l-0.036,0.132l-0.033,0.134l-0.032,0.137l-0.03,0.138l-0.028,0.141l-0.026,0.143l-0.024,0.145l-0.022,0.147l-0.02,0.15l-0.018,0.152l-0.016,0.154l-0.014,0.156l-0.011,0.159l-0.01,0.161l-0.007,0.163l-0.006,0.165l-0.003,0.168l-0.001,0.175l0,1.082l6.394,0l0,-0.001l0.001,-0.108l0.003,-0.114l0.006,-0.114l0.007,-0.114l0.011,-0.114l0.012,-0.113l0.015,-0.113l0.018,-0.113l0.019,-0.112l0.022,-0.112l0.025,-0.111l0.027,-0.11l0.03,-0.11l0.032,-0.109l0.034,-0.108l0.037,-0.108l0.039,-0.107l0.042,-0.105l0.044,-0.105l0.047,-0.104l0.049,-0.102l0.051,-0.102l0.053,-0.1l0.056,-0.099l0.058,-0.098l0.06,-0.096l0.063,-0.095l0.064,-0.094l0.067,-0.093l0.068,-0.09l0.071,-0.09l0.074,-0.09l0.079,-0.092l0.085,-0.093l0.086,-0.091l0.09,-0.091l0.093,-0.091l0.096,-0.09l0.1,-0.092l0.103,-0.092l0.107,-0.093l0.111,-0.094l0.115,-0.095l0.118,-0.097l0.123,-0.098l0.126,-0.1l0.131,-0.101l0.136,-0.103l0.139,-0.105l0.144,-0.107l0.148,-0.108l0.152,-0.11l0.157,-0.112l0.161,-0.114l0.166,-0.116l0.17,-0.118l0.175,-0.12l0.179,-0.122l0.184,-0.124l0.189,-0.126l0.193,-0.128l0.197,-0.131l0.202,-0.132l0.208,-0.135l0.237,-0.152l0.223,-0.147l0.218,-0.146l0.215,-0.148l0.21,-0.147l0.205,-0.148l0.202,-0.147l0.197,-0.148l0.194,-0.15l0.093,-0.073l0.094,-0.074l0.093,-0.074l0.091,-0.074l0.091,-0.074l0.089,-0.075l0.088,-0.074l0.087,-0.074l0.087,-0.075l0.085,-0.074l0.084,-0.075l0.083,-0.074l0.082,-0.075l0.08,-0.074l0.08,-0.075l0.079,-0.074l0.077,-0.075l0.077,-0.074l0.075,-0.075l0.075,-0.074l0.073,-0.075l0.072,-0.074l0.072,-0.075l0.07,-0.074l0.069,-0.075l0.068,-0.074l0.067,-0.075l0.066,-0.074l0.065,-0.075l0.064,-0.074l0.063,-0.074l0.062,-0.075l0.061,-0.074l0.059,-0.075l0.059,-0.074l0.058,-0.074l0.057,-0.074l0.055,-0.075l0.055,-0.074l0.054,-0.074l0.052,-0.074l0.052,-0.074l0.051,-0.074l0.05,-0.075l0.048,-0.074l0.048,-0.073l0.046,-0.074l0.046,-0.074l0.045,-0.074l0.044,-0.075l0.044,-0.076l0.043,-0.075l0.042,-0.076l0.041,-0.077l0.041,-0.077l0.04,-0.077l0.039,-0.078l0.038,-0.078l0.038,-0.079l0.037,-0.079l0.036,-0.079l0.036,-0.081l0.035,-0.08l0.034,-0.081l0.033,-0.082l0.033,-0.082l0.032,-0.082l0.031,-0.083l0.031,-0.083l0.03,-0.084l0.029,-0.085l0.028,-0.085l0.028,-0.085l0.027,-0.086l0.026,-0.086l0.026,-0.087l0.025,-0.088l0.024,-0.088l0.023,-0.088l0.023,-0.089l0.022,-0.09l0.022,-0.09l0.02,-0.091l0.02,-0.091l0.019,-0.092l0.018,-0.092l0.018,-0.093l0.017,-0.094l0.016,-0.094l0.016,-0.094l0.014,-0.095l0.014,-0.096l0.014,-0.096l0.012,-0.097l0.012,-0.097l0.011,-0.098l0.01,-0.099l0.01,-0.099l0.009,-0.1l0.008,-0.1l0.007,-0.101l0.007,-0.102l0.005,-0.102l0.005,-0.102l0.005,-0.103l0.003,-0.104l0.003,-0.105l0.002,-0.105l0.001,-0.105l0,-0.105l-0.001,-0.147l-0.002,-0.144l-0.004,-0.143l-0.006,-0.142l-0.008,-0.14l-0.009,-0.139l-0.011,-0.138l-0.013,-0.136l-0.014,-0.135l-0.016,-0.134l-0.018,-0.133l-0.019,-0.131l-0.021,-0.13l-0.022,-0.129l-0.024,-0.127l-0.026,-0.127l-0.027,-0.125l-0.029,-0.124l-0.03,-0.122l-0.032,-0.122l-0.033,-0.12l-0.035,-0.12l-0.037,-0.118l-0.038,-0.117l-0.04,-0.116l-0.041,-0.115l-0.043,-0.113l-0.045,-0.113l-0.046,-0.112l-0.047,-0.11l-0.049,-0.11l-0.051,-0.109l-0.052,-0.107l-0.054,-0.107l-0.055,-0.106l-0.057,-0.105l-0.059,-0.104l-0.06,-0.103l-0.062,-0.102l-0.064,-0.102l-0.065,-0.1l-0.067,-0.1l-0.068,-0.099l-0.07,-0.098l-0.072,-0.097l-0.073,-0.097l-0.076,-0.096l-0.077,-0.095l-0.078,-0.094l-0.081,-0.093l-0.082,-0.093l-0.084,-0.092l-0.086,-0.091l-0.088,-0.091l-0.089,-0.09l-0.091,-0.089l-0.094,-0.088l-0.095,-0.088l-0.097,-0.087l-0.098,-0.086l-0.101,-0.085l-0.103,-0.085l-0.104,-0.084l-0.107,-0.083l-0.108,-0.083l-0.109,-0.081l-0.111,-0.079l-0.112,-0.079l-0.113,-0.077l-0.115,-0.076l-0.116,-0.075l-0.118,-0.073l-0.119,-0.073l-0.12,-0.071l-0.122,-0.07l-0.123,-0.069l-0.125,-0.067l-0.127,-0.066l-0.127,-0.066l-0.13,-0.063l-0.13,-0.063l-0.133,-0.062l-0.134,-0.06l-0.135,-0.059l-0.137,-0.058l-0.138,-0.056l-0.14,-0.056l-0.142,-0.054l-0.143,-0.053l-0.145,-0.051l-0.146,-0.051l-0.148,-0.049l-0.149,-0.047l-0.151,-0.047l-0.153,-0.045l-0.154,-0.044l-0.155,-0.043l-0.158,-0.042l-0.159,-0.04l-0.16,-0.039l-0.163,-0.037l-0.163,-0.036l-0.166,-0.035l-0.167,-0.034l-0.169,-0.032l-0.17,-0.031l-0.172,-0.03l-0.173,-0.028l-0.175,-0.027l-0.177,-0.026l-0.179,-0.024l-0.18,-0.023l-0.181,-0.022l-0.184,-0.02l-0.185,-0.019l-0.186,-0.017l-0.188,-0.017l-0.19,-0.014l-0.191,-0.014l-0.193,-0.012l-0.195,-0.01l-0.196,-0.009l-0.198,-0.008l-0.2,-0.006l-0.201,-0.005l-0.203,-0.004l-0.204,-0.002l-0.205,-0.001Z" style="fill:#385d37;"/></g></g></g></svg>