<?xml version="1.0" encoding="utf-8"?>
<!-- Generator: Adobe Illustrator 21.0.0, SVG Export Plug-In . SVG Version: 6.00 Build 0)  -->
<svg version="1.1" id="Layer_1" xmlns="http://www.w3.org/2000/svg" xmlns:xlink="http://www.w3.org/1999/xlink" x="0px" y="0px"
	 viewBox="0 0 24 24" style="enable-background:new 0 0 24 24;" xml:space="preserve">
<style type="text/css">
	.st0{fill:#F59B25;}
</style>
<g>
	<path class="st0" d="M21.6,16.7c-0.1-0.1-0.2-0.2-0.4-0.2c-1.7-0.2-3-1.7-3-3.4c0-1.5,1-2.8,2.4-3.3c0.1,0,0.3-0.2,0.3-0.3
		s0-0.3,0-0.4C19.8,7,17.9,6,16.8,6c-0.9,0-1.8,0.3-2.6,0.6C13.5,6.8,12.8,7,12.3,7s-1.2-0.2-1.9-0.4C9.6,6.3,8.7,6,7.8,6
		c-1.9,0-5.5,2.6-5.5,7.5c0,4.6,3.4,10.5,6,10.5c1.4,0,2.2-0.4,2.9-0.7c0.4-0.2,0.7-0.3,1.1-0.3s0.7,0.1,1.1,0.3
		c0.7,0.3,1.5,0.7,2.9,0.7c2.1,0,4.4-3.6,5.4-6.9C21.7,16.9,21.7,16.8,21.6,16.7z"/>
	<path class="st0" d="M11.8,6c3,0,5.5-2.5,5.5-5.5C17.3,0.2,17,0,16.8,0c-3,0-5.5,2.5-5.5,5.5C11.3,5.8,11.5,6,11.8,6z"/>
</g>
</svg>
