<?xml version="1.0" encoding="utf-8"?>
<!-- Generator: Adobe Illustrator 21.0.0, SVG Export Plug-In . SVG Version: 6.00 Build 0)  -->
<svg version="1.1" id="Layer_1" xmlns="http://www.w3.org/2000/svg" xmlns:xlink="http://www.w3.org/1999/xlink" x="0px" y="0px"
	 viewBox="0 0 24 24" style="enable-background:new 0 0 24 24;" xml:space="preserve">
<style type="text/css">
	.st0{fill:#F59B25;}
</style>
<g id="XMLID_47_">
	<g>
		<path class="st0" d="M3.5,8C2.7,8,2,8.7,2,9.5v7C2,17.3,2.7,18,3.5,18S5,17.3,5,16.5v-7C5,8.7,4.3,8,3.5,8z"/>
		<path class="st0" d="M20.5,8C19.7,8,19,8.7,19,9.5v7c0,0.8,0.7,1.5,1.5,1.5s1.5-0.7,1.5-1.5v-7C22,8.7,21.3,8,20.5,8z"/>
		<path class="st0" d="M17.5,8h-11C6.2,8,6,8.2,6,8.5v8c0,1.2,0.9,2.2,2,2.5v3.5C8,23.3,8.7,24,9.5,24s1.5-0.7,1.5-1.5V19h2v3.5
			c0,0.8,0.7,1.5,1.5,1.5s1.5-0.7,1.5-1.5V19c1.1-0.2,2-1.2,2-2.5v-8C18,8.2,17.8,8,17.5,8z"/>
	</g>
	<path class="st0" d="M15.6,2.1l1.2-1.2c0.2-0.2,0.2-0.5,0-0.7s-0.5-0.2-0.7,0l-1.4,1.4C13.9,1.2,13,1,12,1s-1.9,0.2-2.7,0.6
		L7.9,0.1C7.7,0,7.3,0,7.1,0.1S7,0.7,7.1,0.9l1.2,1.2C6.9,3.1,6,4.6,6,6.5C6,6.8,6.2,7,6.5,7h11C17.8,7,18,6.8,18,6.5
		C18,4.6,17.1,3.1,15.6,2.1z M9.5,5C9.2,5,9,4.8,9,4.5S9.2,4,9.5,4S10,4.2,10,4.5S9.8,5,9.5,5z M14.5,5C14.2,5,14,4.8,14,4.5
		S14.2,4,14.5,4S15,4.2,15,4.5S14.8,5,14.5,5z"/>
</g>
</svg>
