<?xml version="1.0" encoding="utf-8"?>
<!-- Generator: Adobe Illustrator 21.0.0, SVG Export Plug-In . SVG Version: 6.00 Build 0)  -->
<svg version="1.1" id="Layer_1" xmlns="http://www.w3.org/2000/svg" xmlns:xlink="http://www.w3.org/1999/xlink" x="0px" y="0px"
	 viewBox="0 0 24 24" style="enable-background:new 0 0 24 24;" xml:space="preserve">
<style type="text/css">
	.st0{fill:#F59B25;}
</style>
<g>
	<g>
		<path class="st0" d="M21,16.5H3c-1.4,0-2.5-1.1-2.5-2.5v-4c0-1.4,1.1-2.5,2.5-2.5h18c1.4,0,2.5,1.1,2.5,2.5v4
			C23.5,15.4,22.4,16.5,21,16.5z M3,8.5c-0.8,0-1.5,0.7-1.5,1.5v4c0,0.8,0.7,1.5,1.5,1.5h18c0.8,0,1.5-0.7,1.5-1.5v-4
			c0-0.8-0.7-1.5-1.5-1.5H3z"/>
	</g>
	<g>
		<g>
			<path class="st0" d="M12,8.5c-0.3,0-0.5-0.2-0.5-0.5V3c0-0.3,0.2-0.5,0.5-0.5s0.5,0.2,0.5,0.5v5C12.5,8.3,12.3,8.5,12,8.5z"/>
		</g>
		<g>
			<path class="st0" d="M12,21.5c-0.3,0-0.5-0.2-0.5-0.5v-5c0-0.3,0.2-0.5,0.5-0.5s0.5,0.2,0.5,0.5v5C12.5,21.3,12.3,21.5,12,21.5z"
				/>
		</g>
		<g>
			<g>
				<path class="st0" d="M16.5,8.5c-0.2,0-0.4-0.1-0.5-0.4c-0.8-2.8-2.3-4.6-4-4.6S8.8,5.3,8,8.1C7.9,8.4,7.7,8.6,7.4,8.5
					C7.1,8.4,7,8.1,7,7.9C8,4.6,9.9,2.5,12,2.5s4,2.1,5,5.4c0.1,0.3-0.1,0.5-0.3,0.6C16.6,8.5,16.5,8.5,16.5,8.5z"/>
			</g>
			<g>
				<path class="st0" d="M12,21.5c-2.1,0-4-2.1-5-5.4c-0.1-0.3,0.1-0.5,0.3-0.6c0.3-0.1,0.5,0.1,0.6,0.3c0.8,2.8,2.3,4.6,4,4.6
					s3.2-1.8,4-4.6c0.1-0.3,0.3-0.4,0.6-0.3c0.3,0.1,0.4,0.3,0.3,0.6C16,19.4,14.1,21.5,12,21.5z"/>
			</g>
		</g>
		<g>
			<g>
				<path class="st0" d="M20.1,8.5c-0.2,0-0.4-0.1-0.4-0.3c-1.5-2.9-4.4-4.7-7.6-4.7S5.8,5.3,4.4,8.2C4.3,8.5,4,8.6,3.7,8.4
					C3.5,8.3,3.4,8,3.5,7.8C5.1,4.5,8.4,2.5,12,2.5s6.9,2,8.5,5.3c0.1,0.2,0,0.5-0.2,0.7C20.2,8.5,20.1,8.5,20.1,8.5z"/>
			</g>
			<g>
				<path class="st0" d="M12,21.5c-3.6,0-6.9-2-8.5-5.3c-0.1-0.2,0-0.5,0.2-0.7c0.2-0.1,0.5,0,0.7,0.2c1.5,2.9,4.4,4.7,7.6,4.7
					s6.2-1.8,7.6-4.7c0.1-0.2,0.4-0.3,0.7-0.2c0.2,0.1,0.3,0.4,0.2,0.7C18.9,19.5,15.6,21.5,12,21.5z"/>
			</g>
		</g>
	</g>
	<g>
		<path class="st0" d="M13,14.5c-0.2,0-0.4-0.1-0.5-0.3L12,12.6l-0.5,1.6c-0.1,0.2-0.2,0.4-0.5,0.3c-0.2,0-0.4-0.2-0.5-0.4l-1-4
			C9.4,9.9,9.6,9.6,9.9,9.5c0.3-0.1,0.5,0.1,0.6,0.4l0.6,2.3l0.5-1.4c0.1-0.4,0.8-0.4,0.9,0l0.5,1.4l0.6-2.3
			c0.1-0.3,0.3-0.4,0.6-0.4c0.3,0.1,0.4,0.3,0.4,0.6l-1,4C13.4,14.3,13.2,14.5,13,14.5C13,14.5,13,14.5,13,14.5z"/>
	</g>
	<g>
		<path class="st0" d="M7,14.5c-0.2,0-0.4-0.1-0.5-0.3L6,12.6l-0.5,1.6c-0.1,0.2-0.2,0.4-0.5,0.3c-0.2,0-0.4-0.2-0.5-0.4l-1-4
			C3.4,9.9,3.6,9.6,3.9,9.5c0.3-0.1,0.5,0.1,0.6,0.4l0.6,2.3l0.5-1.4c0.1-0.4,0.8-0.4,0.9,0l0.5,1.4l0.6-2.3
			c0.1-0.3,0.3-0.4,0.6-0.4c0.3,0.1,0.4,0.3,0.4,0.6l-1,4C7.4,14.3,7.2,14.5,7,14.5C7,14.5,7,14.5,7,14.5z"/>
	</g>
	<g>
		<path class="st0" d="M19,14.5c-0.2,0-0.4-0.1-0.5-0.3L18,12.6l-0.5,1.6c-0.1,0.2-0.2,0.4-0.5,0.3c-0.2,0-0.4-0.2-0.5-0.4l-1-4
			c-0.1-0.3,0.1-0.5,0.4-0.6c0.3-0.1,0.5,0.1,0.6,0.4l0.6,2.3l0.5-1.4c0.1-0.4,0.8-0.4,0.9,0l0.5,1.4l0.6-2.3
			c0.1-0.3,0.3-0.4,0.6-0.4c0.3,0.1,0.4,0.3,0.4,0.6l-1,4C19.4,14.3,19.2,14.5,19,14.5C19,14.5,19,14.5,19,14.5z"/>
	</g>
</g>
</svg>
