<?xml version="1.0" encoding="UTF-8"?>
<svg width="30px" height="30px" viewBox="0 0 30 30" version="1.1" xmlns="http://www.w3.org/2000/svg" xmlns:xlink="http://www.w3.org/1999/xlink">
    <!-- Generator: Sketch 42 (36781) - http://www.bohemiancoding.com/sketch -->
    <title>Feature icon</title>
    <desc>Created with Sketch.</desc>
    <defs></defs>
    <g stroke="none" stroke-width="1" fill="none" fill-rule="evenodd">
        <g transform="translate(-948.000000, -1473.000000)" fill="#F59B24" fill-rule="nonzero">
            <g transform="translate(948.000000, 1473.000000)">
                <path d="M13,20.0116212 C12.9,20.0116212 12.7,20.0116212 12.6,19.911563 L7.6,14.9086578 C7.4,14.7085415 7.4,14.4083672 7.6,14.208251 C7.8,14.0081348 8.1,14.0081348 8.3,14.208251 L12.9,18.8109239 L21.5,10.2059268 C21.7,10.0058106 22,10.0058106 22.2,10.2059268 C22.4,10.406043 22.4,10.7062173 22.2,10.9063335 L13.2,19.911563 C13.3,20.0116212 13.1,20.0116212 13,20.0116212 Z"></path>
                <path d="M15,30.0174317 C6.7,30.0174317 0,23.3135386 0,15.0087159 C0,6.70389309 6.7,0 15,0 C23.3,0 30,6.70389309 30,15.0087159 C30,23.3135386 23.3,30.0174317 15,30.0174317 Z M15,1.00058106 C7.3,1.00058106 1,7.30424172 1,15.0087159 C1,22.71319 7.3,29.0168507 15,29.0168507 C22.7,29.0168507 29,22.71319 29,15.0087159 C29,7.30424172 22.7,1.00058106 15,1.00058106 Z"></path>
            </g>
        </g>
    </g>
</svg>