<?xml version="1.0" encoding="UTF-8" standalone="no"?><!DOCTYPE svg PUBLIC "-//W3C//DTD SVG 1.1//EN" "http://www.w3.org/Graphics/SVG/1.1/DTD/svg11.dtd"><svg width="100%" height="100%" viewBox="0 0 27 31" version="1.1" xmlns="http://www.w3.org/2000/svg" xmlns:xlink="http://www.w3.org/1999/xlink" xml:space="preserve" style="fill-rule:evenodd;clip-rule:evenodd;stroke-linejoin:round;stroke-miterlimit:1.41421;"><path d="M22.136,23.127c-0.061,0.076 -0.126,0.15 -0.197,0.22l-6.845,6.845c-1.031,1.031 -2.71,1.024 -3.738,-0.004l-6.433,-6.434c-0.378,-0.302 -0.743,-0.627 -1.093,-0.977c-5.158,-5.159 -5.099,-13.582 0.133,-18.814c5.232,-5.232 13.655,-5.291 18.814,-0.133c5.158,5.159 5.099,13.582 -0.133,18.814c-0.166,0.166 -0.335,0.327 -0.508,0.483Zm-8.832,-4.87c2.774,0 5.024,-2.218 5.024,-4.953c0,-2.736 -2.25,-4.954 -5.024,-4.954c-2.775,0 -5.024,2.218 -5.024,4.954c0,2.735 2.249,4.953 5.024,4.953Z" style="fill:#fff;"/></svg>