<?xml version="1.0" encoding="UTF-8" standalone="no"?><!DOCTYPE svg PUBLIC "-//W3C//DTD SVG 1.1//EN" "http://www.w3.org/Graphics/SVG/1.1/DTD/svg11.dtd"><svg width="100%" height="100%" viewBox="0 0 24 24" version="1.1" xmlns="http://www.w3.org/2000/svg" xmlns:xlink="http://www.w3.org/1999/xlink" xml:space="preserve" style="fill-rule:evenodd;clip-rule:evenodd;stroke-linejoin:round;stroke-miterlimit:1.41421;"><path d="M18.5,2l-13,0c-3.033,0 -5.5,2.467 -5.5,5.5l0,9c0,3.033 2.467,5.5 5.5,5.5l13,0c3.033,0 5.5,-2.467 5.5,-5.5l0,-9c0,-3.033 -2.467,-5.5 -5.5,-5.5Zm-1.729,10.42l-7,4.5c-0.083,0.054 -0.177,0.08 -0.271,0.08c-0.083,0 -0.165,-0.021 -0.24,-0.061c-0.16,-0.088 -0.26,-0.256 -0.26,-0.439l0,-9c0,-0.183 0.1,-0.351 0.26,-0.439c0.161,-0.087 0.356,-0.082 0.51,0.019l7,4.5c0.144,0.091 0.23,0.25 0.23,0.42c0,0.17 -0.086,0.329 -0.229,0.42Z" style="fill:#f59b25;fill-rule:nonzero;"/></svg>