<?xml version="1.0" encoding="UTF-8" standalone="no"?><!DOCTYPE svg PUBLIC "-//W3C//DTD SVG 1.1//EN" "http://www.w3.org/Graphics/SVG/1.1/DTD/svg11.dtd"><svg width="100%" height="100%" viewBox="0 0 700 200" version="1.1" xmlns="http://www.w3.org/2000/svg" xmlns:xlink="http://www.w3.org/1999/xlink" xml:space="preserve" style="fill-rule:evenodd;clip-rule:evenodd;stroke-linejoin:round;stroke-miterlimit:1.41421;"><g id="Task-icons"><path id="Baby" d="M173.114,55.418c-0.048,0.147 -0.145,0.294 -0.241,0.441c-0.145,0.146 -0.29,0.244 -0.483,0.342c-0.193,0.098 -0.434,0.098 -0.724,0.098c-0.338,0 -0.531,-0.049 -0.821,-0.147c-0.29,-0.098 -0.579,-0.245 -1.062,-0.391l-0.483,-0.196l0,12.632c0,0.93 -0.338,1.762 -0.917,2.35c-0.58,0.587 -1.352,0.979 -2.27,0.979c-0.531,0 -0.917,-0.098 -1.351,-0.343c-0.387,-0.196 -0.725,-0.489 -1.063,-0.881l-0.241,-0.294l-0.241,0.294c-0.628,0.734 -1.401,1.175 -2.415,1.175c-0.917,0 -1.689,-0.392 -2.269,-0.979c-0.579,-0.588 -0.917,-1.42 -0.917,-2.35l0,-12.583l-0.483,0.196c-0.434,0.146 -0.772,0.293 -1.11,0.391c-0.29,0.098 -0.58,0.147 -0.918,0.147c-0.289,0 -0.627,-0.049 -0.869,-0.147c-0.241,-0.098 -0.483,-0.196 -0.579,-0.342c-0.145,-0.196 -0.242,-0.392 -0.338,-0.588c-0.048,-0.196 -0.097,-0.441 -0.097,-0.734c0,-0.196 0,-0.392 0.049,-0.588l0,-0.098c0,-0.196 -0.049,-0.343 -0.049,-0.489c-0.048,-0.147 -0.048,-0.294 -0.048,-0.392l0,-5.582c0,-2.35 0.628,-3.867 1.545,-4.798c0.435,-0.44 1.062,-0.783 1.786,-0.979c0.725,-0.196 1.545,-0.294 2.463,-0.343l0.821,-0.049l-0.58,-0.538c-1.207,-1.126 -1.931,-2.742 -1.931,-4.505c0,-2.399 1.4,-4.504 3.38,-5.483l0.386,-0.196l-0.29,-0.343c-0.483,-0.538 -0.821,-1.273 -0.821,-2.056l1.063,0c0,1.077 0.82,1.909 1.883,1.958l0.482,0c1.69,0 3.187,0.686 4.297,1.812c1.111,1.126 1.787,2.644 1.787,4.357c0,1.763 -0.773,3.379 -1.98,4.505l-0.579,0.538l0.821,0.049c0.917,0.049 1.69,0.147 2.317,0.343c0.628,0.196 1.159,0.49 1.642,0.979c0.434,0.441 0.772,1.028 0.917,1.812c0.193,0.783 0.242,1.762 0.242,2.986l0,5.582c0,0.245 0.096,0.44 0.144,0.636c0.049,0.147 0.097,0.294 0.097,0.392c0.048,0.343 0.048,0.636 0.048,0.881c0.049,0.196 0.049,0.343 0,0.539l0,0Zm-9.077,12.828c0,0.587 0.193,1.175 0.58,1.566c0.386,0.441 0.917,0.686 1.545,0.686c0.627,0 1.159,-0.245 1.545,-0.686c0.386,-0.391 0.579,-0.979 0.579,-1.566l0,-11.506l-0.579,0.636c-0.435,0.441 -0.869,0.833 -1.352,1.126c-0.531,0.294 -1.111,0.49 -1.98,0.588l-0.289,0.049l0,9.107l-0.049,0l0,0Zm-5.311,0c0,0.587 0.193,1.175 0.58,1.566c0.386,0.441 0.917,0.686 1.545,0.686c0.627,0 1.159,-0.245 1.545,-0.686c0.386,-0.391 0.579,-0.979 0.579,-1.566l0,-9.156l-0.29,-0.049c-0.82,-0.098 -1.448,-0.294 -1.979,-0.588c-0.531,-0.293 -0.917,-0.685 -1.352,-1.126l-0.579,-0.636c-0.049,0.049 -0.049,11.555 -0.049,11.555l0,0Zm-0.241,-14.346c0.145,0.93 0.434,1.959 1.207,2.791c0.772,0.832 1.98,1.371 3.718,1.371c1.786,0 2.945,-0.539 3.717,-1.371c0.773,-0.832 1.063,-1.861 1.207,-2.791l0.049,-0.392l-9.946,0l0.048,0.392Zm8.449,-14.492c0.918,-0.881 1.449,-2.106 1.449,-3.525c0,-1.42 -0.58,-2.644 -1.497,-3.526c-0.917,-0.881 -2.173,-1.419 -3.525,-1.419c-1.4,0 -2.655,0.538 -3.524,1.419c-0.918,0.882 -1.497,2.155 -1.497,3.526c0,1.371 0.579,2.644 1.449,3.525c0.917,0.881 2.172,1.42 3.524,1.42l0.048,0c1.449,0 2.704,-0.539 3.573,-1.42l0,0Zm5.263,15.178l-0.145,-0.294c-0.048,-0.098 -0.048,-0.196 -0.048,-0.196c-0.048,-0.245 -0.097,-0.441 -0.145,-0.637c-0.048,-0.195 -0.097,-0.342 -0.097,-0.489l0,-5.631c0,-0.979 -0.048,-1.762 -0.144,-2.448c-0.097,-0.636 -0.338,-1.224 -0.725,-1.615c-0.482,-0.49 -1.158,-0.735 -1.931,-0.882c-0.772,-0.147 -1.738,-0.147 -2.849,-0.147l-5.504,0c-1.11,0 -2.124,0.049 -2.993,0.147c-0.821,0.147 -1.545,0.392 -2.028,0.882c-0.772,0.734 -1.255,2.056 -1.255,4.014l0,5.68c0,0.245 0.048,0.44 0.096,0.636c0.049,0.196 0.049,0.343 0.049,0.441l0,0.147c0,0.196 0.048,0.343 0.096,0.489l0.048,0.147l0,0.343l0.29,0.049l0.29,0c0.627,0 1.207,-0.245 1.641,-0.636c0.435,-0.392 0.773,-0.98 0.773,-1.616l0,-5.631c0,-0.293 0.241,-0.538 0.531,-0.538c0.29,0 0.531,0.245 0.531,0.538l0,5.092l9.512,0l0,-5.092c0,-0.293 0.241,-0.538 0.531,-0.538c0.289,0 0.531,0.245 0.531,0.538l0,5.631c0,0.636 0.289,1.224 0.724,1.616c0.435,0.391 1.014,0.636 1.642,0.636l0.338,0l0.289,-0.049l0,-0.343c0,-0.098 0,-0.196 -0.048,-0.244l0,0Zm-21.389,12.289l-0.048,0.098l-0.628,0.93l-0.048,0.098l-2.607,2.595c-0.628,0.636 -1.449,0.979 -2.366,0.979c-0.869,0 -1.738,-0.343 -2.366,-0.979c-0.628,-0.637 -0.966,-1.469 -0.966,-2.35c0,-0.882 0.338,-1.714 0.966,-2.351l0,-0.049l0.241,-0.244l-2.172,-2.204l-0.193,0.049c-0.531,0.147 -1.207,0.294 -1.98,0.294c-0.869,0 -1.641,-0.147 -2.269,-0.343l-0.193,-0.049l-2.269,2.302l0.241,0.244c0.628,0.637 0.966,1.518 0.966,2.351c0,0.881 -0.338,1.713 -0.966,2.35c-0.628,0.636 -1.497,0.979 -2.366,0.979c-0.869,0 -1.69,-0.343 -2.366,-0.979l-3.235,-3.575c-0.048,-0.048 -0.096,-0.097 -0.096,-0.146c-0.145,-0.392 -0.242,-0.833 -0.242,-1.273c0,-0.882 0.338,-1.714 0.966,-2.35l2.607,-2.644l-0.482,-0.147c-0.145,-0.147 -0.194,-0.343 -0.29,-0.49c-0.048,-0.196 -0.097,-0.44 -0.097,-0.685c0,-0.196 0,-0.392 0.049,-0.637l0,-0.147c0,-0.342 -0.097,-0.636 -0.097,-0.881l0,-5.679c0,-2.35 0.579,-3.868 1.545,-4.798c0.483,-0.441 1.062,-0.784 1.786,-0.98c0.725,-0.196 1.545,-0.293 2.463,-0.342l0.821,-0.049l-0.58,-0.539c-1.207,-1.126 -1.931,-2.742 -1.931,-4.504c0,-2.448 1.448,-4.554 3.524,-5.582l0.435,-0.196l-0.29,-0.342c-0.482,-0.539 -0.772,-1.224 -0.772,-2.008c0,-0.685 0.29,-1.322 0.724,-1.811c0.435,-0.441 1.062,-0.735 1.786,-0.735c0.58,0 1.111,0.245 1.497,0.637c0.386,0.392 0.628,0.93 0.628,1.518c0,0.293 -0.242,0.538 -0.531,0.538c-0.29,0 -0.531,-0.245 -0.531,-0.538c0,-0.588 -0.483,-1.029 -1.063,-1.029c-0.772,0 -1.448,0.637 -1.448,1.469c0,1.077 0.821,1.91 1.883,1.959l0.338,0c1.69,0 3.187,0.685 4.297,1.811c1.111,1.126 1.786,2.644 1.786,4.358c0,1.762 -0.772,3.378 -1.979,4.504l-0.579,0.539l0.82,0.049c0.918,0.049 1.69,0.146 2.318,0.342c0.676,0.196 1.207,0.49 1.641,0.98c0.435,0.44 0.773,1.028 0.966,1.811c0.193,0.783 0.29,1.763 0.29,2.987l0,5.63c0,0.245 0.048,0.441 0.096,0.588c0.049,0.146 0.097,0.293 0.097,0.391c0.048,0.441 0.096,0.833 0.096,1.126c0,0.343 -0.048,0.539 -0.241,0.784l-0.145,0.147l-0.338,0.244l2.366,2.399c0.628,0.637 0.966,1.518 0.966,2.351c-0.193,0.342 -0.242,0.783 -0.435,1.224l0,0Zm-12.167,-4.407c1.787,0 2.994,-0.538 3.718,-1.371c0.772,-0.832 1.062,-1.86 1.207,-2.79l0.048,-0.392l-9.946,0l0.048,0.392c0.145,0.93 0.435,1.958 1.207,2.79c0.725,0.833 1.932,1.371 3.718,1.371l0,0Zm-11.056,1.518c-0.435,0.441 -0.676,1.028 -0.676,1.616c0,0.244 0.048,0.489 0.096,0.685l0,0.049l3.139,3.476c0.434,0.441 0.965,0.637 1.545,0.637c0.579,0 1.158,-0.196 1.593,-0.686c0.434,-0.44 0.676,-1.028 0.676,-1.615c0,-0.588 -0.242,-1.175 -0.676,-1.616l-0.628,-0.637c-0.096,-0.098 -0.145,-0.244 -0.145,-0.391c0,-0.147 0.049,-0.294 0.145,-0.392l2.414,-2.448l-0.289,-0.245c-0.821,-0.636 -1.401,-1.518 -1.739,-2.399l-0.193,-0.441l-0.338,0.343c-0.482,0.441 -1.062,0.735 -1.738,0.833l-0.145,0l-0.096,0.146c0,0.147 -2.945,3.085 -2.945,3.085l0,0Zm14.629,-19.388c0.917,-0.931 1.448,-2.253 1.448,-3.623c0,-1.42 -0.579,-2.693 -1.448,-3.673c-0.917,-0.93 -2.173,-1.566 -3.573,-1.566c-2.8,0 -5.021,2.35 -5.021,5.141c0,1.37 0.579,2.692 1.448,3.672c0.918,0.979 2.173,1.566 3.525,1.566l0.048,0c1.4,0.049 2.656,-0.538 3.573,-1.517l0,0Zm5.118,14.443c-0.048,-0.147 -0.048,-0.245 -0.048,-0.343c0,-0.245 -0.097,-0.44 -0.145,-0.587c-0.049,-0.196 -0.097,-0.343 -0.097,-0.49l0,-5.679c0,-0.98 -0.048,-1.763 -0.145,-2.448c-0.145,-0.637 -0.338,-1.224 -0.724,-1.616c-0.483,-0.49 -1.159,-0.734 -1.979,-0.881c-0.821,-0.147 -1.739,-0.147 -2.897,-0.147l-5.408,0c-1.159,0 -2.124,0.049 -2.993,0.147c-0.821,0.147 -1.545,0.391 -2.028,0.881c-0.773,0.734 -1.207,2.056 -1.207,4.015l0,5.63c0,0.245 0.048,0.441 0.048,0.588c0.048,0.196 0.048,0.342 0.048,0.44l0,0.147c0,0.196 0.049,0.343 0.097,0.49c0.048,0.147 0.048,0.245 0.048,0.245l0,0.293l0.29,0.049l0.338,0c0.627,0 1.207,-0.244 1.69,-0.636c0.434,-0.392 0.772,-0.979 0.772,-1.616l0,-5.581c0,-0.294 0.242,-0.539 0.531,-0.539c0.29,0 0.531,0.245 0.531,0.539l0,4.896l9.512,0l0,-4.896c0,-0.294 0.241,-0.539 0.531,-0.539c0.29,0 0.531,0.245 0.531,0.539l0,5.63c0,1.273 1.062,2.252 2.269,2.252l0.242,0l0.289,-0.049l0,-0.342c0,-0.147 -0.048,-0.245 -0.096,-0.392l0,0Zm1.979,4.945l-2.945,-2.987l-0.048,-0.098l-0.048,-0.097l-0.145,0c-0.531,-0.147 -0.966,-0.392 -1.352,-0.735l-0.338,-0.343l-0.193,0.441c-0.386,0.93 -1.014,1.861 -1.931,2.546l-0.338,0.245l2.269,2.301c0.096,0.098 0.145,0.245 0.145,0.392c0,0.146 -0.049,0.293 -0.145,0.391l-0.628,0.637c-0.434,0.44 -0.676,0.979 -0.676,1.615c0,0.588 0.242,1.176 0.676,1.616c0.435,0.441 0.966,0.686 1.593,0.686c0.58,0 1.159,-0.245 1.594,-0.686l2.559,-2.595l0.531,-0.832l0,-0.049c0.096,-0.245 0.145,-0.49 0.145,-0.783c-0.049,-0.637 -0.29,-1.224 -0.725,-1.665l0,0Z" style="fill:#2b2c3d;"/><path id="ic-gardening" d="M439.074,65.721l-6.925,-4.21c-0.161,-0.109 -0.299,-0.248 -0.429,-0.392c-0.211,-0.233 -0.391,-0.494 -0.55,-0.764c-0.284,-0.481 -0.5,-1.001 -0.668,-1.533c-0.202,-0.638 -0.335,-1.297 -0.421,-1.959c-0.073,-0.558 -0.112,-1.119 -0.126,-1.681c-0.008,-0.359 -0.009,-0.719 0.014,-1.078c0.04,-0.599 0.141,-1.194 0.316,-1.769c0.168,-0.553 0.404,-1.086 0.71,-1.577c0.22,-0.353 0.475,-0.685 0.76,-0.988c0.858,-0.914 1.98,-1.551 3.182,-1.89c0.629,-0.177 1.276,-0.272 1.928,-0.294c0.117,-0.003 0.234,-0.004 0.351,-0.003c0.563,0.011 1.124,0.066 1.665,0.229c0.999,0.302 1.89,0.897 2.666,1.582c0.544,0.479 1.039,1.012 1.496,1.573c0.508,0.621 0.969,1.279 1.385,1.964l0.001,0.002l2.535,0.607l-16.79,-24.342l-5.396,0l-0.075,-0.005c-0.065,-0.013 -0.083,-0.014 -0.145,-0.039c-0.093,-0.039 -0.175,-0.101 -0.236,-0.181c-0.156,-0.204 -0.156,-0.496 0,-0.7c0.046,-0.059 0.104,-0.11 0.169,-0.147c0.09,-0.053 0.184,-0.071 0.287,-0.077c1.923,0 3.848,-0.112 5.768,0.004c0.06,0.011 0.076,0.011 0.134,0.033c0.113,0.043 0.196,0.117 0.269,0.211l17.62,25.546c0.026,0.043 0.039,0.061 0.053,0.094l3.616,0.866c0.251,-0.455 0.537,-0.889 0.855,-1.3c0.642,-0.832 1.412,-1.569 2.287,-2.154c0.659,-0.441 1.377,-0.795 2.129,-1.048c0.365,-0.122 0.738,-0.225 1.116,-0.297c0.365,-0.069 0.735,-0.104 1.107,-0.119c0.126,-0.003 0.252,-0.005 0.379,-0.004c0.79,0.016 1.574,0.128 2.339,0.327c0.531,0.138 1.051,0.315 1.558,0.526c0.386,0.161 0.764,0.343 1.132,0.543c0.287,0.157 0.569,0.326 0.843,0.506c1.588,1.045 2.961,2.503 3.669,4.288c0.103,0.26 0.192,0.527 0.265,0.798c0.098,0.367 0.167,0.742 0.205,1.12c0.036,0.368 0.041,0.735 0.019,1.101l3.168,0.759l0.091,0.03c0.028,0.015 0.058,0.027 0.085,0.045c0.108,0.068 0.191,0.174 0.233,0.295c0.028,0.081 0.024,0.104 0.031,0.189l0,2.961c0.091,0.037 0.181,0.076 0.27,0.119c0.498,0.24 0.952,0.571 1.334,0.971c0.383,0.402 0.692,0.872 0.908,1.383c0.178,0.419 0.292,0.866 0.338,1.32c0.051,0.502 0.02,1.014 -0.094,1.506c-0.209,0.907 -0.7,1.74 -1.389,2.365c-0.383,0.348 -0.824,0.63 -1.301,0.832c-0.565,0.239 -1.176,0.361 -1.789,0.361c-0.614,0 -1.225,-0.122 -1.79,-0.361c-0.477,-0.202 -0.918,-0.484 -1.301,-0.832c-0.511,-0.464 -0.912,-1.041 -1.171,-1.679l-18.016,0c-0.275,0.474 -0.617,0.909 -1.013,1.286c-0.502,0.479 -1.089,0.865 -1.728,1.135c-0.706,0.299 -1.47,0.452 -2.237,0.452c-0.766,0 -1.531,-0.153 -2.236,-0.452c-0.639,-0.27 -1.226,-0.656 -1.728,-1.135c-0.501,-0.477 -0.915,-1.044 -1.215,-1.667c-0.246,-0.511 -0.415,-1.057 -0.501,-1.617c-0.082,-0.541 -0.087,-1.093 -0.016,-1.635l0,0Zm32.863,-1.536c-0.488,0.018 -0.965,0.126 -1.406,0.338c-0.933,0.45 -1.632,1.319 -1.864,2.329c-0.093,0.398 -0.113,0.813 -0.061,1.218c0.043,0.338 0.136,0.669 0.277,0.979c0.171,0.379 0.411,0.725 0.705,1.019c0.293,0.294 0.64,0.534 1.019,0.705c0.417,0.189 0.871,0.292 1.33,0.304c0.46,0.011 0.923,-0.069 1.352,-0.238c0.388,-0.153 0.746,-0.376 1.055,-0.657c0.495,-0.449 0.854,-1.042 1.02,-1.689c0.088,-0.339 0.123,-0.691 0.105,-1.04c-0.018,-0.344 -0.087,-0.685 -0.205,-1.008c-0.134,-0.365 -0.33,-0.707 -0.578,-1.007c-0.282,-0.341 -0.628,-0.627 -1.018,-0.839c-0.321,-0.175 -0.671,-0.297 -1.031,-0.361c-0.144,-0.026 -0.288,-0.041 -0.434,-0.05c-0.089,-0.003 -0.177,-0.004 -0.266,-0.003l0,0Zm-27.286,-2.298c-0.194,0.008 -0.388,0.022 -0.581,0.052c-0.484,0.073 -0.956,0.226 -1.392,0.449c-0.822,0.421 -1.509,1.091 -1.95,1.903c-0.233,0.429 -0.397,0.896 -0.483,1.376c-0.089,0.5 -0.095,1.014 -0.018,1.515c0.068,0.448 0.203,0.884 0.399,1.292c0.241,0.499 0.572,0.953 0.973,1.335c0.401,0.382 0.871,0.691 1.382,0.908c0.565,0.239 1.176,0.361 1.789,0.361c0.614,0 1.225,-0.122 1.79,-0.361c0.51,-0.217 0.98,-0.526 1.382,-0.908c0.401,-0.382 0.732,-0.836 0.972,-1.335c0.196,-0.408 0.332,-0.844 0.4,-1.292c0.076,-0.501 0.07,-1.015 -0.019,-1.515c-0.086,-0.48 -0.249,-0.947 -0.483,-1.376c-0.441,-0.812 -1.127,-1.482 -1.949,-1.903c-0.437,-0.223 -0.908,-0.376 -1.392,-0.449c-0.193,-0.03 -0.387,-0.044 -0.582,-0.052c-0.119,-0.001 -0.119,-0.001 -0.238,0Zm27.375,7.467c0.952,0 1.723,-0.771 1.723,-1.723c0,-0.952 -0.771,-1.724 -1.723,-1.724c-0.952,0 -1.724,0.772 -1.724,1.724c0,0.952 0.772,1.723 1.724,1.723Zm-27.256,-1.149c0.952,0 1.724,-0.772 1.724,-1.723c0,-0.952 -0.772,-1.724 -1.724,-1.724c-0.952,0 -1.724,0.772 -1.724,1.724c0,0.951 0.772,1.723 1.724,1.723Zm27.83,-5.135l0,-2.21l-28.677,-6.867c-0.03,-0.01 -0.061,-0.017 -0.089,-0.03c-0.088,-0.036 -0.165,-0.094 -0.224,-0.168c-0.02,-0.024 -0.035,-0.051 -0.053,-0.077c-0.057,-0.101 -0.117,-0.201 -0.177,-0.3c-0.424,-0.682 -0.893,-1.336 -1.413,-1.949c-0.4,-0.47 -0.829,-0.915 -1.299,-1.316c-0.639,-0.546 -1.37,-1.03 -2.186,-1.26c-0.417,-0.119 -0.85,-0.153 -1.282,-0.161c-0.075,-0.001 -0.075,-0.001 -0.15,-0.001c-1.417,0.019 -2.847,0.451 -3.954,1.356c-0.178,0.145 -0.346,0.302 -0.503,0.469c-0.234,0.248 -0.442,0.52 -0.622,0.809c-0.269,0.431 -0.472,0.902 -0.612,1.39c-0.134,0.464 -0.212,0.943 -0.243,1.424c-0.022,0.325 -0.02,0.65 -0.012,0.975c0.013,0.522 0.049,1.043 0.116,1.56c0.123,0.948 0.347,1.904 0.779,2.762c0.121,0.24 0.259,0.472 0.422,0.687c0.102,0.136 0.215,0.266 0.345,0.377l0.005,0.004l6.587,4.005c0.052,-0.147 0.11,-0.291 0.174,-0.432c0.534,-1.18 1.469,-2.161 2.622,-2.752c0.546,-0.28 1.136,-0.47 1.742,-0.562c0.241,-0.037 0.482,-0.056 0.726,-0.065c0.149,-0.002 0.148,-0.002 0.296,0c0.244,0.009 0.486,0.028 0.727,0.065c0.606,0.092 1.196,0.282 1.741,0.562c1.028,0.527 1.886,1.364 2.436,2.378c0.292,0.537 0.497,1.12 0.605,1.722c0.111,0.624 0.119,1.265 0.023,1.891c-0.044,0.288 -0.11,0.572 -0.197,0.849l17.212,0c-0.044,-0.346 -0.048,-0.697 -0.012,-1.043c0.046,-0.454 0.16,-0.901 0.337,-1.32c0.216,-0.511 0.526,-0.981 0.908,-1.383c0.382,-0.4 0.836,-0.731 1.335,-0.971c0.408,-0.197 0.845,-0.332 1.293,-0.401c0.193,-0.029 0.386,-0.044 0.581,-0.051c0.119,-0.001 0.118,-0.001 0.237,0c0.153,0.006 0.305,0.016 0.456,0.034l0,0Zm-3.597,-4.252c0.008,-0.359 -0.014,-0.716 -0.072,-1.072c-0.044,-0.273 -0.108,-0.543 -0.19,-0.807c-0.535,-1.722 -1.811,-3.131 -3.284,-4.126c-0.246,-0.165 -0.498,-0.321 -0.756,-0.466c-0.331,-0.185 -0.672,-0.353 -1.02,-0.503c-0.456,-0.197 -0.925,-0.362 -1.403,-0.492c-0.948,-0.259 -1.95,-0.389 -2.932,-0.291c-0.501,0.05 -0.993,0.169 -1.47,0.329c-0.787,0.265 -1.531,0.656 -2.197,1.154c-0.7,0.524 -1.314,1.158 -1.829,1.864c-0.158,0.217 -0.309,0.442 -0.449,0.673l15.602,3.737Z" style="fill:#2b2c3d;"/><path id="ic-events" d="M261.038,54.531c0.182,0.006 0.362,0.018 0.543,0.041c0.397,0.05 0.787,0.145 1.162,0.282c0.527,0.194 1.024,0.471 1.466,0.819c0.745,0.585 1.33,1.369 1.679,2.251c0.162,0.412 0.273,0.844 0.329,1.283c0.023,0.18 0.035,0.362 0.041,0.543c0.071,5.656 0.002,5.419 0.002,11.075c-0.002,0.028 -0.002,0.056 -0.005,0.084c-0.012,0.083 -0.041,0.163 -0.084,0.235c-0.044,0.072 -0.102,0.134 -0.171,0.183c-0.235,0.165 -0.563,0.143 -0.773,-0.053c-0.082,-0.077 -0.142,-0.176 -0.172,-0.283c-0.02,-0.072 -0.017,-0.092 -0.023,-0.166c0,-5.645 0.069,-5.399 -0.001,-11.043c-0.018,-0.483 -0.107,-0.957 -0.285,-1.408c-0.43,-1.089 -1.327,-1.964 -2.427,-2.367c-0.422,-0.155 -0.864,-0.232 -1.312,-0.249c-7.115,-0.089 -14.233,-0.089 -21.348,0c-0.448,0.017 -0.89,0.094 -1.312,0.249c-1.132,0.415 -2.047,1.329 -2.462,2.462c-0.155,0.423 -0.233,0.863 -0.25,1.313c-0.073,5.644 -0.001,5.398 -0.001,11.043c-0.002,0.028 -0.002,0.056 -0.006,0.084c-0.011,0.083 -0.04,0.163 -0.084,0.235c-0.043,0.072 -0.102,0.134 -0.17,0.183c-0.235,0.165 -0.563,0.143 -0.773,-0.053c-0.082,-0.077 -0.142,-0.176 -0.172,-0.283c-0.02,-0.072 -0.018,-0.092 -0.023,-0.166l0,-10.941c0.003,-0.181 0.009,-0.362 0.028,-0.543c0.045,-0.442 0.145,-0.878 0.298,-1.295c0.341,-0.932 0.945,-1.76 1.725,-2.373c0.442,-0.348 0.939,-0.625 1.467,-0.819c0.375,-0.137 0.765,-0.232 1.161,-0.282c0.181,-0.023 0.362,-0.035 0.543,-0.041c7.136,-0.09 14.274,-0.09 21.41,0l0,0Zm-10.69,13.873c0.47,0 0.851,0.382 0.851,0.851c0,0.47 -0.381,0.851 -0.851,0.851c-0.469,0 -0.85,-0.381 -0.85,-0.851c0,-0.469 0.381,-0.851 0.85,-0.851Zm0,-5.219c0.47,0 0.851,0.381 0.851,0.851c0,0.469 -0.381,0.85 -0.851,0.85c-0.469,0 -0.85,-0.381 -0.85,-0.85c0,-0.47 0.381,-0.851 0.85,-0.851l0,0Zm0,-2.887c-1.353,0.724 -2.727,1.408 -4.121,2.052c-0.058,0.023 -0.118,0.036 -0.181,0.034c-0.163,-0.005 -0.313,-0.104 -0.38,-0.251c-0.023,-0.05 -0.034,-0.101 -0.039,-0.154c-0.045,-1.447 -0.045,-2.896 0,-4.343c0.004,-0.045 0.012,-0.088 0.028,-0.13c0.053,-0.137 0.171,-0.23 0.311,-0.266c0.036,-0.006 0.07,-0.01 0.106,-0.01c0.055,0.004 0.105,0.015 0.155,0.035c1.394,0.643 2.768,1.328 4.121,2.052c1.353,-0.724 2.728,-1.409 4.121,-2.052c0.068,-0.027 0.135,-0.038 0.208,-0.033c0.163,0.02 0.304,0.119 0.364,0.274c0.016,0.042 0.024,0.085 0.029,0.13c0.044,1.447 0.044,2.896 0,4.343c-0.006,0.062 -0.021,0.122 -0.051,0.177c-0.077,0.144 -0.232,0.233 -0.395,0.228c-0.054,-0.002 -0.105,-0.015 -0.155,-0.034c-1.393,-0.644 -2.768,-1.328 -4.121,-2.052l0,0Zm0.967,-0.491l2.891,1.445l0,-2.89c-0.964,0.482 -1.927,0.964 -2.891,1.445Zm-4.824,1.445l2.89,-1.445l-2.89,-1.445l0,2.89Zm4.013,-33.251c0.513,0.01 1.023,0.045 1.531,0.116c1.18,0.165 2.334,0.507 3.414,1.012c1.362,0.636 2.6,1.528 3.637,2.616c0.972,1.018 1.764,2.206 2.328,3.495c0.5,1.141 0.82,2.36 0.946,3.599c0.134,1.321 0.052,2.664 -0.247,3.958c-0.244,1.055 -0.632,2.077 -1.149,3.028c-0.74,1.361 -1.743,2.576 -2.937,3.562c-0.937,0.773 -1.991,1.404 -3.116,1.865c-1.445,0.591 -3.003,0.893 -4.563,0.893c-1.561,0 -3.118,-0.302 -4.563,-0.893c-1.125,-0.461 -2.178,-1.092 -3.116,-1.865c-1.194,-0.986 -2.197,-2.201 -2.936,-3.562c-0.518,-0.951 -0.906,-1.973 -1.15,-3.028c-0.299,-1.294 -0.381,-2.637 -0.247,-3.958c0.126,-1.239 0.446,-2.458 0.946,-3.599c0.564,-1.289 1.356,-2.477 2.328,-3.495c1.037,-1.088 2.275,-1.98 3.638,-2.616c1.079,-0.505 2.233,-0.847 3.413,-1.012c0.508,-0.071 1.018,-0.106 1.531,-0.116c0.156,-0.001 0.156,-0.001 0.312,0l0,0Zm-0.297,1.178c-0.462,0.009 -0.923,0.041 -1.382,0.105c-1.065,0.149 -2.105,0.458 -3.079,0.912c-1.229,0.574 -2.347,1.38 -3.283,2.362c-0.877,0.919 -1.592,1.991 -2.101,3.155c-0.451,1.029 -0.739,2.128 -0.853,3.246c-0.121,1.192 -0.047,2.405 0.223,3.573c0.22,0.952 0.57,1.872 1.036,2.731c0.668,1.228 1.573,2.325 2.652,3.215c0.846,0.698 1.797,1.267 2.812,1.683c1.303,0.534 2.708,0.806 4.116,0.806c1.408,0 2.813,-0.272 4.116,-0.806c1.016,-0.415 1.967,-0.985 2.813,-1.683c1.078,-0.89 1.983,-1.987 2.651,-3.215c0.467,-0.859 0.816,-1.779 1.036,-2.731c0.27,-1.168 0.345,-2.381 0.223,-3.573c-0.114,-1.118 -0.401,-2.217 -0.852,-3.246c-0.509,-1.164 -1.225,-2.236 -2.101,-3.155c-0.937,-0.982 -2.054,-1.788 -3.284,-2.362c-0.974,-0.454 -2.014,-0.763 -3.078,-0.912c-0.459,-0.064 -0.92,-0.096 -1.383,-0.105c-0.141,-0.001 -0.141,-0.001 -0.282,0l0,0Zm-3.986,2.999c0.055,0.007 0.069,0.007 0.122,0.023c0.102,0.031 0.184,0.089 0.26,0.163c0.069,0.082 0.133,0.168 0.2,0.251c0.816,0.961 1.803,1.763 2.858,2.447c0.514,0.334 1.052,0.633 1.602,0.901c1.419,0.692 2.936,1.175 4.488,1.46c0.983,0.181 1.976,0.28 2.974,0.321l0.061,0.005c0.054,0.011 0.068,0.012 0.12,0.031c0.096,0.036 0.183,0.097 0.248,0.177c0.04,0.047 0.072,0.101 0.094,0.158c0.102,0.256 0.008,0.556 -0.221,0.708c-0.088,0.059 -0.184,0.086 -0.289,0.097c-0.13,0.002 -0.129,-0.001 -0.268,-0.007c-1.404,-0.07 -2.799,-0.256 -4.163,-0.598c-2.236,-0.561 -4.378,-1.531 -6.226,-2.916c-0.406,-0.305 -0.795,-0.631 -1.17,-0.974l-0.118,-0.11l-0.018,-0.017c-0.018,0.081 -0.038,0.161 -0.061,0.241c-0.056,0.186 -0.121,0.368 -0.201,0.545c-0.298,0.66 -0.755,1.24 -1.271,1.744c-0.451,0.442 -0.952,0.83 -1.477,1.179c-0.468,0.31 -0.956,0.589 -1.462,0.832l-0.06,0.028c-0.098,0.039 -0.194,0.062 -0.3,0.052c-0.297,-0.027 -0.532,-0.28 -0.537,-0.578c-0.001,-0.061 0.008,-0.123 0.026,-0.182c0.031,-0.099 0.087,-0.188 0.163,-0.258c0.04,-0.038 0.053,-0.044 0.099,-0.074c0.117,-0.062 0.239,-0.118 0.359,-0.178c0.295,-0.155 0.585,-0.32 0.867,-0.499c0.238,-0.151 0.472,-0.311 0.697,-0.481c0.174,-0.131 0.344,-0.268 0.508,-0.412c0.134,-0.117 0.263,-0.239 0.387,-0.365c0.623,-0.634 1.171,-1.447 1.169,-2.369c0,-0.209 -0.032,-0.414 -0.081,-0.617l-0.012,-0.061c-0.005,-0.064 -0.007,-0.123 0.004,-0.186c0.034,-0.185 0.158,-0.346 0.327,-0.426c0.058,-0.028 0.116,-0.041 0.178,-0.053c0.063,-0.004 0.062,-0.004 0.124,-0.002l0,0Z" style="fill:#2b2c3d;"/><path id="ic-household" d="M531.972,62.97l0,-2.075c-0.414,-0.029 -0.787,-0.166 -1.099,-0.438c-0.565,-0.482 -0.724,-1.248 -0.834,-1.758c-0.103,-0.482 -0.229,-1.082 -0.172,-1.696c0.006,-0.138 0.034,-0.282 0.069,-0.427c0.062,-0.269 0.008,-0.551 -0.152,-0.765c-0.109,-0.15 -0.206,-0.316 -0.282,-0.489c-0.502,-1.144 -0.358,-2.633 0.367,-3.702c0.157,-0.226 0.213,-0.502 0.144,-0.731c-0.125,-0.413 -0.144,-0.849 -0.069,-1.262c0.145,-0.752 0.621,-1.42 1.254,-1.758l0.367,-0.311c0.11,-0.119 0.256,-0.215 0.407,-0.297l0,-2.219l-1.655,1.241c-0.125,0.09 -0.269,0.138 -0.414,0.138c-0.207,0 -0.414,-0.098 -0.552,-0.276c-0.228,-0.304 -0.166,-0.737 0.138,-0.966l2.746,-2.056l14.618,-11.114c1.768,-1.345 4.325,-1.345 6.091,0l14.627,11.114l2.745,2.056c0.305,0.229 0.367,0.662 0.138,0.966c-0.138,0.178 -0.344,0.276 -0.551,0.276c-0.145,0 -0.289,-0.048 -0.414,-0.138l-1.655,-1.241l0,21.899c0,1.082 -0.884,1.965 -1.966,1.965l-35.868,0l-0.746,-4.908c-0.041,-0.257 0.035,-0.517 0.207,-0.718c0.173,-0.194 0.42,-0.31 0.684,-0.31l1.827,0Zm2.166,4.557l0.483,-3.178l-3.918,0l0.482,3.178l2.953,0Zm31.73,0c0.323,0 0.586,-0.26 0.586,-0.583l0,-19.916l-15.297,-11.619c-0.737,-0.565 -1.78,-0.565 -2.517,0l-15.248,11.611c0.035,0.006 0.076,0.006 0.11,0.012c0.959,0.138 1.765,0.682 2.173,1.462c0.254,0.488 0.33,1.09 0.213,1.648c-0.047,0.2 0.006,0.442 0.138,0.593c0.226,0.282 0.386,0.613 0.455,0.971c0.021,0.098 0.028,0.194 0.034,0.298c0.041,0.53 -0.054,1.11 -0.317,1.771c-0.178,0.448 -0.385,0.836 -0.621,1.159c-0.04,0.057 -0.075,0.125 -0.097,0.201c-0.062,0.207 -0.04,0.476 0.069,0.724c0.292,0.67 0.339,1.491 0.126,2.194c-0.311,1.021 -1.097,1.902 -2.207,2.475c-0.041,0.022 -0.076,0.035 -0.117,0.057l0,2.385l1.826,0c0.263,0 0.504,0.11 0.676,0.31c0.173,0.201 0.248,0.463 0.207,0.718l-0.53,3.529l7.798,0c-0.013,-3.917 -0.008,-7.835 0.017,-11.752c0.004,-0.223 0.017,-0.446 0.042,-0.667c0.059,-0.513 0.178,-1.018 0.356,-1.502c0.327,-0.892 0.85,-1.709 1.522,-2.38c0.71,-0.71 1.582,-1.254 2.533,-1.576c0.463,-0.157 0.945,-0.261 1.432,-0.311c0.194,-0.019 0.389,-0.029 0.584,-0.033c0.085,-0.001 0.085,-0.001 0.169,0c0.196,0.004 0.39,0.014 0.585,0.033c0.487,0.05 0.968,0.154 1.432,0.311c1.176,0.398 2.227,1.136 3.005,2.102c0.448,0.555 0.804,1.184 1.05,1.854c0.177,0.484 0.297,0.989 0.356,1.502c0.025,0.221 0.038,0.444 0.042,0.667c0.025,3.917 0.03,7.835 0.016,11.752l9.399,0Zm-10.778,0c0.014,-3.911 0.008,-7.823 -0.017,-11.735c-0.003,-0.177 -0.013,-0.352 -0.033,-0.528c-0.046,-0.403 -0.14,-0.801 -0.28,-1.183c-0.194,-0.529 -0.475,-1.025 -0.829,-1.464c-0.615,-0.763 -1.444,-1.346 -2.373,-1.661c-0.366,-0.123 -0.745,-0.206 -1.13,-0.245c-0.153,-0.015 -0.308,-0.023 -0.462,-0.026c-0.067,-0.001 -0.067,-0.001 -0.134,0c-0.155,0.003 -0.309,0.011 -0.463,0.026c-0.384,0.039 -0.763,0.122 -1.129,0.245c-0.751,0.255 -1.439,0.684 -2,1.245c-0.53,0.53 -0.944,1.175 -1.202,1.88c-0.14,0.382 -0.234,0.78 -0.28,1.183c-0.02,0.176 -0.03,0.351 -0.034,0.528c-0.025,3.912 -0.03,7.824 -0.016,11.735l10.382,0Zm-23.691,-9.102c-0.091,-0.435 -0.186,-0.883 -0.145,-1.288c0.007,-0.076 0.022,-0.151 0.035,-0.22c0.166,-0.662 0.022,-1.379 -0.38,-1.918c-0.047,-0.069 -0.097,-0.144 -0.131,-0.22c-0.317,-0.718 -0.213,-1.696 0.241,-2.378c0.393,-0.58 0.511,-1.27 0.324,-1.897c-0.063,-0.2 -0.076,-0.42 -0.035,-0.621c0.069,-0.357 0.289,-0.676 0.58,-0.806l0.627,-0.51c0.09,-0.097 0.214,-0.138 0.332,-0.166c0.062,-0.013 0.125,-0.022 0.185,-0.022l0.028,0c0.082,0 0.16,0.006 0.242,0.013c0.517,0.076 0.937,0.345 1.138,0.731c0.103,0.206 0.138,0.482 0.09,0.724c-0.028,0.116 -0.028,0.228 -0.034,0.345c-0.022,0.51 0.131,1.021 0.454,1.413c0.082,0.104 0.145,0.235 0.173,0.366c0.047,0.229 0.028,0.504 -0.056,0.815c-0.041,0.151 -0.091,0.31 -0.151,0.483c-0.131,0.338 -0.282,0.62 -0.449,0.855c-0.447,0.621 -0.516,1.496 -0.178,2.289c0.166,0.372 0.185,0.855 0.069,1.247c-0.269,0.897 -1.069,1.42 -1.518,1.655c-0.131,0.069 -0.262,0.117 -0.385,0.16l-0.022,0.006c-0.125,0.035 -0.235,0.056 -0.338,0.056c-0.173,0 -0.254,-0.056 -0.304,-0.097c-0.22,-0.2 -0.323,-0.69 -0.392,-1.015l0,0Zm35.053,-13.131l0,-1.287l-5.241,-3.93c-0.06,-0.048 -0.11,-0.11 -0.151,-0.173l-8.944,-6.799c-1.282,-0.972 -3.138,-0.972 -4.42,0l-11.786,8.958c-0.028,0.026 -0.042,0.061 -0.076,0.082l-2.483,1.862l0,1.289l14.464,-10.984c1.226,-0.937 2.95,-0.937 4.185,0l14.452,10.982l0,0.002l0.002,0l-0.002,-0.002l0,0Z" style="fill:#2b2c3d;"/><path d="M355.245,38.969c0.263,-0.395 1.62,-2.626 -0.186,-4.425c-0.069,-0.082 -0.458,-0.564 -0.393,-1.152c0.027,-0.235 0.138,-0.577 0.526,-0.868c0.061,-0.042 0.316,-0.204 0.7,-0.204c0.35,0 0.883,0.138 1.413,0.802c0.011,0.011 2.35,2.679 0.928,5.844l9.984,0c1.265,0 2.293,1.025 2.293,2.287c0,1.26 -1.028,2.287 -2.293,2.287l-7.685,0c-0.024,2.11 -0.368,3.854 -0.904,5.301l0.578,0c0.114,-0.013 3.925,-0.32 6.842,2.126c1.826,1.53 2.877,3.782 3.123,6.699l0.003,3.25c0,0.281 -0.228,0.508 -0.509,0.508c-0.281,0 -0.51,-0.227 -0.51,-0.508l0,-3.208c-0.222,-2.588 -1.147,-4.608 -2.755,-5.958c-2.585,-2.175 -6.114,-1.897 -6.149,-1.895l-1.05,0.002c-0.035,0.078 -0.071,0.149 -0.109,0.223l0.65,0c0.021,0 0.042,0 0.061,0.003c0.069,0.008 6.961,0.934 6.961,10.253l0,6.39c0,0.28 -0.228,0.508 -0.509,0.508c-0.281,0 -0.509,-0.228 -0.509,-0.508l0,-6.39c0,-8.186 -5.54,-9.171 -6.039,-9.242l-1.193,0c-1.973,3.065 -4.834,4.131 -5.963,4.444l0,6.725c0,1.26 -1.03,2.287 -2.294,2.287c-1.262,0 -2.291,-1.024 -2.291,-2.287l0,-6.601l-1.851,0l0,9.142c0,1.26 -1.029,2.287 -2.294,2.287c-1.262,0 -2.291,-1.025 -2.291,-2.287l0,-9.142l-5.027,0l0,9.142c0,1.26 -1.026,2.287 -2.292,2.287c-1.264,0 -2.293,-1.025 -2.293,-2.287l0,-14.915c-0.008,-0.007 -0.016,-0.015 -0.024,-0.023c-0.758,-0.871 -1.31,-1.869 -1.713,-2.896l0,1.146c0,1.284 -1.047,2.33 -2.333,2.33c-1.286,0 -2.334,-1.046 -2.334,-2.33l0,-6.794c0,-1.287 1.048,-2.332 2.334,-2.329c0.511,0 0.981,0.172 1.368,0.452c0,-0.007 0.002,-0.018 0.002,-0.024c0.03,-0.256 0.247,-0.452 0.507,-0.452l17.615,0c0.053,0 0.104,0.013 0.154,0.029c0.05,-0.018 0.103,-0.029 0.159,-0.029l7.592,0Zm7.289,28.13c-0.684,0 -1.198,-0.198 -1.527,-0.587c-0.398,-0.475 -0.477,-1.126 -0.209,-1.702c0.349,-0.747 1.177,-1.099 1.93,-0.789c0.45,0.185 0.851,0.585 1.079,0.894l1.077,1.332c0.101,0.124 0.124,0.294 0.061,0.441c-0.064,0.146 -0.205,0.247 -0.364,0.26c0,0 -1.614,0.125 -1.707,0.132l-0.009,0c-0.106,0.014 -0.217,0.019 -0.331,0.019l0,0Zm7.42,0c-0.114,0 -0.226,-0.005 -0.332,-0.014l-0.008,0c-0.095,-0.007 -1.705,-0.132 -1.705,-0.132c-0.159,-0.013 -0.299,-0.113 -0.363,-0.259c-0.064,-0.146 -0.04,-0.318 0.061,-0.442l1.09,-1.35c0.215,-0.294 0.617,-0.693 1.066,-0.878c0.75,-0.31 1.58,0.039 1.93,0.788c0.268,0.577 0.189,1.228 -0.209,1.702c-0.332,0.387 -0.846,0.585 -1.53,0.585Zm-0.268,-0.873c0.084,0.007 0.175,0.01 0.265,0.01c0.416,0 0.708,-0.095 0.864,-0.281c0.268,-0.32 0.136,-0.677 0.088,-0.78c-0.119,-0.254 -0.435,-0.511 -0.817,-0.355c-0.225,0.093 -0.517,0.341 -0.708,0.606l-0.588,0.728c0.556,0.045 0.79,0.064 0.896,0.074l0,-0.002l0,0Zm-7.533,-1.459c-0.279,0 -0.478,0.209 -0.568,0.408c-0.048,0.103 -0.183,0.46 0.088,0.78c0.156,0.186 0.448,0.281 0.864,0.281c0.09,0 0.18,-0.005 0.265,-0.01l0,0.002c0.106,-0.01 0.34,-0.031 0.896,-0.074l-0.575,-0.712c-0.204,-0.281 -0.496,-0.529 -0.721,-0.622c-0.088,-0.034 -0.17,-0.053 -0.249,-0.053Zm6.058,-22.244c0.703,0 1.276,-0.569 1.276,-1.27c0,-0.699 -0.573,-1.27 -1.276,-1.27l-17.082,0c0.268,0.378 0.43,0.839 0.43,1.339l0,6.794c0,1.284 -1.048,2.33 -2.333,2.33c-1.287,0 -2.334,-1.046 -2.334,-2.33l0,-1.196c-0.405,1.043 -0.957,2.061 -1.729,2.946c-1.535,1.765 -3.662,2.715 -6.319,2.821c-0.042,0.014 -0.085,0.019 -0.13,0.019c-0.042,0 -0.082,-0.003 -0.124,-0.005l-0.061,-0.003l-0.061,0.003c-0.085,0.002 -0.181,0.007 -0.263,-0.017c-2.1,-0.084 -3.861,-0.706 -5.269,-1.831l0,13.951c0,0.701 0.573,1.271 1.275,1.271c0.704,0 1.274,-0.57 1.274,-1.271l0,-9.65c0,-0.28 0.227,-0.508 0.509,-0.508l6.048,0c0.281,0 0.509,0.228 0.509,0.508l0,9.65c0,0.701 0.571,1.271 1.273,1.271c0.703,0 1.276,-0.57 1.276,-1.271l0,-9.65c0,-0.28 0.228,-0.508 0.509,-0.508l6.321,0c0.003,0 0.006,-0.003 0.008,-0.003c0.774,-0.158 7.579,-1.834 7.579,-11.352l0,-0.259c0,-0.281 0.228,-0.509 0.509,-0.509l8.185,0Zm-16.679,19.74c0,0.701 -0.573,1.271 -1.275,1.271c-0.703,0 -1.273,-0.57 -1.273,-1.271l0,-6.601l2.548,0l0,6.601Zm21.23,0.517c-0.114,0 -0.225,-0.006 -0.332,-0.014l-0.007,0c-0.091,-0.007 -1.708,-0.132 -1.708,-0.132c-0.159,-0.014 -0.3,-0.114 -0.363,-0.26c-0.064,-0.148 -0.041,-0.317 0.061,-0.441l1.089,-1.35c0.215,-0.294 0.615,-0.694 1.066,-0.879c0.753,-0.31 1.581,0.039 1.931,0.789c0.268,0.576 0.188,1.227 -0.208,1.701c-0.331,0.387 -0.845,0.586 -1.529,0.586l0,0Zm-0.265,-0.874c0.084,0.008 0.175,0.01 0.265,0.01c0.416,0 0.708,-0.095 0.864,-0.28c0.268,-0.32 0.133,-0.678 0.085,-0.781c-0.119,-0.254 -0.432,-0.511 -0.817,-0.355c-0.225,0.093 -0.517,0.342 -0.708,0.604l-0.588,0.73c0.557,0.046 0.79,0.064 0.896,0.075l0,-0.003l0.003,0Zm-40.385,-13.435c-2.008,-2.957 -1.984,-7.12 -1.913,-8.488l16.666,0c0.009,0.153 0.017,0.346 0.019,0.563c0.037,1.89 -0.172,6.001 -2.485,8.653c-1.363,1.566 -3.277,2.398 -5.688,2.474c-0.029,0 -0.058,0.006 -0.085,0.011c-0.031,-0.002 -0.06,-0.002 -0.095,-0.002c-0.032,0 -0.063,0 -0.093,0.002c-0.029,-0.005 -0.058,-0.011 -0.084,-0.011c-2.26,-0.071 -4.073,-0.815 -5.415,-2.194c-0.09,-0.092 -0.186,-0.18 -0.271,-0.277c-0.204,-0.233 -0.384,-0.479 -0.556,-0.731l0,0Zm8.18,-0.431c0.095,0 0.186,0.055 0.228,0.143c0.042,0.087 0.032,0.193 -0.03,0.266l-1.9,2.417c-0.05,0.064 -0.125,0.098 -0.202,0.098l-0.005,0c-0.08,-0.003 -0.154,-0.039 -0.202,-0.106l-1.729,-2.416c-0.056,-0.08 -0.063,-0.18 -0.018,-0.265c0.042,-0.085 0.129,-0.137 0.225,-0.137l3.633,0Zm7.624,-6.718c0,-0.725 0.591,-1.313 1.315,-1.313c0.726,0 1.315,0.59 1.315,1.313l0,6.794c0,0.725 -0.591,1.313 -1.315,1.313c-0.727,0 -1.315,-0.59 -1.315,-1.316l0,-6.791Zm-18.753,6.791c0,0.726 -0.591,1.314 -1.315,1.314c-0.727,0 -1.316,-0.588 -1.316,-1.314l0,-6.791c0,-0.725 0.592,-1.313 1.316,-1.313c0.689,0 1.248,0.532 1.304,1.207c0.003,0.141 0.005,0.286 0.011,0.439l0,6.458Zm5.852,-4.009c0,1.132 -1.705,1.132 -1.705,0c0,-1.135 1.705,-1.135 1.705,0Zm8.392,0c0,1.132 -1.704,1.132 -1.704,0c0,-1.135 1.704,-1.135 1.704,0Zm13.861,-5.138c1.543,-2.816 -0.599,-5.259 -0.623,-5.286c-0.265,-0.333 -0.52,-0.497 -0.753,-0.497c-0.122,0 -0.202,0.045 -0.205,0.047c-0.127,0.099 -0.153,0.194 -0.161,0.257c-0.021,0.193 0.13,0.421 0.17,0.469c1.662,1.657 1.211,3.753 0.554,5.01l1.018,0Z" style="fill:#2b2c3d;"/><path id="ic-general" d="M668.423,36.659l-1.926,1.934l-5.354,-5.416l1.926,-1.935c0.751,-0.725 1.691,-1.112 2.677,-1.112c0.986,0 1.926,0.387 2.677,1.112c0.752,0.726 1.128,1.741 1.128,2.708c0,0.968 -0.376,1.935 -1.128,2.709Zm-0.798,-4.595c-0.517,-0.532 -1.175,-0.774 -1.832,-0.774c-0.658,0 -1.315,0.242 -1.832,0.774l-1.08,1.113l3.71,3.772l1.081,-1.112c0.516,-0.532 0.751,-1.209 0.751,-1.887c-0.047,-0.725 -0.282,-1.402 -0.798,-1.886l0,0Zm-6.2,11.704l-14.185,14.364l-6.2,1.548l-0.94,0.242l1.785,-7.255l14.044,-14.219l3.805,-3.869l5.354,5.417c0,0.048 -3.663,3.772 -3.663,3.772l0,0Zm-4.463,-4.643l-14.044,14.219l-1.221,4.982l4.932,-1.258l14.138,-14.315l2.677,-2.709l-3.71,-3.772l-2.772,2.853Zm-8.642,-2.66c-8.549,0 -15.5,7.061 -15.5,15.718c0,8.706 6.951,15.719 15.5,15.719c8.549,0 15.5,-7.062 15.5,-15.719c0,-1.789 -0.282,-3.53 -0.845,-5.126l1.033,-1.112c2.302,5.948 1.174,12.961 -3.382,17.894c-6.341,6.868 -17.05,7.206 -23.814,0.725c-6.764,-6.432 -7.092,-17.265 -0.751,-24.133c4.603,-4.933 11.413,-6.481 17.426,-4.546l-0.987,1.064c-1.315,-0.29 -2.724,-0.484 -4.18,-0.484l0,0Z" style="fill:#2b2c3d;"/><path d="M38.63,71.463c-2.155,0 -3.686,-1.474 -3.686,-3.629c0,-2.155 1.588,-3.742 3.743,-3.742c2.155,0 3.743,1.587 3.743,3.799c0,2.155 -1.645,3.572 -3.8,3.572Zm0.114,-5.784c-1.248,0 -2.212,1.021 -2.212,2.212c0,1.247 1.021,2.211 2.212,2.211c1.247,0 2.211,-1.02 2.211,-2.211c0,-1.248 -0.964,-2.212 -2.211,-2.212Zm7.995,-3.289c-3.686,0 -6.748,-2.325 -8.109,-5.727c-8.336,0 -14.63,-5.897 -14.63,-14.233c0,-8.336 6.465,-14.12 13.95,-14.177c2.495,-0.057 5.217,0.851 7.428,1.985c3.403,-3.97 7.996,-6.578 13.27,-6.578c9.866,0 17.408,7.202 17.352,17.069c-0.057,9.866 -6.578,16.501 -16.842,17.182c-1.474,0.113 -3.573,-0.171 -4.934,-0.511c-1.474,3.006 -4.082,4.99 -7.485,4.99Zm-7.769,-7.088c0.511,0 1.135,0.34 1.248,0.794c0.851,2.892 3.459,4.82 6.408,4.82c2.835,0 5.33,-1.815 6.294,-4.48c0.227,-0.567 0.794,-0.85 1.361,-0.68c1.475,0.453 3.062,0.68 4.65,0.68c8.676,0 15.708,-7.031 15.708,-15.651c0,-8.619 -7.032,-15.651 -15.708,-15.651c-4.933,0 -9.47,2.269 -12.475,6.125c-0.341,0.453 -1.021,0.567 -1.475,0.283c-2.041,-1.247 -4.423,-1.928 -6.804,-1.928c-7.089,0 -12.873,5.784 -12.873,12.872c0,7.089 5.784,12.873 12.873,12.873c0.226,0 0.453,0 0.623,-0.057c0.114,0 0.114,0 0.17,0Zm8.393,14.063c0,0 0,0.057 0,0c0,0.057 0,0 0,0c0,-0.057 0,-0.057 0,0c0,-0.057 0,-0.057 0,0Zm-18.6,6.975c-1.701,0 -3.062,-1.361 -3.062,-3.062c0,-1.701 1.361,-3.062 3.062,-3.062c1.702,0 3.062,1.361 3.062,3.062c0,1.701 -1.36,3.062 -3.062,3.062Zm0,-4.593c-0.85,0 -1.531,0.68 -1.531,1.531c0,0.851 0.681,1.531 1.531,1.531c0.851,0 1.531,-0.68 1.531,-1.531c0,-0.851 -0.68,-1.531 -1.531,-1.531Z" style="fill-rule:nonzero;"/><path d="M38.63,171.463c-2.155,0 -3.686,-1.474 -3.686,-3.629c0,-2.155 1.588,-3.742 3.743,-3.742c2.155,0 3.743,1.587 3.743,3.799c0,2.155 -1.645,3.572 -3.8,3.572Zm0.114,-5.784c-1.248,0 -2.212,1.021 -2.212,2.212c0,1.247 1.021,2.211 2.212,2.211c1.247,0 2.211,-1.02 2.211,-2.211c0,-1.248 -0.964,-2.212 -2.211,-2.212Zm7.995,-3.289c-3.686,0 -6.748,-2.325 -8.109,-5.727c-8.336,0 -14.63,-5.897 -14.63,-14.233c0,-8.336 6.465,-14.12 13.95,-14.177c2.495,-0.057 5.217,0.851 7.428,1.985c3.403,-3.97 7.996,-6.578 13.27,-6.578c9.866,0 17.408,7.202 17.352,17.069c-0.057,9.866 -6.578,16.501 -16.842,17.182c-1.474,0.113 -3.573,-0.171 -4.934,-0.511c-1.474,3.006 -4.082,4.99 -7.485,4.99Zm-7.769,-7.088c0.511,0 1.135,0.34 1.248,0.794c0.851,2.892 3.459,4.82 6.408,4.82c2.835,0 5.33,-1.815 6.294,-4.48c0.227,-0.567 0.794,-0.85 1.361,-0.68c1.475,0.453 3.062,0.68 4.65,0.68c8.676,0 15.708,-7.031 15.708,-15.651c0,-8.619 -7.032,-15.651 -15.708,-15.651c-4.933,0 -9.47,2.269 -12.475,6.125c-0.341,0.453 -1.021,0.567 -1.475,0.283c-2.041,-1.247 -4.423,-1.928 -6.804,-1.928c-7.089,0 -12.873,5.784 -12.873,12.872c0,7.089 5.784,12.873 12.873,12.873c0.226,0 0.453,0 0.623,-0.057c0.114,0 0.114,0 0.17,0Zm8.393,14.063c0,0 0,0.057 0,0c0,0.057 0,0 0,0c0,-0.057 0,-0.057 0,0c0,-0.057 0,-0.057 0,0Zm-18.6,6.975c-1.701,0 -3.062,-1.361 -3.062,-3.062c0,-1.701 1.361,-3.062 3.062,-3.062c1.702,0 3.062,1.361 3.062,3.062c0,1.701 -1.36,3.062 -3.062,3.062Zm0,-4.593c-0.85,0 -1.531,0.68 -1.531,1.531c0,0.851 0.681,1.531 1.531,1.531c0.851,0 1.531,-0.68 1.531,-1.531c0,-0.851 -0.68,-1.531 -1.531,-1.531Z" style="fill:#f59b24;fill-rule:nonzero;"/></g><g><path id="Baby1" d="M173.114,155.304c-0.048,0.147 -0.145,0.294 -0.241,0.441c-0.145,0.147 -0.29,0.245 -0.483,0.343c-0.193,0.098 -0.434,0.098 -0.724,0.098c-0.338,0 -0.531,-0.049 -0.821,-0.147c-0.29,-0.098 -0.579,-0.245 -1.062,-0.392l-0.483,-0.196l0,12.632c0,0.93 -0.338,1.763 -0.917,2.35c-0.58,0.588 -1.352,0.979 -2.27,0.979c-0.531,0 -0.917,-0.098 -1.351,-0.342c-0.387,-0.196 -0.725,-0.49 -1.063,-0.882l-0.241,-0.293l-0.241,0.293c-0.628,0.735 -1.401,1.175 -2.415,1.175c-0.917,0 -1.689,-0.391 -2.269,-0.979c-0.579,-0.587 -0.917,-1.42 -0.917,-2.35l0,-12.583l-0.483,0.196c-0.434,0.147 -0.772,0.294 -1.11,0.392c-0.29,0.098 -0.58,0.147 -0.918,0.147c-0.289,0 -0.627,-0.049 -0.869,-0.147c-0.241,-0.098 -0.483,-0.196 -0.579,-0.343c-0.145,-0.196 -0.242,-0.392 -0.338,-0.587c-0.048,-0.196 -0.097,-0.441 -0.097,-0.735c0,-0.196 0,-0.392 0.049,-0.587l0,-0.098c0,-0.196 -0.049,-0.343 -0.049,-0.49c-0.048,-0.147 -0.048,-0.294 -0.048,-0.392l0,-5.581c0,-2.35 0.628,-3.868 1.545,-4.798c0.435,-0.441 1.062,-0.784 1.786,-0.979c0.725,-0.196 1.545,-0.294 2.463,-0.343l0.821,-0.049l-0.58,-0.539c-1.207,-1.126 -1.931,-2.741 -1.931,-4.504c0,-2.399 1.4,-4.504 3.38,-5.484l0.386,-0.195l-0.29,-0.343c-0.483,-0.539 -0.821,-1.273 -0.821,-2.057l1.063,0c0,1.078 0.82,1.91 1.883,1.959l0.482,0c1.69,0 3.187,0.685 4.297,1.811c1.111,1.127 1.787,2.644 1.787,4.358c0,1.763 -0.773,3.378 -1.98,4.504l-0.579,0.539l0.821,0.049c0.917,0.049 1.69,0.147 2.317,0.343c0.628,0.195 1.159,0.489 1.642,0.979c0.434,0.44 0.772,1.028 0.917,1.811c0.193,0.784 0.242,1.763 0.242,2.987l0,5.581c0,0.245 0.096,0.441 0.144,0.637c0.049,0.147 0.097,0.294 0.097,0.392c0.048,0.342 0.048,0.636 0.048,0.881c0.049,0.196 0.049,0.343 0,0.538l0,0Zm-9.077,12.828c0,0.588 0.193,1.175 0.58,1.567c0.386,0.44 0.917,0.685 1.545,0.685c0.627,0 1.159,-0.245 1.545,-0.685c0.386,-0.392 0.579,-0.979 0.579,-1.567l0,-11.506l-0.579,0.637c-0.435,0.44 -0.869,0.832 -1.352,1.126c-0.531,0.294 -1.111,0.49 -1.98,0.587l-0.289,0.049l0,9.107l-0.049,0l0,0Zm-5.311,0c0,0.588 0.193,1.175 0.58,1.567c0.386,0.44 0.917,0.685 1.545,0.685c0.627,0 1.159,-0.245 1.545,-0.685c0.386,-0.392 0.579,-0.979 0.579,-1.567l0,-9.156l-0.29,-0.049c-0.82,-0.097 -1.448,-0.293 -1.979,-0.587c-0.531,-0.294 -0.917,-0.685 -1.352,-1.126l-0.579,-0.637c-0.049,0.049 -0.049,11.555 -0.049,11.555l0,0Zm-0.241,-14.345c0.145,0.93 0.434,1.958 1.207,2.79c0.772,0.833 1.98,1.371 3.718,1.371c1.786,0 2.945,-0.538 3.717,-1.371c0.773,-0.832 1.063,-1.86 1.207,-2.79l0.049,-0.392l-9.946,0l0.048,0.392Zm8.449,-14.493c0.918,-0.881 1.449,-2.105 1.449,-3.525c0,-1.42 -0.58,-2.644 -1.497,-3.525c-0.917,-0.881 -2.173,-1.42 -3.525,-1.42c-1.4,0 -2.655,0.539 -3.524,1.42c-0.918,0.881 -1.497,2.154 -1.497,3.525c0,1.371 0.579,2.644 1.449,3.525c0.917,0.882 2.172,1.42 3.524,1.42l0.048,0c1.449,0 2.704,-0.538 3.573,-1.42Zm5.263,15.178l-0.145,-0.294c-0.048,-0.098 -0.048,-0.196 -0.048,-0.196c-0.048,-0.244 -0.097,-0.44 -0.145,-0.636c-0.048,-0.196 -0.097,-0.343 -0.097,-0.49l0,-5.63c0,-0.979 -0.048,-1.763 -0.144,-2.448c-0.097,-0.637 -0.338,-1.224 -0.725,-1.616c-0.482,-0.489 -1.158,-0.734 -1.931,-0.881c-0.772,-0.147 -1.738,-0.147 -2.849,-0.147l-5.504,0c-1.11,0 -2.124,0.049 -2.993,0.147c-0.821,0.147 -1.545,0.392 -2.028,0.881c-0.772,0.735 -1.255,2.057 -1.255,4.015l0,5.679c0,0.245 0.048,0.441 0.096,0.637c0.049,0.196 0.049,0.343 0.049,0.441l0,0.146c0,0.196 0.048,0.343 0.096,0.49l0.048,0.147l0,0.343l0.29,0.049l0.29,0c0.627,0 1.207,-0.245 1.641,-0.637c0.435,-0.392 0.773,-0.979 0.773,-1.616l0,-5.63c0,-0.294 0.241,-0.539 0.531,-0.539c0.29,0 0.531,0.245 0.531,0.539l0,5.092l9.512,0l0,-5.092c0,-0.294 0.241,-0.539 0.531,-0.539c0.289,0 0.531,0.245 0.531,0.539l0,5.63c0,0.637 0.289,1.224 0.724,1.616c0.435,0.392 1.014,0.637 1.642,0.637l0.338,0l0.289,-0.049l0,-0.343c0,-0.098 0,-0.196 -0.048,-0.245l0,0Zm-21.389,12.289l-0.048,0.098l-0.628,0.93l-0.048,0.098l-2.607,2.595c-0.628,0.637 -1.449,0.979 -2.366,0.979c-0.869,0 -1.738,-0.342 -2.366,-0.979c-0.628,-0.636 -0.966,-1.469 -0.966,-2.35c0,-0.881 0.338,-1.714 0.966,-2.35l0,-0.049l0.241,-0.245l-2.172,-2.203l-0.193,0.049c-0.531,0.147 -1.207,0.294 -1.98,0.294c-0.869,0 -1.641,-0.147 -2.269,-0.343l-0.193,-0.049l-2.269,2.301l0.241,0.245c0.628,0.636 0.966,1.518 0.966,2.35c0,0.881 -0.338,1.714 -0.966,2.35c-0.628,0.637 -1.497,0.979 -2.366,0.979c-0.869,0 -1.69,-0.342 -2.366,-0.979l-3.235,-3.574c-0.048,-0.049 -0.096,-0.098 -0.096,-0.147c-0.145,-0.392 -0.242,-0.832 -0.242,-1.273c0,-0.881 0.338,-1.713 0.966,-2.35l2.607,-2.644l-0.482,-0.147c-0.145,-0.147 -0.194,-0.342 -0.29,-0.489c-0.048,-0.196 -0.097,-0.441 -0.097,-0.686c0,-0.196 0,-0.391 0.049,-0.636l0,-0.147c0,-0.343 -0.097,-0.637 -0.097,-0.881l0,-5.68c0,-2.35 0.579,-3.868 1.545,-4.798c0.483,-0.441 1.062,-0.783 1.786,-0.979c0.725,-0.196 1.545,-0.294 2.463,-0.343l0.821,-0.049l-0.58,-0.538c-1.207,-1.126 -1.931,-2.742 -1.931,-4.505c0,-2.448 1.448,-4.553 3.524,-5.581l0.435,-0.196l-0.29,-0.343c-0.482,-0.538 -0.772,-1.224 -0.772,-2.007c0,-0.686 0.29,-1.322 0.724,-1.812c0.435,-0.44 1.062,-0.734 1.786,-0.734c0.58,0 1.111,0.245 1.497,0.636c0.386,0.392 0.628,0.931 0.628,1.518c0,0.294 -0.242,0.539 -0.531,0.539c-0.29,0 -0.531,-0.245 -0.531,-0.539c0,-0.587 -0.483,-1.028 -1.063,-1.028c-0.772,0 -1.448,0.636 -1.448,1.469c0,1.077 0.821,1.909 1.883,1.958l0.338,0c1.69,0 3.187,0.686 4.297,1.812c1.111,1.126 1.786,2.644 1.786,4.357c0,1.763 -0.772,3.378 -1.979,4.505l-0.579,0.538l0.82,0.049c0.918,0.049 1.69,0.147 2.318,0.343c0.676,0.196 1.207,0.489 1.641,0.979c0.435,0.441 0.773,1.028 0.966,1.812c0.193,0.783 0.29,1.762 0.29,2.986l0,5.631c0,0.244 0.048,0.44 0.096,0.587c0.049,0.147 0.097,0.294 0.097,0.392c0.048,0.44 0.096,0.832 0.096,1.126c0,0.343 -0.048,0.538 -0.241,0.783l-0.145,0.147l-0.338,0.245l2.366,2.399c0.628,0.637 0.966,1.518 0.966,2.35c-0.193,0.343 -0.242,0.784 -0.435,1.224l0,0Zm-12.167,-4.406c1.787,0 2.994,-0.539 3.718,-1.371c0.772,-0.833 1.062,-1.861 1.207,-2.791l0.048,-0.392l-9.946,0l0.048,0.392c0.145,0.93 0.435,1.958 1.207,2.791c0.725,0.832 1.932,1.371 3.718,1.371l0,0Zm-11.056,1.517c-0.435,0.441 -0.676,1.029 -0.676,1.616c0,0.245 0.048,0.49 0.096,0.686l0,0.049l3.139,3.476c0.434,0.44 0.965,0.636 1.545,0.636c0.579,0 1.158,-0.196 1.593,-0.685c0.434,-0.441 0.676,-1.028 0.676,-1.616c0,-0.587 -0.242,-1.175 -0.676,-1.616l-0.628,-0.636c-0.096,-0.098 -0.145,-0.245 -0.145,-0.392c0,-0.147 0.049,-0.294 0.145,-0.391l2.414,-2.448l-0.289,-0.245c-0.821,-0.637 -1.401,-1.518 -1.739,-2.399l-0.193,-0.441l-0.338,0.343c-0.482,0.44 -1.062,0.734 -1.738,0.832l-0.145,0l-0.096,0.147c0,0.147 -2.945,3.084 -2.945,3.084l0,0Zm14.629,-19.388c0.917,-0.93 1.448,-2.252 1.448,-3.623c0,-1.42 -0.579,-2.693 -1.448,-3.672c-0.917,-0.93 -2.173,-1.567 -3.573,-1.567c-2.8,0 -5.021,2.35 -5.021,5.141c0,1.371 0.579,2.693 1.448,3.672c0.918,0.979 2.173,1.567 3.525,1.567l0.048,0c1.4,0.049 2.656,-0.539 3.573,-1.518Zm5.118,14.443c-0.048,-0.146 -0.048,-0.244 -0.048,-0.342c0,-0.245 -0.097,-0.441 -0.145,-0.588c-0.049,-0.196 -0.097,-0.342 -0.097,-0.489l0,-5.68c0,-0.979 -0.048,-1.762 -0.145,-2.448c-0.145,-0.636 -0.338,-1.224 -0.724,-1.616c-0.483,-0.489 -1.159,-0.734 -1.979,-0.881c-0.821,-0.147 -1.739,-0.147 -2.897,-0.147l-5.408,0c-1.159,0 -2.124,0.049 -2.993,0.147c-0.821,0.147 -1.545,0.392 -2.028,0.881c-0.773,0.735 -1.207,2.057 -1.207,4.015l0,5.631c0,0.245 0.048,0.44 0.048,0.587c0.048,0.196 0.048,0.343 0.048,0.441l0,0.147c0,0.196 0.049,0.342 0.097,0.489c0.048,0.147 0.048,0.245 0.048,0.245l0,0.294l0.29,0.049l0.338,0c0.627,0 1.207,-0.245 1.69,-0.637c0.434,-0.391 0.772,-0.979 0.772,-1.615l0,-5.582c0,-0.294 0.242,-0.538 0.531,-0.538c0.29,0 0.531,0.244 0.531,0.538l0,4.896l9.512,0l0,-4.896c0,-0.294 0.241,-0.538 0.531,-0.538c0.29,0 0.531,0.244 0.531,0.538l0,5.631c0,1.273 1.062,2.252 2.269,2.252l0.242,0l0.289,-0.049l0,-0.343c0,-0.147 -0.048,-0.245 -0.096,-0.392l0,0Zm1.979,4.945l-2.945,-2.986l-0.048,-0.098l-0.048,-0.098l-0.145,0c-0.531,-0.147 -0.966,-0.392 -1.352,-0.734l-0.338,-0.343l-0.193,0.441c-0.386,0.93 -1.014,1.86 -1.931,2.546l-0.338,0.244l2.269,2.301c0.096,0.098 0.145,0.245 0.145,0.392c0,0.147 -0.049,0.294 -0.145,0.392l-0.628,0.636c-0.434,0.441 -0.676,0.98 -0.676,1.616c0,0.588 0.242,1.175 0.676,1.616c0.435,0.44 0.966,0.685 1.593,0.685c0.58,0 1.159,-0.245 1.594,-0.685l2.559,-2.595l0.531,-0.833l0,-0.048c0.096,-0.245 0.145,-0.49 0.145,-0.784c-0.049,-0.636 -0.29,-1.224 -0.725,-1.665Z" style="fill:#f59b24;"/><path id="ic-gardening1" d="M439.074,165.607l-6.925,-4.21c-0.161,-0.108 -0.299,-0.248 -0.429,-0.391c-0.211,-0.233 -0.391,-0.495 -0.55,-0.764c-0.284,-0.482 -0.5,-1.002 -0.668,-1.534c-0.202,-0.638 -0.335,-1.296 -0.421,-1.959c-0.073,-0.557 -0.112,-1.119 -0.126,-1.68c-0.008,-0.36 -0.009,-0.72 0.014,-1.079c0.04,-0.598 0.141,-1.194 0.316,-1.768c0.168,-0.554 0.404,-1.086 0.71,-1.577c0.22,-0.354 0.475,-0.685 0.76,-0.989c0.858,-0.914 1.98,-1.55 3.182,-1.889c0.629,-0.178 1.276,-0.272 1.928,-0.294c0.117,-0.004 0.234,-0.005 0.351,-0.004c0.563,0.012 1.124,0.066 1.665,0.23c0.999,0.302 1.89,0.896 2.666,1.582c0.544,0.479 1.039,1.012 1.496,1.572c0.508,0.622 0.969,1.28 1.385,1.965l0.001,0.001l2.535,0.607l-16.79,-24.342l-5.396,0l-0.075,-0.005c-0.065,-0.013 -0.083,-0.013 -0.145,-0.038c-0.093,-0.039 -0.175,-0.102 -0.236,-0.182c-0.156,-0.203 -0.156,-0.495 0,-0.699c0.046,-0.06 0.104,-0.11 0.169,-0.148c0.09,-0.053 0.184,-0.07 0.287,-0.077c1.923,0 3.848,-0.112 5.768,0.004c0.06,0.011 0.076,0.011 0.134,0.033c0.113,0.044 0.196,0.118 0.269,0.212l17.62,25.546c0.026,0.042 0.039,0.061 0.053,0.093l3.616,0.866c0.251,-0.454 0.537,-0.888 0.855,-1.299c0.642,-0.833 1.412,-1.569 2.287,-2.154c0.659,-0.442 1.377,-0.795 2.129,-1.048c0.365,-0.123 0.738,-0.225 1.116,-0.297c0.365,-0.069 0.735,-0.104 1.107,-0.12c0.126,-0.003 0.252,-0.004 0.379,-0.003c0.79,0.015 1.574,0.128 2.339,0.327c0.531,0.138 1.051,0.314 1.558,0.526c0.386,0.161 0.764,0.342 1.132,0.543c0.287,0.157 0.569,0.325 0.843,0.506c1.588,1.045 2.961,2.503 3.669,4.287c0.103,0.261 0.192,0.528 0.265,0.798c0.098,0.367 0.167,0.742 0.205,1.12c0.036,0.368 0.041,0.735 0.019,1.102l3.168,0.758l0.091,0.031c0.028,0.014 0.058,0.027 0.085,0.044c0.108,0.069 0.191,0.174 0.233,0.296c0.028,0.081 0.024,0.103 0.031,0.188l0,2.961c0.091,0.037 0.181,0.077 0.27,0.119c0.498,0.24 0.952,0.572 1.334,0.972c0.383,0.401 0.692,0.871 0.908,1.382c0.178,0.42 0.292,0.866 0.338,1.32c0.051,0.503 0.02,1.014 -0.094,1.507c-0.209,0.906 -0.7,1.739 -1.389,2.364c-0.383,0.348 -0.824,0.631 -1.301,0.833c-0.565,0.239 -1.176,0.361 -1.789,0.361c-0.614,0 -1.225,-0.122 -1.79,-0.361c-0.477,-0.202 -0.918,-0.485 -1.301,-0.833c-0.511,-0.463 -0.912,-1.041 -1.171,-1.678l-18.016,0c-0.275,0.474 -0.617,0.908 -1.013,1.286c-0.502,0.478 -1.089,0.864 -1.728,1.135c-0.706,0.298 -1.47,0.451 -2.237,0.451c-0.766,0 -1.531,-0.153 -2.236,-0.451c-0.639,-0.271 -1.226,-0.657 -1.728,-1.135c-0.501,-0.478 -0.915,-1.045 -1.215,-1.668c-0.246,-0.51 -0.415,-1.057 -0.501,-1.617c-0.082,-0.54 -0.087,-1.093 -0.016,-1.635l0,0Zm32.863,-1.536c-0.488,0.018 -0.965,0.126 -1.406,0.339c-0.933,0.449 -1.632,1.319 -1.864,2.328c-0.093,0.399 -0.113,0.813 -0.061,1.219c0.043,0.338 0.136,0.668 0.277,0.978c0.171,0.38 0.411,0.726 0.705,1.02c0.293,0.293 0.64,0.534 1.019,0.705c0.417,0.189 0.871,0.291 1.33,0.303c0.46,0.012 0.923,-0.068 1.352,-0.237c0.388,-0.154 0.746,-0.377 1.055,-0.657c0.495,-0.449 0.854,-1.042 1.02,-1.69c0.088,-0.338 0.123,-0.69 0.105,-1.039c-0.018,-0.344 -0.087,-0.685 -0.205,-1.008c-0.134,-0.365 -0.33,-0.707 -0.578,-1.007c-0.282,-0.341 -0.628,-0.628 -1.018,-0.839c-0.321,-0.175 -0.671,-0.298 -1.031,-0.362c-0.144,-0.026 -0.288,-0.04 -0.434,-0.05c-0.089,-0.003 -0.177,-0.004 -0.266,-0.003l0,0Zm-27.286,-2.298c-0.194,0.008 -0.388,0.023 -0.581,0.052c-0.484,0.074 -0.956,0.226 -1.392,0.449c-0.822,0.422 -1.509,1.092 -1.95,1.903c-0.233,0.43 -0.397,0.896 -0.483,1.377c-0.089,0.499 -0.095,1.013 -0.018,1.515c0.068,0.447 0.203,0.883 0.399,1.291c0.241,0.499 0.572,0.953 0.973,1.335c0.401,0.383 0.871,0.692 1.382,0.908c0.565,0.239 1.176,0.361 1.789,0.361c0.614,0 1.225,-0.122 1.79,-0.361c0.51,-0.216 0.98,-0.525 1.382,-0.908c0.401,-0.382 0.732,-0.836 0.972,-1.335c0.196,-0.407 0.332,-0.844 0.4,-1.291c0.076,-0.502 0.07,-1.016 -0.019,-1.515c-0.086,-0.481 -0.249,-0.947 -0.483,-1.377c-0.441,-0.811 -1.127,-1.481 -1.949,-1.903c-0.437,-0.223 -0.908,-0.375 -1.392,-0.449c-0.193,-0.029 -0.387,-0.044 -0.582,-0.052c-0.119,-0.001 -0.119,-0.001 -0.238,0Zm27.375,7.468c0.952,0 1.723,-0.772 1.723,-1.724c0,-0.952 -0.771,-1.723 -1.723,-1.723c-0.952,0 -1.724,0.771 -1.724,1.723c0,0.952 0.772,1.724 1.724,1.724Zm-27.256,-1.149c0.952,0 1.724,-0.772 1.724,-1.724c0,-0.952 -0.772,-1.723 -1.724,-1.723c-0.952,0 -1.724,0.771 -1.724,1.723c0,0.952 0.772,1.724 1.724,1.724Zm27.83,-5.135l0,-2.21l-28.677,-6.867c-0.03,-0.01 -0.061,-0.018 -0.089,-0.03c-0.088,-0.037 -0.165,-0.095 -0.224,-0.168c-0.02,-0.025 -0.035,-0.052 -0.053,-0.078c-0.057,-0.101 -0.117,-0.2 -0.177,-0.299c-0.424,-0.683 -0.893,-1.337 -1.413,-1.949c-0.4,-0.47 -0.829,-0.916 -1.299,-1.317c-0.639,-0.546 -1.37,-1.029 -2.186,-1.26c-0.417,-0.118 -0.85,-0.152 -1.282,-0.161c-0.075,0 -0.075,0 -0.15,0c-1.417,0.019 -2.847,0.451 -3.954,1.355c-0.178,0.146 -0.346,0.302 -0.503,0.47c-0.234,0.248 -0.442,0.519 -0.622,0.809c-0.269,0.431 -0.472,0.902 -0.612,1.39c-0.134,0.463 -0.212,0.943 -0.243,1.424c-0.022,0.324 -0.02,0.649 -0.012,0.975c0.013,0.521 0.049,1.042 0.116,1.56c0.123,0.947 0.347,1.903 0.779,2.761c0.121,0.241 0.259,0.473 0.422,0.687c0.102,0.136 0.215,0.267 0.345,0.377l0.005,0.005l6.587,4.004c0.052,-0.146 0.11,-0.29 0.174,-0.431c0.534,-1.181 1.469,-2.162 2.622,-2.752c0.546,-0.28 1.136,-0.47 1.742,-0.563c0.241,-0.037 0.482,-0.055 0.726,-0.064c0.149,-0.002 0.148,-0.002 0.296,0c0.244,0.009 0.486,0.027 0.727,0.064c0.606,0.093 1.196,0.283 1.741,0.563c1.028,0.526 1.886,1.363 2.436,2.377c0.292,0.537 0.497,1.121 0.605,1.723c0.111,0.623 0.119,1.265 0.023,1.89c-0.044,0.288 -0.11,0.572 -0.197,0.85l17.212,0c-0.044,-0.346 -0.048,-0.697 -0.012,-1.044c0.046,-0.454 0.16,-0.9 0.337,-1.32c0.216,-0.511 0.526,-0.981 0.908,-1.382c0.382,-0.4 0.836,-0.732 1.335,-0.972c0.408,-0.196 0.845,-0.331 1.293,-0.4c0.193,-0.029 0.386,-0.044 0.581,-0.051c0.119,-0.002 0.118,-0.002 0.237,0c0.153,0.005 0.305,0.015 0.456,0.034l0,0Zm-3.597,-4.253c0.008,-0.358 -0.014,-0.716 -0.072,-1.071c-0.044,-0.273 -0.108,-0.543 -0.19,-0.807c-0.535,-1.723 -1.811,-3.131 -3.284,-4.126c-0.246,-0.166 -0.498,-0.321 -0.756,-0.466c-0.331,-0.185 -0.672,-0.354 -1.02,-0.504c-0.456,-0.196 -0.925,-0.361 -1.403,-0.492c-0.948,-0.259 -1.95,-0.388 -2.932,-0.29c-0.501,0.049 -0.993,0.169 -1.47,0.329c-0.787,0.265 -1.531,0.656 -2.197,1.153c-0.7,0.524 -1.314,1.158 -1.829,1.865c-0.158,0.217 -0.309,0.442 -0.449,0.673l15.602,3.736Z" style="fill:#f59b24;"/><path id="ic-events1" d="M261.038,154.417c0.182,0.007 0.362,0.018 0.543,0.041c0.397,0.051 0.787,0.145 1.162,0.283c0.527,0.194 1.024,0.471 1.466,0.818c0.745,0.586 1.33,1.369 1.679,2.251c0.162,0.412 0.273,0.844 0.329,1.283c0.023,0.181 0.035,0.362 0.041,0.544c0.071,5.655 0.002,5.419 0.002,11.074c-0.002,0.028 -0.002,0.056 -0.005,0.084c-0.012,0.083 -0.041,0.164 -0.084,0.235c-0.044,0.072 -0.102,0.135 -0.171,0.183c-0.235,0.166 -0.563,0.143 -0.773,-0.053c-0.082,-0.076 -0.142,-0.175 -0.172,-0.283c-0.02,-0.072 -0.017,-0.092 -0.023,-0.166c0,-5.645 0.069,-5.398 -0.001,-11.043c-0.018,-0.483 -0.107,-0.957 -0.285,-1.407c-0.43,-1.09 -1.327,-1.964 -2.427,-2.367c-0.422,-0.155 -0.864,-0.233 -1.312,-0.25c-7.115,-0.089 -14.233,-0.089 -21.348,0c-0.448,0.017 -0.89,0.095 -1.312,0.25c-1.132,0.415 -2.047,1.329 -2.462,2.461c-0.155,0.423 -0.233,0.864 -0.25,1.313c-0.073,5.645 -0.001,5.398 -0.001,11.043c-0.002,0.028 -0.002,0.056 -0.006,0.084c-0.011,0.083 -0.04,0.164 -0.084,0.235c-0.043,0.072 -0.102,0.135 -0.17,0.183c-0.235,0.166 -0.563,0.143 -0.773,-0.053c-0.082,-0.076 -0.142,-0.175 -0.172,-0.283c-0.02,-0.072 -0.018,-0.092 -0.023,-0.166l0,-10.94c0.003,-0.182 0.009,-0.362 0.028,-0.543c0.045,-0.442 0.145,-0.878 0.298,-1.295c0.341,-0.932 0.945,-1.761 1.725,-2.374c0.442,-0.347 0.939,-0.624 1.467,-0.818c0.375,-0.138 0.765,-0.232 1.161,-0.283c0.181,-0.023 0.362,-0.034 0.543,-0.041c7.136,-0.089 14.274,-0.089 21.41,0l0,0Zm-10.69,13.874c0.47,0 0.851,0.382 0.851,0.851c0,0.469 -0.381,0.85 -0.851,0.85c-0.469,0 -0.85,-0.381 -0.85,-0.85c0,-0.469 0.381,-0.851 0.85,-0.851Zm0,-5.219c0.47,0 0.851,0.381 0.851,0.85c0,0.47 -0.381,0.851 -0.851,0.851c-0.469,0 -0.85,-0.381 -0.85,-0.851c0,-0.469 0.381,-0.85 0.85,-0.85Zm0,-2.888c-1.353,0.724 -2.727,1.409 -4.121,2.052c-0.058,0.023 -0.118,0.036 -0.181,0.034c-0.163,-0.004 -0.313,-0.103 -0.38,-0.251c-0.023,-0.049 -0.034,-0.1 -0.039,-0.154c-0.045,-1.447 -0.045,-2.896 0,-4.343c0.004,-0.044 0.012,-0.087 0.028,-0.129c0.053,-0.137 0.171,-0.231 0.311,-0.266c0.036,-0.007 0.07,-0.01 0.106,-0.01c0.055,0.003 0.105,0.015 0.155,0.034c1.394,0.644 2.768,1.329 4.121,2.052c1.353,-0.723 2.728,-1.408 4.121,-2.052c0.068,-0.026 0.135,-0.037 0.208,-0.033c0.163,0.02 0.304,0.12 0.364,0.275c0.016,0.042 0.024,0.085 0.029,0.129c0.044,1.447 0.044,2.896 0,4.343c-0.006,0.063 -0.021,0.123 -0.051,0.178c-0.077,0.143 -0.232,0.233 -0.395,0.227c-0.054,-0.001 -0.105,-0.014 -0.155,-0.034c-1.393,-0.643 -2.768,-1.328 -4.121,-2.052l0,0Zm0.967,-0.49l2.891,1.445l0,-2.89c-0.964,0.481 -1.927,0.963 -2.891,1.445Zm-4.824,1.445l2.89,-1.445l-2.89,-1.445l0,2.89Zm4.013,-33.252c0.513,0.011 1.023,0.045 1.531,0.117c1.18,0.165 2.334,0.507 3.414,1.011c1.362,0.636 2.6,1.529 3.637,2.616c0.972,1.018 1.764,2.206 2.328,3.495c0.5,1.142 0.82,2.361 0.946,3.6c0.134,1.321 0.052,2.664 -0.247,3.958c-0.244,1.055 -0.632,2.076 -1.149,3.028c-0.74,1.361 -1.743,2.576 -2.937,3.562c-0.937,0.773 -1.991,1.404 -3.116,1.864c-1.445,0.592 -3.003,0.894 -4.563,0.894c-1.561,0 -3.118,-0.302 -4.563,-0.894c-1.125,-0.46 -2.178,-1.091 -3.116,-1.864c-1.194,-0.986 -2.197,-2.201 -2.936,-3.562c-0.518,-0.952 -0.906,-1.973 -1.15,-3.028c-0.299,-1.294 -0.381,-2.637 -0.247,-3.958c0.126,-1.239 0.446,-2.458 0.946,-3.6c0.564,-1.289 1.356,-2.477 2.328,-3.495c1.037,-1.087 2.275,-1.98 3.638,-2.616c1.079,-0.504 2.233,-0.846 3.413,-1.011c0.508,-0.072 1.018,-0.106 1.531,-0.117c0.156,-0.001 0.156,-0.001 0.312,0l0,0Zm-0.297,1.179c-0.462,0.009 -0.923,0.041 -1.382,0.105c-1.065,0.149 -2.105,0.458 -3.079,0.912c-1.229,0.574 -2.347,1.38 -3.283,2.362c-0.877,0.919 -1.592,1.99 -2.101,3.154c-0.451,1.029 -0.739,2.128 -0.853,3.246c-0.121,1.193 -0.047,2.405 0.223,3.574c0.22,0.951 0.57,1.872 1.036,2.73c0.668,1.229 1.573,2.325 2.652,3.216c0.846,0.698 1.797,1.267 2.812,1.683c1.303,0.533 2.708,0.805 4.116,0.805c1.408,0 2.813,-0.272 4.116,-0.805c1.016,-0.416 1.967,-0.985 2.813,-1.683c1.078,-0.891 1.983,-1.987 2.651,-3.216c0.467,-0.858 0.816,-1.779 1.036,-2.73c0.27,-1.169 0.345,-2.381 0.223,-3.574c-0.114,-1.118 -0.401,-2.217 -0.852,-3.246c-0.509,-1.164 -1.225,-2.235 -2.101,-3.154c-0.937,-0.982 -2.054,-1.788 -3.284,-2.362c-0.974,-0.454 -2.014,-0.763 -3.078,-0.912c-0.459,-0.064 -0.92,-0.096 -1.383,-0.105c-0.141,-0.001 -0.141,-0.001 -0.282,0l0,0Zm-3.986,2.998c0.055,0.008 0.069,0.007 0.122,0.024c0.102,0.031 0.184,0.089 0.26,0.162c0.069,0.082 0.133,0.168 0.2,0.251c0.816,0.961 1.803,1.764 2.858,2.448c0.514,0.333 1.052,0.632 1.602,0.901c1.419,0.692 2.936,1.174 4.488,1.46c0.983,0.181 1.976,0.28 2.974,0.32l0.061,0.006c0.054,0.011 0.068,0.012 0.12,0.031c0.096,0.036 0.183,0.097 0.248,0.176c0.04,0.048 0.072,0.101 0.094,0.159c0.102,0.255 0.008,0.555 -0.221,0.708c-0.088,0.059 -0.184,0.085 -0.289,0.097c-0.13,0.001 -0.129,-0.002 -0.268,-0.007c-1.404,-0.07 -2.799,-0.256 -4.163,-0.598c-2.236,-0.562 -4.378,-1.532 -6.226,-2.916c-0.406,-0.305 -0.795,-0.631 -1.17,-0.974l-0.118,-0.111l-0.018,-0.016c-0.018,0.08 -0.038,0.16 -0.061,0.24c-0.056,0.186 -0.121,0.368 -0.201,0.546c-0.298,0.66 -0.755,1.239 -1.271,1.744c-0.451,0.441 -0.952,0.83 -1.477,1.178c-0.468,0.311 -0.956,0.59 -1.462,0.833l-0.06,0.028c-0.098,0.039 -0.194,0.061 -0.3,0.052c-0.297,-0.027 -0.532,-0.28 -0.537,-0.578c-0.001,-0.062 0.008,-0.124 0.026,-0.183c0.031,-0.098 0.087,-0.188 0.163,-0.258c0.04,-0.037 0.053,-0.043 0.099,-0.074c0.117,-0.062 0.239,-0.117 0.359,-0.178c0.295,-0.155 0.585,-0.319 0.867,-0.499c0.238,-0.151 0.472,-0.311 0.697,-0.48c0.174,-0.132 0.344,-0.269 0.508,-0.412c0.134,-0.118 0.263,-0.239 0.387,-0.366c0.623,-0.633 1.171,-1.447 1.169,-2.368c0,-0.21 -0.032,-0.415 -0.081,-0.618l-0.012,-0.061c-0.005,-0.063 -0.007,-0.122 0.004,-0.185c0.034,-0.185 0.158,-0.346 0.327,-0.427c0.058,-0.027 0.116,-0.041 0.178,-0.052c0.063,-0.005 0.062,-0.005 0.124,-0.003l0,0Z" style="fill:#f59b24;"/><path id="ic-household1" d="M531.972,162.857l0,-2.076c-0.414,-0.028 -0.787,-0.166 -1.099,-0.437c-0.565,-0.483 -0.724,-1.248 -0.834,-1.758c-0.103,-0.483 -0.229,-1.082 -0.172,-1.697c0.006,-0.137 0.034,-0.282 0.069,-0.426c0.062,-0.269 0.008,-0.552 -0.152,-0.765c-0.109,-0.151 -0.206,-0.317 -0.282,-0.49c-0.502,-1.144 -0.358,-2.632 0.367,-3.701c0.157,-0.227 0.213,-0.503 0.144,-0.731c-0.125,-0.414 -0.144,-0.849 -0.069,-1.263c0.145,-0.752 0.621,-1.42 1.254,-1.758l0.367,-0.31c0.11,-0.119 0.256,-0.216 0.407,-0.298l0,-2.219l-1.655,1.241c-0.125,0.091 -0.269,0.138 -0.414,0.138c-0.207,0 -0.414,-0.097 -0.552,-0.276c-0.228,-0.304 -0.166,-0.737 0.138,-0.965l2.746,-2.056l14.618,-11.115c1.768,-1.345 4.325,-1.345 6.091,0l14.627,11.115l2.745,2.056c0.305,0.228 0.367,0.661 0.138,0.965c-0.138,0.179 -0.344,0.276 -0.551,0.276c-0.145,0 -0.289,-0.047 -0.414,-0.138l-1.655,-1.241l0,21.9c0,1.082 -0.884,1.965 -1.966,1.965l-35.868,0l-0.746,-4.909c-0.041,-0.256 0.035,-0.517 0.207,-0.718c0.173,-0.193 0.42,-0.309 0.684,-0.309l1.827,0Zm2.166,4.557l0.483,-3.178l-3.918,0l0.482,3.178l2.953,0Zm31.73,0c0.323,0 0.586,-0.261 0.586,-0.584l0,-19.916l-15.297,-11.618c-0.737,-0.565 -1.78,-0.565 -2.517,0l-15.248,11.61c0.035,0.006 0.076,0.006 0.11,0.013c0.959,0.138 1.765,0.681 2.173,1.461c0.254,0.489 0.33,1.09 0.213,1.649c-0.047,0.2 0.006,0.441 0.138,0.592c0.226,0.282 0.386,0.614 0.455,0.972c0.021,0.097 0.028,0.194 0.034,0.297c0.041,0.53 -0.054,1.11 -0.317,1.772c-0.178,0.448 -0.385,0.835 -0.621,1.159c-0.04,0.056 -0.075,0.125 -0.097,0.2c-0.062,0.207 -0.04,0.477 0.069,0.724c0.292,0.67 0.339,1.491 0.126,2.194c-0.311,1.021 -1.097,1.903 -2.207,2.476c-0.041,0.022 -0.076,0.034 -0.117,0.056l0,2.386l1.826,0c0.263,0 0.504,0.109 0.676,0.309c0.173,0.201 0.248,0.464 0.207,0.718l-0.53,3.53l7.798,0c-0.013,-3.918 -0.008,-7.836 0.017,-11.753c0.004,-0.223 0.017,-0.445 0.042,-0.667c0.059,-0.512 0.178,-1.017 0.356,-1.501c0.327,-0.892 0.85,-1.709 1.522,-2.381c0.71,-0.71 1.582,-1.253 2.533,-1.575c0.463,-0.157 0.945,-0.262 1.432,-0.311c0.194,-0.02 0.389,-0.03 0.584,-0.033c0.085,-0.001 0.085,-0.001 0.169,0c0.196,0.003 0.39,0.013 0.585,0.033c0.487,0.049 0.968,0.154 1.432,0.311c1.176,0.398 2.227,1.135 3.005,2.101c0.448,0.556 0.804,1.185 1.05,1.855c0.177,0.484 0.297,0.989 0.356,1.501c0.025,0.222 0.038,0.444 0.042,0.667c0.025,3.917 0.03,7.835 0.016,11.753l9.399,0Zm-10.778,0c0.014,-3.912 0.008,-7.824 -0.017,-11.735c-0.003,-0.177 -0.013,-0.353 -0.033,-0.528c-0.046,-0.404 -0.14,-0.802 -0.28,-1.183c-0.194,-0.529 -0.475,-1.026 -0.829,-1.464c-0.615,-0.764 -1.444,-1.347 -2.373,-1.661c-0.366,-0.124 -0.745,-0.206 -1.13,-0.245c-0.153,-0.016 -0.308,-0.024 -0.462,-0.027c-0.067,0 -0.067,0 -0.134,0c-0.155,0.003 -0.309,0.011 -0.463,0.027c-0.384,0.039 -0.763,0.121 -1.129,0.245c-0.751,0.254 -1.439,0.684 -2,1.244c-0.53,0.531 -0.944,1.176 -1.202,1.881c-0.14,0.381 -0.234,0.779 -0.28,1.183c-0.02,0.175 -0.03,0.351 -0.034,0.528c-0.025,3.911 -0.03,7.823 -0.016,11.735l10.382,0Zm-23.691,-9.102c-0.091,-0.436 -0.186,-0.884 -0.145,-1.289c0.007,-0.075 0.022,-0.151 0.035,-0.22c0.166,-0.661 0.022,-1.379 -0.38,-1.917c-0.047,-0.069 -0.097,-0.145 -0.131,-0.22c-0.317,-0.718 -0.213,-1.696 0.241,-2.379c0.393,-0.58 0.511,-1.269 0.324,-1.897c-0.063,-0.2 -0.076,-0.42 -0.035,-0.62c0.069,-0.358 0.289,-0.677 0.58,-0.806l0.627,-0.511c0.09,-0.096 0.214,-0.138 0.332,-0.165c0.062,-0.014 0.125,-0.022 0.185,-0.022l0.028,0c0.082,0 0.16,0.006 0.242,0.013c0.517,0.075 0.937,0.344 1.138,0.73c0.103,0.207 0.138,0.483 0.09,0.724c-0.028,0.117 -0.028,0.229 -0.034,0.345c-0.022,0.51 0.131,1.021 0.454,1.414c0.082,0.103 0.145,0.234 0.173,0.366c0.047,0.228 0.028,0.504 -0.056,0.815c-0.041,0.15 -0.091,0.31 -0.151,0.482c-0.131,0.338 -0.282,0.621 -0.449,0.856c-0.447,0.621 -0.516,1.495 -0.178,2.288c0.166,0.373 0.185,0.856 0.069,1.248c-0.269,0.896 -1.069,1.42 -1.518,1.655c-0.131,0.069 -0.262,0.116 -0.385,0.159l-0.022,0.007c-0.125,0.034 -0.235,0.056 -0.338,0.056c-0.173,0 -0.254,-0.056 -0.304,-0.097c-0.22,-0.201 -0.323,-0.69 -0.392,-1.015l0,0Zm35.053,-13.131l0,-1.287l-5.241,-3.931c-0.06,-0.047 -0.11,-0.11 -0.151,-0.173l-8.944,-6.798c-1.282,-0.972 -3.138,-0.972 -4.42,0l-11.786,8.958c-0.028,0.026 -0.042,0.06 -0.076,0.082l-2.483,1.862l0,1.288l14.464,-10.983c1.226,-0.938 2.95,-0.938 4.185,0l14.452,10.982l0,0.001l0.002,0l-0.002,-0.001l0,0Z" style="fill:#f59b24;"/><path d="M355.245,138.855c0.263,-0.394 1.62,-2.625 -0.186,-4.425c-0.069,-0.082 -0.458,-0.564 -0.393,-1.151c0.027,-0.236 0.138,-0.577 0.526,-0.869c0.061,-0.042 0.316,-0.203 0.7,-0.203c0.35,0 0.883,0.138 1.413,0.802c0.011,0.01 2.35,2.678 0.928,5.844l9.984,0c1.265,0 2.293,1.024 2.293,2.286c0,1.261 -1.028,2.287 -2.293,2.287l-7.685,0c-0.024,2.11 -0.368,3.854 -0.904,5.302l0.578,0c0.114,-0.013 3.925,-0.32 6.842,2.125c1.826,1.53 2.877,3.782 3.123,6.699l0.003,3.251c0,0.28 -0.228,0.508 -0.509,0.508c-0.281,0 -0.51,-0.228 -0.51,-0.508l0,-3.209c-0.222,-2.588 -1.147,-4.607 -2.755,-5.958c-2.585,-2.175 -6.114,-1.897 -6.149,-1.894l-1.05,0.002c-0.035,0.077 -0.071,0.148 -0.109,0.223l0.65,0c0.021,0 0.042,0 0.061,0.003c0.069,0.007 6.961,0.933 6.961,10.253l0,6.389c0,0.281 -0.228,0.508 -0.509,0.508c-0.281,0 -0.509,-0.227 -0.509,-0.508l0,-6.389c0,-8.187 -5.54,-9.171 -6.039,-9.242l-1.193,0c-1.973,3.064 -4.834,4.131 -5.963,4.443l0,6.726c0,1.259 -1.03,2.287 -2.294,2.287c-1.262,0 -2.291,-1.025 -2.291,-2.287l0,-6.601l-1.851,0l0,9.142c0,1.259 -1.029,2.286 -2.294,2.286c-1.262,0 -2.291,-1.024 -2.291,-2.286l0,-9.142l-5.027,0l0,9.142c0,1.259 -1.026,2.286 -2.292,2.286c-1.264,0 -2.293,-1.024 -2.293,-2.286l0,-14.915c-0.008,-0.008 -0.016,-0.016 -0.024,-0.024c-0.758,-0.871 -1.31,-1.869 -1.713,-2.895l0,1.146c0,1.284 -1.047,2.329 -2.333,2.329c-1.286,0 -2.334,-1.045 -2.334,-2.329l0,-6.794c0,-1.287 1.048,-2.333 2.334,-2.33c0.511,0 0.981,0.172 1.368,0.453c0,-0.008 0.002,-0.019 0.002,-0.024c0.03,-0.257 0.247,-0.453 0.507,-0.453l17.615,0c0.053,0 0.104,0.014 0.154,0.03c0.05,-0.019 0.103,-0.03 0.159,-0.03l7.592,0Zm7.289,28.131c-0.684,0 -1.198,-0.199 -1.527,-0.588c-0.398,-0.474 -0.477,-1.125 -0.209,-1.702c0.349,-0.747 1.177,-1.098 1.93,-0.789c0.45,0.185 0.851,0.585 1.079,0.895l1.077,1.331c0.101,0.125 0.124,0.294 0.061,0.442c-0.064,0.146 -0.205,0.247 -0.364,0.259c0,0 -1.614,0.125 -1.707,0.133l-0.009,0c-0.106,0.013 -0.217,0.019 -0.331,0.019l0,0Zm7.42,0c-0.114,0 -0.226,-0.006 -0.332,-0.014l-0.008,0c-0.095,-0.007 -1.705,-0.132 -1.705,-0.132c-0.159,-0.014 -0.299,-0.114 -0.363,-0.26c-0.064,-0.145 -0.04,-0.317 0.061,-0.441l1.09,-1.35c0.215,-0.294 0.617,-0.694 1.066,-0.879c0.75,-0.31 1.58,0.039 1.93,0.789c0.268,0.576 0.189,1.228 -0.209,1.702c-0.332,0.386 -0.846,0.585 -1.53,0.585Zm-0.268,-0.874c0.084,0.008 0.175,0.01 0.265,0.01c0.416,0 0.708,-0.095 0.864,-0.28c0.268,-0.32 0.136,-0.678 0.088,-0.781c-0.119,-0.254 -0.435,-0.511 -0.817,-0.354c-0.225,0.092 -0.517,0.341 -0.708,0.606l-0.588,0.727c0.556,0.046 0.79,0.064 0.896,0.075l0,-0.003l0,0Zm-7.533,-1.459c-0.279,0 -0.478,0.21 -0.568,0.408c-0.048,0.103 -0.183,0.461 0.088,0.781c0.156,0.185 0.448,0.28 0.864,0.28c0.09,0 0.18,-0.004 0.265,-0.01l0,0.003c0.106,-0.011 0.34,-0.032 0.896,-0.075l-0.575,-0.712c-0.204,-0.28 -0.496,-0.529 -0.721,-0.621c-0.088,-0.035 -0.17,-0.054 -0.249,-0.054Zm6.058,-22.243c0.703,0 1.276,-0.569 1.276,-1.271c0,-0.698 -0.573,-1.27 -1.276,-1.27l-17.082,0c0.268,0.379 0.43,0.84 0.43,1.34l0,6.794c0,1.284 -1.048,2.329 -2.333,2.329c-1.287,0 -2.334,-1.045 -2.334,-2.329l0,-1.196c-0.405,1.043 -0.957,2.061 -1.729,2.945c-1.535,1.766 -3.662,2.716 -6.319,2.822c-0.042,0.013 -0.085,0.019 -0.13,0.019c-0.042,0 -0.082,-0.003 -0.124,-0.006l-0.061,-0.003l-0.061,0.003c-0.085,0.003 -0.181,0.008 -0.263,-0.016c-2.1,-0.085 -3.861,-0.707 -5.269,-1.832l0,13.952c0,0.701 0.573,1.27 1.275,1.27c0.704,0 1.274,-0.569 1.274,-1.27l0,-9.65c0,-0.281 0.227,-0.509 0.509,-0.509l6.048,0c0.281,0 0.509,0.228 0.509,0.509l0,9.65c0,0.701 0.571,1.27 1.273,1.27c0.703,0 1.276,-0.569 1.276,-1.27l0,-9.65c0,-0.281 0.228,-0.509 0.509,-0.509l6.321,0c0.003,0 0.006,-0.002 0.008,-0.002c0.774,-0.159 7.579,-1.834 7.579,-11.352l0,-0.26c0,-0.28 0.228,-0.508 0.509,-0.508l8.185,0Zm-16.679,19.74c0,0.701 -0.573,1.27 -1.275,1.27c-0.703,0 -1.273,-0.569 -1.273,-1.27l0,-6.601l2.548,0l0,6.601Zm21.23,0.516c-0.114,0 -0.225,-0.005 -0.332,-0.014l-0.007,0c-0.091,-0.007 -1.708,-0.132 -1.708,-0.132c-0.159,-0.013 -0.3,-0.113 -0.363,-0.259c-0.064,-0.149 -0.041,-0.318 0.061,-0.442l1.089,-1.35c0.215,-0.294 0.615,-0.693 1.066,-0.878c0.753,-0.31 1.581,0.039 1.931,0.788c0.268,0.577 0.188,1.228 -0.208,1.702c-0.331,0.387 -0.845,0.585 -1.529,0.585l0,0Zm-0.265,-0.873c0.084,0.007 0.175,0.01 0.265,0.01c0.416,0 0.708,-0.095 0.864,-0.281c0.268,-0.32 0.133,-0.677 0.085,-0.78c-0.119,-0.254 -0.432,-0.511 -0.817,-0.355c-0.225,0.093 -0.517,0.341 -0.708,0.603l-0.588,0.731c0.557,0.045 0.79,0.064 0.896,0.074l0,-0.002l0.003,0Zm-40.385,-13.435c-2.008,-2.957 -1.984,-7.12 -1.913,-8.489l16.666,0c0.009,0.154 0.017,0.347 0.019,0.564c0.037,1.89 -0.172,6 -2.485,8.652c-1.363,1.567 -3.277,2.398 -5.688,2.475c-0.029,0 -0.058,0.005 -0.085,0.011c-0.031,-0.003 -0.06,-0.003 -0.095,-0.003c-0.032,0 -0.063,0 -0.093,0.003c-0.029,-0.006 -0.058,-0.011 -0.084,-0.011c-2.26,-0.071 -4.073,-0.815 -5.415,-2.194c-0.09,-0.093 -0.186,-0.18 -0.271,-0.278c-0.204,-0.233 -0.384,-0.479 -0.556,-0.73Zm8.18,-0.432c0.095,0 0.186,0.056 0.228,0.143c0.042,0.087 0.032,0.193 -0.03,0.267l-1.9,2.417c-0.05,0.064 -0.125,0.097 -0.202,0.097l-0.005,0c-0.08,-0.002 -0.154,-0.039 -0.202,-0.105l-1.729,-2.416c-0.056,-0.08 -0.063,-0.181 -0.018,-0.265c0.042,-0.085 0.129,-0.138 0.225,-0.138l3.633,0Zm7.624,-6.717c0,-0.725 0.591,-1.314 1.315,-1.314c0.726,0 1.315,0.591 1.315,1.314l0,6.794c0,0.725 -0.591,1.313 -1.315,1.313c-0.727,0 -1.315,-0.59 -1.315,-1.316l0,-6.791Zm-18.753,6.791c0,0.726 -0.591,1.313 -1.315,1.313c-0.727,0 -1.316,-0.587 -1.316,-1.313l0,-6.791c0,-0.725 0.592,-1.314 1.316,-1.314c0.689,0 1.248,0.532 1.304,1.208c0.003,0.14 0.005,0.285 0.011,0.439l0,6.458Zm5.852,-4.01c0,1.133 -1.705,1.133 -1.705,0c0,-1.135 1.705,-1.135 1.705,0Zm8.392,0c0,1.133 -1.704,1.133 -1.704,0c0,-1.135 1.704,-1.135 1.704,0Zm13.861,-5.137c1.543,-2.816 -0.599,-5.259 -0.623,-5.286c-0.265,-0.333 -0.52,-0.497 -0.753,-0.497c-0.122,0 -0.202,0.044 -0.205,0.047c-0.127,0.098 -0.153,0.194 -0.161,0.257c-0.021,0.193 0.13,0.421 0.17,0.469c1.662,1.656 1.211,3.753 0.554,5.01l1.018,0Z" style="fill:#f59b24;"/><path id="ic-general1" d="M668.423,136.545l-1.926,1.935l-5.354,-5.417l1.926,-1.934c0.751,-0.726 1.691,-1.113 2.677,-1.113c0.986,0 1.926,0.387 2.677,1.113c0.752,0.725 1.128,1.741 1.128,2.708c0,0.967 -0.376,1.935 -1.128,2.708Zm-0.798,-4.594c-0.517,-0.532 -1.175,-0.774 -1.832,-0.774c-0.658,0 -1.315,0.242 -1.832,0.774l-1.08,1.112l3.71,3.773l1.081,-1.113c0.516,-0.532 0.751,-1.209 0.751,-1.886c-0.047,-0.725 -0.282,-1.403 -0.798,-1.886Zm-6.2,11.704l-14.185,14.364l-6.2,1.547l-0.94,0.242l1.785,-7.254l14.044,-14.219l3.805,-3.869l5.354,5.416c0,0.049 -3.663,3.773 -3.663,3.773l0,0Zm-4.463,-4.643l-14.044,14.219l-1.221,4.981l4.932,-1.257l14.138,-14.316l2.677,-2.708l-3.71,-3.773l-2.772,2.854Zm-8.642,-2.66c-8.549,0 -15.5,7.061 -15.5,15.718c0,8.705 6.951,15.718 15.5,15.718c8.549,0 15.5,-7.061 15.5,-15.718c0,-1.789 -0.282,-3.531 -0.845,-5.127l1.033,-1.112c2.302,5.949 1.174,12.961 -3.382,17.895c-6.341,6.867 -17.05,7.206 -23.814,0.725c-6.764,-6.432 -7.092,-17.266 -0.751,-24.133c4.603,-4.933 11.413,-6.481 17.426,-4.546l-0.987,1.064c-1.315,-0.291 -2.724,-0.484 -4.18,-0.484l0,0Z" style="fill:#f59b24;"/></g></svg>