<?xml version="1.0" encoding="utf-8"?>
<!-- Generator: Adobe Illustrator 22.0.1, SVG Export Plug-In . SVG Version: 6.00 Build 0)  -->
<svg version="1.1" id="Layer_1" xmlns="http://www.w3.org/2000/svg" xmlns:xlink="http://www.w3.org/1999/xlink" x="0px" y="0px"
	 viewBox="0 0 800 200" style="enable-background:new 0 0 800 200;" xml:space="preserve">
<style type="text/css">
	.st0{fill:#2B2C3D;}
	.st1{fill:#F59B24;}
</style>
<path class="st0" d="M768.4,47.9h-11.5v-6.8c0-1.1-0.7-2.1-1.8-2.5v-2.7c0-0.8-0.7-1.6-1.6-1.6h-1.4v-1.5c0-0.8-0.7-1.6-1.6-1.6
	h-0.8v-0.7c0-0.3-0.2-0.5-0.5-0.5c-0.3,0-0.5,0.2-0.5,0.5v0.7h-0.8c-0.8,0-1.6,0.7-1.6,1.6v1.5H745c-0.8,0-1.6,0.7-1.6,1.6v2.7
	c-1,0.3-1.8,1.4-1.8,2.5v6.8h-2.1v-0.7c0-0.8-0.7-1.6-1.6-1.6h-5.3c-0.8,0-1.6,0.7-1.6,1.6v0.7h-0.7c-1.5,0-2.6,1.1-2.6,2.6V70h7.5
	l0,0l0,0h28.1l0,0l0,0h7.5V50.5C771,49,769.8,47.9,768.4,47.9z M732.2,47.1c0-0.3,0.2-0.5,0.5-0.5h5.3c0.3,0,0.5,0.2,0.5,0.5v0.7
	h-6.4V47.1z M734.8,69h-2.7v-9.5h2.7V69z M738.5,69h-2.7v-9.5h2.7V69z M741.9,69h-2.3V58.4h-8.5V69h-2.3V50.4c0-0.8,0.7-1.6,1.6-1.6
	h11.5V69z M747.5,32.7c0-0.3,0.2-0.5,0.5-0.5h1.4l0,0l0,0h1.4c0.3,0,0.5,0.2,0.5,0.5v1.5h-3.7L747.5,32.7z M744.7,35.8
	c0-0.3,0.2-0.5,0.5-0.5h8.4c0.3,0,0.5,0.2,0.5,0.5v2.6h-9.4V35.8z M755.9,69h-13V41.1c0-0.8,0.7-1.6,1.6-1.6h9.8
	c0.8,0,1.6,0.7,1.6,1.6V69z M762.9,69h-2.7V54.1h2.7V69z M766.6,69h-2.7V54.1h2.7V69z M770,69h-2.3V53.1h-8.5V69h-2.3V48.8h11.5
	c0.8,0,1.6,0.7,1.6,1.6V69z M744.7,46.8h9.4v-3.7h-9.4V46.8z M745.7,44.2h7.3v1.6h-7.3V44.2z M744.7,56.2h9.4v-3.7h-9.4V56.2z
	 M745.7,53.6h7.3v1.6h-7.3V53.6z M744.7,60.9h9.4v-3.7h-9.4V60.9z M745.7,58.3h7.3v1.6h-7.3V58.3z M744.7,51.5h9.4v-3.7h-9.4V51.5z
	 M745.7,48.9h7.3v1.6h-7.3V48.9z M735.3,56.7L735.3,56.7h4.3v-3.7h-8.5v3.7H735.3L735.3,56.7z M735.8,54.1h2.7v1.6h-2.7V54.1z
	 M734.8,55.7h-2.7v-1.6h2.7V55.7z M744.7,65.6h9.4V62h-9.4V65.6z M745.7,63h7.3v1.6h-7.3V63z"/>
<path class="st1" d="M768.4,147.9h-11.5v-6.8c0-1.1-0.7-2.1-1.8-2.5v-2.7c0-0.8-0.7-1.6-1.6-1.6h-1.4v-1.5c0-0.8-0.7-1.6-1.6-1.6
	h-0.8v-0.7c0-0.3-0.2-0.5-0.5-0.5c-0.3,0-0.5,0.2-0.5,0.5v0.7h-0.8c-0.8,0-1.6,0.7-1.6,1.6v1.5H745c-0.8,0-1.6,0.7-1.6,1.6v2.7
	c-1,0.3-1.8,1.4-1.8,2.5v6.8h-2.1v-0.7c0-0.8-0.7-1.6-1.6-1.6h-5.3c-0.8,0-1.6,0.7-1.6,1.6v0.7h-0.7c-1.5,0-2.6,1.1-2.6,2.6V170h7.5
	l0,0l0,0h28.1l0,0l0,0h7.5v-19.5C771,149,769.8,147.9,768.4,147.9z M732.2,147.1c0-0.3,0.2-0.5,0.5-0.5h5.3c0.3,0,0.5,0.2,0.5,0.5
	v0.7h-6.4V147.1z M734.8,169h-2.7v-9.5h2.7V169z M738.5,169h-2.7v-9.5h2.7V169z M741.9,169h-2.3v-10.5h-8.5V169h-2.3v-18.6
	c0-0.8,0.7-1.6,1.6-1.6h11.5V169z M747.5,132.8c0-0.3,0.2-0.5,0.5-0.5h1.4l0,0l0,0h1.4c0.3,0,0.5,0.2,0.5,0.5v1.5h-3.7L747.5,132.8z
	 M744.7,135.8c0-0.3,0.2-0.5,0.5-0.5h8.4c0.3,0,0.5,0.2,0.5,0.5v2.6h-9.4V135.8z M755.9,169h-13v-27.9c0-0.8,0.7-1.6,1.6-1.6h9.8
	c0.8,0,1.6,0.7,1.6,1.6V169z M762.9,169h-2.7v-14.8h2.7V169z M766.6,169h-2.7v-14.8h2.7V169z M770,169h-2.3v-15.9h-8.5V169h-2.3
	v-20.1h11.5c0.8,0,1.6,0.7,1.6,1.6V169z M744.7,146.8h9.4v-3.7h-9.4V146.8z M745.7,144.2h7.3v1.6h-7.3V144.2z M744.7,156.2h9.4v-3.7
	h-9.4V156.2z M745.7,153.6h7.3v1.6h-7.3V153.6z M744.7,160.9h9.4v-3.7h-9.4V160.9z M745.7,158.3h7.3v1.6h-7.3V158.3z M744.7,151.5
	h9.4v-3.7h-9.4V151.5z M745.7,148.9h7.3v1.6h-7.3V148.9z M735.3,156.7L735.3,156.7h4.3v-3.7h-8.5v3.7H735.3L735.3,156.7z
	 M735.8,154.1h2.7v1.6h-2.7V154.1z M734.8,155.7h-2.7v-1.6h2.7V155.7z M744.7,165.6h9.4V162h-9.4V165.6z M745.7,163h7.3v1.6h-7.3
	V163z"/>
<g>
	<path class="st0" d="M679.5,57.9h-9.8l-0.1,0.1c-1.3,1.3-3.3,2-4.8,2.2l-0.3,0v1.1l0.2,0.1c1.5,0.7,2.4,1.5,3,2.5
		c0.6,1,0.8,2.1,0.8,3.3c0,0.4,0,0.7,0,1.1l0,0.3h7.5c0.3,0,0.5,0.2,0.5,0.5s-0.2,0.5-0.5,0.5h-7.6l0,0.3c0,0.4-0.1,0.9-0.2,1.3
		c-0.2,1.3-0.5,2.6-0.5,3.8c0,0.8,0.1,1.6,0.4,2.4c0.3,0.7,0.8,1.3,1.6,1.9c0.1,0.1,0.2,0.2,0.2,0.4c0,0.1,0,0.2-0.1,0.3
		c-0.1,0.1-0.2,0.2-0.4,0.2c-0.1,0-0.2,0-0.3-0.1c-1-0.6-1.6-1.4-2-2.3c-0.4-0.9-0.5-1.8-0.5-2.8c0-1.3,0.2-2.6,0.5-4
		c0-0.4,0.1-0.7,0.2-1.1l0-0.4H625c-0.3,0-0.5-0.2-0.5-0.5s0.2-0.5,0.5-0.5h42.5l0-0.3c0-0.4,0-0.8,0-1.2c0-0.9-0.1-1.8-0.5-2.6
		c-0.4-0.8-1.1-1.5-2-2.1l-0.4-0.2l0,0.5c0,0.2-0.2,0.4-0.5,0.4h-26.3c-0.3,0-0.5-0.2-0.5-0.5v-4.8h-3.1l0,0.4c0,0.1,0,0.3,0,0.5
		c0,0.3,0,0.7-0.1,1.1c0,0,0,0.1-0.1,0.2l-0.1,0.1l0.1,0.2c0.2,0.3,0.3,0.7,0.3,1.1c0,0.2,0,0.5-0.1,0.8c0,0.2-0.2,0.3-0.4,0.3h-7.4
		c-0.2,0-0.4-0.1-0.4-0.3c-0.1-0.2-0.2-0.5-0.2-0.7c0-0.4,0.1-0.8,0.3-1.1l0.1-0.2L626,60l-0.1-0.2c-0.1-0.4-0.1-0.8-0.1-1.1
		c0-0.1,0-0.3,0-0.5l0-0.4h-5.4c-0.3,0-0.5-0.2-0.5-0.5s0.2-0.5,0.5-0.5h5.7l0.1-0.2c0.5-1,1.5-1.8,2.6-2.1l0.1,0l0-0.1
		c0.6-1.1,3-4.8,7.8-7.1l0.1,0l0.3,0v-4.8c0-0.1,0-0.1,0-0.2c0-0.1,0.1-0.2,0.2-0.2l0.1,0h5.7l-0.2-0.5c-0.4-0.9-0.7-1.9-0.7-3
		c0-0.1,0-0.3,0-0.4V38v-0.3c0-1,0.2-1.9,0.6-2.7v0c0-0.1,0.1-0.2,0.1-0.3c0-0.1,0.1-0.2,0.2-0.4c0.2-0.3,0.4-0.6,0.6-1l0.2-0.2
		l0.2-0.2c0.1-0.2,0.3-0.4,0.5-0.6c1.5-1.4,3.6-2.4,5.9-2.4s4.4,1,5.9,2.4c1.5,1.5,2.4,3.6,2.4,5.9c0,0.2,0,0.5,0,0.7v0.3l0,0l0,0v0
		c-0.1,0.8-0.3,1.5-0.7,2.3l-0.2,0.5h5.7c0.3,0,0.5,0.2,0.5,0.5v4.8h0.3l0.1,0c1.6,0.7,3.2,1.9,4.3,3.2s1.8,2.6,1.8,3.6
		c0,0.8-0.1,1.5-0.4,2.2l-0.2,0.4h9.1c0.3,0,0.5,0.2,0.5,0.5C680,57.7,679.8,57.9,679.5,57.9z M627.1,61.6h6.3l0-0.4
		c-0.1-0.4-0.4-0.8-0.6-1l-0.1-0.1h-5.2l-0.1,0.1c-0.2,0.2-0.5,0.5-0.6,1l0,0.4H627.1z M626.8,58.7v0.4h6.6v-0.3v-0.1
		c0-1.8-1.5-3.3-3.3-3.3S626.8,56.9,626.8,58.7z M637.3,48.3l-0.5,0.2c-3.3,1.6-5.3,4-6.3,5.5l-0.3,0.4l0.5,0.1
		c1.3,0.2,2.5,1.1,3.1,2.2L634,57h3.4L637.3,48.3L637.3,48.3z M656.8,33.7c-1.3-1.7-3.5-2.9-5.9-2.9c-2.4,0-4.5,1.2-5.9,2.9
		c0,0.1-0.1,0.2-0.2,0.3c-0.1,0.1-0.1,0.2-0.2,0.3c-0.2,0.3-0.4,0.7-0.6,1.1c0,0.1-0.1,0.3-0.2,0.5c0,0.2-0.1,0.4-0.1,0.6
		c0,0.1-0.1,0.3-0.1,0.5c0,0.1,0,0.3-0.1,0.5c0,0.1,0,0.3,0,0.4v0.3c0,0.4,0,0.9,0.1,1.3l0,0.4l0.3-0.1c7.3-2.4,11.2-4.8,12.7-5.7
		l0.3-0.2L656.8,33.7z M644,40.8l0.1,0.3c0.1,0.3,0.2,0.6,0.4,0.9l0.1,0.1h12.6l0.1-0.1c0.4-0.7,0.7-1.5,0.9-2.3l0-0.3l-0.2-0.1
		c-2.1-0.8-3.6-1.7-4.2-2.2l-0.2-0.1l-0.2,0.1c-2.1,1.1-5.1,2.3-9.1,3.6L644,40.8z M658.4,38.4v-0.5c0-1-0.3-1.9-0.7-2.8l-0.1-0.3
		l-0.3,0.2c-0.5,0.3-1.2,0.8-2.1,1.3l-0.5,0.2l0.5,0.3c0.7,0.4,1.6,0.9,2.8,1.4L658.4,38.4z M663.6,43.1h-25.3v19.2h25V62h0.3V43.1z
		 M670.1,54.3c0-0.4-0.1-0.9-0.4-1.3c-0.8-1.4-2.5-3.3-4.7-4.5l-0.5-0.2v4.6l0.8-0.2h0.1c0.2,0,0.4,0.1,0.5,0.4v0.1
		c0,0.2-0.1,0.4-0.4,0.5l-1,0.2v5.4l0.4,0c0.8-0.1,2.1-0.4,3.2-1.2c0.5-0.4,1.1-0.9,1.4-1.4C669.9,56,670.1,55.2,670.1,54.3z
		 M650.9,55.4c-0.7,0-1.4-0.3-1.9-0.8c-0.5-0.5-0.8-1.2-0.8-1.9c0-0.8,0.3-1.4,0.8-1.9c0.5-0.5,1.2-0.8,1.9-0.8s1.4,0.3,1.9,0.8
		c0.5,0.5,0.8,1.2,0.8,1.9c0,0.8-0.3,1.4-0.8,1.9C652.4,55.1,651.7,55.4,650.9,55.4z M650.9,51c-1,0-1.7,0.8-1.7,1.7
		s0.8,1.7,1.7,1.7s1.7-0.8,1.7-1.7S651.9,51,650.9,51z M644.4,36.4c0.1-0.5,0.3-1,0.6-1.4c0.1,0.2,0.2,0.5,0.3,0.8l0,0.1l-0.9,0.7
		L644.4,36.4z M638.7,35.5h-0.2l-0.1,0.2c-0.9,2.2-2.4,5.1-4.5,8.7l-0.1,0.3l0.3,0.1c0.2,0.1,0.5,0.2,0.7,0.3l-1.1,1l0.1-0.3
		c-1.1-0.5-2.1-1.2-2.8-2.1c-1.4-1.6-2.1-3.6-2.1-5.5c0-2.4,1-4.7,2.9-6.3c1.5-1.4,3.5-2.1,5.4-2.1c2.4,0,4.7,1,6.3,2.9l0.1,0.2
		c-0.4,0.5-0.7,1.1-1,1.7C640.8,35.2,639.4,35.4,638.7,35.5z M638.7,30.9c-0.5-0.1-1-0.1-1.4-0.1c-1.7,0-3.5,0.6-4.8,1.8
		c-1.7,1.4-2.5,3.5-2.5,5.6c0,1.7,0.6,3.5,1.8,4.8c0.3,0.3,0.6,0.6,1,0.9l0.3,0.2l0.2-0.3c4-6.6,5.4-10.8,5.8-12.5L639,31
		L638.7,30.9z M642.6,33.1c-0.7-0.7-1.5-1.3-2.4-1.7l-0.3-0.1l-0.1,0.4c-0.1,0.5-0.4,1.3-0.8,2.3l-0.2,0.5l0.6-0.1
		c0.8-0.1,1.8-0.4,3.1-0.8l0.5-0.1L642.6,33.1z"/>
</g>
<g>
	<path class="st1" d="M679.5,157.9h-9.8l-0.1,0.1c-1.3,1.3-3.3,2-4.8,2.2l-0.3,0v1.1l0.2,0.1c1.5,0.7,2.4,1.5,3,2.5
		c0.6,1,0.8,2.1,0.8,3.3c0,0.4,0,0.7,0,1.1l0,0.3h7.5c0.3,0,0.5,0.2,0.5,0.5s-0.2,0.5-0.5,0.5h-7.6l0,0.3c0,0.4-0.1,0.9-0.2,1.3
		c-0.2,1.3-0.5,2.6-0.5,3.8c0,0.8,0.1,1.6,0.4,2.4c0.3,0.7,0.8,1.3,1.6,1.9c0.1,0.1,0.2,0.2,0.2,0.4c0,0.1,0,0.2-0.1,0.3
		c-0.1,0.1-0.2,0.2-0.4,0.2c-0.1,0-0.2,0-0.3-0.1c-1-0.6-1.6-1.4-2-2.3c-0.4-0.9-0.5-1.8-0.5-2.8c0-1.3,0.2-2.6,0.5-4
		c0-0.4,0.1-0.7,0.2-1.1l0-0.4H625c-0.3,0-0.5-0.2-0.5-0.5s0.2-0.5,0.5-0.5h42.5l0-0.3c0-0.4,0-0.8,0-1.2c0-0.9-0.1-1.8-0.5-2.6
		c-0.4-0.8-1.1-1.5-2-2.1l-0.4-0.2l0,0.5c0,0.2-0.2,0.4-0.5,0.4h-26.3c-0.3,0-0.5-0.2-0.5-0.5v-4.8h-3.1l0,0.4c0,0.1,0,0.3,0,0.5
		c0,0.3,0,0.7-0.1,1.1c0,0,0,0.1-0.1,0.2l-0.1,0.1l0.1,0.2c0.2,0.3,0.3,0.7,0.3,1.1c0,0.2,0,0.5-0.1,0.8c0,0.2-0.2,0.3-0.4,0.3h-7.4
		c-0.2,0-0.4-0.1-0.4-0.3c-0.1-0.2-0.2-0.5-0.2-0.7c0-0.4,0.1-0.8,0.3-1.1l0.1-0.2L626,160l-0.1-0.2c-0.1-0.4-0.1-0.8-0.1-1.1
		c0-0.1,0-0.3,0-0.5l0-0.4h-5.4c-0.3,0-0.5-0.2-0.5-0.5s0.2-0.5,0.5-0.5h5.7l0.1-0.2c0.5-1,1.5-1.8,2.6-2.1l0.1,0l0-0.1
		c0.6-1.1,3-4.8,7.8-7.1l0.1,0l0.3,0v-4.8c0-0.1,0-0.1,0-0.2c0-0.1,0.1-0.2,0.2-0.2l0.1,0h5.7l-0.2-0.5c-0.4-0.9-0.7-1.9-0.7-3
		c0-0.1,0-0.3,0-0.4V138v-0.3c0-1,0.2-1.9,0.6-2.7v0c0-0.1,0.1-0.2,0.1-0.3c0-0.1,0.1-0.2,0.2-0.4c0.2-0.3,0.4-0.6,0.6-1l0.2-0.2
		l0.2-0.2c0.1-0.2,0.3-0.4,0.5-0.6c1.5-1.4,3.6-2.4,5.9-2.4s4.4,1,5.9,2.4c1.5,1.5,2.4,3.6,2.4,5.9c0,0.2,0,0.5,0,0.7v0.3l0,0l0,0v0
		c-0.1,0.8-0.3,1.5-0.7,2.3l-0.2,0.5h5.7c0.3,0,0.5,0.2,0.5,0.5v4.8h0.3l0.1,0c1.6,0.7,3.2,1.9,4.3,3.2s1.8,2.6,1.8,3.6
		c0,0.8-0.1,1.5-0.4,2.2l-0.2,0.4h9.1c0.3,0,0.5,0.2,0.5,0.5C680,157.7,679.8,157.9,679.5,157.9z M627.1,161.6h6.3l0-0.4
		c-0.1-0.4-0.4-0.8-0.6-1l-0.1-0.1h-5.2l-0.1,0.1c-0.2,0.2-0.5,0.5-0.6,1l0,0.4H627.1z M626.8,158.7v0.4h6.6v-0.3v-0.1
		c0-1.8-1.5-3.3-3.3-3.3S626.8,156.9,626.8,158.7z M637.3,148.3l-0.5,0.2c-3.3,1.6-5.3,4-6.3,5.5l-0.3,0.4l0.5,0.1
		c1.3,0.2,2.5,1.1,3.1,2.2l0.1,0.2h3.4L637.3,148.3L637.3,148.3z M656.8,133.7c-1.3-1.7-3.5-2.9-5.9-2.9c-2.4,0-4.5,1.2-5.9,2.9
		c0,0.1-0.1,0.2-0.2,0.3c-0.1,0.1-0.1,0.2-0.2,0.3c-0.2,0.3-0.4,0.7-0.6,1.1c0,0.1-0.1,0.3-0.2,0.5c0,0.2-0.1,0.4-0.1,0.6
		c0,0.1-0.1,0.3-0.1,0.5c0,0.1,0,0.3-0.1,0.5c0,0.1,0,0.3,0,0.4v0.3c0,0.4,0,0.9,0.1,1.3l0,0.4l0.3-0.1c7.3-2.4,11.2-4.8,12.7-5.7
		l0.3-0.2L656.8,133.7z M644,140.8l0.1,0.3c0.1,0.3,0.2,0.6,0.4,0.9l0.1,0.1h12.6l0.1-0.1c0.4-0.7,0.7-1.5,0.9-2.3l0-0.3l-0.2-0.1
		c-2.1-0.8-3.6-1.7-4.2-2.2l-0.2-0.1l-0.2,0.1c-2.1,1.1-5.1,2.3-9.1,3.6L644,140.8z M658.4,138.4v-0.5c0-1-0.3-1.9-0.7-2.8l-0.1-0.3
		l-0.3,0.2c-0.5,0.3-1.2,0.8-2.1,1.3l-0.5,0.2l0.5,0.3c0.7,0.4,1.6,0.9,2.8,1.4L658.4,138.4z M663.6,143.1h-25.3v19.2h25V162h0.3
		V143.1z M670.1,154.3c0-0.4-0.1-0.9-0.4-1.3c-0.8-1.4-2.5-3.3-4.7-4.5l-0.5-0.2v4.6l0.8-0.2h0.1c0.2,0,0.4,0.1,0.5,0.4v0.1
		c0,0.2-0.1,0.4-0.4,0.5l-1,0.2v5.4l0.4,0c0.8-0.1,2.1-0.4,3.2-1.2c0.5-0.4,1.1-0.9,1.4-1.4C669.9,156,670.1,155.2,670.1,154.3z
		 M650.9,155.4c-0.7,0-1.4-0.3-1.9-0.8c-0.5-0.5-0.8-1.2-0.8-1.9c0-0.8,0.3-1.4,0.8-1.9c0.5-0.5,1.2-0.8,1.9-0.8s1.4,0.3,1.9,0.8
		c0.5,0.5,0.8,1.2,0.8,1.9c0,0.8-0.3,1.4-0.8,1.9C652.4,155.1,651.7,155.4,650.9,155.4z M650.9,151c-1,0-1.7,0.8-1.7,1.7
		s0.8,1.7,1.7,1.7s1.7-0.8,1.7-1.7S651.9,151,650.9,151z M644.4,136.4c0.1-0.5,0.3-1,0.6-1.4c0.1,0.2,0.2,0.5,0.3,0.8l0,0.1
		l-0.9,0.7L644.4,136.4z M638.7,135.5h-0.2l-0.1,0.2c-0.9,2.2-2.4,5.1-4.5,8.7l-0.1,0.3l0.3,0.1c0.2,0.1,0.5,0.2,0.7,0.3l-1.1,1
		l0.1-0.3c-1.1-0.5-2.1-1.2-2.8-2.1c-1.4-1.6-2.1-3.6-2.1-5.5c0-2.4,1-4.7,2.9-6.3c1.5-1.4,3.5-2.1,5.4-2.1c2.4,0,4.7,1,6.3,2.9
		l0.1,0.2c-0.4,0.5-0.7,1.1-1,1.7C640.8,135.2,639.4,135.4,638.7,135.5z M638.7,130.9c-0.5-0.1-1-0.1-1.4-0.1
		c-1.7,0-3.5,0.6-4.8,1.8c-1.7,1.4-2.5,3.5-2.5,5.6c0,1.7,0.6,3.5,1.8,4.8c0.3,0.3,0.6,0.6,1,0.9l0.3,0.2l0.2-0.3
		c4-6.6,5.4-10.8,5.8-12.5l0.1-0.3L638.7,130.9z M642.6,133.1c-0.7-0.7-1.5-1.3-2.4-1.7l-0.3-0.1l-0.1,0.4c-0.1,0.5-0.4,1.3-0.8,2.3
		l-0.2,0.5l0.6-0.1c0.8-0.1,1.8-0.4,3.1-0.8l0.5-0.1L642.6,133.1z"/>
</g>
<g>
	<path class="st0" d="M569.3,46.2l-2.7-2.1l-14.6-11.1c-1.8-1.3-4.3-1.3-6.1,0l-14.6,11.1l-2.7,2.1c-0.3,0.2-0.4,0.7-0.1,1
		c0.1,0.2,0.3,0.3,0.6,0.3c0.1,0,0.3,0,0.4-0.1l1.7-1.2v2.2c-0.2,0.1-0.3,0.2-0.4,0.3l-0.4,0.3c-0.6,0.3-1.1,1-1.3,1.8
		c-0.1,0.4-0.1,0.8,0.1,1.3c0.1,0.2,0,0.5-0.1,0.7c-0.7,1.1-0.9,2.6-0.4,3.7c0.1,0.2,0.2,0.3,0.3,0.5c0.2,0.2,0.2,0.5,0.2,0.8
		c0,0.1-0.1,0.3-0.1,0.4c-0.1,0.6,0.1,1.2,0.2,1.7c0.1,0.5,0.3,1.3,0.8,1.8c0.3,0.3,0.7,0.4,1.1,0.4V64h-1.8c-0.3,0-0.5,0.1-0.7,0.3
		c-0.2,0.2-0.2,0.5-0.2,0.7L529,70h35.9c1.1,0,2-0.9,2-2V46.1l1.7,1.2c0.1,0.1,0.3,0.1,0.4,0.1c0.2,0,0.4-0.1,0.6-0.3
		C569.7,46.9,569.6,46.5,569.3,46.2z M530.8,60.5c-0.2-0.2-0.3-0.7-0.4-1h0c-0.1-0.4-0.2-0.9-0.1-1.3l0-0.2c0.2-0.7,0-1.4-0.4-1.9
		l-0.1-0.2c-0.3-0.7-0.2-1.7,0.2-2.4c0.4-0.6,0.5-1.3,0.3-1.9c-0.1-0.2-0.1-0.4,0-0.6c0.1-0.4,0.3-0.7,0.6-0.8l0.6-0.5
		c0.1-0.1,0.2-0.1,0.3-0.2l0.2,0h0l0.2,0c0.5,0.1,0.9,0.3,1.1,0.7c0.1,0.2,0.1,0.5,0.1,0.7c0,0.1,0,0.2,0,0.3c0,0.5,0.1,1,0.5,1.4
		c0.1,0.1,0.1,0.2,0.2,0.4c0,0.2,0,0.5-0.1,0.8c0,0.2-0.1,0.3-0.2,0.5c-0.1,0.3-0.3,0.6-0.4,0.9c-0.4,0.6-0.5,1.5-0.2,2.3
		c0.2,0.4,0.2,0.9,0.1,1.2c-0.3,0.9-1.1,1.4-1.5,1.7c-0.1,0.1-0.3,0.1-0.4,0.2l0,0c-0.1,0-0.2,0.1-0.3,0.1
		C530.9,60.6,530.8,60.5,530.8,60.5z M533.1,68.6L533.1,68.6h-3l-0.5-3.2h3.9L533.1,68.6z M554.1,68.6h-10.4c0-3.9,0-7.8,0-11.7
		c0-0.2,0-0.4,0-0.5c0-0.4,0.1-0.8,0.3-1.2c0.3-0.7,0.7-1.4,1.2-1.9c0.6-0.6,1.2-1,2-1.2c0.4-0.1,0.7-0.2,1.1-0.2c0.2,0,0.3,0,0.5,0
		h0.1c0.2,0,0.3,0,0.5,0c0.4,0,0.8,0.1,1.1,0.2c0.9,0.3,1.8,0.9,2.4,1.7c0.4,0.4,0.6,0.9,0.8,1.5c0.1,0.4,0.2,0.8,0.3,1.2
		c0,0.2,0,0.4,0,0.5C554.1,60.8,554.1,64.7,554.1,68.6z M565.5,68c0,0.3-0.3,0.6-0.6,0.6h-9.4c0-3.9,0-7.8,0-11.8c0-0.2,0-0.4,0-0.7
		c-0.1-0.5-0.2-1-0.4-1.5c-0.2-0.7-0.6-1.3-1-1.9c-0.8-1-1.8-1.7-3-2.1c-0.5-0.2-0.9-0.3-1.4-0.3c-0.2,0-0.4,0-0.6,0h-0.2
		c-0.2,0-0.4,0-0.6,0c-0.5,0.1-1,0.2-1.4,0.3c-1,0.3-1.8,0.9-2.5,1.6c-0.7,0.7-1.2,1.5-1.5,2.4c-0.2,0.5-0.3,1-0.4,1.5
		c0,0.2,0,0.4,0,0.7c0,3.9,0,7.8,0,11.8h-7.8l0.5-3.5c0-0.3,0-0.5-0.2-0.7c-0.2-0.2-0.4-0.3-0.7-0.3h-1.8v-2.4l0.1-0.1
		c1.1-0.6,1.9-1.5,2.2-2.5c0.2-0.7,0.2-1.5-0.1-2.2c-0.1-0.2-0.1-0.5-0.1-0.7l0.1-0.2c0.2-0.3,0.4-0.7,0.6-1.2
		c0.3-0.7,0.4-1.2,0.3-1.8c0-0.1,0-0.2,0-0.3c-0.1-0.4-0.2-0.7-0.5-1c-0.1-0.2-0.2-0.4-0.1-0.6c0.1-0.6,0-1.2-0.2-1.6
		c-0.4-0.8-1.2-1.3-2.2-1.5l-0.1,0l15.2-11.6c0.7-0.6,1.8-0.6,2.5,0l15.3,11.6V68z M565.5,46.3L565.5,46.3l-14.5-11
		c-1.2-0.9-3-0.9-4.2,0l-14.5,11v-1.3l2.5-1.9l0.1-0.1l11.8-9c1.3-1,3.1-1,4.4,0l8.9,6.8l0.2,0.2l5.2,3.9V46.3L565.5,46.3
		L565.5,46.3z"/>
</g>
<g>
	<path class="st1" d="M569.3,146.2l-2.7-2.1l-14.6-11.1c-1.8-1.3-4.3-1.3-6.1,0l-14.6,11.1l-2.7,2.1c-0.3,0.2-0.4,0.7-0.1,1
		c0.1,0.2,0.3,0.3,0.6,0.3c0.1,0,0.3,0,0.4-0.1l1.7-1.2v2.2c-0.2,0.1-0.3,0.2-0.4,0.3l-0.4,0.3c-0.6,0.3-1.1,1-1.3,1.8
		c-0.1,0.4-0.1,0.8,0.1,1.3c0.1,0.2,0,0.5-0.1,0.7c-0.7,1.1-0.9,2.6-0.4,3.7c0.1,0.2,0.2,0.3,0.3,0.5c0.2,0.2,0.2,0.5,0.2,0.8
		c0,0.1-0.1,0.3-0.1,0.4c-0.1,0.6,0.1,1.2,0.2,1.7c0.1,0.5,0.3,1.3,0.8,1.8c0.3,0.3,0.7,0.4,1.1,0.4v2.1h-1.8
		c-0.3,0-0.5,0.1-0.7,0.3c-0.2,0.2-0.2,0.5-0.2,0.7l0.7,4.9h35.9c1.1,0,2-0.9,2-2v-21.9l1.7,1.2c0.1,0.1,0.3,0.1,0.4,0.1
		c0.2,0,0.4-0.1,0.6-0.3C569.7,146.9,569.6,146.5,569.3,146.2z M530.8,160.5c-0.2-0.2-0.3-0.7-0.4-1l0,0c-0.1-0.4-0.2-0.9-0.1-1.3
		l0-0.2c0.2-0.7,0-1.4-0.4-1.9l-0.1-0.2c-0.3-0.7-0.2-1.7,0.2-2.4c0.4-0.6,0.5-1.3,0.3-1.9c-0.1-0.2-0.1-0.4,0-0.6
		c0.1-0.4,0.3-0.7,0.6-0.8l0.6-0.5c0.1-0.1,0.2-0.1,0.3-0.2l0.2,0h0l0.2,0c0.5,0.1,0.9,0.3,1.1,0.7c0.1,0.2,0.1,0.5,0.1,0.7
		c0,0.1,0,0.2,0,0.3c0,0.5,0.1,1,0.5,1.4c0.1,0.1,0.1,0.2,0.2,0.4c0,0.2,0,0.5-0.1,0.8c0,0.2-0.1,0.3-0.2,0.5
		c-0.1,0.3-0.3,0.6-0.4,0.9c-0.4,0.6-0.5,1.5-0.2,2.3c0.2,0.4,0.2,0.9,0.1,1.2c-0.3,0.9-1.1,1.4-1.5,1.7c-0.1,0.1-0.3,0.1-0.4,0.2
		l0,0c-0.1,0-0.2,0.1-0.3,0.1C530.9,160.6,530.8,160.5,530.8,160.5z M533.1,168.6L533.1,168.6h-3l-0.5-3.2h3.9L533.1,168.6z
		 M554.1,168.6h-10.4c0-3.9,0-7.8,0-11.7c0-0.2,0-0.4,0-0.5c0-0.4,0.1-0.8,0.3-1.2c0.3-0.7,0.7-1.3,1.2-1.9c0.6-0.6,1.2-1,2-1.2
		c0.4-0.1,0.7-0.2,1.1-0.2c0.2,0,0.3,0,0.5,0h0.1c0.2,0,0.3,0,0.5,0c0.4,0,0.8,0.1,1.1,0.2c0.9,0.3,1.8,0.9,2.4,1.7
		c0.4,0.4,0.6,0.9,0.8,1.5c0.1,0.4,0.2,0.8,0.3,1.2c0,0.2,0,0.4,0,0.5C554.1,160.8,554.1,164.7,554.1,168.6z M565.5,168
		c0,0.3-0.3,0.6-0.6,0.6h-9.4c0-3.9,0-7.8,0-11.8c0-0.2,0-0.4,0-0.7c-0.1-0.5-0.2-1-0.4-1.5c-0.2-0.7-0.6-1.3-1-1.9
		c-0.8-1-1.8-1.7-3-2.1c-0.5-0.2-0.9-0.3-1.4-0.3c-0.2,0-0.4,0-0.6,0h-0.2c-0.2,0-0.4,0-0.6,0c-0.5,0-1,0.2-1.4,0.3
		c-1,0.3-1.8,0.9-2.5,1.6c-0.7,0.7-1.2,1.5-1.5,2.4c-0.2,0.5-0.3,1-0.4,1.5c0,0.2,0,0.4,0,0.7c0,3.9,0,7.8,0,11.8h-7.8l0.5-3.5
		c0-0.3,0-0.5-0.2-0.7c-0.2-0.2-0.4-0.3-0.7-0.3h-1.8v-2.4l0.1-0.1c1.1-0.6,1.9-1.5,2.2-2.5c0.2-0.7,0.2-1.5-0.1-2.2
		c-0.1-0.2-0.1-0.5-0.1-0.7l0.1-0.2c0.2-0.3,0.4-0.7,0.6-1.2c0.3-0.7,0.4-1.2,0.3-1.8c0-0.1,0-0.2,0-0.3c-0.1-0.4-0.2-0.7-0.5-1
		c-0.1-0.2-0.2-0.4-0.1-0.6c0.1-0.6,0-1.2-0.2-1.6c-0.4-0.8-1.2-1.3-2.2-1.5l-0.1,0l15.2-11.6c0.7-0.6,1.8-0.6,2.5,0l15.3,11.6V168z
		 M565.5,146.3L565.5,146.3l-14.5-11c-1.2-0.9-3-0.9-4.2,0l-14.5,11v-1.3l2.5-1.9l0.1-0.1l11.8-9c1.3-1,3.1-1,4.4,0l8.9,6.8l0.2,0.2
		l5.2,3.9V146.3L565.5,146.3L565.5,146.3z"/>
</g>
<path id="ic-gardening" class="st0" d="M436.1,63.6l-6.9-4.2c-0.2-0.1-0.3-0.2-0.4-0.4c-0.2-0.2-0.4-0.5-0.5-0.8
	c-0.3-0.5-0.5-1-0.7-1.5c-0.2-0.6-0.3-1.3-0.4-2c-0.1-0.6-0.1-1.1-0.1-1.7c0-0.4,0-0.7,0-1.1c0-0.6,0.1-1.2,0.3-1.8
	c0.2-0.6,0.4-1.1,0.7-1.6c0.2-0.4,0.5-0.7,0.8-1c0.9-0.9,2-1.6,3.2-1.9c0.6-0.2,1.3-0.3,1.9-0.3c0.1,0,0.2,0,0.4,0
	c0.6,0,1.1,0.1,1.7,0.2c1,0.3,1.9,0.9,2.7,1.6c0.5,0.5,1,1,1.5,1.6c0.5,0.6,1,1.3,1.4,2l0,0l2.5,0.6l-16.8-24.3h-5.4l-0.1,0
	c-0.1,0-0.1,0-0.1,0c-0.1,0-0.2-0.1-0.2-0.2c-0.2-0.2-0.2-0.5,0-0.7c0-0.1,0.1-0.1,0.2-0.1c0.1-0.1,0.2-0.1,0.3-0.1
	c1.9,0,3.8-0.1,5.8,0c0.1,0,0.1,0,0.1,0c0.1,0,0.2,0.1,0.3,0.2l17.6,25.5c0,0,0,0.1,0.1,0.1l3.6,0.9c0.3-0.5,0.5-0.9,0.9-1.3
	c0.6-0.8,1.4-1.6,2.3-2.2c0.7-0.4,1.4-0.8,2.1-1c0.4-0.1,0.7-0.2,1.1-0.3c0.4-0.1,0.7-0.1,1.1-0.1c0.1,0,0.3,0,0.4,0
	c0.8,0,1.6,0.1,2.3,0.3c0.5,0.1,1.1,0.3,1.6,0.5c0.4,0.2,0.8,0.3,1.1,0.5c0.3,0.2,0.6,0.3,0.8,0.5c1.6,1,3,2.5,3.7,4.3
	c0.1,0.3,0.2,0.5,0.3,0.8c0.1,0.4,0.2,0.7,0.2,1.1c0,0.4,0,0.7,0,1.1l3.2,0.8l0.1,0c0,0,0.1,0,0.1,0c0.1,0.1,0.2,0.2,0.2,0.3
	c0,0.1,0,0.1,0,0.2v3c0.1,0,0.2,0.1,0.3,0.1c0.5,0.2,1,0.6,1.3,1c0.4,0.4,0.7,0.9,0.9,1.4c0.2,0.4,0.3,0.9,0.3,1.3
	c0.1,0.5,0,1-0.1,1.5c-0.2,0.9-0.7,1.7-1.4,2.4c-0.4,0.3-0.8,0.6-1.3,0.8c-0.6,0.2-1.2,0.4-1.8,0.4c-0.6,0-1.2-0.1-1.8-0.4
	c-0.5-0.2-0.9-0.5-1.3-0.8c-0.5-0.5-0.9-1-1.2-1.7h-18c-0.3,0.5-0.6,0.9-1,1.3c-0.5,0.5-1.1,0.9-1.7,1.1c-0.7,0.3-1.5,0.5-2.2,0.5
	c-0.8,0-1.5-0.2-2.2-0.5c-0.6-0.3-1.2-0.7-1.7-1.1c-0.5-0.5-0.9-1-1.2-1.7c-0.2-0.5-0.4-1.1-0.5-1.6C436,64.7,436,64.1,436.1,63.6
	L436.1,63.6L436.1,63.6z M468.9,62.1c-0.5,0-1,0.1-1.4,0.3c-0.9,0.4-1.6,1.3-1.9,2.3c-0.1,0.4-0.1,0.8-0.1,1.2c0,0.3,0.1,0.7,0.3,1
	c0.2,0.4,0.4,0.7,0.7,1c0.3,0.3,0.6,0.5,1,0.7c0.4,0.2,0.9,0.3,1.3,0.3c0.5,0,0.9-0.1,1.4-0.2c0.4-0.2,0.7-0.4,1.1-0.7
	c0.5-0.4,0.9-1,1-1.7c0.1-0.3,0.1-0.7,0.1-1c0-0.3-0.1-0.7-0.2-1c-0.1-0.4-0.3-0.7-0.6-1c-0.3-0.3-0.6-0.6-1-0.8
	c-0.3-0.2-0.7-0.3-1-0.4c-0.1,0-0.3,0-0.4-0.1C469.1,62.1,469,62.1,468.9,62.1L468.9,62.1L468.9,62.1z M441.7,59.8
	c-0.2,0-0.4,0-0.6,0.1c-0.5,0.1-1,0.2-1.4,0.4c-0.8,0.4-1.5,1.1-2,1.9c-0.2,0.4-0.4,0.9-0.5,1.4c-0.1,0.5-0.1,1,0,1.5
	c0.1,0.4,0.2,0.9,0.4,1.3c0.2,0.5,0.6,1,1,1.3c0.4,0.4,0.9,0.7,1.4,0.9c0.6,0.2,1.2,0.4,1.8,0.4c0.6,0,1.2-0.1,1.8-0.4
	c0.5-0.2,1-0.5,1.4-0.9c0.4-0.4,0.7-0.8,1-1.3c0.2-0.4,0.3-0.8,0.4-1.3c0.1-0.5,0.1-1,0-1.5c-0.1-0.5-0.2-0.9-0.5-1.4
	c-0.4-0.8-1.1-1.5-1.9-1.9c-0.4-0.2-0.9-0.4-1.4-0.4c-0.2,0-0.4,0-0.6-0.1C441.8,59.8,441.8,59.8,441.7,59.8L441.7,59.8z M469,67.2
	c1,0,1.7-0.8,1.7-1.7c0-1-0.8-1.7-1.7-1.7s-1.7,0.8-1.7,1.7C467.3,66.5,468.1,67.2,469,67.2z M441.8,66.1c1,0,1.7-0.8,1.7-1.7
	c0-1-0.8-1.7-1.7-1.7s-1.7,0.8-1.7,1.7C440,65.3,440.8,66.1,441.8,66.1z M469.6,61v-2.2l-28.7-6.9c0,0-0.1,0-0.1,0
	c-0.1,0-0.2-0.1-0.2-0.2c0,0,0-0.1-0.1-0.1c-0.1-0.1-0.1-0.2-0.2-0.3c-0.4-0.7-0.9-1.3-1.4-1.9c-0.4-0.5-0.8-0.9-1.3-1.3
	c-0.6-0.5-1.4-1-2.2-1.3c-0.4-0.1-0.9-0.2-1.3-0.2c-0.1,0-0.1,0-0.1,0c-1.4,0-2.8,0.5-4,1.4c-0.2,0.1-0.3,0.3-0.5,0.5
	c-0.2,0.2-0.4,0.5-0.6,0.8c-0.3,0.4-0.5,0.9-0.6,1.4c-0.1,0.5-0.2,0.9-0.2,1.4c0,0.3,0,0.7,0,1c0,0.5,0,1,0.1,1.6
	c0.1,0.9,0.3,1.9,0.8,2.8c0.1,0.2,0.3,0.5,0.4,0.7c0.1,0.1,0.2,0.3,0.3,0.4l0,0l6.6,4c0.1-0.1,0.1-0.3,0.2-0.4
	c0.5-1.2,1.5-2.2,2.6-2.8c0.5-0.3,1.1-0.5,1.7-0.6c0.2,0,0.5-0.1,0.7-0.1c0.1,0,0.1,0,0.3,0c0.2,0,0.5,0,0.7,0.1
	c0.6,0.1,1.2,0.3,1.7,0.6c1,0.5,1.9,1.4,2.4,2.4c0.3,0.5,0.5,1.1,0.6,1.7c0.1,0.6,0.1,1.3,0,1.9c0,0.3-0.1,0.6-0.2,0.8h17.2
	c0-0.3,0-0.7,0-1c0-0.5,0.2-0.9,0.3-1.3c0.2-0.5,0.5-1,0.9-1.4c0.4-0.4,0.8-0.7,1.3-1c0.4-0.2,0.8-0.3,1.3-0.4c0.2,0,0.4,0,0.6-0.1
	c0.1,0,0.1,0,0.2,0C469.3,60.9,469.4,60.9,469.6,61L469.6,61z M466,56.7c0-0.4,0-0.7-0.1-1.1c0-0.3-0.1-0.5-0.2-0.8
	c-0.5-1.7-1.8-3.1-3.3-4.1c-0.2-0.2-0.5-0.3-0.8-0.5c-0.3-0.2-0.7-0.4-1-0.5c-0.5-0.2-0.9-0.4-1.4-0.5c-0.9-0.3-2-0.4-2.9-0.3
	c-0.5,0-1,0.2-1.5,0.3c-0.8,0.3-1.5,0.7-2.2,1.2c-0.7,0.5-1.3,1.2-1.8,1.9c-0.2,0.2-0.3,0.4-0.4,0.7L466,56.7L466,56.7z"/>
<path id="ic-gardening1" class="st1" d="M436.1,163.6l-6.9-4.2c-0.2-0.1-0.3-0.2-0.4-0.4c-0.2-0.2-0.4-0.5-0.5-0.8
	c-0.3-0.5-0.5-1-0.7-1.5c-0.2-0.6-0.3-1.3-0.4-2c-0.1-0.6-0.1-1.1-0.1-1.7c0-0.4,0-0.7,0-1.1c0-0.6,0.1-1.2,0.3-1.8
	c0.2-0.6,0.4-1.1,0.7-1.6c0.2-0.4,0.5-0.7,0.8-1c0.9-0.9,2-1.6,3.2-1.9c0.6-0.2,1.3-0.3,1.9-0.3c0.1,0,0.2,0,0.4,0
	c0.6,0,1.1,0.1,1.7,0.2c1,0.3,1.9,0.9,2.7,1.6c0.5,0.5,1,1,1.5,1.6c0.5,0.6,1,1.3,1.4,2l0,0l2.5,0.6l-16.8-24.3h-5.4l-0.1,0
	c-0.1,0-0.1,0-0.1,0c-0.1,0-0.2-0.1-0.2-0.2c-0.2-0.2-0.2-0.5,0-0.7c0-0.1,0.1-0.1,0.2-0.1c0.1-0.1,0.2-0.1,0.3-0.1
	c1.9,0,3.8-0.1,5.8,0c0.1,0,0.1,0,0.1,0c0.1,0,0.2,0.1,0.3,0.2l17.6,25.5c0,0,0,0.1,0.1,0.1l3.6,0.9c0.3-0.5,0.5-0.9,0.9-1.3
	c0.6-0.8,1.4-1.6,2.3-2.2c0.7-0.4,1.4-0.8,2.1-1c0.4-0.1,0.7-0.2,1.1-0.3c0.4-0.1,0.7-0.1,1.1-0.1c0.1,0,0.3,0,0.4,0
	c0.8,0,1.6,0.1,2.3,0.3c0.5,0.1,1.1,0.3,1.6,0.5c0.4,0.2,0.8,0.3,1.1,0.5c0.3,0.2,0.6,0.3,0.8,0.5c1.6,1,3,2.5,3.7,4.3
	c0.1,0.3,0.2,0.5,0.3,0.8c0.1,0.4,0.2,0.7,0.2,1.1c0,0.4,0,0.7,0,1.1l3.2,0.8l0.1,0c0,0,0.1,0,0.1,0c0.1,0.1,0.2,0.2,0.2,0.3
	c0,0.1,0,0.1,0,0.2v3c0.1,0,0.2,0.1,0.3,0.1c0.5,0.2,1,0.6,1.3,1c0.4,0.4,0.7,0.9,0.9,1.4c0.2,0.4,0.3,0.9,0.3,1.3
	c0.1,0.5,0,1-0.1,1.5c-0.2,0.9-0.7,1.7-1.4,2.4c-0.4,0.3-0.8,0.6-1.3,0.8c-0.6,0.2-1.2,0.4-1.8,0.4c-0.6,0-1.2-0.1-1.8-0.4
	c-0.5-0.2-0.9-0.5-1.3-0.8c-0.5-0.5-0.9-1-1.2-1.7h-18c-0.3,0.5-0.6,0.9-1,1.3c-0.5,0.5-1.1,0.9-1.7,1.1c-0.7,0.3-1.5,0.5-2.2,0.5
	c-0.8,0-1.5-0.2-2.2-0.5c-0.6-0.3-1.2-0.7-1.7-1.1c-0.5-0.5-0.9-1-1.2-1.7c-0.2-0.5-0.4-1.1-0.5-1.6
	C436,164.7,436,164.1,436.1,163.6L436.1,163.6L436.1,163.6z M468.9,162.1c-0.5,0-1,0.1-1.4,0.3c-0.9,0.4-1.6,1.3-1.9,2.3
	c-0.1,0.4-0.1,0.8-0.1,1.2c0,0.3,0.1,0.7,0.3,1c0.2,0.4,0.4,0.7,0.7,1c0.3,0.3,0.6,0.5,1,0.7c0.4,0.2,0.9,0.3,1.3,0.3
	c0.5,0,0.9-0.1,1.4-0.2c0.4-0.2,0.7-0.4,1.1-0.7c0.5-0.4,0.9-1,1-1.7c0.1-0.3,0.1-0.7,0.1-1c0-0.3-0.1-0.7-0.2-1
	c-0.1-0.4-0.3-0.7-0.6-1c-0.3-0.3-0.6-0.6-1-0.8c-0.3-0.2-0.7-0.3-1-0.4c-0.1,0-0.3,0-0.4-0.1C469.1,162.1,469,162.1,468.9,162.1
	L468.9,162.1L468.9,162.1z M441.7,159.8c-0.2,0-0.4,0-0.6,0.1c-0.5,0.1-1,0.2-1.4,0.4c-0.8,0.4-1.5,1.1-2,1.9
	c-0.2,0.4-0.4,0.9-0.5,1.4c-0.1,0.5-0.1,1,0,1.5c0.1,0.4,0.2,0.9,0.4,1.3c0.2,0.5,0.6,1,1,1.3c0.4,0.4,0.9,0.7,1.4,0.9
	c0.6,0.2,1.2,0.4,1.8,0.4c0.6,0,1.2-0.1,1.8-0.4c0.5-0.2,1-0.5,1.4-0.9c0.4-0.4,0.7-0.8,1-1.3c0.2-0.4,0.3-0.8,0.4-1.3
	c0.1-0.5,0.1-1,0-1.5c-0.1-0.5-0.2-0.9-0.5-1.4c-0.4-0.8-1.1-1.5-1.9-1.9c-0.4-0.2-0.9-0.4-1.4-0.4c-0.2,0-0.4,0-0.6-0.1
	C441.8,159.8,441.8,159.8,441.7,159.8L441.7,159.8z M469,167.2c1,0,1.7-0.8,1.7-1.7s-0.8-1.7-1.7-1.7s-1.7,0.8-1.7,1.7
	C467.3,166.5,468.1,167.2,469,167.2z M441.8,166.1c1,0,1.7-0.8,1.7-1.7s-0.8-1.7-1.7-1.7s-1.7,0.8-1.7,1.7
	C440,165.3,440.8,166.1,441.8,166.1z M469.6,161v-2.2l-28.7-6.9c0,0-0.1,0-0.1,0c-0.1,0-0.2-0.1-0.2-0.2c0,0,0-0.1-0.1-0.1
	c-0.1-0.1-0.1-0.2-0.2-0.3c-0.4-0.7-0.9-1.3-1.4-1.9c-0.4-0.5-0.8-0.9-1.3-1.3c-0.6-0.5-1.4-1-2.2-1.3c-0.4-0.1-0.9-0.2-1.3-0.2
	c-0.1,0-0.1,0-0.1,0c-1.4,0-2.8,0.5-4,1.4c-0.2,0.1-0.3,0.3-0.5,0.5c-0.2,0.2-0.4,0.5-0.6,0.8c-0.3,0.4-0.5,0.9-0.6,1.4
	c-0.1,0.5-0.2,0.9-0.2,1.4c0,0.3,0,0.6,0,1c0,0.5,0,1,0.1,1.6c0.1,0.9,0.3,1.9,0.8,2.8c0.1,0.2,0.3,0.5,0.4,0.7
	c0.1,0.1,0.2,0.3,0.3,0.4l0,0l6.6,4c0.1-0.1,0.1-0.3,0.2-0.4c0.5-1.2,1.5-2.2,2.6-2.8c0.5-0.3,1.1-0.5,1.7-0.6
	c0.2,0,0.5-0.1,0.7-0.1c0.1,0,0.1,0,0.3,0c0.2,0,0.5,0,0.7,0.1c0.6,0.1,1.2,0.3,1.7,0.6c1,0.5,1.9,1.4,2.4,2.4
	c0.3,0.5,0.5,1.1,0.6,1.7c0.1,0.6,0.1,1.3,0,1.9c0,0.3-0.1,0.6-0.2,0.9h17.2c0-0.3,0-0.7,0-1c0-0.5,0.2-0.9,0.3-1.3
	c0.2-0.5,0.5-1,0.9-1.4c0.4-0.4,0.8-0.7,1.3-1c0.4-0.2,0.8-0.3,1.3-0.4c0.2,0,0.4,0,0.6-0.1c0.1,0,0.1,0,0.2,0
	C469.3,160.9,469.4,160.9,469.6,161L469.6,161z M466,156.7c0-0.4,0-0.7-0.1-1.1c0-0.3-0.1-0.5-0.2-0.8c-0.5-1.7-1.8-3.1-3.3-4.1
	c-0.2-0.2-0.5-0.3-0.8-0.5c-0.3-0.2-0.7-0.4-1-0.5c-0.5-0.2-0.9-0.4-1.4-0.5c-0.9-0.3-2-0.4-2.9-0.3c-0.5,0-1,0.2-1.5,0.3
	c-0.8,0.3-1.5,0.7-2.2,1.2c-0.7,0.5-1.3,1.2-1.8,1.9c-0.2,0.2-0.3,0.4-0.4,0.7L466,156.7L466,156.7z"/>
<g>
	<path class="st0" d="M337.2,53.1l0.2,0.1h0l0.2-0.1l1.9-2.4l0-0.3c0-0.1-0.1-0.1-0.2-0.1h-3.6c-0.1,0-0.2,0.1-0.2,0.1l0,0.3
		L337.2,53.1z"/>
	<path class="st0" d="M362.8,67.1c-0.2-0.3-0.6-0.7-1.1-0.9c-0.8-0.3-1.6,0-1.9,0.8c-0.3,0.6-0.2,1.2,0.2,1.7
		c0.3,0.4,0.8,0.6,1.5,0.6c0.1,0,0.2,0,0.3,0h0c0.1,0,1.7-0.1,1.7-0.1c0.2,0,0.3-0.1,0.4-0.3c0.1-0.1,0-0.3-0.1-0.4L362.8,67.1z
		 M361.8,68.5L361.8,68.5l-0.3,0c-0.4,0-0.7-0.1-0.9-0.3c-0.3-0.3-0.1-0.7-0.1-0.8c0.1-0.2,0.3-0.4,0.6-0.4l0.2,0.1
		c0.2,0.1,0.5,0.3,0.7,0.6l0.6,0.7C362.1,68.4,361.9,68.4,361.8,68.5z"/>
	<path class="st0" d="M342.4,46.3c0-1.1-1.7-1.1-1.7,0C340.7,47.5,342.4,47.5,342.4,46.3z"/>
	<path class="st0" d="M368.8,66.2c-0.4,0.2-0.9,0.6-1.1,0.9l-1.1,1.4c-0.1,0.1-0.1,0.3-0.1,0.4c0.1,0.1,0.2,0.2,0.4,0.3
		c0,0,1.6,0.1,1.7,0.1h0c0.1,0,0.2,0,0.3,0c0.7,0,1.2-0.2,1.5-0.6c0.4-0.5,0.5-1.1,0.2-1.7C370.3,66.3,369.5,65.9,368.8,66.2z
		 M369.8,68.2c-0.2,0.2-0.4,0.3-0.9,0.3l-0.3,0v0c-0.1,0-0.3,0-0.9-0.1l0.6-0.7c0.2-0.3,0.5-0.5,0.7-0.6c0.4-0.2,0.7,0.1,0.8,0.4
		C370,67.5,370.1,67.9,369.8,68.2z"/>
	<path class="st0" d="M359.3,52.1c0,0,3.6-0.3,6.1,1.9c1.6,1.4,2.5,3.4,2.8,6v3.2c0,0.3,0.2,0.5,0.5,0.5s0.5-0.2,0.5-0.5l0-3.2
		c-0.2-2.9-1.3-5.2-3.1-6.7c-2.9-2.4-6.7-2.1-6.8-2.1h-0.6c0.5-1.4,0.9-3.2,0.9-5.3h7.7c1.3,0,2.3-1,2.3-2.3c0-1.3-1-2.3-2.3-2.3
		h-10c1.4-3.2-0.9-5.8-0.9-5.8c-0.5-0.7-1.1-0.8-1.4-0.8c-0.4,0-0.6,0.2-0.7,0.2c-0.4,0.3-0.5,0.6-0.5,0.9c-0.1,0.6,0.3,1.1,0.4,1.2
		c1.8,1.8,0.4,4,0.2,4.4h-7.6l-0.2,0l-0.2,0h-17.6c-0.3,0-0.5,0.2-0.5,0.5l0,0c-0.4-0.3-0.9-0.5-1.4-0.5c-1.3,0-2.3,1-2.3,2.3v6.8
		c0,1.3,1,2.3,2.3,2.3c1.3,0,2.3-1,2.3-2.3v-1.1c0.4,1,1,2,1.7,2.9l0,0V67c0,1.3,1,2.3,2.3,2.3c1.3,0,2.3-1,2.3-2.3v-9.1h5V67
		c0,1.3,1,2.3,2.3,2.3c1.3,0,2.3-1,2.3-2.3v-9.1h1.9v6.6c0,1.3,1,2.3,2.3,2.3c1.3,0,2.3-1,2.3-2.3v-6.7c1.1-0.3,4-1.4,6-4.4h1.2
		c0.5,0.1,6,1.1,6,9.2v6.4c0,0.3,0.2,0.5,0.5,0.5s0.5-0.2,0.5-0.5v-6.4c0-9.3-6.9-10.2-7-10.3l-0.1,0h-0.7l0.1-0.2L359.3,52.1z
		 M328.2,50.3c0,0.7-0.6,1.3-1.3,1.3c-0.7,0-1.3-0.6-1.3-1.3v-6.8c0-0.7,0.6-1.3,1.3-1.3c0.7,0,1.2,0.5,1.3,1.2c0,0.1,0,0.3,0,0.4
		V50.3z M354.7,36.2c0,0-0.2-0.3-0.2-0.5c0-0.1,0-0.2,0.2-0.3c0,0,0.1,0,0.2,0c0.2,0,0.5,0.2,0.8,0.5c0,0,2.2,2.5,0.6,5.3h-1
		C355.9,39.9,356.4,37.8,354.7,36.2z M346.9,43.5c0-0.7,0.6-1.3,1.3-1.3c0.7,0,1.3,0.6,1.3,1.3v6.8c0,0.7-0.6,1.3-1.3,1.3
		c-0.7,0-1.3-0.6-1.3-1.3V43.5z M331.1,50.7L331.1,50.7c-2-3-2-7.1-1.9-8.5h16.7c0,0.2,0,0.3,0,0.6c0,1.9-0.2,6-2.5,8.7
		c-1.4,1.6-3.3,2.4-5.7,2.5l-0.1,0l-0.1,0l-0.1,0l-0.1,0c-2.3-0.1-4.1-0.8-5.4-2.2c-0.1-0.1-0.2-0.2-0.3-0.3
		C331.5,51.2,331.3,50.9,331.1,50.7z M350.5,64.5c0,0.7-0.6,1.3-1.3,1.3c-0.7,0-1.3-0.6-1.3-1.3v-6.6h2.5V64.5z M350.9,56.9
		L350.9,56.9l-6.3,0c-0.3,0-0.5,0.2-0.5,0.5V67c0,0.7-0.6,1.3-1.3,1.3c-0.7,0-1.3-0.6-1.3-1.3v-9.7c0-0.3-0.2-0.5-0.5-0.5h-6
		c-0.3,0-0.5,0.2-0.5,0.5V67c0,0.7-0.6,1.3-1.3,1.3c-0.7,0-1.3-0.6-1.3-1.3v-14c1.4,1.1,3.2,1.7,5.3,1.8l0.3,0l0.1,0l0.1,0l0.1,0
		l0.1,0c2.7-0.1,4.8-1.1,6.3-2.8c0.8-0.9,1.3-1.9,1.7-2.9v1.2c0,1.3,1,2.3,2.3,2.3c1.3,0,2.3-1,2.3-2.3v-6.8c0-0.5-0.2-1-0.4-1.3
		h17.1c0.7,0,1.3,0.6,1.3,1.3c0,0.7-0.6,1.3-1.3,1.3H359c-0.3,0-0.5,0.2-0.5,0.5v0.3C358.5,55,351.7,56.7,350.9,56.9z"/>
	<path class="st0" d="M373.5,62.7c-0.3-0.8-1.2-1.1-1.9-0.8c-0.5,0.2-0.9,0.6-1.1,0.9l-1.1,1.4c-0.1,0.1-0.1,0.3-0.1,0.4
		c0.1,0.1,0.2,0.2,0.4,0.3c0,0,1.6,0.1,1.7,0.1h0c0.1,0,0.2,0,0.3,0c0.7,0,1.2-0.2,1.5-0.6C373.7,63.9,373.8,63.3,373.5,62.7z
		 M372.6,63.9c-0.2,0.2-0.4,0.3-0.9,0.3l-0.3,0h0v0c-0.1,0-0.3,0-0.9-0.1l0.6-0.7c0.2-0.3,0.5-0.5,0.7-0.6c0.4-0.2,0.7,0.1,0.8,0.4
		C372.8,63.2,372.9,63.5,372.6,63.9z"/>
	<path class="st0" d="M334,46.3c0-1.1-1.7-1.1-1.7,0C332.3,47.5,334,47.5,334,46.3z"/>
</g>
<g>
	<path class="st1" d="M373.5,162.7c-0.3-0.7-1.2-1.1-1.9-0.8c-0.5,0.2-0.9,0.6-1.1,0.9l-1.1,1.4c-0.1,0.1-0.1,0.3-0.1,0.4
		c0.1,0.1,0.2,0.2,0.4,0.3c0,0,1.6,0.1,1.7,0.1h0c0.1,0,0.2,0,0.3,0c0.7,0,1.2-0.2,1.5-0.6C373.7,163.9,373.8,163.3,373.5,162.7z
		 M372.6,163.9c-0.2,0.2-0.4,0.3-0.9,0.3l-0.3,0h0v0c-0.1,0-0.3,0-0.9-0.1l0.6-0.7c0.2-0.3,0.5-0.5,0.7-0.6c0.4-0.2,0.7,0.1,0.8,0.4
		C372.8,163.2,372.9,163.5,372.6,163.9z"/>
	<path class="st1" d="M342.4,146.3c0-1.1-1.7-1.1-1.7,0C340.7,147.5,342.4,147.5,342.4,146.3z"/>
	<path class="st1" d="M362.8,167.1c-0.2-0.3-0.6-0.7-1.1-0.9c-0.8-0.3-1.6,0-1.9,0.8c-0.3,0.6-0.2,1.2,0.2,1.7
		c0.3,0.4,0.8,0.6,1.5,0.6c0.1,0,0.2,0,0.3,0h0c0.1,0,1.7-0.1,1.7-0.1c0.2,0,0.3-0.1,0.4-0.3c0.1-0.1,0-0.3-0.1-0.4L362.8,167.1z
		 M361.8,168.5L361.8,168.5l-0.3,0c-0.4,0-0.7-0.1-0.9-0.3c-0.3-0.3-0.1-0.7-0.1-0.8c0.1-0.2,0.3-0.4,0.6-0.4l0.2,0.1
		c0.2,0.1,0.5,0.3,0.7,0.6l0.6,0.7C362.1,168.4,361.9,168.4,361.8,168.5z"/>
	<path class="st1" d="M368.8,166.2c-0.4,0.2-0.9,0.6-1.1,0.9l-1.1,1.3c-0.1,0.1-0.1,0.3-0.1,0.4c0.1,0.1,0.2,0.2,0.4,0.3
		c0,0,1.6,0.1,1.7,0.1h0c0.1,0,0.2,0,0.3,0c0.7,0,1.2-0.2,1.5-0.6c0.4-0.5,0.5-1.1,0.2-1.7C370.3,166.3,369.5,165.9,368.8,166.2z
		 M369.8,168.2c-0.2,0.2-0.4,0.3-0.9,0.3l-0.3,0v0c-0.1,0-0.3,0-0.9-0.1l0.6-0.7c0.2-0.3,0.5-0.5,0.7-0.6c0.4-0.2,0.7,0.1,0.8,0.4
		C370,167.5,370.1,167.9,369.8,168.2z"/>
	<path class="st1" d="M337.2,153.1l0.2,0.1h0l0.2-0.1l1.9-2.4l0-0.3c0-0.1-0.1-0.1-0.2-0.1h-3.6c-0.1,0-0.2,0.1-0.2,0.1l0,0.3
		L337.2,153.1z"/>
	<path class="st1" d="M359.3,152.1c0,0,3.6-0.3,6.1,1.9c1.6,1.4,2.5,3.4,2.8,6v3.2c0,0.3,0.2,0.5,0.5,0.5s0.5-0.2,0.5-0.5l0-3.3
		c-0.2-2.9-1.3-5.2-3.1-6.7c-2.9-2.4-6.7-2.1-6.8-2.1h-0.6c0.5-1.4,0.9-3.2,0.9-5.3h7.7c1.3,0,2.3-1,2.3-2.3s-1-2.3-2.3-2.3h-10
		c1.4-3.2-0.9-5.8-0.9-5.8c-0.5-0.7-1.1-0.8-1.4-0.8c-0.4,0-0.6,0.2-0.7,0.2c-0.4,0.3-0.5,0.6-0.5,0.9c-0.1,0.6,0.3,1.1,0.4,1.2
		c1.8,1.8,0.4,4,0.2,4.4h-7.6l-0.2,0l-0.2,0h-17.6c-0.3,0-0.5,0.2-0.5,0.5l0,0c-0.4-0.3-0.9-0.5-1.4-0.5c-1.3,0-2.3,1-2.3,2.3v6.8
		c0,1.3,1,2.3,2.3,2.3c1.3,0,2.3-1,2.3-2.3v-1.1c0.4,1,1,2,1.7,2.9l0,0V167c0,1.3,1,2.3,2.3,2.3c1.3,0,2.3-1,2.3-2.3v-9.1h5v9.1
		c0,1.3,1,2.3,2.3,2.3c1.3,0,2.3-1,2.3-2.3v-9.1h1.9v6.6c0,1.3,1,2.3,2.3,2.3c1.3,0,2.3-1,2.3-2.3v-6.7c1.1-0.3,4-1.4,6-4.4h1.2
		c0.5,0.1,6,1.1,6,9.2v6.4c0,0.3,0.2,0.5,0.5,0.5s0.5-0.2,0.5-0.5v-6.4c0-9.3-6.9-10.2-7-10.3l-0.1,0h-0.7l0.1-0.2L359.3,152.1z
		 M328.2,150.3c0,0.7-0.6,1.3-1.3,1.3c-0.7,0-1.3-0.6-1.3-1.3v-6.8c0-0.7,0.6-1.3,1.3-1.3c0.7,0,1.2,0.5,1.3,1.2c0,0.1,0,0.3,0,0.4
		V150.3z M354.7,136.2c0,0-0.2-0.3-0.2-0.5c0-0.1,0-0.2,0.2-0.3c0,0,0.1,0,0.2,0c0.2,0,0.5,0.2,0.8,0.5c0,0,2.2,2.5,0.6,5.3h-1
		C355.9,139.9,356.4,137.8,354.7,136.2z M346.9,143.5L346.9,143.5c0-0.7,0.6-1.3,1.3-1.3c0.7,0,1.3,0.6,1.3,1.3v6.8
		c0,0.7-0.6,1.3-1.3,1.3c-0.7,0-1.3-0.6-1.3-1.3V143.5z M331.1,150.7L331.1,150.7c-2-3-2-7.1-1.9-8.5h16.7c0,0.2,0,0.3,0,0.6
		c0,1.9-0.2,6-2.5,8.7c-1.4,1.6-3.3,2.4-5.7,2.5l-0.1,0l-0.1,0l-0.1,0l-0.1,0c-2.3-0.1-4.1-0.8-5.4-2.2c-0.1-0.1-0.2-0.2-0.3-0.3
		C331.5,151.2,331.3,150.9,331.1,150.7z M350.5,164.5c0,0.7-0.6,1.3-1.3,1.3c-0.7,0-1.3-0.6-1.3-1.3v-6.6h2.5V164.5z M350.9,156.9
		L350.9,156.9l-6.3,0c-0.3,0-0.5,0.2-0.5,0.5v9.7c0,0.7-0.6,1.3-1.3,1.3c-0.7,0-1.3-0.6-1.3-1.3v-9.7c0-0.3-0.2-0.5-0.5-0.5h-6
		c-0.3,0-0.5,0.2-0.5,0.5v9.7c0,0.7-0.6,1.3-1.3,1.3c-0.7,0-1.3-0.6-1.3-1.3v-14c1.4,1.1,3.2,1.7,5.3,1.8l0.3,0l0.1,0l0.1,0l0.1,0
		l0.1,0c2.7-0.1,4.8-1.1,6.3-2.8c0.8-0.9,1.3-1.9,1.7-2.9v1.2c0,1.3,1,2.3,2.3,2.3c1.3,0,2.3-1,2.3-2.3v-6.8c0-0.5-0.2-1-0.4-1.3
		h17.1c0.7,0,1.3,0.6,1.3,1.3c0,0.7-0.6,1.3-1.3,1.3H359c-0.3,0-0.5,0.2-0.5,0.5v0.3C358.5,155,351.7,156.7,350.9,156.9z"/>
	<path class="st1" d="M334,146.3c0-1.1-1.7-1.1-1.7,0C332.3,147.5,334,147.5,334,146.3z"/>
</g>
<path id="ic-events" class="st0" d="M260,52.8c0.2,0,0.4,0,0.5,0c0.4,0,0.8,0.1,1.2,0.3c0.5,0.2,1,0.5,1.5,0.8
	c0.7,0.6,1.3,1.4,1.7,2.3c0.2,0.4,0.3,0.8,0.3,1.3c0,0.2,0,0.4,0,0.5c0.1,5.7,0,5.4,0,11.1c0,0,0,0.1,0,0.1c0,0.1,0,0.2-0.1,0.2
	c0,0.1-0.1,0.1-0.2,0.2c-0.2,0.2-0.6,0.1-0.8-0.1c-0.1-0.1-0.1-0.2-0.2-0.3c0-0.1,0-0.1,0-0.2c0-5.6,0.1-5.4,0-11
	c0-0.5-0.1-1-0.3-1.4c-0.4-1.1-1.3-2-2.4-2.4c-0.4-0.2-0.9-0.2-1.3-0.2c-7.1-0.1-14.2-0.1-21.3,0c-0.4,0-0.9,0.1-1.3,0.2
	c-1.1,0.4-2,1.3-2.5,2.5c-0.2,0.4-0.2,0.9-0.2,1.3c-0.1,5.6,0,5.4,0,11c0,0,0,0.1,0,0.1c0,0.1,0,0.2-0.1,0.2c0,0.1-0.1,0.1-0.2,0.2
	c-0.2,0.2-0.6,0.1-0.8-0.1c-0.1-0.1-0.1-0.2-0.2-0.3c0-0.1,0-0.1,0-0.2V58.2c0-0.2,0-0.4,0-0.5c0-0.4,0.1-0.9,0.3-1.3
	c0.3-0.9,0.9-1.8,1.7-2.4c0.4-0.3,0.9-0.6,1.5-0.8c0.4-0.1,0.8-0.2,1.2-0.3c0.2,0,0.4,0,0.5,0C245.8,52.7,252.9,52.7,260,52.8
	L260,52.8L260,52.8z M249.3,66.7c0.5,0,0.9,0.4,0.9,0.9c0,0.5-0.4,0.9-0.9,0.9c-0.5,0-0.9-0.4-0.9-0.9
	C248.5,67.1,248.9,66.7,249.3,66.7z M249.3,61.5c0.5,0,0.9,0.4,0.9,0.9c0,0.5-0.4,0.8-0.9,0.8c-0.5,0-0.9-0.4-0.9-0.8
	C248.5,61.8,248.9,61.5,249.3,61.5C249.3,61.5,249.3,61.5,249.3,61.5z M249.3,58.6c-1.4,0.7-2.7,1.4-4.1,2.1c-0.1,0-0.1,0-0.2,0
	c-0.2,0-0.3-0.1-0.4-0.3c0,0,0-0.1,0-0.2c0-1.4,0-2.9,0-4.3c0,0,0-0.1,0-0.1c0.1-0.1,0.2-0.2,0.3-0.3c0,0,0.1,0,0.1,0
	c0.1,0,0.1,0,0.2,0c1.4,0.6,2.8,1.3,4.1,2.1c1.4-0.7,2.7-1.4,4.1-2.1c0.1,0,0.1,0,0.2,0c0.2,0,0.3,0.1,0.4,0.3c0,0,0,0.1,0,0.1
	c0,1.4,0,2.9,0,4.3c0,0.1,0,0.1-0.1,0.2c-0.1,0.1-0.2,0.2-0.4,0.2c-0.1,0-0.1,0-0.2,0C252.1,60,250.7,59.3,249.3,58.6L249.3,58.6z
	 M250.3,58.1l2.9,1.4v-2.9C252.2,57.1,251.3,57.6,250.3,58.1z M245.5,59.5l2.9-1.4l-2.9-1.4V59.5z M249.5,26.3c0.5,0,1,0,1.5,0.1
	c1.2,0.2,2.3,0.5,3.4,1c1.4,0.6,2.6,1.5,3.6,2.6c1,1,1.8,2.2,2.3,3.5c0.5,1.1,0.8,2.4,0.9,3.6c0.1,1.3,0.1,2.7-0.2,4
	c-0.2,1.1-0.6,2.1-1.1,3c-0.7,1.4-1.7,2.6-2.9,3.6c-0.9,0.8-2,1.4-3.1,1.9c-1.4,0.6-3,0.9-4.6,0.9c-1.6,0-3.1-0.3-4.6-0.9
	c-1.1-0.5-2.2-1.1-3.1-1.9c-1.2-1-2.2-2.2-2.9-3.6c-0.5-1-0.9-2-1.1-3c-0.3-1.3-0.4-2.6-0.2-4c0.1-1.2,0.4-2.5,0.9-3.6
	c0.6-1.3,1.4-2.5,2.3-3.5c1-1.1,2.3-2,3.6-2.6c1.1-0.5,2.2-0.8,3.4-1c0.5-0.1,1-0.1,1.5-0.1C249.3,26.3,249.3,26.3,249.5,26.3
	L249.5,26.3L249.5,26.3z M249.2,27.5c-0.5,0-0.9,0-1.4,0.1c-1.1,0.1-2.1,0.5-3.1,0.9c-1.2,0.6-2.3,1.4-3.3,2.4
	c-0.9,0.9-1.6,2-2.1,3.2c-0.5,1-0.7,2.1-0.9,3.2c-0.1,1.2,0,2.4,0.2,3.6c0.2,1,0.6,1.9,1,2.7c0.7,1.2,1.6,2.3,2.7,3.2
	c0.8,0.7,1.8,1.3,2.8,1.7c1.3,0.5,2.7,0.8,4.1,0.8s2.8-0.3,4.1-0.8c1-0.4,2-1,2.8-1.7c1.1-0.9,2-2,2.7-3.2c0.5-0.9,0.8-1.8,1-2.7
	c0.3-1.2,0.3-2.4,0.2-3.6c-0.1-1.1-0.4-2.2-0.9-3.2c-0.5-1.2-1.2-2.2-2.1-3.2c-0.9-1-2.1-1.8-3.3-2.4c-1-0.5-2-0.8-3.1-0.9
	c-0.5-0.1-0.9-0.1-1.4-0.1C249.3,27.5,249.3,27.5,249.2,27.5z M245.2,30.5c0.1,0,0.1,0,0.1,0c0.1,0,0.2,0.1,0.3,0.2
	c0.1,0.1,0.1,0.2,0.2,0.3c0.8,1,1.8,1.8,2.9,2.4c0.5,0.3,1.1,0.6,1.6,0.9c1.4,0.7,2.9,1.2,4.5,1.5c1,0.2,2,0.3,3,0.3l0.1,0
	c0.1,0,0.1,0,0.1,0c0.1,0,0.2,0.1,0.2,0.2c0,0,0.1,0.1,0.1,0.2c0.1,0.3,0,0.6-0.2,0.7c-0.1,0.1-0.2,0.1-0.3,0.1c-0.1,0-0.1,0-0.3,0
	c-1.4-0.1-2.8-0.3-4.2-0.6c-2.2-0.6-4.4-1.5-6.2-2.9c-0.4-0.3-0.8-0.6-1.2-1l-0.1-0.1l0,0c0,0.1,0,0.2-0.1,0.2
	c-0.1,0.2-0.1,0.4-0.2,0.5c-0.3,0.7-0.8,1.2-1.3,1.7c-0.5,0.4-1,0.8-1.5,1.2c-0.5,0.3-1,0.6-1.5,0.8l-0.1,0c-0.1,0-0.2,0.1-0.3,0.1
	c-0.3,0-0.5-0.3-0.5-0.6c0-0.1,0-0.1,0-0.2c0-0.1,0.1-0.2,0.2-0.3c0,0,0.1,0,0.1-0.1c0.1-0.1,0.2-0.1,0.4-0.2
	c0.3-0.2,0.6-0.3,0.9-0.5c0.2-0.2,0.5-0.3,0.7-0.5c0.2-0.1,0.3-0.3,0.5-0.4c0.1-0.1,0.3-0.2,0.4-0.4c0.6-0.6,1.2-1.4,1.2-2.4
	c0-0.2,0-0.4-0.1-0.6l0-0.1c0-0.1,0-0.1,0-0.2c0-0.2,0.2-0.3,0.3-0.4c0.1,0,0.1,0,0.2-0.1C245.2,30.5,245.2,30.5,245.2,30.5
	L245.2,30.5L245.2,30.5z"/>
<path id="ic-events1" class="st1" d="M260,152.8c0.2,0,0.4,0,0.5,0c0.4,0.1,0.8,0.1,1.2,0.3c0.5,0.2,1,0.5,1.5,0.8
	c0.7,0.6,1.3,1.4,1.7,2.3c0.2,0.4,0.3,0.8,0.3,1.3c0,0.2,0,0.4,0,0.5c0.1,5.7,0,5.4,0,11.1c0,0,0,0.1,0,0.1c0,0.1,0,0.2-0.1,0.2
	c0,0.1-0.1,0.1-0.2,0.2c-0.2,0.2-0.6,0.1-0.8-0.1c-0.1-0.1-0.1-0.2-0.2-0.3c0-0.1,0-0.1,0-0.2c0-5.6,0.1-5.4,0-11
	c0-0.5-0.1-1-0.3-1.4c-0.4-1.1-1.3-2-2.4-2.4c-0.4-0.2-0.9-0.2-1.3-0.2c-7.1-0.1-14.2-0.1-21.3,0c-0.4,0-0.9,0.1-1.3,0.2
	c-1.1,0.4-2,1.3-2.5,2.5c-0.2,0.4-0.2,0.9-0.2,1.3c-0.1,5.6,0,5.4,0,11c0,0,0,0.1,0,0.1c0,0.1,0,0.2-0.1,0.2c0,0.1-0.1,0.1-0.2,0.2
	c-0.2,0.2-0.6,0.1-0.8-0.1c-0.1-0.1-0.1-0.2-0.2-0.3c0-0.1,0-0.1,0-0.2v-10.9c0-0.2,0-0.4,0-0.5c0-0.4,0.1-0.9,0.3-1.3
	c0.3-0.9,0.9-1.8,1.7-2.4c0.4-0.3,0.9-0.6,1.5-0.8c0.4-0.1,0.8-0.2,1.2-0.3c0.2,0,0.4,0,0.5,0C245.8,152.7,252.9,152.7,260,152.8
	L260,152.8L260,152.8z M249.3,166.7c0.5,0,0.9,0.4,0.9,0.9s-0.4,0.9-0.9,0.9c-0.5,0-0.9-0.4-0.9-0.9
	C248.5,167.1,248.9,166.7,249.3,166.7z M249.3,161.5c0.5,0,0.9,0.4,0.9,0.9c0,0.5-0.4,0.9-0.9,0.9c-0.5,0-0.9-0.4-0.9-0.9
	C248.5,161.8,248.9,161.5,249.3,161.5z M249.3,158.6c-1.4,0.7-2.7,1.4-4.1,2.1c-0.1,0-0.1,0-0.2,0c-0.2,0-0.3-0.1-0.4-0.3
	c0,0,0-0.1,0-0.2c0-1.4,0-2.9,0-4.3c0,0,0-0.1,0-0.1c0.1-0.1,0.2-0.2,0.3-0.3c0,0,0.1,0,0.1,0c0.1,0,0.1,0,0.2,0
	c1.4,0.6,2.8,1.3,4.1,2.1c1.4-0.7,2.7-1.4,4.1-2.1c0.1,0,0.1,0,0.2,0c0.2,0,0.3,0.1,0.4,0.3c0,0,0,0.1,0,0.1c0,1.4,0,2.9,0,4.3
	c0,0.1,0,0.1-0.1,0.2c-0.1,0.1-0.2,0.2-0.4,0.2c-0.1,0-0.1,0-0.2,0C252.1,160,250.7,159.3,249.3,158.6L249.3,158.6L249.3,158.6z
	 M250.3,158.1l2.9,1.4v-2.9C252.2,157.1,251.3,157.6,250.3,158.1L250.3,158.1z M245.5,159.5l2.9-1.4l-2.9-1.4V159.5L245.5,159.5z
	 M249.5,126.3c0.5,0,1,0,1.5,0.1c1.2,0.2,2.3,0.5,3.4,1c1.4,0.6,2.6,1.5,3.6,2.6c1,1,1.8,2.2,2.3,3.5c0.5,1.1,0.8,2.4,0.9,3.6
	c0.1,1.3,0.1,2.7-0.2,4c-0.2,1.1-0.6,2.1-1.1,3c-0.7,1.4-1.7,2.6-2.9,3.6c-0.9,0.8-2,1.4-3.1,1.9c-1.4,0.6-3,0.9-4.6,0.9
	c-1.6,0-3.1-0.3-4.6-0.9c-1.1-0.5-2.2-1.1-3.1-1.9c-1.2-1-2.2-2.2-2.9-3.6c-0.5-1-0.9-2-1.1-3c-0.3-1.3-0.4-2.6-0.2-4
	c0.1-1.2,0.4-2.5,0.9-3.6c0.6-1.3,1.4-2.5,2.3-3.5c1-1.1,2.3-2,3.6-2.6c1.1-0.5,2.2-0.8,3.4-1c0.5-0.1,1-0.1,1.5-0.1
	C249.3,126.3,249.3,126.3,249.5,126.3L249.5,126.3L249.5,126.3z M249.2,127.5c-0.5,0-0.9,0-1.4,0.1c-1.1,0.1-2.1,0.5-3.1,0.9
	c-1.2,0.6-2.3,1.4-3.3,2.4c-0.9,0.9-1.6,2-2.1,3.2c-0.5,1-0.7,2.1-0.9,3.2c-0.1,1.2,0,2.4,0.2,3.6c0.2,1,0.6,1.9,1,2.7
	c0.7,1.2,1.6,2.3,2.7,3.2c0.8,0.7,1.8,1.3,2.8,1.7c1.3,0.5,2.7,0.8,4.1,0.8s2.8-0.3,4.1-0.8c1-0.4,2-1,2.8-1.7c1.1-0.9,2-2,2.7-3.2
	c0.5-0.9,0.8-1.8,1-2.7c0.3-1.2,0.3-2.4,0.2-3.6c-0.1-1.1-0.4-2.2-0.9-3.2c-0.5-1.2-1.2-2.2-2.1-3.2c-0.9-1-2.1-1.8-3.3-2.4
	c-1-0.5-2-0.8-3.1-0.9c-0.5-0.1-0.9-0.1-1.4-0.1C249.3,127.5,249.3,127.5,249.2,127.5z M245.2,130.5c0.1,0,0.1,0,0.1,0
	c0.1,0,0.2,0.1,0.3,0.2c0.1,0.1,0.1,0.2,0.2,0.3c0.8,1,1.8,1.8,2.9,2.4c0.5,0.3,1.1,0.6,1.6,0.9c1.4,0.7,2.9,1.2,4.5,1.5
	c1,0.2,2,0.3,3,0.3l0.1,0c0.1,0,0.1,0,0.1,0c0.1,0,0.2,0.1,0.2,0.2c0,0,0.1,0.1,0.1,0.2c0.1,0.3,0,0.6-0.2,0.7
	c-0.1,0.1-0.2,0.1-0.3,0.1c-0.1,0-0.1,0-0.3,0c-1.4-0.1-2.8-0.3-4.2-0.6c-2.2-0.6-4.4-1.5-6.2-2.9c-0.4-0.3-0.8-0.6-1.2-1l-0.1-0.1
	l0,0c0,0.1,0,0.2-0.1,0.2c-0.1,0.2-0.1,0.4-0.2,0.5c-0.3,0.7-0.8,1.2-1.3,1.7c-0.5,0.4-1,0.8-1.5,1.2c-0.5,0.3-1,0.6-1.5,0.8l-0.1,0
	c-0.1,0-0.2,0.1-0.3,0.1c-0.3,0-0.5-0.3-0.5-0.6c0-0.1,0-0.1,0-0.2c0-0.1,0.1-0.2,0.2-0.3c0,0,0.1,0,0.1-0.1
	c0.1-0.1,0.2-0.1,0.4-0.2c0.3-0.2,0.6-0.3,0.9-0.5c0.2-0.2,0.5-0.3,0.7-0.5c0.2-0.1,0.3-0.3,0.5-0.4c0.1-0.1,0.3-0.2,0.4-0.4
	c0.6-0.6,1.2-1.4,1.2-2.4c0-0.2,0-0.4-0.1-0.6l0-0.1c0-0.1,0-0.1,0-0.2c0-0.2,0.2-0.3,0.3-0.4c0.1,0,0.1,0,0.2-0.1
	C245.2,130.5,245.2,130.5,245.2,130.5L245.2,130.5L245.2,130.5z"/>
<path id="Baby" class="st0" d="M171.1,55.6c0,0.1-0.1,0.3-0.2,0.4c-0.1,0.1-0.3,0.2-0.5,0.3c-0.2,0.1-0.4,0.1-0.7,0.1
	c-0.3,0-0.5,0-0.8-0.1s-0.6-0.2-1.1-0.4l-0.5-0.2v12.6c0,0.9-0.3,1.8-0.9,2.3c-0.6,0.6-1.4,1-2.3,1c-0.5,0-0.9-0.1-1.4-0.3
	c-0.4-0.2-0.7-0.5-1.1-0.9l-0.2-0.3l-0.2,0.3c-0.6,0.7-1.4,1.2-2.4,1.2c-0.9,0-1.7-0.4-2.3-1c-0.6-0.6-0.9-1.4-0.9-2.3V55.8
	l-0.5,0.2c-0.4,0.1-0.8,0.3-1.1,0.4c-0.3,0.1-0.6,0.1-0.9,0.1c-0.3,0-0.6,0-0.9-0.1c-0.2-0.1-0.5-0.2-0.6-0.3
	c-0.1-0.2-0.2-0.4-0.3-0.6c0-0.2-0.1-0.4-0.1-0.7c0-0.2,0-0.4,0-0.6V54c0-0.2,0-0.3,0-0.5c0-0.1,0-0.3,0-0.4v-5.6
	c0-2.3,0.6-3.9,1.5-4.8c0.4-0.4,1.1-0.8,1.8-1c0.7-0.2,1.5-0.3,2.5-0.3l0.8,0l-0.6-0.5c-1.2-1.1-1.9-2.7-1.9-4.5
	c0-2.4,1.4-4.5,3.4-5.5l0.4-0.2l-0.3-0.3c-0.5-0.5-0.8-1.3-0.8-2.1h1.1c0,1.1,0.8,1.9,1.9,2h0.5c1.7,0,3.2,0.7,4.3,1.8
	c1.1,1.1,1.8,2.6,1.8,4.4c0,1.8-0.8,3.4-2,4.5l-0.6,0.5l0.8,0c0.9,0,1.7,0.1,2.3,0.3c0.6,0.2,1.2,0.5,1.6,1c0.4,0.4,0.8,1,0.9,1.8
	c0.2,0.8,0.2,1.8,0.2,3v5.6c0,0.2,0.1,0.4,0.1,0.6c0,0.1,0.1,0.3,0.1,0.4c0,0.3,0,0.6,0,0.9C171.2,55.3,171.2,55.4,171.1,55.6
	L171.1,55.6L171.1,55.6z M162,68.4c0,0.6,0.2,1.2,0.6,1.6c0.4,0.4,0.9,0.7,1.5,0.7c0.6,0,1.2-0.2,1.5-0.7c0.4-0.4,0.6-1,0.6-1.6
	V56.9l-0.6,0.6c-0.4,0.4-0.9,0.8-1.4,1.1c-0.5,0.3-1.1,0.5-2,0.6l-0.3,0L162,68.4L162,68.4z M156.7,68.4c0,0.6,0.2,1.2,0.6,1.6
	c0.4,0.4,0.9,0.7,1.5,0.7c0.6,0,1.2-0.2,1.5-0.7c0.4-0.4,0.6-1,0.6-1.6v-9.2l-0.3,0c-0.8-0.1-1.4-0.3-2-0.6
	c-0.5-0.3-0.9-0.7-1.4-1.1l-0.6-0.6C156.7,56.9,156.7,68.4,156.7,68.4L156.7,68.4z M156.5,54.1c0.1,0.9,0.4,2,1.2,2.8
	c0.8,0.8,2,1.4,3.7,1.4c1.8,0,2.9-0.5,3.7-1.4c0.8-0.8,1.1-1.9,1.2-2.8l0-0.4h-9.9L156.5,54.1z M164.9,39.6c0.9-0.9,1.4-2.1,1.4-3.5
	c0-1.4-0.6-2.6-1.5-3.5c-0.9-0.9-2.2-1.4-3.5-1.4c-1.4,0-2.7,0.5-3.5,1.4c-0.9,0.9-1.5,2.2-1.5,3.5c0,1.4,0.6,2.6,1.4,3.5
	c0.9,0.9,2.2,1.4,3.5,1.4h0C162.8,41,164.1,40.5,164.9,39.6L164.9,39.6L164.9,39.6z M170.2,54.8l-0.1-0.3c0-0.1,0-0.2,0-0.2
	c0-0.2-0.1-0.4-0.1-0.6c0-0.2-0.1-0.3-0.1-0.5v-5.6c0-1,0-1.8-0.1-2.4c-0.1-0.6-0.3-1.2-0.7-1.6c-0.5-0.5-1.2-0.7-1.9-0.9
	c-0.8-0.1-1.7-0.1-2.8-0.1h-5.5c-1.1,0-2.1,0-3,0.1c-0.8,0.1-1.5,0.4-2,0.9c-0.8,0.7-1.3,2.1-1.3,4v5.7c0,0.2,0,0.4,0.1,0.6
	c0,0.2,0,0.3,0,0.4v0.1c0,0.2,0,0.3,0.1,0.5l0,0.1v0.3l0.3,0h0.3c0.6,0,1.2-0.2,1.6-0.6c0.4-0.4,0.8-1,0.8-1.6v-5.6
	c0-0.3,0.2-0.5,0.5-0.5c0.3,0,0.5,0.2,0.5,0.5v5.1h9.5v-5.1c0-0.3,0.2-0.5,0.5-0.5c0.3,0,0.5,0.2,0.5,0.5v5.6c0,0.6,0.3,1.2,0.7,1.6
	c0.4,0.4,1,0.6,1.6,0.6h0.3l0.3,0V55C170.2,54.9,170.2,54.8,170.2,54.8L170.2,54.8L170.2,54.8z M148.8,67.1L148.8,67.1l-0.7,1l0,0.1
	l-2.6,2.6c-0.6,0.6-1.4,1-2.4,1c-0.9,0-1.7-0.3-2.4-1c-0.6-0.6-1-1.5-1-2.3c0-0.9,0.3-1.7,1-2.4v0l0.2-0.2l-2.2-2.2l-0.2,0
	c-0.5,0.1-1.2,0.3-2,0.3c-0.9,0-1.6-0.1-2.3-0.3l-0.2,0l-2.3,2.3l0.2,0.2c0.6,0.6,1,1.5,1,2.4c0,0.9-0.3,1.7-1,2.3
	c-0.6,0.6-1.5,1-2.4,1s-1.7-0.3-2.4-1l-3.2-3.6c0,0-0.1-0.1-0.1-0.1c-0.1-0.4-0.2-0.8-0.2-1.3c0-0.9,0.3-1.7,1-2.3l2.6-2.6l-0.5-0.1
	c-0.1-0.1-0.2-0.3-0.3-0.5c0-0.2-0.1-0.4-0.1-0.7c0-0.2,0-0.4,0-0.6v-0.1c0-0.3-0.1-0.6-0.1-0.9v-5.7c0-2.3,0.6-3.9,1.5-4.8
	c0.5-0.4,1.1-0.8,1.8-1c0.7-0.2,1.5-0.3,2.5-0.3l0.8,0l-0.6-0.5c-1.2-1.1-1.9-2.7-1.9-4.5c0-2.4,1.4-4.6,3.5-5.6l0.4-0.2l-0.3-0.3
	c-0.5-0.5-0.8-1.2-0.8-2c0-0.7,0.3-1.3,0.7-1.8c0.4-0.4,1.1-0.7,1.8-0.7c0.6,0,1.1,0.2,1.5,0.6c0.4,0.4,0.6,0.9,0.6,1.5
	c0,0.3-0.2,0.5-0.5,0.5c-0.3,0-0.5-0.2-0.5-0.5c0-0.6-0.5-1-1.1-1c-0.8,0-1.4,0.6-1.4,1.5c0,1.1,0.8,1.9,1.9,2h0.3
	c1.7,0,3.2,0.7,4.3,1.8c1.1,1.1,1.8,2.6,1.8,4.4c0,1.8-0.8,3.4-2,4.5l-0.6,0.5l0.8,0c0.9,0,1.7,0.1,2.3,0.3c0.7,0.2,1.2,0.5,1.6,1
	c0.4,0.4,0.8,1,1,1.8c0.2,0.8,0.3,1.8,0.3,3v5.6c0,0.2,0,0.4,0.1,0.6c0,0.1,0.1,0.3,0.1,0.4c0,0.4,0.1,0.8,0.1,1.1
	c0,0.3,0,0.5-0.2,0.8l-0.1,0.1l-0.3,0.2l2.4,2.4c0.6,0.6,1,1.5,1,2.4C149.1,66.2,149,66.6,148.8,67.1L148.8,67.1L148.8,67.1z
	 M136.6,62.7c1.8,0,3-0.5,3.7-1.4c0.8-0.8,1.1-1.9,1.2-2.8l0-0.4h-9.9l0,0.4c0.1,0.9,0.4,2,1.2,2.8
	C133.6,62.1,134.9,62.7,136.6,62.7L136.6,62.7L136.6,62.7z M125.6,64.2c-0.4,0.4-0.7,1-0.7,1.6c0,0.2,0,0.5,0.1,0.7v0l3.1,3.5
	c0.4,0.4,1,0.6,1.5,0.6c0.6,0,1.2-0.2,1.6-0.7c0.4-0.4,0.7-1,0.7-1.6c0-0.6-0.2-1.2-0.7-1.6l-0.6-0.6c-0.1-0.1-0.1-0.2-0.1-0.4
	c0-0.1,0-0.3,0.1-0.4l2.4-2.4l-0.3-0.2c-0.8-0.6-1.4-1.5-1.7-2.4l-0.2-0.4l-0.3,0.3c-0.5,0.4-1.1,0.7-1.7,0.8h-0.1l-0.1,0.1
	C128.5,61.2,125.6,64.2,125.6,64.2C125.6,64.2,125.6,64.2,125.6,64.2z M140.2,44.8c0.9-0.9,1.4-2.3,1.4-3.6c0-1.4-0.6-2.7-1.4-3.7
	c-0.9-0.9-2.2-1.6-3.6-1.6c-2.8,0-5,2.3-5,5.1c0,1.4,0.6,2.7,1.4,3.7c0.9,1,2.2,1.6,3.5,1.6h0C138,46.4,139.3,45.8,140.2,44.8
	L140.2,44.8z M145.3,59.2c0-0.1,0-0.2,0-0.3c0-0.2-0.1-0.4-0.1-0.6c0-0.2-0.1-0.3-0.1-0.5v-5.7c0-1,0-1.8-0.1-2.4
	c-0.1-0.6-0.3-1.2-0.7-1.6c-0.5-0.5-1.2-0.7-2-0.9c-0.8-0.1-1.7-0.1-2.9-0.1h-5.4c-1.2,0-2.1,0-3,0.1c-0.8,0.1-1.5,0.4-2,0.9
	c-0.8,0.7-1.2,2.1-1.2,4v5.6c0,0.2,0,0.4,0,0.6c0,0.2,0,0.3,0,0.4v0.1c0,0.2,0,0.3,0.1,0.5c0,0.1,0,0.2,0,0.2v0.3l0.3,0h0.3
	c0.6,0,1.2-0.2,1.7-0.6c0.4-0.4,0.8-1,0.8-1.6v-5.6c0-0.3,0.2-0.5,0.5-0.5c0.3,0,0.5,0.2,0.5,0.5V57h9.5v-4.9c0-0.3,0.2-0.5,0.5-0.5
	c0.3,0,0.5,0.2,0.5,0.5v5.6c0,1.3,1.1,2.3,2.3,2.3h0.2l0.3,0v-0.3C145.4,59.5,145.4,59.4,145.3,59.2L145.3,59.2L145.3,59.2z
	 M147.3,64.2l-2.9-3l0-0.1l0-0.1h-0.1c-0.5-0.1-1-0.4-1.4-0.7l-0.3-0.3l-0.2,0.4c-0.4,0.9-1,1.9-1.9,2.5l-0.3,0.2l2.3,2.3
	c0.1,0.1,0.1,0.2,0.1,0.4c0,0.1,0,0.3-0.1,0.4l-0.6,0.6c-0.4,0.4-0.7,1-0.7,1.6c0,0.6,0.2,1.2,0.7,1.6c0.4,0.4,1,0.7,1.6,0.7
	c0.6,0,1.2-0.2,1.6-0.7l2.6-2.6l0.5-0.8v0c0.1-0.2,0.1-0.5,0.1-0.8C148,65.2,147.7,64.6,147.3,64.2L147.3,64.2L147.3,64.2z"/>
<path id="Baby1" class="st1" d="M171.1,155.6c0,0.1-0.1,0.3-0.2,0.4c-0.1,0.1-0.3,0.2-0.5,0.3c-0.2,0.1-0.4,0.1-0.7,0.1
	c-0.3,0-0.5,0-0.8-0.1s-0.6-0.2-1.1-0.4l-0.5-0.2v12.6c0,0.9-0.3,1.8-0.9,2.4c-0.6,0.6-1.4,1-2.3,1c-0.5,0-0.9-0.1-1.4-0.3
	c-0.4-0.2-0.7-0.5-1.1-0.9l-0.2-0.3l-0.2,0.3c-0.6,0.7-1.4,1.2-2.4,1.2c-0.9,0-1.7-0.4-2.3-1c-0.6-0.6-0.9-1.4-0.9-2.4v-12.6
	l-0.5,0.2c-0.4,0.1-0.8,0.3-1.1,0.4c-0.3,0.1-0.6,0.1-0.9,0.1c-0.3,0-0.6,0-0.9-0.1c-0.2-0.1-0.5-0.2-0.6-0.3
	c-0.1-0.2-0.2-0.4-0.3-0.6c0-0.2-0.1-0.4-0.1-0.7c0-0.2,0-0.4,0-0.6V154c0-0.2,0-0.3,0-0.5c0-0.1,0-0.3,0-0.4v-5.6
	c0-2.4,0.6-3.9,1.5-4.8c0.4-0.4,1.1-0.8,1.8-1c0.7-0.2,1.5-0.3,2.5-0.3l0.8,0l-0.6-0.5c-1.2-1.1-1.9-2.7-1.9-4.5
	c0-2.4,1.4-4.5,3.4-5.5l0.4-0.2l-0.3-0.3c-0.5-0.5-0.8-1.3-0.8-2.1h1.1c0,1.1,0.8,1.9,1.9,2h0.5c1.7,0,3.2,0.7,4.3,1.8
	c1.1,1.1,1.8,2.6,1.8,4.4c0,1.8-0.8,3.4-2,4.5l-0.6,0.5l0.8,0c0.9,0,1.7,0.1,2.3,0.3c0.6,0.2,1.2,0.5,1.6,1c0.4,0.4,0.8,1,0.9,1.8
	c0.2,0.8,0.2,1.8,0.2,3v5.6c0,0.2,0.1,0.4,0.1,0.6c0,0.1,0.1,0.3,0.1,0.4c0,0.3,0,0.6,0,0.9C171.2,155.3,171.2,155.4,171.1,155.6
	L171.1,155.6L171.1,155.6z M162,168.4c0,0.6,0.2,1.2,0.6,1.6c0.4,0.4,0.9,0.7,1.5,0.7c0.6,0,1.2-0.2,1.5-0.7c0.4-0.4,0.6-1,0.6-1.6
	v-11.5l-0.6,0.6c-0.4,0.4-0.9,0.8-1.4,1.1c-0.5,0.3-1.1,0.5-2,0.6l-0.3,0L162,168.4L162,168.4z M156.7,168.4c0,0.6,0.2,1.2,0.6,1.6
	c0.4,0.4,0.9,0.7,1.5,0.7c0.6,0,1.2-0.2,1.5-0.7c0.4-0.4,0.6-1,0.6-1.6v-9.2l-0.3,0c-0.8-0.1-1.4-0.3-2-0.6s-0.9-0.7-1.4-1.1
	l-0.6-0.6C156.7,156.9,156.7,168.4,156.7,168.4L156.7,168.4L156.7,168.4z M156.5,154.1c0.1,0.9,0.4,2,1.2,2.8c0.8,0.8,2,1.4,3.7,1.4
	c1.8,0,2.9-0.5,3.7-1.4c0.8-0.8,1.1-1.9,1.2-2.8l0-0.4h-9.9L156.5,154.1z M164.9,139.6c0.9-0.9,1.4-2.1,1.4-3.5s-0.6-2.6-1.5-3.5
	c-0.9-0.9-2.2-1.4-3.5-1.4c-1.4,0-2.7,0.5-3.5,1.4c-0.9,0.9-1.5,2.2-1.5,3.5c0,1.4,0.6,2.6,1.4,3.5c0.9,0.9,2.2,1.4,3.5,1.4h0
	C162.8,141,164.1,140.5,164.9,139.6L164.9,139.6z M170.2,154.8l-0.1-0.3c0-0.1,0-0.2,0-0.2c0-0.2-0.1-0.4-0.1-0.6s-0.1-0.3-0.1-0.5
	v-5.6c0-1,0-1.8-0.1-2.4c-0.1-0.6-0.3-1.2-0.7-1.6c-0.5-0.5-1.2-0.7-1.9-0.9c-0.8-0.1-1.7-0.1-2.8-0.1h-5.5c-1.1,0-2.1,0-3,0.1
	c-0.8,0.1-1.5,0.4-2,0.9c-0.8,0.7-1.3,2.1-1.3,4v5.7c0,0.2,0,0.4,0.1,0.6c0,0.2,0,0.3,0,0.4v0.1c0,0.2,0,0.3,0.1,0.5l0,0.1v0.3
	l0.3,0h0.3c0.6,0,1.2-0.2,1.6-0.6c0.4-0.4,0.8-1,0.8-1.6v-5.6c0-0.3,0.2-0.5,0.5-0.5c0.3,0,0.5,0.2,0.5,0.5v5.1h9.5v-5.1
	c0-0.3,0.2-0.5,0.5-0.5c0.3,0,0.5,0.2,0.5,0.5v5.6c0,0.6,0.3,1.2,0.7,1.6s1,0.6,1.6,0.6h0.3l0.3,0V155
	C170.2,154.9,170.2,154.8,170.2,154.8L170.2,154.8L170.2,154.8z M148.8,167.1L148.8,167.1l-0.7,1l0,0.1l-2.6,2.6
	c-0.6,0.6-1.4,1-2.4,1c-0.9,0-1.7-0.3-2.4-1c-0.6-0.6-1-1.5-1-2.4c0-0.9,0.3-1.7,1-2.4v0l0.2-0.2l-2.2-2.2l-0.2,0
	c-0.5,0.1-1.2,0.3-2,0.3c-0.9,0-1.6-0.1-2.3-0.3l-0.2,0l-2.3,2.3l0.2,0.2c0.6,0.6,1,1.5,1,2.4c0,0.9-0.3,1.7-1,2.4
	c-0.6,0.6-1.5,1-2.4,1s-1.7-0.3-2.4-1l-3.2-3.6c0,0-0.1-0.1-0.1-0.1c-0.1-0.4-0.2-0.8-0.2-1.3c0-0.9,0.3-1.7,1-2.4l2.6-2.6l-0.5-0.1
	c-0.1-0.1-0.2-0.3-0.3-0.5c0-0.2-0.1-0.4-0.1-0.7c0-0.2,0-0.4,0-0.6v-0.1c0-0.3-0.1-0.6-0.1-0.9v-5.7c0-2.4,0.6-3.9,1.5-4.8
	c0.5-0.4,1.1-0.8,1.8-1c0.7-0.2,1.5-0.3,2.5-0.3l0.8,0l-0.6-0.5c-1.2-1.1-1.9-2.7-1.9-4.5c0-2.4,1.4-4.6,3.5-5.6l0.4-0.2l-0.3-0.3
	c-0.5-0.5-0.8-1.2-0.8-2c0-0.7,0.3-1.3,0.7-1.8c0.4-0.4,1.1-0.7,1.8-0.7c0.6,0,1.1,0.2,1.5,0.6c0.4,0.4,0.6,0.9,0.6,1.5
	c0,0.3-0.2,0.5-0.5,0.5c-0.3,0-0.5-0.2-0.5-0.5c0-0.6-0.5-1-1.1-1c-0.8,0-1.4,0.6-1.4,1.5c0,1.1,0.8,1.9,1.9,2h0.3
	c1.7,0,3.2,0.7,4.3,1.8c1.1,1.1,1.8,2.6,1.8,4.4c0,1.8-0.8,3.4-2,4.5l-0.6,0.5l0.8,0c0.9,0,1.7,0.1,2.3,0.3c0.7,0.2,1.2,0.5,1.6,1
	c0.4,0.4,0.8,1,1,1.8c0.2,0.8,0.3,1.8,0.3,3v5.6c0,0.2,0,0.4,0.1,0.6c0,0.1,0.1,0.3,0.1,0.4c0,0.4,0.1,0.8,0.1,1.1
	c0,0.3,0,0.5-0.2,0.8l-0.1,0.1l-0.3,0.2l2.4,2.4c0.6,0.6,1,1.5,1,2.4C149.1,166.2,149,166.6,148.8,167.1L148.8,167.1L148.8,167.1z
	 M136.6,162.7c1.8,0,3-0.5,3.7-1.4c0.8-0.8,1.1-1.9,1.2-2.8l0-0.4h-9.9l0,0.4c0.1,0.9,0.4,2,1.2,2.8
	C133.6,162.1,134.9,162.7,136.6,162.7L136.6,162.7L136.6,162.7z M125.6,164.2c-0.4,0.4-0.7,1-0.7,1.6c0,0.2,0,0.5,0.1,0.7v0l3.1,3.5
	c0.4,0.4,1,0.6,1.5,0.6c0.6,0,1.2-0.2,1.6-0.7c0.4-0.4,0.7-1,0.7-1.6c0-0.6-0.2-1.2-0.7-1.6l-0.6-0.6c-0.1-0.1-0.1-0.2-0.1-0.4
	s0-0.3,0.1-0.4l2.4-2.4l-0.3-0.2c-0.8-0.6-1.4-1.5-1.7-2.4l-0.2-0.4l-0.3,0.3c-0.5,0.4-1.1,0.7-1.7,0.8h-0.1l-0.1,0.1
	C128.5,161.2,125.6,164.2,125.6,164.2L125.6,164.2L125.6,164.2z M140.2,144.8c0.9-0.9,1.4-2.3,1.4-3.6c0-1.4-0.6-2.7-1.4-3.7
	c-0.9-0.9-2.2-1.6-3.6-1.6c-2.8,0-5,2.4-5,5.1c0,1.4,0.6,2.7,1.4,3.7c0.9,1,2.2,1.6,3.5,1.6h0C138,146.4,139.3,145.8,140.2,144.8
	L140.2,144.8z M145.3,159.2c0-0.1,0-0.2,0-0.3c0-0.2-0.1-0.4-0.1-0.6c0-0.2-0.1-0.3-0.1-0.5v-5.7c0-1,0-1.8-0.1-2.4
	c-0.1-0.6-0.3-1.2-0.7-1.6c-0.5-0.5-1.2-0.7-2-0.9c-0.8-0.1-1.7-0.1-2.9-0.1h-5.4c-1.2,0-2.1,0-3,0.1c-0.8,0.1-1.5,0.4-2,0.9
	c-0.8,0.7-1.2,2.1-1.2,4v5.6c0,0.2,0,0.4,0,0.6c0,0.2,0,0.3,0,0.4v0.1c0,0.2,0,0.3,0.1,0.5s0,0.2,0,0.2v0.3l0.3,0h0.3
	c0.6,0,1.2-0.2,1.7-0.6c0.4-0.4,0.8-1,0.8-1.6v-5.6c0-0.3,0.2-0.5,0.5-0.5c0.3,0,0.5,0.2,0.5,0.5v4.9h9.5v-4.9
	c0-0.3,0.2-0.5,0.5-0.5c0.3,0,0.5,0.2,0.5,0.5v5.6c0,1.3,1.1,2.3,2.3,2.3h0.2l0.3,0v-0.3C145.4,159.5,145.4,159.4,145.3,159.2
	L145.3,159.2L145.3,159.2z M147.3,164.2l-2.9-3l0-0.1l0-0.1h-0.1c-0.5-0.1-1-0.4-1.4-0.7l-0.3-0.3l-0.2,0.4c-0.4,0.9-1,1.9-1.9,2.5
	l-0.3,0.2l2.3,2.3c0.1,0.1,0.1,0.2,0.1,0.4s0,0.3-0.1,0.4l-0.6,0.6c-0.4,0.4-0.7,1-0.7,1.6c0,0.6,0.2,1.2,0.7,1.6
	c0.4,0.4,1,0.7,1.6,0.7c0.6,0,1.2-0.2,1.6-0.7l2.6-2.6l0.5-0.8v0c0.1-0.2,0.1-0.5,0.1-0.8C148,165.2,147.7,164.6,147.3,164.2
	L147.3,164.2z"/>
<path d="M41.4,65.2c-1.6,0-2.8-1.1-2.8-2.7c0-1.6,1.2-2.8,2.8-2.8c1.6,0,2.8,1.2,2.8,2.9C44.3,64.2,43,65.2,41.4,65.2
	C41.4,65.2,41.4,65.2,41.4,65.2z M41.5,60.9c-0.9,0-1.7,0.8-1.7,1.7c0,0.9,0.8,1.7,1.7,1.7c0.9,0,1.7-0.8,1.7-1.7
	C43.2,61.6,42.4,60.9,41.5,60.9z M47.5,58.4c-2.8,0-5.1-1.8-6.1-4.3c-6.3,0-11.1-4.5-11.1-10.8s4.9-10.7,10.6-10.7
	c1.9,0,3.9,0.6,5.6,1.5c2.6-3,6.1-5,10-5c7.5,0,13.2,5.5,13.1,12.9c0,7.5-5,12.5-12.8,13c-1.1,0.1-2.7-0.1-3.7-0.4
	C52.1,56.9,50.1,58.4,47.5,58.4L47.5,58.4z M41.6,53c0.4,0,0.9,0.3,0.9,0.6c0.6,2.2,2.6,3.6,4.9,3.6c2.1,0,4-1.4,4.8-3.4
	c0.2-0.4,0.6-0.6,1-0.5c1.1,0.3,2.3,0.5,3.5,0.5c6.6,0,11.9-5.3,11.9-11.8c0-6.5-5.3-11.8-11.9-11.8c-3.7,0-7.2,1.7-9.4,4.6
	c-0.3,0.3-0.8,0.4-1.1,0.2c-1.5-0.9-3.3-1.5-5.2-1.5c-5.4,0-9.7,4.4-9.7,9.7c0,5.4,4.4,9.7,9.7,9.7c0.2,0,0.3,0,0.5,0
	C41.5,53,41.6,53,41.6,53z M48,63.7C48,63.7,48,63.7,48,63.7C48,63.7,48,63.7,48,63.7C48,63.6,48,63.6,48,63.7
	C48,63.6,48,63.6,48,63.7z M33.9,68.9c-1.3,0-2.3-1-2.3-2.3c0-1.3,1-2.3,2.3-2.3c1.3,0,2.3,1,2.3,2.3C36.2,67.9,35.2,68.9,33.9,68.9
	z M33.9,65.5c-0.6,0-1.2,0.5-1.2,1.2c0,0.6,0.5,1.2,1.2,1.2c0.6,0,1.2-0.5,1.2-1.2C35.1,66,34.6,65.5,33.9,65.5z"/>
<path class="st1" d="M41.4,165.2c-1.6,0-2.8-1.1-2.8-2.7s1.2-2.8,2.8-2.8c1.6,0,2.8,1.2,2.8,2.9C44.3,164.2,43,165.2,41.4,165.2
	L41.4,165.2z M41.5,160.9c-0.9,0-1.7,0.8-1.7,1.7c0,0.9,0.8,1.7,1.7,1.7c0.9,0,1.7-0.8,1.7-1.7C43.2,161.6,42.4,160.9,41.5,160.9z
	 M47.5,158.4c-2.8,0-5.1-1.8-6.1-4.3c-6.3,0-11.1-4.5-11.1-10.8c0-6.3,4.9-10.7,10.6-10.7c1.9,0,3.9,0.6,5.6,1.5c2.6-3,6.1-5,10-5
	c7.5,0,13.2,5.5,13.1,12.9c0,7.5-5,12.5-12.8,13c-1.1,0.1-2.7-0.1-3.7-0.4C52.1,156.9,50.1,158.4,47.5,158.4L47.5,158.4L47.5,158.4z
	 M41.6,153c0.4,0,0.9,0.3,0.9,0.6c0.6,2.2,2.6,3.6,4.9,3.6c2.1,0,4-1.4,4.8-3.4c0.2-0.4,0.6-0.6,1-0.5c1.1,0.3,2.3,0.5,3.5,0.5
	c6.6,0,11.9-5.3,11.9-11.8c0-6.5-5.3-11.8-11.9-11.8c-3.7,0-7.2,1.7-9.4,4.6c-0.3,0.3-0.8,0.4-1.1,0.2c-1.5-0.9-3.3-1.5-5.2-1.5
	c-5.4,0-9.7,4.4-9.7,9.7c0,5.4,4.4,9.7,9.7,9.7c0.2,0,0.3,0,0.5,0L41.6,153L41.6,153z M48,163.7C48,163.7,48,163.7,48,163.7
	C48,163.7,48,163.7,48,163.7C48,163.6,48,163.6,48,163.7C48,163.6,48,163.6,48,163.7z M33.9,168.9c-1.3,0-2.3-1-2.3-2.3
	c0-1.3,1-2.3,2.3-2.3c1.3,0,2.3,1,2.3,2.3C36.2,167.9,35.2,168.9,33.9,168.9z M33.9,165.5c-0.6,0-1.2,0.5-1.2,1.2
	c0,0.6,0.5,1.2,1.2,1.2c0.6,0,1.2-0.5,1.2-1.2S34.6,165.5,33.9,165.5z"/>
</svg>
