<?xml version="1.0" encoding="UTF-8" standalone="no"?>
<svg width="600px" height="100px" viewBox="0 0 600 100" version="1.1" xmlns="http://www.w3.org/2000/svg" xmlns:xlink="http://www.w3.org/1999/xlink">
    <!-- Generator: Sketch 3.8.3 (29802) - http://www.bohemiancoding.com/sketch -->
    <title>Task icons</title>
    <desc>Created with Sketch.</desc>
    <defs></defs>
    <g id="yepstr.com" stroke="none" stroke-width="1" fill="none" fill-rule="evenodd">
        <g id="Task-icons" fill="#FFFFFF">
            <g id="Group" transform="translate(25.000000, 28.000000)">
                <g id="Barnpassning-Copy">
                    <path d="M48.1143185,27.4178604 C48.0660368,27.5647418 47.9694732,27.7116231 47.8729097,27.8585045 C47.7280644,28.0053859 47.5832191,28.1033069 47.3900921,28.2012278 C47.196965,28.2991487 46.9555562,28.2991487 46.6658656,28.2991487 C46.3278932,28.2991487 46.1347662,28.2501883 45.8450756,28.1522673 C45.555385,28.0543464 45.2656944,27.907465 44.7828767,27.7605836 L44.3000591,27.5647418 L44.3000591,40.1965417 C44.3000591,41.1267905 43.9620867,41.9591184 43.3827055,42.546644 C42.8033243,43.1341696 42.0308161,43.5258533 41.1134625,43.5258533 C40.5823631,43.5258533 40.196109,43.4279324 39.7615731,43.1831301 C39.375319,42.9872882 39.0373466,42.6935254 38.6993743,42.3018417 L38.4579654,42.0080789 L38.2165566,42.3018417 C37.5888937,43.0362487 36.8163854,43.4768929 35.8024683,43.4768929 C34.8851148,43.4768929 34.1126066,43.0852091 33.5332254,42.4976836 C32.9538442,41.910158 32.6158718,41.0778301 32.6158718,40.1475812 L32.6158718,27.5647418 L32.1330542,27.7605836 C31.6985183,27.907465 31.3605459,28.0543464 31.0225736,28.1522673 C30.732883,28.2501883 30.4431924,28.2991487 30.10522,28.2991487 C29.8155294,28.2991487 29.4775571,28.2501883 29.2361483,28.1522673 C28.9947394,28.0543464 28.7533306,27.9564255 28.6567671,27.8095441 C28.5119218,27.6137022 28.4153582,27.4178604 28.3187947,27.2220185 C28.2705129,27.0261766 28.2222312,26.7813743 28.2222312,26.4876115 C28.2222312,26.2917697 28.2222312,26.0959278 28.2705129,25.9000859 L28.2705129,25.802165 C28.2705129,25.6063232 28.2222312,25.4594418 28.2222312,25.3125604 C28.1739494,25.165679 28.1739494,25.0187976 28.1739494,24.9208766 L28.1739494,19.3393836 C28.1739494,16.9892813 28.8016124,15.4715069 29.7189659,14.5412581 C30.1535018,14.1006139 30.7811647,13.7578906 31.5053912,13.5620488 C32.2296177,13.3662069 33.0504077,13.268286 33.9677613,13.2193255 L34.7885513,13.1703651 L34.2091701,12.6318 C33.002126,11.5057093 32.2778995,9.89001392 32.2778995,8.12743718 C32.2778995,5.7283744 33.6780707,3.6230744 35.6576231,2.64386511 L36.0438772,2.44802325 L35.7541866,2.10529999 C35.2713689,1.56673488 34.9333966,0.832327904 34.9333966,0.0489604649 L35.9955954,0.0489604649 C35.9955954,1.12609069 36.8163854,1.9584186 37.8785843,2.00737906 L38.3614019,2.00737906 C40.0512637,2.00737906 41.5479984,2.69282557 42.658479,3.81891626 C43.7689596,4.94500696 44.4449044,6.46278137 44.4449044,8.17639764 C44.4449044,9.93897438 43.6723961,11.5546697 42.465352,12.6807604 L41.8859708,13.2193255 L42.7067608,13.268286 C43.6241143,13.3172465 44.3966226,13.4151674 45.0242855,13.6110093 C45.6519485,13.8068511 46.1830479,14.1006139 46.6658656,14.5902185 C47.1004015,15.0308627 47.4383738,15.6183883 47.5832191,16.4017558 C47.7763462,17.1851232 47.8246279,18.1643325 47.8246279,19.3883441 L47.8246279,24.9698371 C47.8246279,25.2146394 47.9211915,25.4104813 47.9694732,25.6063232 C48.017755,25.7532046 48.0660368,25.9000859 48.0660368,25.9980069 C48.1143185,26.3407301 48.1143185,26.6344929 48.1143185,26.8792952 C48.1626003,27.0751371 48.1626003,27.2220185 48.1143185,27.4178604 L48.1143185,27.4178604 Z M39.0373466,40.2455022 C39.0373466,40.8330278 39.2304737,41.4205533 39.6167278,41.812237 C40.0029819,42.2528812 40.5340814,42.4976836 41.1617443,42.4976836 C41.7894073,42.4976836 42.3205067,42.2528812 42.7067608,41.812237 C43.0930149,41.4205533 43.286142,40.8330278 43.286142,40.2455022 L43.286142,28.7397929 L42.7067608,29.376279 C42.2722249,29.8169231 41.837689,30.2086069 41.3548714,30.5023697 C40.823772,30.7961324 40.2443908,30.9919743 39.375319,31.0898952 L39.0856284,31.1388557 L39.0856284,40.2455022 L39.0373466,40.2455022 Z M33.7263524,40.2455022 C33.7263524,40.8330278 33.9194795,41.4205533 34.3057336,41.812237 C34.6919877,42.2528812 35.2230872,42.4976836 35.8507501,42.4976836 C36.4784131,42.4976836 37.0095125,42.2528812 37.3957666,41.812237 C37.7820207,41.4205533 37.9751478,40.8330278 37.9751478,40.2455022 L37.9751478,31.0898952 L37.6854572,31.0409348 C36.8646672,30.9430138 36.2370042,30.747172 35.7059048,30.4534092 C35.1748054,30.1596464 34.7885513,29.7679627 34.3540154,29.3273185 L33.7746342,28.6908324 C33.7263524,28.7397929 33.7263524,40.2455022 33.7263524,40.2455022 L33.7263524,40.2455022 Z M33.4849436,25.9000859 C33.6297889,26.8303348 33.9194795,27.8585045 34.6919877,28.6908324 C35.464496,29.5231604 36.6715401,30.0617255 38.4096837,30.0617255 C40.196109,30.0617255 41.3548714,29.5231604 42.1273796,28.6908324 C42.8998879,27.8585045 43.1895785,26.8303348 43.3344238,25.9000859 L43.3827055,25.5084022 L33.4366618,25.5084022 L33.4849436,25.9000859 L33.4849436,25.9000859 Z M41.9342526,11.4077883 C42.8516061,10.5265 43.3827055,9.30248834 43.3827055,7.88263485 C43.3827055,6.46278137 42.8033243,5.23876975 41.8859708,4.35748138 C40.9686173,3.47619301 39.7132913,2.9376279 38.3614019,2.9376279 C36.9612307,2.9376279 35.7059048,3.47619301 34.836833,4.35748138 C33.9194795,5.23876975 33.3400983,6.51174184 33.3400983,7.88263485 C33.3400983,9.25352787 33.9194795,10.5265 34.7885513,11.4077883 C35.7059048,12.2890767 36.9612307,12.8276418 38.3131202,12.8276418 L38.3614019,12.8276418 C39.8098549,12.8276418 41.0651808,12.2890767 41.9342526,11.4077883 L41.9342526,11.4077883 Z M47.196965,26.5855325 L47.0521197,26.2917697 C47.0038379,26.1938487 47.0038379,26.0959278 47.0038379,26.0959278 C46.9555562,25.8511255 46.9072744,25.6552836 46.8589926,25.4594418 C46.8107109,25.2635999 46.7624291,25.1167185 46.7624291,24.9698371 L46.7624291,19.3393836 C46.7624291,18.3601743 46.7141473,17.5768069 46.6175838,16.8913604 C46.5210203,16.2548744 46.2796114,15.6673488 45.8933573,15.2756651 C45.4105397,14.7860604 44.734595,14.5412581 43.9620867,14.3943767 C43.1895785,14.2474953 42.2239432,14.2474953 41.1134625,14.2474953 L35.6093413,14.2474953 C34.4988607,14.2474953 33.4849436,14.2964558 32.6158718,14.3943767 C31.7950818,14.5412581 31.0708553,14.7860604 30.5880377,15.2756651 C29.8155294,16.010072 29.3327118,17.3320046 29.3327118,19.2904232 L29.3327118,24.9698371 C29.3327118,25.2146394 29.3809935,25.4104813 29.4292753,25.6063232 C29.4775571,25.802165 29.4775571,25.9490464 29.4775571,26.0469673 L29.4775571,26.1938487 C29.4775571,26.3896906 29.5258388,26.536572 29.5741206,26.6834534 L29.6224024,26.8303348 L29.6224024,27.173058 L29.912093,27.2220185 L30.2017836,27.2220185 C30.8294465,27.2220185 31.4088277,26.9772162 31.8433636,26.5855325 C32.2778995,26.1938487 32.6158718,25.6063232 32.6158718,24.9698371 L32.6158718,19.3393836 C32.6158718,19.0456209 32.8572807,18.8008185 33.1469713,18.8008185 C33.4366618,18.8008185 33.6780707,19.0456209 33.6780707,19.3393836 L33.6780707,24.431272 L43.1895785,24.431272 L43.1895785,19.3393836 C43.1895785,19.0456209 43.4309873,18.8008185 43.7206779,18.8008185 C44.0103685,18.8008185 44.2517773,19.0456209 44.2517773,19.3393836 L44.2517773,24.9698371 C44.2517773,25.6063232 44.5414679,26.1938487 44.9760038,26.5855325 C45.4105397,26.9772162 45.9899209,27.2220185 46.6175838,27.2220185 L46.9555562,27.2220185 L47.2452468,27.173058 L47.2452468,26.8303348 C47.2452468,26.7324139 47.2452468,26.6344929 47.196965,26.5855325 L47.196965,26.5855325 Z M25.8081429,38.8746092 L25.7598611,38.9725301 L25.1321982,39.9027789 L25.0839164,40.0006998 L22.4767011,42.5956045 C21.8490381,43.2320905 21.0282481,43.5748138 20.1108946,43.5748138 C19.2418228,43.5748138 18.372751,43.2320905 17.7450881,42.5956045 C17.1174251,41.9591184 16.7794528,41.1267905 16.7794528,40.2455022 C16.7794528,39.3642138 17.1174251,38.5318859 17.7450881,37.8953999 L17.7450881,37.8464394 L17.9864969,37.6016371 L15.8138175,35.3984161 L15.6206904,35.4473766 C15.089591,35.594258 14.4136463,35.7411394 13.641138,35.7411394 C12.7720662,35.7411394 11.999558,35.594258 11.371895,35.3984161 L11.178768,35.3494557 L8.909525,37.6505975 L9.15093383,37.8953999 C9.77859678,38.5318859 10.1165691,39.4131743 10.1165691,40.2455022 C10.1165691,41.1267905 9.77859678,41.9591184 9.15093383,42.5956045 C8.52327088,43.2320905 7.6541991,43.5748138 6.78512732,43.5748138 C5.91605555,43.5748138 5.09526553,43.2320905 4.41932082,42.5956045 L1.18444253,39.0214905 C1.13616077,38.9725301 1.087879,38.9235696 1.087879,38.8746092 C0.943033708,38.4829254 0.846470177,38.0422813 0.846470177,37.6016371 C0.846470177,36.7203487 1.18444253,35.8880208 1.81210549,35.2515347 L4.41932082,32.6076696 L3.93650316,32.4607882 C3.79165787,32.3139069 3.7433761,32.118065 3.64681257,31.9711836 C3.59853081,31.7753417 3.55024904,31.5305394 3.55024904,31.2857371 C3.55024904,31.0898952 3.55024904,30.8940534 3.59853081,30.649251 L3.59853081,30.5023697 C3.59853081,30.1596464 3.50196728,29.8658836 3.50196728,29.6210813 L3.50196728,23.9416674 C3.50196728,21.591565 4.08134846,20.0737906 5.04698377,19.1435418 C5.52980142,18.7028976 6.10918261,18.3601743 6.83340909,18.1643325 C7.55763557,17.9684906 8.37842558,17.8705697 9.29577913,17.8216092 L10.1165691,17.7726488 L9.53718795,17.2340837 C8.33014382,16.107993 7.60591734,14.4922976 7.60591734,12.7297209 C7.60591734,10.2816976 9.0543703,8.17639764 11.1304862,7.14822788 L11.5650221,6.95238602 L11.2753315,6.60966277 C10.7925139,6.07109765 10.5028233,5.38565114 10.5028233,4.6022837 C10.5028233,3.91683719 10.7925139,3.28035115 11.2270497,2.7907465 C11.6615856,2.35010232 12.2892486,2.05633953 13.0134751,2.05633953 C13.5928563,2.05633953 14.1239557,2.30114185 14.5102098,2.69282557 C14.8964639,3.08450929 15.1378727,3.6230744 15.1378727,4.21059998 C15.1378727,4.50436277 14.8964639,4.7491651 14.6067733,4.7491651 C14.3170827,4.7491651 14.0756739,4.50436277 14.0756739,4.21059998 C14.0756739,3.6230744 13.5928563,3.18243022 13.0134751,3.18243022 C12.2409668,3.18243022 11.5650221,3.81891626 11.5650221,4.65124417 C11.5650221,5.7283744 12.3858121,6.5607023 13.448011,6.60966277 L13.7859833,6.60966277 C15.4758451,6.60966277 16.9725798,7.29510927 18.0830604,8.42119997 C19.193541,9.54729066 19.8694858,11.0650651 19.8694858,12.7786813 C19.8694858,14.5412581 19.0969775,16.1569534 17.8899334,17.2830441 L17.3105522,17.8216092 L18.1313422,17.8705697 C19.0486957,17.9195302 19.821204,18.0174511 20.4488669,18.213293 C21.1248117,18.4091348 21.6559111,18.7028976 22.090447,19.1925023 C22.5249829,19.6331464 22.8629552,20.220672 23.0560823,21.0040395 C23.2492093,21.7874069 23.3457729,22.7666162 23.3457729,23.9906278 L23.3457729,29.6210813 C23.3457729,29.8658836 23.3940546,30.0617255 23.4423364,30.2086069 C23.4906182,30.3554883 23.5388999,30.5023697 23.5388999,30.6002906 C23.5871817,31.0409348 23.6354635,31.4326185 23.6354635,31.7263813 C23.6354635,32.0691045 23.5871817,32.2649464 23.3940546,32.5097487 L23.2492093,32.6566301 L22.911237,32.9014324 L23.2009276,33.1951952 L25.2770435,35.3004952 C25.9047064,35.9369813 26.2426788,36.8182696 26.2426788,37.6505975 C26.0495517,37.9933208 26.00127,38.433965 25.8081429,38.8746092 L25.8081429,38.8746092 Z M13.641138,34.4681673 C15.4275633,34.4681673 16.6346075,33.9296022 17.358834,33.0972743 C18.1313422,32.2649464 18.4210328,31.2367766 18.5658781,30.3065278 L18.6141599,29.9148441 L8.66811618,29.9148441 L8.71639794,30.3065278 C8.86124324,31.2367766 9.15093383,32.2649464 9.92344208,33.0972743 C10.6476686,33.9296022 11.8547127,34.4681673 13.641138,34.4681673 L13.641138,34.4681673 Z M2.58461373,35.9859417 C2.15007784,36.4265859 1.90866902,37.0141115 1.90866902,37.6016371 C1.90866902,37.8464394 1.95695078,38.0912417 2.00523255,38.2870836 L2.00523255,38.336044 L5.1435473,41.812237 C5.57808319,42.2528812 6.10918261,42.4487231 6.68856379,42.4487231 C7.26794498,42.4487231 7.84732616,42.2528812 8.28186205,41.7632766 C8.71639794,41.3226324 8.95780677,40.7351068 8.95780677,40.1475812 C8.95780677,39.5600557 8.71639794,38.9725301 8.28186205,38.5318859 L7.6541991,37.8953999 C7.55763557,37.7974789 7.50935381,37.6505975 7.50935381,37.5037161 C7.50935381,37.3568347 7.55763557,37.2099533 7.6541991,37.1120324 L10.0682874,34.6640092 L9.77859678,34.4192068 C8.95780677,33.7827208 8.37842558,32.9014324 8.04045323,32.0201441 L7.84732616,31.5794999 L7.50935381,31.9222231 C7.02653615,32.3628673 6.44715497,32.6566301 5.77121025,32.754551 L5.62636495,32.754551 L5.52980142,32.9014324 C5.52980142,33.0483138 2.58461373,35.9859417 2.58461373,35.9859417 L2.58461373,35.9859417 Z M17.2139887,16.5975976 C18.1313422,15.6673488 18.6624416,14.3454162 18.6624416,12.9745232 C18.6624416,11.5546697 18.0830604,10.2816976 17.2139887,9.30248834 C16.2966351,8.3722395 15.0413092,7.73575346 13.641138,7.73575346 C10.8407956,7.73575346 8.61983441,10.0858558 8.61983441,12.8766023 C8.61983441,14.2474953 9.1992156,15.5694278 10.0682874,16.5486371 C10.9856409,17.5278464 12.2409668,18.115372 13.5928563,18.115372 L13.641138,18.115372 C15.0413092,18.1643325 16.2966351,17.5768069 17.2139887,16.5975976 L17.2139887,16.5975976 Z M22.3318558,31.0409348 C22.283574,30.8940534 22.283574,30.7961324 22.283574,30.6982115 C22.283574,30.4534092 22.1870105,30.2575673 22.1387287,30.1106859 C22.090447,29.9148441 22.0421652,29.7679627 22.0421652,29.6210813 L22.0421652,23.9416674 C22.0421652,22.9624581 21.9938834,22.1790906 21.8973199,21.4936441 C21.7524746,20.8571581 21.5593475,20.2696325 21.1730934,19.8779488 C20.6902758,19.3883441 20.0143311,19.1435418 19.193541,18.9966604 C18.372751,18.849779 17.4553975,18.849779 16.2966351,18.849779 L10.8890774,18.849779 C9.73031502,18.849779 8.76467971,18.8987395 7.89560793,18.9966604 C7.07481792,19.1435418 6.35059144,19.3883441 5.86777378,19.8779488 C5.09526553,20.6123557 4.66072965,21.9342883 4.66072965,23.8927069 L4.66072965,29.5231604 C4.66072965,29.7679627 4.70901141,29.9638045 4.70901141,30.1106859 C4.75729318,30.3065278 4.75729318,30.4534092 4.75729318,30.5513301 L4.75729318,30.6982115 C4.75729318,30.8940534 4.80557494,31.0409348 4.85385671,31.1878162 C4.90213847,31.3346976 4.90213847,31.4326185 4.90213847,31.4326185 L4.90213847,31.7263813 L5.19182907,31.7753417 L5.52980142,31.7753417 C6.15746437,31.7753417 6.73684556,31.5305394 7.21966321,31.1388557 C7.6541991,30.747172 7.99217146,30.1596464 7.99217146,29.5231604 L7.99217146,23.9416674 C7.99217146,23.6479046 8.23358029,23.4031022 8.52327088,23.4031022 C8.81296147,23.4031022 9.0543703,23.6479046 9.0543703,23.9416674 L9.0543703,28.8377138 L18.5658781,28.8377138 L18.5658781,23.9416674 C18.5658781,23.6479046 18.8072869,23.4031022 19.0969775,23.4031022 C19.3866681,23.4031022 19.6280769,23.6479046 19.6280769,23.9416674 L19.6280769,29.5721208 C19.6280769,30.8450929 20.6902758,31.8243022 21.8973199,31.8243022 L22.1387287,31.8243022 L22.4284193,31.7753417 L22.4284193,31.4326185 C22.4284193,31.2857371 22.3801376,31.1878162 22.3318558,31.0409348 L22.3318558,31.0409348 Z M24.3114082,35.9859417 L21.3662205,32.9993534 L21.3179387,32.9014324 L21.269657,32.8035115 L21.1248117,32.8035115 C20.5937122,32.6566301 20.1591763,32.4118278 19.7729222,32.0691045 L19.4349499,31.7263813 L19.2418228,32.1670255 C18.8555687,33.0972743 18.2279057,34.0275231 17.3105522,34.7129696 L16.9725798,34.957772 L19.2418228,37.2589138 C19.3383863,37.3568347 19.3866681,37.5037161 19.3866681,37.6505975 C19.3866681,37.7974789 19.3383863,37.9443603 19.2418228,38.0422812 L18.6141599,38.6787673 C18.179624,39.1194115 17.9382151,39.6579766 17.9382151,40.2944626 C17.9382151,40.8819882 18.179624,41.4695138 18.6141599,41.910158 C19.0486957,42.3508022 19.5797952,42.5956045 20.2074581,42.5956045 C20.7868393,42.5956045 21.3662205,42.3508022 21.8007564,41.910158 L24.3596899,39.3152533 L24.8907894,38.4829254 L24.8907894,38.433965 C24.9873529,38.1891626 25.0356347,37.9443603 25.0356347,37.6505975 C24.9873529,37.0141115 24.7459441,36.4265859 24.3114082,35.9859417 L24.3114082,35.9859417 Z" id="Baby"></path>
                </g>
            </g>
            <g id="Tr채dg책rd---Active" transform="translate(324.000000, 28.000000)">
                <path d="M15.0739793,37.7209342 L8.14914124,33.5106421 C7.98777556,33.4019616 7.84987255,33.2626399 7.71963081,33.1190093 C7.50942449,32.8863277 7.32890561,32.62492 7.17041291,32.3553732 C6.88646678,31.8737319 6.67003567,31.3537891 6.50196637,30.821877 C6.30037898,30.1836784 6.16678544,29.5253714 6.08059605,28.8627555 C6.00781391,28.3054687 5.96902869,27.743873 5.95514262,27.1822773 C5.94652368,26.822722 5.94556602,26.4626879 5.96902869,26.1036114 C6.00877157,25.5051505 6.10980468,24.9095622 6.28457759,24.3350398 C6.45264689,23.7815831 6.68918886,23.2491923 6.99516117,22.7579756 C7.2149441,22.4046443 7.4696816,22.0733364 7.7545854,21.769797 C8.61312741,20.8558276 9.73502588,20.2190652 10.9373678,19.8800969 C11.5655926,19.7029525 12.2129706,19.6081563 12.865137,19.5861329 C12.9819715,19.5827816 13.0992848,19.581824 13.2161193,19.5827816 C13.7792232,19.594272 14.3399331,19.6488516 14.8810109,19.8121118 C15.8803289,20.1142148 16.7709525,20.7088456 17.5471358,21.3939636 C18.0906077,21.8732111 18.5857178,22.4060806 19.0434792,22.9667188 C19.5505601,23.5881606 20.0121521,24.2459888 20.4282553,24.9311068 L20.4292129,24.9325431 L22.9641385,25.5396219 L6.17444672,1.19758428 L0.778033703,1.19758428 L0.702857408,1.19279659 C0.637736541,1.17986983 0.620019835,1.17939106 0.558250777,1.15401632 C0.465357776,1.11523606 0.383477863,1.05251736 0.322187635,0.972562981 C0.165610257,0.769086279 0.165610257,0.477037365 0.322187635,0.273081894 C0.368155306,0.213714574 0.425614894,0.162965091 0.490735761,0.125621131 C0.581234613,0.0729565728 0.675085274,0.0552421305 0.778033703,0.0485393686 C2.70053577,0.0485393686 4.62638964,-0.0634925098 6.54553989,0.052848287 C6.60635129,0.0638599673 6.62215268,0.0638599673 6.68009109,0.085883328 C6.79309495,0.128972512 6.87593252,0.203181662 6.9491935,0.29702033 L24.5691763,25.8431612 C24.5950331,25.8857716 24.6079615,25.9039648 24.6223264,25.9365211 L28.237971,26.8026137 C28.4888779,26.3482622 28.7752182,25.914019 29.0926824,25.5032354 C29.7352721,24.6706566 30.5047518,23.9343104 31.379574,23.349255 C32.0394016,22.9078303 32.7566888,22.5544989 33.5094094,22.3012303 C33.873799,22.1786655 34.2472863,22.076209 34.6250831,22.0043937 C34.9904303,21.935451 35.360087,21.9000221 35.731659,21.8847015 C35.8580701,21.8818289 35.9844812,21.8803926 36.1113711,21.8813501 C36.9014405,21.8966707 37.6848062,22.0091814 38.4499764,22.2083492 C38.9809987,22.3462346 39.5014868,22.5229002 40.0080889,22.7340372 C40.3940258,22.8953823 40.7723014,23.0768356 41.1395639,23.2774397 C41.4273407,23.4339971 41.7088927,23.6025237 41.9827834,23.7830195 C43.5710622,24.8281716 44.9438675,26.2860223 45.6520569,28.070872 C45.7554842,28.3313222 45.8440677,28.5979964 45.9168499,28.8685007 C46.0154888,29.2357163 46.0839615,29.6105922 46.1217891,29.9888195 C46.1581801,30.3565139 46.1634473,30.7237295 46.1414211,31.0904663 L49.3088809,31.8488359 L49.3998586,31.8789984 C49.4281096,31.8938402 49.457797,31.9062882 49.4846115,31.9235239 C49.592827,31.9924665 49.6756646,32.0977957 49.7178016,32.2194029 C49.7460526,32.3003148 49.742222,32.322817 49.7494044,32.407559 L49.7494044,35.3687435 C49.8403821,35.4056087 49.9304021,35.4453465 50.0189857,35.4879569 C50.5174476,35.72782 50.9713783,36.059128 51.3530058,36.4593786 C51.7355909,36.8605868 52.0453938,37.3307377 52.2608673,37.8415839 C52.4385132,38.261464 52.5529535,38.7076765 52.5989212,39.1615492 C52.6496771,39.6642564 52.6185532,40.1755814 52.5045917,40.6682344 C52.2958218,41.5745435 51.8050212,42.4076011 51.1164638,43.032873 C50.7333999,43.3809379 50.2919187,43.6634114 49.8154829,43.8654518 C49.2504637,44.1043574 48.6389979,44.2264434 48.0256168,44.2264434 C47.4122357,44.2264434 46.8007699,44.1043574 46.2357506,43.8654518 C45.7593148,43.6634114 45.3183125,43.3809379 44.9347697,43.032873 C44.4243371,42.5694249 44.0225988,41.9915511 43.7640306,41.3543099 L25.7475767,41.3543099 C25.4732071,41.8282909 25.1313226,42.2625342 24.7348514,42.6402827 C24.2330377,43.1185726 23.6455134,43.504939 23.0072331,43.7749645 C22.300959,44.0737162 21.5367465,44.2269222 20.7701398,44.2269222 C20.004012,44.2269222 19.2393206,44.0737162 18.5335254,43.7749645 C17.8952451,43.504939 17.3077208,43.1185726 16.8059071,42.6402827 C16.305051,42.1629503 15.8913419,41.5956094 15.5911156,40.9727313 C15.3454759,40.4623638 15.1759701,39.9156099 15.0902595,39.3559293 C15.0079008,38.8153994 15.0026336,38.2629004 15.0739793,37.7209342 L15.0739793,37.7209342 Z M47.9365544,36.1845654 C47.4486267,36.2027586 46.972191,36.3109603 46.5311886,36.5230549 C45.5979492,36.9726187 44.8993363,37.8420627 44.666625,38.8517859 C44.5742108,39.2501214 44.5541,39.6647351 44.6058136,40.0702522 C44.6489083,40.408263 44.7422801,40.7386134 44.8825773,41.0488555 C45.0535196,41.4280403 45.294371,41.7741901 45.5878937,42.0681541 C45.8814165,42.3616393 46.2280893,42.60246 46.6068438,42.7733804 C47.0243834,42.9620153 47.4783142,43.0649505 47.9365544,43.0769197 C48.3971888,43.0884102 48.8602173,43.0084558 49.2892489,42.8389717 C49.6771011,42.6857657 50.0352659,42.4626595 50.3436323,42.182101 C50.8387425,41.733016 51.1978649,41.1403003 51.3644977,40.4925262 C51.4516447,40.1540368 51.4865993,39.8021418 51.4688826,39.4531194 C51.4511659,39.1093634 51.3822144,38.7684801 51.2639434,38.4453112 C51.1303499,38.0800107 50.9340296,37.7381698 50.6864745,37.4384606 C50.4044437,37.0970985 50.0577709,36.8107949 49.6684822,36.5991791 C49.3467085,36.4244285 48.9971626,36.3018637 48.6366037,36.2377087 C48.4929548,36.2118552 48.348827,36.1974921 48.2032627,36.1879168 C48.1142003,36.1845654 48.0256168,36.1836078 47.9365544,36.1845654 L47.9365544,36.1845654 Z M20.65139,33.8869543 C20.4565062,33.8946146 20.2625801,33.9089777 20.0696117,33.9386614 C19.5855147,34.0123917 19.1138672,34.1646402 18.678132,34.3877464 C17.855981,34.8090629 17.1688601,35.4793391 16.7278578,36.290852 C16.4951465,36.7203076 16.3313866,37.1866283 16.2451972,37.6673121 C16.1561349,38.1666678 16.1499101,38.6808654 16.2265229,39.1821363 C16.2949956,39.629785 16.4300256,40.0659433 16.6263458,40.4738543 C16.8667185,40.9727313 17.1980688,41.426604 17.5988494,41.8086614 C18.0001088,42.1911976 18.4703198,42.5004822 18.9812313,42.7168857 C19.5457718,42.9557913 20.1572376,43.0778773 20.7701398,43.0778773 C21.3835209,43.0778773 21.9945079,42.9557913 22.5595272,42.7168857 C23.0704387,42.5004822 23.5401708,42.1911976 23.9419091,41.8086614 C24.3426897,41.426604 24.6735612,40.9727313 24.9139338,40.4738543 C25.1102541,40.0664221 25.2457629,39.629785 25.3137568,39.1821363 C25.3903696,38.6808654 25.3841448,38.1666678 25.2950824,37.6673121 C25.2093719,37.1866283 25.045612,36.7203076 24.8124219,36.290852 C24.3714195,35.4793391 23.6847775,34.8090629 22.8626265,34.3877464 C22.4264125,34.1646402 21.9552438,34.0123917 21.470668,33.9386614 C21.2776995,33.9089777 21.0842522,33.8946146 20.8893685,33.8869543 C20.769661,33.885518 20.7701398,33.885518 20.65139,33.8869543 L20.65139,33.8869543 Z M48.0256168,41.3543099 C48.9775306,41.3543099 49.7494044,40.5825348 49.7494044,39.6307426 C49.7494044,38.6789504 48.9775306,37.9071752 48.0256168,37.9071752 C47.0737029,37.9071752 46.3018291,38.6789504 46.3018291,39.6307426 C46.3018291,40.5825348 47.0737029,41.3543099 48.0256168,41.3543099 L48.0256168,41.3543099 Z M20.7701398,40.205265 C21.7220537,40.205265 22.4939275,39.4334899 22.4939275,38.4816977 C22.4939275,37.5299055 21.7220537,36.7581303 20.7701398,36.7581303 C19.818226,36.7581303 19.0463522,37.5299055 19.0463522,38.4816977 C19.0463522,39.4334899 19.818226,40.205265 20.7701398,40.205265 L20.7701398,40.205265 Z M48.6002127,35.0704706 L48.6002127,32.8604742 L19.9230897,25.9930158 C19.8929235,25.9829617 19.8622783,25.9757802 19.8335485,25.9633322 C19.7464015,25.9269457 19.6693099,25.868536 19.609935,25.7952843 C19.590303,25.7708671 19.5745016,25.7435773 19.5567849,25.7177238 C19.4998041,25.6167036 19.4399504,25.5171197 19.3796178,25.4180146 C18.9558533,24.7357692 18.4870789,24.0817711 17.9665907,23.4694259 C17.5672466,22.9992751 17.1377362,22.5535414 16.6680041,22.152812 C16.0287661,21.6065369 15.2980717,21.1234593 14.4816667,20.8926927 C14.0646059,20.7744369 13.6317436,20.7404443 13.2003179,20.7318265 C13.1246628,20.7313477 13.1251416,20.7313477 13.0504441,20.7313477 C11.6326288,20.7500197 10.2033215,21.1823478 9.09626679,22.0867419 C8.91814206,22.2322876 8.74959394,22.388845 8.59253773,22.556414 C8.35934756,22.8044162 8.15057773,23.0758781 7.97101651,23.3650544 C7.70239294,23.796425 7.49889023,24.2670546 7.35859307,24.7553987 C7.22499952,25.2188468 7.14742908,25.6980943 7.11582631,26.1792569 C7.09427896,26.503862 7.09619428,26.828946 7.10385556,27.15403 C7.11678397,27.6758878 7.15269621,28.1967882 7.22021122,28.7143372 C7.34327051,29.6618205 7.56688407,30.6179216 7.99878865,31.4758751 C8.11993261,31.716217 8.25831446,31.9484198 8.42063779,32.1629082 C8.52310739,32.2988785 8.63611125,32.4291036 8.76587415,32.5396992 L8.77114128,32.5440081 L15.3579254,36.5489084 C15.4101179,36.4024051 15.4680563,36.2582958 15.5322195,36.117059 C16.065636,34.9368941 17.0012697,33.955897 18.1538132,33.3650964 C18.6996793,33.0854955 19.2895978,32.8954243 19.8957964,32.8025432 C20.1366479,32.765678 20.378457,32.7474848 20.6221814,32.7383882 C20.7706187,32.7364731 20.7701398,32.7364731 20.9180983,32.7383882 C21.1618227,32.7474848 21.4036318,32.765678 21.6449621,32.8025432 C22.2506819,32.8954243 22.8410792,33.0854955 23.3864664,33.3650964 C24.4135566,33.891742 25.2716198,34.7286297 25.8222741,35.7426619 C26.1143604,36.2798404 26.3192996,36.8634594 26.4265575,37.4652717 C26.537646,38.0886285 26.5457861,38.7301786 26.4500201,39.3559293 C26.4059678,39.6436693 26.3398893,39.9275792 26.2527422,40.205265 L43.4647619,40.205265 C43.4211884,39.8591152 43.4173578,39.5081778 43.4527912,39.1615492 C43.4987589,38.7076765 43.6127204,38.261464 43.7903663,37.8415839 C44.0063186,37.3307377 44.3156427,36.8605868 44.6982278,36.4593786 C45.0798552,36.059128 45.5342648,35.72782 46.0327267,35.4879569 C46.4411686,35.291183 46.8783403,35.1561702 47.3260463,35.0872275 C47.5190147,35.0580226 47.712462,35.0431808 47.9073458,35.0359992 C48.0256168,35.0345629 48.0251379,35.0345629 48.1438878,35.0359992 C48.2966345,35.0417445 48.4489024,35.0517986 48.6002127,35.0704706 L48.6002127,35.0704706 Z M45.0027636,30.8175681 C45.0109037,30.4594491 44.9893564,30.1018089 44.9314179,29.7460838 C44.8873656,29.4731856 44.8232024,29.20316 44.7413225,28.9393585 C44.2059906,27.2167487 42.9299089,25.8082111 41.4565493,24.8133297 C41.2113884,24.6476757 40.9590451,24.4920759 40.7009557,24.3474878 C40.3696054,24.1622043 40.0291574,23.9936777 39.6805692,23.8438231 C39.225202,23.6470491 38.7564275,23.4823527 38.2780764,23.3516488 C37.3295144,23.092635 36.3282811,22.9633674 35.3462009,23.0610362 C34.844866,23.1108282 34.3531077,23.2300416 33.8757143,23.3904291 C33.0885179,23.6551882 32.3448951,24.0463422 31.6793215,24.5437829 C30.9792722,25.0675559 30.3649334,25.7019245 29.8501913,26.4081083 C29.6921774,26.6254693 29.5408672,26.8500118 29.40057,27.0812571 L45.0027636,30.8175681 Z" id="ic-gardening"></path>
            </g>
            <g id="Group-2" transform="translate(134.000000, 28.000000)">
                <g id="Eventhj채lp">
                    <path d="M27.0375446,26.5306117 C27.2197435,26.5374862 27.4004691,26.5487801 27.5811947,26.571859 C27.9775141,26.622436 28.3679403,26.7167156 28.7426512,26.8542066 C29.2700949,27.0481672 29.7665992,27.3251134 30.2085911,27.6727692 C30.9540841,28.2580882 31.5394779,29.041787 31.8876693,29.9236937 C32.0502241,30.3356757 32.1612132,30.7677904 32.2171988,31.2067796 C32.2397895,31.3874821 32.251576,31.5686756 32.2584514,31.7503602 C32.3291701,37.4056606 32.2599247,37.1694707 32.2599247,42.8247711 C32.2579603,42.8527603 32.2579603,42.8807496 32.2545226,42.9087388 C32.2427361,42.9917245 32.2142522,43.0722549 32.1705441,43.1439467 C32.126836,43.2156384 32.068886,43.2780004 32.0001317,43.3266133 C31.7653849,43.4920936 31.4373286,43.4695058 31.2271369,43.2735811 C31.1451229,43.1969789 31.0852084,43.09828 31.0552512,42.9907424 C31.0346249,42.9185596 31.0375715,42.898918 31.0321694,42.8247711 C31.0321694,37.1797825 31.1014148,37.4262842 31.0306961,31.7817867 C31.0125253,31.2986039 30.9236358,30.8247509 30.7458568,30.3744678 C30.3156514,29.2848515 29.4188989,28.4103104 28.3193212,28.007167 C27.8969734,27.8519986 27.4554726,27.7749054 27.0066052,27.757719 C19.8915175,27.6688409 12.7744654,27.6688409 5.65937778,27.757719 C5.21051043,27.7749054 4.76900961,27.8519986 4.34666178,28.007167 C3.21467137,28.4220953 2.2997481,29.3364106 1.8847668,30.4687474 C1.72957853,30.8915323 1.65198439,31.3324857 1.63528692,31.7817867 C1.5621127,37.4262842 1.63381361,37.1797825 1.63381361,42.8247711 C1.6318492,42.8527603 1.6318492,42.8807496 1.62792038,42.9087388 C1.61662503,42.9917245 1.58814111,43.0722549 1.54443302,43.1439467 C1.50072493,43.2156384 1.44228378,43.2780004 1.37402058,43.3266133 C1.13927376,43.4920936 0.810726438,43.4695058 0.601025828,43.2735811 C0.519011772,43.1969789 0.459097312,43.09828 0.42864898,42.9907424 C0.408513793,42.9185596 0.410969304,42.898918 0.406058282,42.8247711 L0.406058282,31.8844139 C0.408513793,31.7027293 0.415389223,31.5220269 0.433560002,31.3413244 C0.478741398,30.8993889 0.578926232,30.463346 0.731658995,30.0459625 C1.07346608,29.1144608 1.6770306,28.2855864 2.45739188,27.6727692 C2.8993838,27.3251134 3.39588806,27.0481672 3.92382285,26.8542066 C4.29853377,26.7167156 4.68895997,26.622436 5.08478828,26.571859 C5.26551387,26.5487801 5.44673055,26.5374862 5.62843834,26.5306117 C12.7641523,26.4412425 19.9018307,26.4412425 27.0375446,26.5306117 L27.0375446,26.5306117 Z M16.3482157,40.404438 C16.8177093,40.404438 17.1988045,40.7859756 17.1988045,41.2554093 C17.1988045,41.7248429 16.8177093,42.1058894 16.3482157,42.1058894 C15.878722,42.1058894 15.4976268,41.7248429 15.4976268,41.2554093 C15.4976268,40.7859756 15.878722,40.404438 16.3482157,40.404438 L16.3482157,40.404438 Z M16.3482157,35.1851806 C16.8177093,35.1851806 17.1988045,35.5662271 17.1988045,36.0356607 C17.1988045,36.5050944 16.8177093,36.8861409 16.3482157,36.8861409 C15.878722,36.8861409 15.4976268,36.5050944 15.4976268,36.0356607 C15.4976268,35.5662271 15.878722,35.1851806 16.3482157,35.1851806 L16.3482157,35.1851806 Z M16.3482157,32.2978691 C14.9952293,33.0216611 13.6206344,33.70617 12.2273777,34.3499226 C12.1689365,34.3725104 12.1090221,34.3857685 12.0456699,34.3838043 C11.8831151,34.3793849 11.7333289,34.280195 11.6655568,34.1328832 C11.6429661,34.0832882 11.6316708,34.0322201 11.6267598,33.9786968 C11.5820695,32.5316038 11.5820695,31.0825466 11.6267598,29.6359446 C11.6306886,29.5912601 11.6390373,29.5480486 11.6552437,29.5063102 C11.7082827,29.3693103 11.8256561,29.2755217 11.9661113,29.2401669 C12.0019618,29.2337834 12.0358478,29.2303461 12.0721894,29.2303461 C12.1267017,29.2337834 12.1767942,29.2450773 12.2273777,29.2647189 C13.6206344,29.9084715 14.9952293,30.5929804 16.3482157,31.3167724 C17.701202,30.5929804 19.0757969,29.9084715 20.4690536,29.2647189 C20.5373168,29.2382027 20.6041067,29.2273999 20.6772809,29.2318192 C20.8398357,29.2519518 20.9812732,29.3511418 21.0411876,29.5063102 C21.057394,29.5480486 21.0652516,29.5912601 21.0696715,29.6359446 C21.1143618,31.0825466 21.1143618,32.5316038 21.0696715,33.9786968 C21.0637783,34.0410588 21.0490453,34.1009656 21.019088,34.1564531 C20.941985,34.2998366 20.7867967,34.3892057 20.6242419,34.3838043 C20.5702207,34.3823312 20.5191461,34.3690731 20.4690536,34.3499226 C19.0757969,33.70617 17.701202,33.0216611 16.3482157,32.2978691 L16.3482157,32.2978691 Z M17.3151958,31.8073207 L20.2058229,33.2524496 L20.2058229,30.3621919 C19.2422805,30.8439015 18.2787381,31.3256111 17.3151958,31.8073207 L17.3151958,31.8073207 Z M12.4906084,33.2524496 L15.3812356,31.8073207 L12.4906084,30.3621919 L12.4906084,33.2524496 L12.4906084,33.2524496 Z M16.5043861,0.000736559055 C17.0166057,0.0110483858 17.5273519,0.0459121811 18.0351515,0.11711289 C19.2152699,0.282102118 20.3693599,0.624356559 21.4488024,1.12865399 C22.8106286,1.76454998 24.0491882,2.65725955 25.0863959,3.74491176 C26.0577959,4.76283637 26.8499436,5.95066061 27.41422,7.23963896 C27.9141619,8.38130549 28.2338694,9.60006521 28.3600827,10.8394486 C28.4941536,12.1603445 28.4121395,13.5033372 28.1130583,14.7972259 C27.8689805,15.8524695 27.4810099,16.8738314 26.9638793,17.8254657 C26.2242795,19.1861358 25.221449,20.4009672 24.0270886,21.3869743 C23.0895746,22.1603613 22.0356694,22.7913469 20.9110456,23.2519418 C19.4662231,23.8431532 17.9084471,24.1451424 16.3482157,24.1451424 C14.7874931,24.1451424 13.2302082,23.8431532 11.7853858,23.2519418 C10.6602708,22.7913469 9.6068567,22.1603613 8.66934274,21.3869743 C7.47498235,20.4009672 6.4721518,19.1861358 5.73255199,17.8254657 C5.21493035,16.8738314 4.82745077,15.8524695 4.58337301,14.7972259 C4.28429181,13.5033372 4.20227775,12.1603445 4.33634864,10.8394486 C4.46207078,9.60006521 4.78226937,8.38130549 5.28172024,7.23963896 C5.84648769,5.95066061 6.63814432,4.76283637 7.60954434,3.74491176 C8.64675204,2.65725955 9.88531161,1.76454998 11.2476289,1.12865399 C12.3270714,0.624356559 13.4811614,0.282102118 14.6612798,0.11711289 C15.1690794,0.0459121811 15.6793346,0.0110483858 16.1920452,0.000736559055 C16.3482157,-0.000245519685 16.3477246,-0.000245519685 16.5043861,0.000736559055 L16.5043861,0.000736559055 Z M16.2072693,1.17923105 C15.7446511,1.18806976 15.2835062,1.21998732 14.8248168,1.28431347 C13.7601074,1.4330984 12.7199531,1.74196217 11.7460976,2.19617358 C10.516869,2.77019861 9.3986294,3.57648525 8.46258874,4.55807295 C7.58597144,5.47729866 6.87092673,6.54874656 6.36165382,7.71250987 C5.91082207,8.74172839 5.62254512,9.8406745 5.50910052,10.9587711 C5.3877983,12.1510147 5.46195472,13.363882 5.73156979,14.5320646 C5.95158354,15.4836989 6.30173936,16.4043978 6.76828639,17.2627346 C7.43569418,18.4913151 8.34128651,19.587806 9.41974679,20.4780604 C10.2659158,21.1763184 11.2166895,21.745433 12.2317976,22.1613433 C13.5351827,22.6946121 14.9402258,22.9666479 16.3482157,22.9666479 C17.7557144,22.9666479 19.1612487,22.6946121 20.4641426,22.1613433 C21.4797418,21.745924 22.4305155,21.1763184 23.2766845,20.4780604 C24.3551448,19.587806 25.260246,18.4913151 25.9281449,17.2627346 C26.3946919,16.4043978 26.7443567,15.4836989 26.9643704,14.5320646 C27.2344766,13.363882 27.308633,12.1510147 27.1873308,10.9587711 C27.0733951,9.8406745 26.7856092,8.74172839 26.3347775,7.71250987 C25.8255046,6.54874656 25.1104599,5.47729866 24.2338426,4.55807295 C23.2973108,3.57648525 22.1795624,2.77019861 20.9503337,2.19617358 C19.9764782,1.74196217 18.9358328,1.4330984 17.8716145,1.28431347 C17.4129251,1.21998732 16.9517802,1.18806976 16.4886709,1.17923105 C16.3477246,1.17824897 16.3482157,1.17824897 16.2072693,1.17923105 L16.2072693,1.17923105 Z M12.2214844,4.17751744 C12.2759968,4.18537407 12.2902387,4.18488303 12.3427867,4.20108733 C12.445427,4.23202281 12.5274411,4.28996546 12.6030708,4.36362136 C12.6718251,4.44562494 12.7361595,4.53155683 12.8034405,4.61454248 C13.61867,5.57550653 14.6062764,6.3783559 15.6611638,7.06237374 C16.1748566,7.39578948 16.7126134,7.69483245 17.2626478,7.96343099 C18.681933,8.65530546 20.1989475,9.13750612 21.7508302,9.42329103 C22.7335256,9.60448456 23.7270252,9.70318348 24.7249447,9.74393974 L24.7863325,9.74934118 C24.8398626,9.76014404 24.8541046,9.76112612 24.9056703,9.78027666 C25.0019263,9.81612253 25.0888514,9.87701141 25.154168,9.95655979 C25.1939472,10.0041906 25.2258689,10.0577139 25.2484596,10.1151655 C25.3501177,10.370506 25.2563172,10.670531 25.0274636,10.8232443 C24.9385741,10.882169 24.8428092,10.9086851 24.7382045,10.9204701 C24.6075713,10.9219432 24.6085535,10.9185059 24.4695716,10.9131045 C23.0660017,10.8433769 21.6712717,10.657273 20.307481,10.3150185 C18.0710019,9.75376053 15.9293055,8.78395777 14.0812882,7.39922675 C13.6746557,7.0942913 13.2857028,6.76824116 12.9105007,6.42500464 L12.7926362,6.31452078 L12.7754477,6.29831648 C12.7567858,6.37884694 12.7366506,6.45888636 12.7140599,6.53892577 C12.6580742,6.72453866 12.5927577,6.90671426 12.512708,7.08397948 C12.2151001,7.74442743 11.757884,8.32385388 11.2422268,8.82815132 C10.791395,9.26959571 10.2904709,9.65849889 9.76499159,10.0066458 C9.29746236,10.3169827 8.80930684,10.5963841 8.30347165,10.8394486 L8.24306609,10.8674378 C8.14533676,10.9062299 8.04858964,10.9288177 7.94251158,10.919488 C7.6458859,10.8924808 7.41064798,10.6391045 7.40622806,10.3410436 C7.40524585,10.2796637 7.41408569,10.2177927 7.43225647,10.158868 C7.4627048,10.0601691 7.51918155,9.97079993 7.59481127,9.9005813 C7.63508165,9.86326231 7.6478503,9.85736984 7.6935228,9.8269254 C7.81138731,9.7645634 7.93318064,9.70907595 8.05251846,9.64867811 C8.34816194,9.49350966 8.6384033,9.32901148 8.92029593,9.14978211 C9.15848046,8.99854198 9.39175397,8.83895418 9.61716985,8.66905456 C9.79102,8.53794705 9.96094134,8.40094707 10.1249695,8.25707253 C10.2585492,8.13971412 10.3882002,8.0184274 10.512449,7.89173924 C11.1351665,7.25829845 11.6827454,6.44464621 11.6812721,5.52345636 C11.680781,5.31378255 11.6493505,5.10852809 11.5997492,4.90572883 L11.5879627,4.84483995 C11.5825606,4.78149587 11.5805962,4.7220801 11.5918915,4.65922706 C11.6257776,4.47410522 11.7495353,4.31304431 11.9194566,4.23251385 C11.9769156,4.20501565 12.0348656,4.19175758 12.0972356,4.18046368 C12.1596056,4.17555328 12.1591145,4.17555328 12.2214844,4.17751744 L12.2214844,4.17751744 Z" id="ic-events"></path>
                </g>
            </g>
            <g id="Hush책ll" transform="translate(429.000000, 31.000000)">
                <path d="M2.97200065,31.9701069 L2.97200065,29.8947588 C2.5582113,29.8664868 2.18534111,29.7285746 1.87293015,29.4573474 C1.30810768,28.9746548 1.1485689,28.2094722 1.03891472,27.6991972 C0.935697262,27.2165047 0.810411041,26.6172763 0.86673237,26.0028777 C0.872709327,25.8649655 0.900984933,25.7208473 0.935697262,25.5764993 C0.997995548,25.3071108 0.943973049,25.0248506 0.784434265,24.8113166 C0.674780086,24.6607625 0.577539588,24.4945784 0.501908089,24.3219583 C-0.000156327608,23.1777471 0.144440063,21.6889854 0.868801317,20.620396 C1.02604127,20.3937604 1.08190283,20.117936 1.01293794,19.8894616 C0.888111487,19.4757251 0.868801317,19.0403824 0.943973049,18.6266459 C1.08856944,17.8747948 1.56465708,17.2068402 2.19844444,16.8687256 L2.5648779,16.5579635 C2.67476197,16.4393591 2.8214273,16.3428206 2.97200065,16.2607628 L2.97200065,14.0415264 L1.31684323,15.2827358 C1.19155701,15.3730683 1.04765027,15.4206479 0.90305388,15.4206479 C0.696159203,15.4206479 0.489264525,15.3234199 0.351334741,15.1448236 C0.123060947,14.8407273 0.185359233,14.4076831 0.489264525,14.1794385 L3.23521666,12.1233981 L17.853475,1.00882744 C19.6208153,-0.336275812 22.1784933,-0.336275812 23.9439945,1.00882744 L38.5705287,12.1233981 L41.3164808,14.1794385 C41.620616,14.4076831 41.6829143,14.8407273 41.4544106,15.1448236 C41.3164808,15.3234199 41.1095862,15.4206479 40.9026915,15.4206479 C40.7580951,15.4206479 40.6141883,15.3730683 40.4889021,15.2827358 L38.8337447,14.0415264 L38.8337447,35.9412875 C38.8337447,37.0232084 37.9498447,37.9063059 36.8684752,37.9063059 L1.00029438,37.9063059 L0.254324125,32.9977823 C0.213404956,32.7412657 0.289036455,32.4808416 0.461218803,32.2799496 C0.633860917,32.0864128 0.88144488,31.9701069 1.14466089,31.9701069 L2.97200065,31.9701069 Z M5.13818792,36.5271843 L5.62094217,33.3492285 L1.70258687,33.3492285 L2.18534111,36.5271843 L5.13818792,36.5271843 Z M36.8684752,36.5271843 C37.1914607,36.5271843 37.4544469,36.2667602 37.4544469,35.943586 L37.4544469,16.0279211 L22.1568843,4.40905169 C21.4203393,3.8443014 20.3771303,3.8443014 19.6401255,4.40905169 L4.39221767,16.0196464 C4.42693,16.0256226 4.46784917,16.0256226 4.50187185,16.0322884 C5.46140338,16.1702005 6.26737309,16.7135744 6.67472573,17.4936975 C6.9289763,17.9823663 7.00460779,18.5836633 6.88805713,19.1419777 C6.84070123,19.3421802 6.89426397,19.5837563 7.02598691,19.7345402 C7.25219176,20.0168005 7.41173054,20.3484792 7.48069543,20.7063613 C7.50230443,20.8035893 7.50874116,20.9001278 7.514948,21.0037918 C7.55632693,21.5338342 7.46138526,22.1137548 7.19816926,22.7750436 C7.01955019,23.2230283 6.81265551,23.6107913 6.57748523,23.9341953 C6.53679594,23.9905094 6.50185373,24.0594655 6.48047461,24.1348575 C6.41817633,24.3417257 6.43955544,24.6111142 6.5494395,24.8586665 C6.84070123,25.5289196 6.88805713,26.3497268 6.67472573,27.0526191 C6.36392394,28.0736287 5.57772417,28.9553471 4.46784917,29.5283721 C4.42693,29.5499784 4.39221767,29.5626203 4.3512985,29.5846863 L4.3512985,31.9701069 L6.17702908,31.9701069 C6.43955544,31.9701069 6.68116245,32.0797471 6.8533448,32.2799496 C7.02598691,32.4808416 7.10115864,32.7433344 7.06023947,32.9977823 L6.53012933,36.5271843 L14.3284495,36.5271843 C14.3146565,32.6095596 14.3201737,28.6919349 14.3450011,24.7745401 C14.3493688,24.5515821 14.3617825,24.3290838 14.3872995,24.1075049 C14.4459197,23.5953911 14.5652289,23.0904028 14.7426986,22.6063311 C15.0695922,21.7142693 15.5932656,20.8973696 16.2649837,20.2257374 C16.9748623,19.5159495 17.8465785,18.9721159 18.7976044,18.650091 C19.2612784,18.493101 19.7426533,18.3887474 20.2297753,18.3390991 C20.4242563,18.3195615 20.6189672,18.3096778 20.8143677,18.3060001 C20.8991945,18.3053106 20.8989647,18.3053106 20.9833317,18.3060001 C21.1787322,18.3096778 21.3734431,18.3195615 21.5679241,18.3390991 C22.0550461,18.3887474 22.5364211,18.493101 23.0003249,18.650091 C24.1759465,19.0481974 25.2267415,19.7855677 26.0053552,20.7516424 C26.4531672,21.3074284 26.8092559,21.936078 27.0550008,22.6063311 C27.2324705,23.0901729 27.3517798,23.5953911 27.4106298,24.1075049 C27.4359169,24.3290838 27.4485605,24.5515821 27.4526984,24.7745401 C27.4775258,28.6919349 27.4830429,32.6095596 27.46925,36.5271843 L36.8684752,36.5271843 Z M26.0899521,36.5271843 C26.1037451,32.6155358 26.0982279,28.7036574 26.0734005,24.7920089 C26.0701822,24.6154814 26.0602972,24.4396434 26.0400675,24.2644949 C25.993861,23.8606422 25.8998389,23.4625357 25.76007,23.0809788 C25.5660488,22.5520856 25.2846721,22.0558317 24.931112,21.6170412 C24.3161751,20.8539273 23.4865274,20.2707887 22.5578002,19.956349 C22.1920564,19.8326877 21.8125196,19.7504001 21.4283852,19.711325 C21.2745934,19.695695 21.120342,19.68788 20.9658606,19.6848919 C20.8985049,19.6844322 20.8989647,19.6844322 20.8318388,19.6848919 C20.6773575,19.68788 20.523106,19.695695 20.3693143,19.711325 C19.9851798,19.7504001 19.6056431,19.8326877 19.2398992,19.956349 C18.4891014,20.210567 17.8008318,20.6403933 17.2403771,21.2007763 C16.7098072,21.7312784 16.2960179,22.3762476 16.0378593,23.0809788 C15.8978606,23.4625357 15.8038384,23.8606422 15.7576319,24.2644949 C15.7376321,24.4396434 15.7275173,24.6154814 15.7242989,24.7920089 C15.6994715,28.7036574 15.6939544,32.6155358 15.7077473,36.5271843 L26.0899521,36.5271843 Z M2.3989024,27.4249819 C2.3083285,26.9896392 2.21338684,26.5418844 2.25430601,26.1368823 C2.26097261,26.0612605 2.27568512,25.9856387 2.28901833,25.9166826 C2.45453408,25.2553938 2.31062733,24.537561 1.90948154,23.9992439 C1.86189577,23.9302878 1.81224104,23.854666 1.77821836,23.7790441 C1.46143963,23.0614412 1.56465708,22.0834142 2.01913572,21.4005191 C2.41154596,20.8205985 2.53016557,20.1310377 2.34258107,19.5037672 C2.28028278,19.3035648 2.26740933,19.0835949 2.3083285,18.8831625 C2.3772934,18.5257402 2.59683164,18.2069332 2.88809337,18.0772958 L3.51498424,17.5665611 C3.60532825,17.4700226 3.72854552,17.428649 3.84716514,17.4010665 C3.90946342,17.387735 3.97176171,17.3794603 4.03245081,17.3794603 L4.06049654,17.3794603 C4.14233488,17.3794603 4.22003532,17.3854365 4.30164378,17.3921022 C4.81911035,17.4677241 5.23910655,17.7368826 5.43979439,18.122577 C5.54301184,18.3294452 5.57772417,18.6052695 5.53036828,18.8468457 C5.50232255,18.9631516 5.50232255,19.0753201 5.49565595,19.1916261 C5.47404695,19.701901 5.62691913,20.2126357 5.95013459,20.6049958 C6.03243269,20.7086598 6.09473098,20.8399062 6.12300659,20.9711526 C6.17036248,21.1996271 6.15105231,21.4754514 6.06668526,21.7859836 C6.02576609,21.9365377 5.97611137,22.0960561 5.91611191,22.2686762 C5.78461885,22.6067908 5.63358573,22.8892809 5.46738034,23.1244211 C5.01956831,23.7450258 4.95060342,24.6198486 5.28876127,25.4126136 C5.45473678,25.7854362 5.47404695,26.2681287 5.35772616,26.6604888 C5.0885332,27.5569179 4.28900021,28.0802945 3.84049853,28.3154347 C3.70923535,28.3843908 3.57774229,28.4317406 3.4547549,28.4747233 L3.43337578,28.481389 C3.30808956,28.5156372 3.1982055,28.5370136 3.09498804,28.5370136 C2.92234593,28.5370136 2.84073747,28.481389 2.79108275,28.4400154 C2.57085486,28.2398129 2.46786729,27.7504546 2.3989024,27.4249819 L2.3989024,27.4249819 Z M37.4523779,14.2941355 L37.4523779,13.0071852 L32.2110461,9.07668868 C32.1508167,9.02910898 32.101162,8.96681866 32.0602429,8.90383877 L23.1164158,2.10545895 C21.8341286,1.13340809 19.9782834,1.13340809 18.6959961,2.10545895 L6.90966613,11.0630835 C6.8816204,11.0890569 6.86828719,11.1237648 6.83403463,11.145371 L4.3512985,13.0071852 L4.3512985,14.2957444 L18.8146157,3.31242018 C20.0410414,2.37461751 21.7647039,2.37461751 23.0000951,3.31242018 L37.4523779,14.2941355 L37.4523779,14.2957444 L37.4544469,14.2957444 L37.4523779,14.2941355 Z" id="ic-household"></path>
            </g>
            <g id="Group-3" transform="translate(225.000000, 32.000000)">
                <g id="Hundpassning">
                    <g id="ic-doggy" transform="translate(0.004985, 0.000000)">
                        <path d="M10.0100325,12.1035169 C10.0100325,13.2364219 8.30481062,13.2364219 8.30481062,12.1035169 C8.30481062,10.9685793 10.0100325,10.9685793 10.0100325,12.1035169" id="Fill-1"></path>
                        <path d="M18.4024122,12.1035169 C18.4024122,13.2364219 16.6978692,13.2364219 16.6978692,12.1035169 C16.6978692,10.9685793 18.4024122,10.9685793 18.4024122,12.1035169" id="Fill-2"></path>
                        <path d="M15.5146679,16.1825167 C15.4725804,16.0951095 15.382296,16.0395484 15.2872597,16.0395484 L11.6541596,16.0395484 C11.5584445,16.0395484 11.4708754,16.0923992 11.4287879,16.1770961 C11.3839851,16.2617929 11.3914523,16.362074 11.4471164,16.4420278 L13.1760973,18.8582592 C13.2236154,18.9246615 13.2982868,18.9612505 13.3777099,18.9639608 L13.3831405,18.9639608 C13.4598484,18.9639608 13.5345197,18.9300821 13.5847532,18.8663901 L15.4854782,16.4494811 C15.5465729,16.3756255 15.5574342,16.2699238 15.5146679,16.1825167 L15.5146679,16.1825167 Z" id="Fill-3"></path>
                        <path d="M37.5291365,35.0990473 C36.8448754,35.0990473 36.3310009,34.9005179 36.0017681,34.51159 C35.6039735,34.0372877 35.5245504,33.3861384 35.7926884,32.8095223 C36.142286,32.062835 36.9697802,31.7111737 37.7226031,32.0208254 C38.1733465,32.2058033 38.5738564,32.6055724 38.8019434,32.915224 L39.8785683,34.2466583 C39.979714,34.371332 40.0034731,34.5407257 39.9396631,34.688437 C39.875853,34.8341156 39.7353351,34.9350742 39.5764888,34.9479481 C39.5764888,34.9479481 37.9615514,35.0726219 37.8685516,35.0800752 L37.8604057,35.0800752 C37.7545081,35.0936267 37.64318,35.0990473 37.5291365,35.0990473 L37.5291365,35.0990473 Z M37.1476338,32.7668351 C36.8686345,32.7668351 36.670416,32.9762057 36.5801316,33.1747351 C36.5319347,33.2777265 36.3968474,33.6354859 36.6677007,33.9553012 C36.8238317,34.1409566 37.1157288,34.2358171 37.5318518,34.2358171 C37.6221362,34.2358171 37.7124206,34.2310741 37.7972744,34.2256535 L37.7972744,34.2283638 C37.903172,34.2175226 38.1366896,34.1965178 38.6933305,34.1538306 L38.1176824,33.4416995 C37.9140333,33.1611836 37.6221362,32.9125137 37.3967645,32.8203635 C37.3091954,32.7858072 37.2270569,32.7668351 37.1476338,32.7668351 L37.1476338,32.7668351 Z" id="Fill-4"></path>
                        <path d="M47.7570735,30.7795085 L47.7570735,30.7795085 C47.64303,30.7795085 47.5317018,30.7740879 47.4251254,30.765957 L47.4176583,30.765957 C47.3273739,30.7585037 45.7097211,30.63383 45.7097211,30.63383 C45.5508748,30.6202785 45.4103569,30.5199974 45.3465469,30.3743189 C45.2827368,30.22593 45.3064959,30.0565363 45.4076416,29.9325401 L46.4971643,28.5828113 C46.7116747,28.2887439 47.1121846,27.8889748 47.562928,27.7039969 C48.3164297,27.3943453 49.1439239,27.7432963 49.4935215,28.4926939 C49.7616595,29.06931 49.6822364,29.7204593 49.2864783,30.194084 C48.9552091,30.5809791 48.4406557,30.7795085 47.7570735,30.7795085 L47.7570735,30.7795085 Z M47.4916508,29.9061147 C47.5765046,29.9135681 47.666789,29.9162784 47.7570735,29.9162784 C48.1731965,29.9162784 48.4650935,29.8214179 48.6212245,29.6357624 C48.8893625,29.3159472 48.7535965,28.9581877 48.7060783,28.8551964 C48.5866042,28.6011058 48.2736634,28.344305 47.8894454,28.5001472 C47.6640737,28.592975 47.3721767,28.8416449 47.1814253,29.1038663 L46.5928794,29.8342918 C47.1495203,29.8796893 47.383038,29.8979838 47.4889355,29.908825 L47.4889355,29.9061147 L47.4916508,29.9061147 Z" id="Fill-5"></path>
                        <path d="M44.9487523,35.0990473 L44.9487523,35.0990473 C44.8347088,35.0990473 44.7233806,35.0936267 44.6174831,35.0854958 L44.6093371,35.0854958 C44.513622,35.0780424 42.9041152,34.9533687 42.9041152,34.9533687 C42.7452689,34.9398172 42.6047511,34.8395362 42.540941,34.6938576 C42.4771309,34.548179 42.50089,34.3760751 42.6020357,34.2520789 L43.6915585,32.9023501 C43.9067477,32.6082827 44.3092941,32.2085136 44.758001,32.0235357 C45.5081085,31.713884 46.338318,32.062835 46.6879157,32.8122326 C46.9560537,33.3888487 46.8766305,34.039998 46.4788359,34.5143003 C46.1468879,34.9005179 45.6330133,35.0990473 44.9487523,35.0990473 L44.9487523,35.0990473 Z M44.6806143,34.2256535 C44.7654681,34.2331068 44.8557525,34.2358171 44.946037,34.2358171 C45.36216,34.2358171 45.654057,34.1409566 45.810188,33.9553012 C46.078326,33.6354859 45.9459541,33.2777265 45.8977571,33.1747351 C45.7789618,32.9206446 45.4633057,32.6638438 45.0811242,32.8203635 C44.8557525,32.9125137 44.5638555,33.1611836 44.3731041,33.4261153 L43.7845582,34.1538306 C44.3411991,34.1992281 44.5747168,34.2175226 44.6806143,34.2283638 L44.6806143,34.2256535 Z" id="Fill-6"></path>
                        <path d="M42.0426795,18.9666711 C39.1257455,16.521304 35.3147918,16.8282454 35.2007483,16.8411193 L34.6230637,16.8411193 C35.1586608,15.3938197 35.5035067,13.6497424 35.5272657,11.5397748 L43.2116254,11.5397748 C44.4769652,11.5397748 45.5053932,10.5132491 45.5053932,9.25296016 C45.5053932,7.99063849 44.4769652,6.96614554 43.2116254,6.96614554 L33.2280673,6.96614554 C34.6495381,3.80051652 32.3109675,1.13290491 32.3001062,1.12206371 C31.7699397,0.4580405 31.2370578,0.320492835 30.8867814,0.320492835 C30.5025634,0.320492835 30.248002,0.481755615 30.1869073,0.523765247 C29.7992951,0.815122369 29.687967,1.15662002 29.6614926,1.39241602 C29.595646,1.97987329 29.9852947,2.4616289 30.0538565,2.54361544 C31.8602241,4.34325386 30.5025634,6.57450736 30.239856,6.96885584 L22.6478173,6.96885584 C22.5921532,6.96885584 22.5392044,6.97969703 22.488971,6.99799155 C22.4387375,6.98240733 22.3878253,6.96885584 22.3348765,6.96885584 L4.71990749,6.96885584 C4.45991546,6.96885584 4.24268975,7.16467492 4.21350004,7.42147574 C4.21350004,7.42689634 4.21078472,7.43773753 4.21078472,7.44519085 C3.82385142,7.16467492 3.35410081,6.99257095 2.84294155,6.99257095 C1.55655802,6.98986065 0.50912277,8.03535842 0.50912277,9.32207278 L0.50912277,16.1161143 C0.50912277,17.4001184 1.55655802,18.4456162 2.84294155,18.4456162 C4.12864625,18.4456162 5.17608149,17.4001184 5.17608149,16.1161143 L5.17608149,14.9703355 C5.57930673,15.9968612 6.13051698,16.9949287 6.88877049,17.8656122 C6.89691646,17.8737431 6.90506242,17.881874 6.91320839,17.8893273 L6.91320839,32.8041017 C6.91320839,34.0664234 7.94163638,35.0909164 9.20629734,35.0909164 C10.4716371,35.0909164 11.4980286,34.0637131 11.4980286,32.8041017 L11.4980286,23.6622638 L16.5254463,23.6622638 L16.5254463,32.8041017 C16.5254463,34.0664234 17.5538743,35.0909164 18.8164987,35.0909164 C20.0811597,35.0909164 21.1102665,34.0637131 21.1102665,32.8041017 L21.1102665,23.6622638 L22.9607581,23.6622638 L22.9607581,30.2631966 C22.9607581,31.5255183 23.9898649,32.5500112 25.2518106,32.5500112 C26.5164715,32.5500112 27.5455783,31.522808 27.5455783,30.2631966 L27.5455783,23.5375901 C28.6751521,23.2252281 31.536422,22.1587256 33.5091031,19.0940552 L34.7024868,19.0940552 C35.2007483,19.1652005 40.7406829,20.1497166 40.7406829,28.3361741 L40.7406829,34.7257036 C40.7406829,35.0062195 40.9687699,35.2338846 41.2498057,35.2338846 C41.5308414,35.2338846 41.7589284,35.0062195 41.7589284,34.7257036 L41.7589284,28.3361741 C41.7589284,19.0168117 34.8667638,18.090567 34.7982019,18.0831137 C34.7791947,18.0804034 34.7581509,18.0804034 34.7371072,18.0804034 L34.0874665,18.0804034 C34.1248022,18.0058702 34.161459,17.9347249 34.1960794,17.8574813 L35.2462299,17.8554486 C35.2808503,17.8527383 38.8100893,17.5749327 41.3950754,19.7499475 C43.0025456,21.1003539 43.9277914,23.1195265 44.1504478,25.7078619 L44.1504478,28.9161781 C44.1504478,29.196694 44.3785348,29.4243591 44.6595706,29.4243591 C44.9406063,29.4243591 45.1686933,29.196694 45.1686933,28.9161781 L45.165978,25.6658522 C44.9195626,22.7488931 43.869412,20.4966348 42.0426795,18.9666711 L42.0426795,18.9666711 Z M4.15783595,16.113404 C4.15783595,16.8390866 3.56657471,17.4265438 2.84294155,17.4265438 C2.11591423,17.4265438 1.52736831,16.8390866 1.52736831,16.113404 L1.52736831,9.32207278 C1.52736831,8.59706785 2.11862955,8.00893301 2.84294155,8.00893301 C3.53195436,8.00893301 4.09131058,8.54082915 4.14697467,9.21637113 C4.14968999,9.35662909 4.15240531,9.50163008 4.15783595,9.65543954 L4.15783595,16.113404 Z M30.6905994,1.95615817 C30.6505484,1.90805037 30.4998481,1.68038527 30.5208918,1.48727648 C30.5290378,1.42426203 30.5555122,1.328724 30.6824534,1.23047566 C30.6851688,1.22776536 30.7645919,1.18304543 30.8867814,1.18304543 C31.120299,1.18304543 31.3748604,1.34701851 31.6396042,1.68038527 C31.6640421,1.70748826 33.8064308,4.15014506 32.2627705,6.96614554 L31.244525,6.96614554 C31.9023116,5.70924446 32.353055,3.61282832 30.6905994,1.95615817 L30.6905994,1.95615817 Z M22.9105246,9.32207278 C22.9105246,8.59706785 23.5017859,8.00893301 24.2260979,8.00893301 C24.9524464,8.00893301 25.5409923,8.59910057 25.5409923,9.32207278 L25.5409923,16.1161143 C25.5409923,16.8411193 24.949731,17.4292541 24.2260979,17.4292541 C23.4990706,17.4292541 22.9105246,16.8390866 22.9105246,16.113404 L22.9105246,9.32207278 Z M7.10667504,16.4711635 C5.09937366,13.5142275 5.12313273,9.3512085 5.19440991,7.98250759 L21.8603741,7.98250759 C21.86852,8.13631705 21.876666,8.32942584 21.8787025,8.54624975 C21.9160382,10.4360056 21.7069584,14.5468513 19.3941834,17.1988787 C18.031092,18.7654314 16.1167904,19.5968156 13.7062638,19.6733815 C13.6770741,19.6733815 13.6478844,19.6788021 13.62141,19.6842227 C13.5901838,19.6815124 13.5609941,19.6815124 13.5263738,19.6815124 C13.4944687,19.6815124 13.4625637,19.6815124 13.433374,19.6842227 C13.4041843,19.6788021 13.3749946,19.6733815 13.3485202,19.6733815 C11.0893728,19.6022362 9.27553804,18.8582592 7.93416925,17.4793947 C7.84388481,17.3865669 7.74816973,17.2991598 7.66331593,17.201589 C7.458988,16.9685033 7.27909795,16.7225437 7.10667504,16.4711635 L7.10667504,16.4711635 Z M26.5273328,30.2631966 C26.5273328,30.9644864 25.9544,31.5336492 25.2518106,31.5336492 C24.5492211,31.5336492 23.9790036,30.9644864 23.9790036,30.2631966 L23.9790036,23.6622638 L26.5273328,23.6622638 L26.5273328,30.2631966 Z M34.5117355,11.2911049 C34.5117355,20.8089967 27.70714,22.484639 26.9332734,22.6431915 C26.930558,22.6431915 26.9278427,22.6459018 26.9251274,22.6459018 L20.6038591,22.6459018 C20.3228233,22.6459018 20.0947363,22.8735669 20.0947363,23.1540828 L20.0947363,32.8041017 C20.0947363,33.5053916 19.5218035,34.0745543 18.8192141,34.0745543 C18.1166246,34.0745543 17.5464071,33.5053916 17.5464071,32.8041017 L17.5464071,23.1540828 C17.5464071,22.8735669 17.3183201,22.6459018 17.0372844,22.6459018 L10.9889059,22.6459018 C10.7071913,22.6459018 10.4797831,22.8735669 10.4797831,23.1540828 L10.4797831,32.8041017 C10.4797831,33.5053916 9.90956559,34.0745543 9.20629734,34.0745543 C8.50370792,34.0745543 7.93145393,33.5053916 7.93145393,32.8041017 L7.93145393,18.8528386 C9.33934809,19.9776126 11.100234,20.5996262 13.1998563,20.684323 C13.2819948,20.7080381 13.3777099,20.7032951 13.4625637,20.7005848 L13.5236584,20.6978745 L13.5847532,20.7005848 C13.6268406,20.7032951 13.6668916,20.7060054 13.7089791,20.7060054 C13.7544608,20.7060054 13.7965482,20.7005848 13.8393145,20.6870333 C16.4962566,20.5813316 18.6230321,19.6313719 20.1578675,17.8656122 C20.9296977,16.9813772 21.4815867,15.9629825 21.8868485,14.920195 L21.8868485,16.1161143 C21.8868485,17.4001184 22.9342837,18.4456162 24.2206672,18.4456162 C25.5063719,18.4456162 26.5538072,17.4001184 26.5538072,16.1161143 L26.5538072,9.32207278 C26.5538072,8.82202265 26.3922456,8.36127185 26.1241076,7.98250759 L43.2061948,7.98250759 C43.909463,7.98250759 44.481717,8.55438064 44.481717,9.25296016 C44.481717,9.95424998 43.909463,10.5234127 43.2061948,10.5234127 L35.0208583,10.5234127 C34.7398225,10.5234127 34.5117355,10.7510778 34.5117355,11.0315938 L34.5117355,11.2911049 Z" id="Fill-7"></path>
                    </g>
                </g>
            </g>
            <g id="vrigt" transform="translate(531.000000, 30.000000)">
                <path d="M37.4232195,6.65878685 L35.4974354,8.5933223 L30.1428163,3.17662305 L32.0686004,1.24208761 C32.8201259,0.516636818 33.7595327,0.12972973 34.7459099,0.12972973 C35.7322871,0.12972973 36.671694,0.516636818 37.4232195,1.24208761 C38.174745,1.9675384 38.5505077,2.98316951 38.5505077,3.95043723 C38.5505077,4.91770495 38.174745,5.88497267 37.4232195,6.65878685 L37.4232195,6.65878685 Z M36.6247236,2.06426517 C36.1080499,1.53226793 35.4504651,1.290451 34.7928803,1.290451 C34.1352955,1.290451 33.4777107,1.53226793 32.9610369,2.06426517 L31.880719,3.17662305 L35.5913761,6.94896717 L36.671694,5.83660929 C37.1883678,5.30461204 37.4232195,4.62752464 37.4232195,3.95043723 C37.3762491,3.22498644 37.1413974,2.54789903 36.6247236,2.06426517 L36.6247236,2.06426517 Z M30.4246384,13.7682046 L16.2395949,28.1321303 L10.0395096,29.6797586 L9.10010279,29.9215756 L10.8849758,22.6670676 L24.9291083,8.44823214 L28.7337061,4.57916125 L34.0883251,9.99586049 C34.0883251,10.0442239 30.4246384,13.7682046 30.4246384,13.7682046 L30.4246384,13.7682046 Z M25.9624558,9.12531954 L11.9183234,23.3441551 L10.6970944,28.3255838 L15.6289804,27.0681358 L29.7670536,12.7525735 L32.4443631,10.0442239 L28.7337061,6.27187976 L25.9624558,9.12531954 L25.9624558,9.12531954 Z M17.3199128,6.46533331 C8.7713104,6.46533331 1.81969967,13.5263877 1.81969967,22.1834338 C1.81969967,30.8888433 8.7713104,37.9015343 17.3199128,37.9015343 C25.8685152,37.9015343 32.8201259,30.8404799 32.8201259,22.1834338 C32.8201259,20.3939885 32.5383038,18.6529066 31.9746597,17.0569149 L33.0080073,15.944557 C35.3095541,21.8932535 34.1822658,28.9059445 29.6261426,33.8390098 C23.2851463,40.7066107 12.5759082,41.0451544 5.8121788,34.5644606 C-0.951550555,28.1321303 -1.28034295,17.2987318 5.06065332,10.431131 C9.66374691,5.49806559 16.4744466,3.95043723 22.4866505,5.88497267 L21.5002733,6.94896717 C20.1851037,6.65878685 18.7759934,6.46533331 17.3199128,6.46533331 L17.3199128,6.46533331 Z" id="ic-general"></path>
            </g>
        </g>
    </g>
</svg>