<?xml version="1.0" encoding="UTF-8" standalone="no"?><!DOCTYPE svg PUBLIC "-//W3C//DTD SVG 1.1//EN" "http://www.w3.org/Graphics/SVG/1.1/DTD/svg11.dtd"><svg width="100%" height="100%" viewBox="0 0 101 98" version="1.1" xmlns="http://www.w3.org/2000/svg" xmlns:xlink="http://www.w3.org/1999/xlink" xml:space="preserve" style="fill-rule:evenodd;clip-rule:evenodd;"><g><g><path d="M37.751,85.353l3.959,0c0,0 5.279,9.369 8.766,9.369c3.394,0 8.484,-9.369 8.484,-9.369l4.241,0c19.135,0 34.783,-15.553 34.783,-34.572l0,-12.93c0,-19.019 -15.648,-34.572 -34.783,-34.572l-25.45,0c-19.135,0.094 -34.782,15.647 -34.782,34.572l0,12.93c0,19.019 15.647,34.572 34.782,34.572Z" style="fill:#58b2d8;"/><path d="M50.382,97.533c-3.959,0 -7.918,-5.34 -10.369,-9.369l-2.356,0c-20.738,0 -37.61,-16.771 -37.61,-37.383l0,-12.93c0,-20.612 16.872,-37.383 37.61,-37.383l25.45,0c20.738,0 37.61,16.771 37.61,37.383l0,12.93c0,20.612 -16.872,37.383 -37.61,37.383l-2.545,0c-2.356,3.935 -6.221,9.275 -10.18,9.369Zm-12.631,-91.349c-17.627,0 -31.954,14.241 -31.954,31.667l0,12.93c0,17.52 14.327,31.761 31.954,31.761l3.959,0c1.037,0 1.979,0.563 2.451,1.406c2.074,3.654 4.901,7.308 6.221,7.87c1.32,-0.656 4.053,-4.216 6.033,-7.87c0.471,-0.937 1.414,-1.499 2.45,-1.499l4.242,0c17.627,0 31.955,-14.241 31.955,-31.762l0,-12.836c0,-17.52 -14.328,-31.761 -31.955,-31.761l-25.356,0l0,0.094Z" style="fill:#1c3f4e;"/></g><g><rect id="path-1" x="41.75" y="43.191" width="15.909" height="15.303" style="fill:#fff;stroke:#979797;stroke-width:2px;"/><path d="M54.291,55.245c0.105,0.317 0.052,0.666 -0.139,0.939c-0.196,0.27 -0.504,0.431 -0.835,0.431l-6.165,0c-0.33,0 -0.641,-0.161 -0.834,-0.431c-0.193,-0.273 -0.244,-0.622 -0.14,-0.939l1.283,-3.895c-0.849,-0.778 -1.336,-1.872 -1.336,-3.058c0,-2.295 1.843,-4.162 4.11,-4.162c2.266,0 4.11,1.867 4.11,4.162c0,1.186 -0.487,2.28 -1.336,3.058l1.282,3.895Zm-12.276,-25.68c0,-4.588 3.687,-8.323 8.22,-8.323c4.533,0 8.22,3.735 8.22,8.323l0,8.323l-16.44,0l0,-8.323Zm22.604,8.514l0,-8.514c0,-8.032 -6.452,-14.565 -14.384,-14.565c-7.932,0 -14.385,6.533 -14.385,14.565l0,8.514c-1.194,0.431 -2.055,1.576 -2.055,2.93l0,18.727c0,2.869 2.306,5.201 5.138,5.201l22.604,0c2.832,0 5.137,-2.332 5.137,-5.201l0,-18.727c0,-1.354 -0.861,-2.499 -2.055,-2.93Z" style="fill:#fff;"/><g><path d="M37.167,40.371c-1.379,0 -2.5,1.103 -2.5,2.457l0,18.015c0,1.355 1.121,2.457 2.5,2.457l26.666,0c1.379,0 2.5,-1.102 2.5,-2.457l0,-18.015c0,-1.354 -1.121,-2.457 -2.5,-2.457l-26.666,0Zm26.666,24.567l-26.666,0c-2.299,0 -4.167,-1.838 -4.167,-4.095l0,-18.015c0,-2.257 1.868,-4.094 4.167,-4.094l26.666,0c2.299,0 4.167,1.837 4.167,4.094l0,18.015c0,2.257 -1.868,4.095 -4.167,4.095Z" style="fill:#1c3f4e;stroke:#1c3f4e;stroke-width:2px;"/><path d="M59.667,38.734l3.333,0l0,-9.008c0,-6.773 -5.607,-12.283 -12.5,-12.283c-6.893,0 -12.5,5.51 -12.5,12.283l0,9.008l3.333,0l0,-9.008c0,-4.967 4.114,-9.007 9.167,-9.007c5.053,0 9.167,4.04 9.167,9.007l0,9.008Zm4.166,1.637l-5,0c-0.46,0 -0.833,-0.366 -0.833,-0.818l0,-9.827c0,-4.063 -3.365,-7.37 -7.5,-7.37c-4.135,0 -7.5,3.307 -7.5,7.37l0,9.827c0,0.452 -0.373,0.818 -0.833,0.818l-5,0c-0.46,0 -0.834,-0.366 -0.834,-0.818l0,-9.827c0,-7.676 6.355,-13.921 14.167,-13.921c7.81,0 14.167,6.245 14.167,13.921l0,9.827c0,0.452 -0.374,0.818 -0.834,0.818Z" style="fill:#1c3f4e;stroke:#1c3f4e;stroke-width:2px;"/></g></g></g></svg>