<?xml version="1.0" encoding="utf-8"?>
<!-- Generator: Adobe Illustrator 21.0.0, SVG Export Plug-In . SVG Version: 6.00 Build 0)  -->
<svg version="1.1" id="Layer_1" xmlns="http://www.w3.org/2000/svg" xmlns:xlink="http://www.w3.org/1999/xlink" x="0px" y="0px"
	 viewBox="0 0 101 98" style="enable-background:new 0 0 101 98;" xml:space="preserve">
<style type="text/css">
	.st0{fill:#6DB86A;}
	.st1{fill:#385D37;}
	.st2{fill:#FFFFFF;}
	.st3{fill:none;stroke:#385D37;stroke-width:4;stroke-miterlimit:10;}
</style>
<title>green questionmark</title>
<desc>Created with Sketch.</desc>
<g id="Page-1">
	<path id="Shape" class="st0" d="M38.3,85.4h4c0,0,5.3,9.4,8.8,9.4c3.4,0,8.5-9.4,8.5-9.4h4.2c19.1,0,34.8-15.6,34.8-34.6V37.9
		c0-19-15.6-34.6-34.8-34.6H38.3C19.2,3.4,3.5,18.9,3.5,37.9v12.9C3.5,69.8,19.2,85.4,38.3,85.4L38.3,85.4z"/>
	<path id="Shape_1_" class="st1" d="M50.9,97.5c-4,0-7.9-5.3-10.4-9.4h-2.4c-20.7,0-37.6-16.8-37.6-37.4V37.9
		c0-20.6,16.9-37.4,37.6-37.4h25.5c20.7,0,37.6,16.8,37.6,37.4v12.9c0,20.6-16.9,37.4-37.6,37.4h-2.5C58.8,92.1,54.9,97.4,50.9,97.5
		L50.9,97.5L50.9,97.5z M38.3,6.2c-17.6,0-32,14.2-32,31.7v12.9c0,17.5,14.3,31.8,32,31.8h4c1,0,2,0.6,2.5,1.4
		c2.1,3.7,4.9,7.3,6.2,7.9c1.3-0.7,4.1-4.2,6-7.9c0.5-0.9,1.4-1.5,2.5-1.5h4.2c17.6,0,32-14.2,32-31.8V37.9
		c0-17.5-14.3-31.8-32-31.8L38.3,6.2L38.3,6.2z"/>
</g>
<g>
	<path class="st2" d="M53.3,52.1c0,0-1.4,0.9-4.5,0.9c-2.9,0-4.5-0.9-4.5-0.9c0-14.6,10.2-11.5,10.2-19.7c0-3.9-2.6-4.9-6.3-4.9
		c-4.5,0-7.5,1.7-7.5,1.7c-2.4-1.7-3.6-4.5-3.3-7.7c0,0,4.8-2.6,12.5-2.6c8.6,0,16.1,3,16.1,12.8C65.8,45.2,53.3,42.9,53.3,52.1z
		 M54.3,68c0,0-2,0.6-5.5,0.6c-3.7,0-5.5-0.6-5.5-0.6V57.7c0,0,1.7-0.6,5.5-0.6c3.5,0,5.5,0.6,5.5,0.6V68z"/>
</g>
<g>
	<path class="st3" d="M53.1,52.3c0,0-1.4,0.9-4.5,0.9c-2.9,0-4.5-0.9-4.5-0.9c0-14.6,10.2-11.5,10.2-19.7c0-3.9-2.6-4.9-6.3-4.9
		c-4.5,0-7.5,1.7-7.5,1.7c-2.4-1.7-3.6-4.5-3.3-7.7c0,0,4.8-2.6,12.5-2.6c8.6,0,16.1,3,16.1,12.8C65.6,45.4,53.1,43.1,53.1,52.3z
		 M54.2,68.2c0,0-2,0.6-5.5,0.6c-3.7,0-5.5-0.6-5.5-0.6V57.9c0,0,1.7-0.6,5.5-0.6c3.5,0,5.5,0.6,5.5,0.6V68.2z"/>
</g>
</svg>
